<svg xmlns="http://www.w3.org/2000/svg" viewBox="0 0 48 48"><defs><style>.cls-1{fill:#418fde;}</style></defs><title>Asset 889</title><g id="Layer_2" data-name="Layer 2"><g id="Icons"><path class="cls-1" d="M46.3999,24.3501C46.39014,24.33984,28,14,28,14V4a4,4,0,0,0-8,0V14L1.28,24.56982A2.94836,2.94836,0,0,0,0,27a2.99594,2.99594,0,0,0,3,3,2.8135,2.8135,0,0,0,.91992-.1499L20,25V40l-6.06006,4.31006a1.85718,1.85718,0,0,0-.44995.39014A1.938,1.938,0,0,0,13,46a2.00575,2.00575,0,0,0,2,2,1.49009,1.49009,0,0,0,.30005-.03027L24,45.10986l8.28,2.75A1.91685,1.91685,0,0,0,33,48a2.00575,2.00575,0,0,0,2-2,1.95681,1.95681,0,0,0-.40991-1.2002,1.77791,1.77791,0,0,0-.53-.48974L28,40V25l15.97,4.81006A2.94047,2.94047,0,0,0,45,30a2.99785,2.99785,0,0,0,1.3999-5.6499Z"/></g></g></svg>