<svg xmlns="http://www.w3.org/2000/svg" viewBox="0 0 42 42"><defs><style>.cls-1{fill:#418fde;}</style></defs><g id="Layer_2" data-name="Layer 2"><g id="FINAL"><path class="cls-1" d="M10,5A5,5,0,1,1,5,0,5,5,0,0,1,10,5ZM5,16a5,5,0,1,0,5,5A5,5,0,0,0,5,16ZM5,32a5,5,0,1,0,5,5A5,5,0,0,0,5,32ZM5,16a5,5,0,1,0,5,5A5,5,0,0,0,5,16ZM5,32a5,5,0,1,0,5,5A5,5,0,0,0,5,32ZM21,0a5,5,0,1,0,5,5A5,5,0,0,0,21,0Zm0,16a5,5,0,1,0,5,5A5,5,0,0,0,21,16Zm0,16a5,5,0,1,0,5,5A5,5,0,0,0,21,32ZM21,0a5,5,0,1,0,5,5A5,5,0,0,0,21,0Zm0,16a5,5,0,1,0,5,5A5,5,0,0,0,21,16Zm0,16a5,5,0,1,0,5,5A5,5,0,0,0,21,32ZM37,0a5,5,0,1,0,5,5A5,5,0,0,0,37,0Zm0,16a5,5,0,1,0,5,5A5,5,0,0,0,37,16Zm0,16a5,5,0,1,0,5,5A5,5,0,0,0,37,32ZM37,0a5,5,0,1,0,5,5A5,5,0,0,0,37,0Zm0,16a5,5,0,1,0,5,5A5,5,0,0,0,37,16Zm0,16a5,5,0,1,0,5,5A5,5,0,0,0,37,32Z"/></g></g></svg>