<svg xmlns="http://www.w3.org/2000/svg" viewBox="0 0 48 48"><defs><style>.cls-1{fill:#418fde;}</style></defs><title>Asset 735</title><g id="Layer_2" data-name="Layer 2"><g id="Icons"><path class="cls-1" d="M2,11H4.23071a8.99289,8.99289,0,0,0,17.53858,0h4.46142a8.99289,8.99289,0,0,0,17.53858,0H46a2,2,0,0,0,0-4H43.76929A8.99289,8.99289,0,0,0,26.23071,7H21.76929A8.99289,8.99289,0,0,0,4.23071,7H2a2,2,0,0,0,0,4ZM30.42377,7A4.93143,4.93143,0,1,1,30,9,5.0028,5.0028,0,0,1,30.42377,7Zm-22,0A4.93143,4.93143,0,1,1,8,9,5.0028,5.0028,0,0,1,8.42377,7Z"/><path class="cls-1" d="M47,23H17a1.003,1.003,0,0,0-1,1v3.99H31A3.01307,3.01307,0,0,1,34.01,31V48H48V24A1.003,1.003,0,0,0,47,23Z"/><path class="cls-1" d="M30,30H2a2.00587,2.00587,0,0,0-2,2V47.93L.07,48H31.99l.01-.01V32A2.00587,2.00587,0,0,0,30,30ZM25.5,45H6.5a1.5,1.5,0,0,1,0-3h19a1.5,1.5,0,0,1,0,3Zm0-6H6.5a1.5,1.5,0,0,1,0-3h19a1.5,1.5,0,0,1,0,3Z"/></g></g></svg>