<svg xmlns="http://www.w3.org/2000/svg" viewBox="0 0 38 48"><defs><style>.cls-1{fill:#418fde;}</style></defs><title>Asset 777</title><g id="Layer_2" data-name="Layer 2"><g id="Icons"><path class="cls-1" d="M2.09955,27.43848,6.896,46.62378A1.98034,1.98034,0,0,0,8.87671,48H28.71783a1.987,1.987,0,0,0,1.97345-1.34814L36,27H2Z"/><path class="cls-1" d="M36,21H2a2,2,0,0,0,0,4H36a2,2,0,0,0,0-4Z"/><path class="cls-1" d="M4,19a2.0001,2.0001,0,0,0,2-2,13,13,0,0,1,26,0,2,2,0,0,0,4,0A17,17,0,0,0,2,17,2.0001,2.0001,0,0,0,4,19Z"/></g></g></svg>