<svg xmlns="http://www.w3.org/2000/svg" viewBox="0 0 48 41"><defs><style>.cls-1{fill:#418fde;}</style></defs><title>Asset 894</title><g id="Layer_2" data-name="Layer 2"><g id="Icons"><path class="cls-1" d="M44,16V11A11.01245,11.01245,0,0,0,33,0H16.03027A11.02769,11.02769,0,0,0,5,11v5H4a3.999,3.999,0,0,0-4,4V30a3.999,3.999,0,0,0,4,4v3a4,4,0,0,0,8,0V34H36v3a4,4,0,0,0,8,0V34a3.999,3.999,0,0,0,4-4V20A3.999,3.999,0,0,0,44,16ZM11,11a5.02117,5.02117,0,0,1,5.03027-5H33a5.00588,5.00588,0,0,1,5,5v5H11ZM9,28a3,3,0,1,1,3-3A2.99594,2.99594,0,0,1,9,28Zm30-6a3,3,0,1,1-3,3A2.99594,2.99594,0,0,1,39,22Z"/></g></g></svg>