<svg xmlns="http://www.w3.org/2000/svg" viewBox="0 0 48.00007 48"><defs><style>.cls-1{fill:#418fde;}</style></defs><title>Asset 823</title><g id="Layer_2" data-name="Layer 2"><g id="Icons"><path class="cls-1" d="M24,14a2.0001,2.0001,0,0,0,2-2V2a2,2,0,0,0-4,0V12A2.0001,2.0001,0,0,0,24,14Z"/><path class="cls-1" d="M47.50492,5.68262a2,2,0,0,0-2.82227-.1875l-8,7a2,2,0,0,0,2.63477,3.00976l8-7A2.00007,2.00007,0,0,0,47.50492,5.68262Z"/><path class="cls-1" d="M9.99906,16a2,2,0,0,0,1.31836-3.50488l-8-7A2,2,0,1,0,.68265,8.50488l8,7A1.99484,1.99484,0,0,0,9.99906,16Z"/><path class="cls-1" d="M40,30H38V25.5A8.5,8.5,0,0,0,29.5,17h-11A8.5,8.5,0,0,0,10,25.5V30H8a2.00588,2.00588,0,0,0-2,2v9a2.00588,2.00588,0,0,0,2,2h2v1.86857A3.092,3.092,0,0,0,12.39553,47.94,3.008,3.008,0,0,0,16,45V43H32v1.86857A3.092,3.092,0,0,0,34.39553,47.94,3.008,3.008,0,0,0,38,45V43h2a2.00588,2.00588,0,0,0,2-2V32A2.00588,2.00588,0,0,0,40,30ZM15,25.5A3.50425,3.50425,0,0,1,18.5,22h11A3.50424,3.50424,0,0,1,33,25.5V30H15ZM13.5,39A2.5,2.5,0,1,1,16,36.5,2.501,2.501,0,0,1,13.5,39Zm21-5A2.5,2.5,0,1,1,32,36.5,2.501,2.501,0,0,1,34.5,34Z"/></g></g></svg>