<?xml version="1.0" encoding="utf-8"?>
<!-- Generator: Adobe Illustrator 24.1.0, SVG Export Plug-In . SVG Version: 6.00 Build 0)  -->
<svg version="1.1" id="Layer_1" xmlns="http://www.w3.org/2000/svg" xmlns:xlink="http://www.w3.org/1999/xlink" x="0px" y="0px"
	 viewBox="0 0 32 48" style="enable-background:new 0 0 32 48;" xml:space="preserve">
<style type="text/css">
	.st0{fill:#418FDE;}
</style>
<path class="st0" d="M11,38v1c0,0.6-0.4,1-1,1H8c-0.6,0-1-0.4-1-1v-1c0-0.6,0.4-1,1-1h2C10.6,37,11,37.4,11,38z M10,29H8
	c-0.6,0-1,0.4-1,1v1c0,0.6,0.4,1,1,1h2c0.6,0,1-0.4,1-1v-1C11,29.4,10.6,29,10,29z M16,18c1.1,0,2-0.9,2-2s-0.9-2-2-2s-2,0.9-2,2
	S14.9,18,16,18z M23.5,37h-8c-0.8,0-1.5,0.7-1.5,1.5s0.7,1.5,1.5,1.5h8c0.8,0,1.5-0.7,1.5-1.5S24.3,37,23.5,37z M20,23.4
	c0-1.9-1.5-3.4-3.4-3.4h-1.2c-1.9,0-3.4,1.5-3.4,3.4V25h8V23.4z M32,8.1v37.7c0,1.1-0.9,2.1-2,2.2H2c-1.1,0-2-1-2-2.2V8.1
	C0,7,0.9,6,2,6h5c0-1.1,0.9-2,2-2h3c0-2.2,1.8-4,4-4s4,1.8,4,4h3c1.1,0,2,0.9,2,2h5C31.1,6,32,7,32,8.1z M15,5c0,0.6,0.4,1,1,1
	s1-0.4,1-1s-0.4-1-1-1C15.4,4,15,4.4,15,5z M28,10h-3c0,1.1-0.9,2-2,2H9c-1.1,0-2-0.9-2-2H4v34h24V10z M23.5,29h-8
	c-0.8,0-1.5,0.7-1.5,1.5s0.7,1.5,1.5,1.5h8c0.8,0,1.5-0.7,1.5-1.5S24.3,29,23.5,29z"/>
</svg>
