<svg xmlns="http://www.w3.org/2000/svg" viewBox="0 0 48 48"><defs><style>.cls-1{fill:#418fde;}</style></defs><title>Asset 736</title><g id="Layer_2" data-name="Layer 2"><g id="Icons"><path class="cls-1" d="M46.03,14H1.97a.96454.96454,0,0,0-.97.97V33.03a.96456.96456,0,0,0,.97.97H46.03a.96452.96452,0,0,0,.97-.97V14.97A.9645.9645,0,0,0,46.03,14ZM8,27a3,3,0,1,1,3-3A2.996,2.996,0,0,1,8,27Zm16,4a7,7,0,1,1,7-7A6.99488,6.99488,0,0,1,24,31Zm16-4a3,3,0,1,1,3-3A2.99606,2.99606,0,0,1,40,27Z"/><path class="cls-1" d="M44.5,41.04492H5.12109l1.39453-1.39453A1.49984,1.49984,0,1,0,4.39453,37.5293L.43945,41.48438a1.50239,1.50239,0,0,0-.3258.49047l-.0072.02326a1.45749,1.45749,0,0,0,0,1.09356l.0072.02332a1.50254,1.50254,0,0,0,.3258.49048l3.95508,3.95508a1.49984,1.49984,0,0,0,2.12109-2.1211L5.12109,44.04492H44.5a1.5,1.5,0,0,0,0-3Z"/><path class="cls-1" d="M47.89355,4.9082l-.0072-.02319a1.50159,1.50159,0,0,0-.3258-.49048L43.60547.43945a1.49984,1.49984,0,0,0-2.12109,2.1211l1.39453,1.39453H3.5a1.5,1.5,0,1,0,0,3H42.87891L41.48438,8.34961a1.49984,1.49984,0,0,0,2.12109,2.12109l3.95508-3.95508a1.50144,1.50144,0,0,0,.3258-.49047l.0072-.0232a1.458,1.458,0,0,0,0-1.09375Z"/></g></g></svg>