<svg xmlns="http://www.w3.org/2000/svg" viewBox="0 0 47.99994 40.01158"><defs><style>.cls-1{fill:#418fde;}</style></defs><title>Asset 955</title><g id="Layer_2" data-name="Layer 2"><g id="Icons"><path class="cls-1" d="M41,0H26.99988a7,7,0,0,0-6.99994,7v3H20a9.00984,9.00984,0,0,1,9,9v5h6.00018l4.80475,4.80493a.7.7,0,0,0,1.195-.49487L41,24a7,7,0,0,0,6.99994-7V7A7,7,0,0,0,41,0Z"/><path class="cls-1" d="M20.00039,35h-8.0003L7.19486,39.80516a.7.7,0,0,1-1.195-.49494L5.99961,35h0A5.99961,5.99961,0,0,1,0,29.00039V18.99961A5.99961,5.99961,0,0,1,5.99961,13H20.00039A5.99961,5.99961,0,0,1,26,18.99961V29.00039A5.99961,5.99961,0,0,1,20.00039,35Z"/></g></g></svg>