<?xml version="1.0" encoding="utf-8"?>
<!-- Generator: Adobe Illustrator 24.1.0, SVG Export Plug-In . SVG Version: 6.00 Build 0)  -->
<svg version="1.1" id="Layer_1" xmlns="http://www.w3.org/2000/svg" xmlns:xlink="http://www.w3.org/1999/xlink" x="0px" y="0px"
	 viewBox="0 0 48 48" style="enable-background:new 0 0 48 48;" xml:space="preserve">
<style type="text/css">
	.st0{fill:#418FDE;}
</style>
<path class="st0" d="M26.5,31c-0.8,0-1.5-0.7-1.5-1.5V22h-2v7.5c0,0.8-0.7,1.5-1.5,1.5S20,30.3,20,29.5V14.3c-1.1,0.8-1.8,2-2,3.4
	c-0.1,0.8-0.9,1.4-1.7,1.3s-1.4-0.9-1.3-1.7c0.7-4.3,4.6-7.5,9-7.3c4.4-0.2,8.2,2.9,9,7.3c0.1,0.8-0.5,1.6-1.3,1.7
	c-0.1,0-0.1,0-0.2,0c-0.7,0-1.4-0.6-1.5-1.3c-0.2-1.4-0.9-2.6-2-3.4v15.2C28,30.3,27.3,31,26.5,31z M24,8c2.2,0,4-1.8,4-4
	s-1.8-4-4-4s-4,1.8-4,4S21.8,8,24,8z M11.6,25.6c-0.8-0.8-2.1-0.8-2.9,0c0,0,0,0,0,0c-0.8,0.8-0.8,2.2,0,3l3.8,3.6
	c0.5,0.5,0.5,1.3,0,1.7c-0.5,0.5-1.2,0.5-1.7,0c0,0,0,0,0,0L6,29V13c0-1.7-1.3-3-3-3c-1.7,0-3,1.3-3,3v17.4c0,0.8,0.3,1.6,0.9,2.1
	L12,44v4h9V38c0.1-1.8-0.6-3.6-1.8-4.9L11.6,25.6z M45,10c-1.7,0-3,1.3-3,3v16l-4.7,5c-0.5,0.5-1.2,0.5-1.7,0c0,0,0,0,0,0
	c-0.5-0.5-0.5-1.3,0-1.7l3.8-3.6c0.8-0.8,0.8-2.2,0-3c-0.8-0.8-2.1-0.8-2.9,0c0,0,0,0,0,0l-7.6,7.5c-1.3,1.3-1.9,3-1.8,4.9v10h9v-4
	l11.1-11.5c0.6-0.6,0.9-1.3,0.9-2.1V13C48,11.3,46.7,10,45,10z"/>
</svg>
