<svg xmlns="http://www.w3.org/2000/svg" viewBox="0 0 47.96002 48.00004"><defs><style>.cls-1{fill:#418fde;}</style></defs><title>Asset 737</title><g id="Layer_2" data-name="Layer 2"><g id="Icons"><path class="cls-1" d="M7.04,6.52a4.48,4.48,0,1,0,8.96,0A4.22709,4.22709,0,0,0,15.73,5H7.31A4.22688,4.22688,0,0,0,7.04,6.52Z"/><path class="cls-1" d="M18.02,15.1l-1.15,1.15-1.32,1.32L7.14,25.98H17V18.65a8.053,8.053,0,0,1,0,11.74V28.98H6v1.45A8.059,8.059,0,0,1,6,18.61v4.27l6.37-6.37,1.47-1.47,1.37-1.37a11.278,11.278,0,0,0-3.73-.63A11.47522,11.47522,0,0,0,6,34.6l.0224.011A.49285.49285,0,0,0,6.5,35h10a.49318.49318,0,0,0,.48206-.41119L17,34.58A11.46137,11.46137,0,0,0,18.02,15.1Z"/><path class="cls-1" d="M30.96,34.54c.01721.00977.03613.01679.05341.02643A.4941.4941,0,0,0,31.5,35h10a.49587.49587,0,0,0,.49164-.45855A11.47717,11.47717,0,1,0,30.96,34.54ZM42,30.34874V18.61137a8.04973,8.04973,0,0,1,0,11.73737ZM30.96,18.61c.01276-.01209.0271-.0224.04-.03436V30.38438c-.01288-.012-.02722-.02228-.04-.03436a8.05289,8.05289,0,0,1,0-11.74Z"/><path class="cls-1" d="M8,3h7a1.02348,1.02348,0,0,0,1-1.03979v-.915A1.02212,1.02212,0,0,0,14.89.00548l-7,.811A1.03229,1.03229,0,0,0,7,1.85625v.104A1.02348,1.02348,0,0,0,8,3Z"/><circle class="cls-1" cx="36.5" cy="6.50004" r="4.5"/><path class="cls-1" d="M17.57721,37.4431a1.51085,1.51085,0,0,0-2.13477,2.13855L16.85828,41H1.54486a1.5,1.5,0,1,0-.00006,3H16.85815l-1.41583,1.41834A1.51083,1.51083,0,1,0,17.577,47.55693l3.98065-3.98761a1.51368,1.51368,0,0,0,.00006-2.13855Z"/><path class="cls-1" d="M46.45514,41H31.14172l1.41584-1.41839a1.51085,1.51085,0,1,0-2.13477-2.13855l-3.98053,3.98767a1.51368,1.51368,0,0,0,.00006,2.13855L30.423,47.55693a1.51083,1.51083,0,1,0,2.13471-2.13855L31.14185,44H46.4552a1.5,1.5,0,1,0-.00006-3Z"/></g></g></svg>