<svg xmlns="http://www.w3.org/2000/svg" viewBox="0 0 47.99997 42"><defs><style>.cls-1{fill:#418fde;}</style></defs><title>Asset 778</title><g id="Layer_2" data-name="Layer 2"><g id="Icons"><path class="cls-1" d="M24,5a5.00181,5.00181,0,0,0,5-5H19A5.00181,5.00181,0,0,0,24,5Z"/><path class="cls-1" d="M47.7,10.31006,38.01,1,37.26.28a1.05456,1.05456,0,0,0-.7-.28H31a7.0077,7.0077,0,0,1-7,7,7.00771,7.00771,0,0,1-7-7H11.44a1.05461,1.05461,0,0,0-.7.28L9.99,1,.3,10.31006A1.002,1.002,0,0,0,.3,11.74l6.11,5.97a1.00214,1.00214,0,0,0,1.4,0L12,14V41a1.00292,1.00292,0,0,0,1,1H35a1.00291,1.00291,0,0,0,1-1V14l4.19,3.71a1.00214,1.00214,0,0,0,1.4,0l6.11-5.97A1.002,1.002,0,0,0,47.7,10.31006Z"/></g></g></svg>