<svg xmlns="http://www.w3.org/2000/svg" viewBox="0 0 47.99994 48"><defs><style>.cls-1{fill:#418fde;}</style></defs><title>Asset 680</title><g id="Layer_2" data-name="Layer 2"><g id="Icons"><circle class="cls-1" cx="23.99994" cy="24" r="5"/><path class="cls-1" d="M24.00037,15.99957A2.99957,2.99957,0,0,0,26.99994,13V2.99957a2.99958,2.99958,0,0,0-5.99915,0V13A2.99957,2.99957,0,0,0,24.00037,15.99957Z"/><path class="cls-1" d="M18.1095,18.10956a3.04018,3.04018,0,0,0,0-4.29944L5.18982.8905A3.04012,3.04012,0,0,0,.89044,5.18988L13.81006,18.10956A3.04018,3.04018,0,0,0,18.1095,18.10956Z"/><rect class="cls-1" x="3.99994" y="21" width="12" height="6" rx="2.98743"/><path class="cls-1" d="M14.08325,29.84357,4.84351,39.08331a2.88013,2.88013,0,0,0,4.07312,4.07312l9.23974-9.23974a2.88013,2.88013,0,1,0-4.07312-4.07312Z"/><path class="cls-1" d="M23.98816,32A3.00012,3.00012,0,0,0,20.988,35.00012v9.99976a3.00012,3.00012,0,0,0,6.00024,0V35.00012A3.00012,3.00012,0,0,0,23.98816,32Z"/><path class="cls-1" d="M33.95831,29.88525a2.88013,2.88013,0,0,0-4.07312,4.07312l5.15637,5.15638a2.88013,2.88013,0,0,0,4.07313-4.07312Z"/><path class="cls-1" d="M44.80811,21H35.19177a3.09692,3.09692,0,0,0-3.19183,2.99237v.00006a3.09692,3.09692,0,0,0,3.19183,2.99237H44.808a3.097,3.097,0,0,0,3.192-2.99237v-.00006A3.09692,3.09692,0,0,0,44.80811,21Z"/><path class="cls-1" d="M33.8288,18.15643l3.32757-3.23974a2.88013,2.88013,0,0,0-4.07312-4.07312l-3.23974,3.23974a2.88013,2.88013,0,0,0,0,4.07312A2.77526,2.77526,0,0,0,33.8288,18.15643Z"/></g></g></svg>