<svg xmlns="http://www.w3.org/2000/svg" viewBox="0 0 48 48"><defs><style>.cls-1{fill:#418fde;}</style></defs><title>Asset 739</title><g id="Layer_2" data-name="Layer 2"><g id="Icons"><path class="cls-1" d="M40.6,25.47a2.91677,2.91677,0,0,0,0-2.94,19.2225,19.2225,0,0,0-33.2,0,2.91677,2.91677,0,0,0,0,2.94,19.22244,19.22244,0,0,0,33.2,0ZM24,30a6,6,0,1,1,6-6A6.00472,6.00472,0,0,1,24,30Z"/><path class="cls-1" d="M36.5,13h10a1.5,1.5,0,0,0,0-3H40.12085l7.41333-7.41406A1.49984,1.49984,0,1,0,45.41309.46484L38,7.87872V1.5a1.5,1.5,0,0,0-3,0v10A1.50039,1.50039,0,0,0,36.5,13Z"/><path class="cls-1" d="M0,11.5A1.50039,1.50039,0,0,0,1.5,13h10A1.50039,1.50039,0,0,0,13,11.5V1.5a1.5,1.5,0,0,0-3,0V7.87872L2.58691.46484A1.49984,1.49984,0,0,0,.46582,2.58594L7.87915,10H1.5A1.50039,1.50039,0,0,0,0,11.5Z"/><path class="cls-1" d="M48,36.5A1.50039,1.50039,0,0,0,46.5,35h-10A1.50039,1.50039,0,0,0,35,36.5v10a1.5,1.5,0,0,0,3,0V40.12128l7.41309,7.41388a1.49984,1.49984,0,1,0,2.12109-2.1211L40.12085,38H46.5A1.50039,1.50039,0,0,0,48,36.5Z"/><path class="cls-1" d="M11.5,35H1.5a1.5,1.5,0,0,0,0,3H7.87915L.46582,45.41406a1.49984,1.49984,0,1,0,2.12109,2.1211L10,40.12128V46.5a1.5,1.5,0,0,0,3,0v-10A1.50039,1.50039,0,0,0,11.5,35Z"/></g></g></svg>