<svg xmlns="http://www.w3.org/2000/svg" viewBox="0 0 48 48"><defs><style>.cls-1{fill:#418fde;}</style></defs><title>Asset 673</title><g id="Layer_2" data-name="Layer 2"><g id="Icons"><circle class="cls-1" cx="23.99988" cy="24" r="6"/><path class="cls-1" d="M32,18h9a2,2,0,0,0,0-4H36.82812L47.41406,3.41406A1.99978,1.99978,0,1,0,44.58594.58594L34,11.17188V7a2,2,0,0,0-4,0v9A2.0001,2.0001,0,0,0,32,18Z"/><path class="cls-1" d="M11.17188,14H7a2,2,0,0,0,0,4h9a2.0001,2.0001,0,0,0,2-2V7a2,2,0,0,0-4,0v4.17188L3.41406.58594A1.99978,1.99978,0,0,0,.58594,3.41406Z"/><path class="cls-1" d="M36.82812,34H41a2,2,0,0,0,0-4H32a2.0001,2.0001,0,0,0-2,2v9a2,2,0,0,0,4,0V36.82812L44.58594,47.41406a1.99978,1.99978,0,0,0,2.82812-2.82812Z"/><path class="cls-1" d="M16,30H7a2,2,0,0,0,0,4h4.17188L.58594,44.58594a1.99978,1.99978,0,1,0,2.82812,2.82812L14,36.82812V41a2,2,0,0,0,4,0V32A2.0001,2.0001,0,0,0,16,30Z"/></g></g></svg>