<svg xmlns="http://www.w3.org/2000/svg" viewBox="0 0 43.01579 48"><defs><style>.cls-1{fill:#418fde;}</style></defs><title>Asset 824</title><g id="Layer_2" data-name="Layer 2"><g id="Icons"><path class="cls-1" d="M11.00069,24h3v2a2.00583,2.00583,0,0,0,2,2h10a2.00583,2.00583,0,0,0,2-2V24h3a2.99688,2.99688,0,0,0,.38-5.97,12,12,0,1,0-20.76,0,2.96385,2.96385,0,0,0-1.74.84985A2.99822,2.99822,0,0,0,11.00069,24Zm9-5v2a1,1,0,0,1-2,0V19a1,1,0,0,1,2,0Zm2,0a1,1,0,0,1,2,0v2a1,1,0,0,1-2,0Zm4.5-9a2.5,2.5,0,1,1-2.5,2.5A2.501,2.501,0,0,1,26.50069,10Zm-11,0a2.5,2.5,0,1,1-2.5,2.5A2.501,2.501,0,0,1,15.50069,10Z"/><path class="cls-1" d="M41.12276,30.07422l-1.11621-.2793.60644-.959a2.49983,2.49983,0,1,0-4.22461-2.67383L34.3337,29.40869,21.00069,34.999,7.90877,29.51587l-1.06238-2.8811A2.49985,2.49985,0,1,0,2.155,28.36328l.53222,1.44531-.96191.31348A2.50023,2.50023,0,1,0,3.27608,34.876l2.51746-.82129L14.00069,37.499,9.72457,39.31689,7.61885,38.26367a2.49942,2.49942,0,0,0-2.23633,4.47071l1.18165.59179-.458,1.3916a2.5002,2.5002,0,1,0,4.75,1.5625l.76953-2.33838L20.988,39.999l9.365,3.94385.77466,2.34131a2.49957,2.49957,0,0,0,4.7461-1.57031l-.457-1.38282,1.19532-.59277a2.49986,2.49986,0,1,0-2.22266-4.47851l-2.13342,1.05908L28.00069,37.499l8.27893-3.4834,3.6283.90821A2.47432,2.47432,0,0,0,40.51729,35a2.50045,2.50045,0,0,0,.60547-4.92578Z"/></g></g></svg>