<svg xmlns="http://www.w3.org/2000/svg" viewBox="0 0 48 48"><defs><style>.cls-1{fill:#418fde;}</style></defs><title>Asset 708</title><g id="Layer_2" data-name="Layer 2"><g id="Icons"><path class="cls-1" d="M25.19867,7.5719a4,4,0,1,0-1.7688-5.37323v.00006A4,4,0,0,0,25.19867,7.5719Z"/><circle class="cls-1" cx="42.5" cy="20.50171" r="4.5"/><circle class="cls-1" cx="40" cy="34.00171" r="2"/><circle class="cls-1" cx="44.5" cy="38.50171" r="1.5"/><path class="cls-1" d="M45.00085,42.00171H38.94958a3.49,3.49,0,0,0-3.44958-3H31.19177A5.9926,5.9926,0,0,0,26,36H24.27631a12.01031,12.01031,0,0,0-2.94654-12.44916l.84662-1.67761,4.7381,2.47229a1.96962,1.96962,0,0,0,3.24445,1.69287l7.25268,3.78436a1.5053,1.5053,0,0,0,.69385.16992h7.71631a1.5,1.5,0,0,0,0-3H38.47314L31.40594,23.305c1.403-5.57867-1.27-11.2569-6.77667-14.07275-.04089-.02265-.07458-.05317-.1167-.07441l-1.43249-.723A4.04349,4.04349,0,0,0,17.6485,10.223l-4.68787,9.28912a1.47341,1.47341,0,0,0-.08508.13336L4.52612,36.18994A5.99657,5.99657,0,0,0,6,48H45.00085a2.99915,2.99915,0,1,0,0-5.99829ZM9.108,36,15.1087,24.10956a1.98091,1.98091,0,0,0,.23767.13372c4.674,2.04322,6.76319,6.86841,4.85962,11.22382A1.9772,1.9772,0,0,0,20.06525,36ZM27.70386,21.37329l-4.1756-2.17883,2.1264-4.21351A8.151,8.151,0,0,1,27.70386,21.37329Z"/></g></g></svg>