<svg xmlns="http://www.w3.org/2000/svg" viewBox="0 0 47.9712 47.99046"><defs><style>.cls-1{fill:#418fde;}</style></defs><title>Asset 740</title><g id="Layer_2" data-name="Layer 2"><g id="Icons"><path class="cls-1" d="M18.84961,23.88951A7.2572,7.2572,0,0,0,8.794,24.25l-8.134,8.1341a2.25338,2.25338,0,0,0,0,3.18658L7.4314,42.34221a2.25334,2.25334,0,0,0,3.18664,0l8.36487-8.36481A7.04151,7.04151,0,0,0,18.84961,23.88951Z"/><path class="cls-1" d="M47.76953,2.75035V2.75029a4,4,0,0,0-7.59888,2.50153v.00006a4,4,0,0,0,7.59888-2.50153Z"/><path class="cls-1" d="M44.44824,18.05241a4.93644,4.93644,0,0,0-2.29175-6.59234l-2.64233-1.3335a2.09759,2.09759,0,0,0-.44824-.16089c-6.8501-2.98217-15.42957.30921-18.86695,7.02594a2.06789,2.06789,0,1,0,3.68165,1.88416,11.18565,11.18565,0,0,1,11.08056-5.81287l-16.762,31.89191A2.08721,2.08721,0,1,0,21.918,46.8513l9.313-17.71917,3.74975,1.87567a10.4372,10.4372,0,0,1,4.22583,13.93353,2.0868,2.0868,0,1,0,3.704,1.9234,14.27614,14.27614,0,0,0-3.88464-18.1206l1.76465-3.40247Z"/></g></g></svg>