<svg xmlns="http://www.w3.org/2000/svg" viewBox="0 0 44 44"><defs><style>.cls-1{fill:#418fde;}</style></defs><title>Asset 842</title><g id="Layer_2" data-name="Layer 2"><g id="Icons"><path class="cls-1" d="M22,0A22,22,0,1,0,44,22,22.00047,22.00047,0,0,0,22,0ZM32.12012,27.87988a3.0001,3.0001,0,0,1,0,4.24024,2.99421,2.99421,0,0,1-4.24024,0L22,26l-5.87988,6.12012a2.99421,2.99421,0,0,1-4.24024,0,3.0001,3.0001,0,0,1,0-4.24024L18,22l-6.12012-5.87988a2.9983,2.9983,0,0,1,4.24024-4.24024L22,18l5.87988-6.12012a2.9983,2.9983,0,0,1,4.24024,4.24024L26,22Z"/></g></g></svg>