<svg xmlns="http://www.w3.org/2000/svg" viewBox="0 0 44 32"><defs><style>.cls-1{fill:#418fde;}</style></defs><g id="Layer_2" data-name="Layer 2"><g id="FINAL"><path class="cls-1" d="M37,.94V0l7,7H37.78A.781.781,0,0,1,37,6.22ZM18,14H17a1.00067,1.00067,0,0,0-1,1v6a1.00067,1.00067,0,0,0,1,1h1a1.00067,1.00067,0,0,0,1-1V15A1.00067,1.00067,0,0,0,18,14ZM9,14H7v8H9a1.00067,1.00067,0,0,0,1-1V15A1.00067,1.00067,0,0,0,9,14ZM44,9V30a2.00006,2.00006,0,0,1-2,2H2a2.00006,2.00006,0,0,1-2-2V2A2,2,0,0,1,2,0H35V6.21973A2.78322,2.78322,0,0,0,37.78027,9ZM12,15a3.00328,3.00328,0,0,0-3-3H6a.99943.99943,0,0,0-1,1V23a.99943.99943,0,0,0,1,1H9a3.00328,3.00328,0,0,0,3-3Zm9,0a3.00328,3.00328,0,0,0-3-3H17a3.00328,3.00328,0,0,0-3,3v6a3.00328,3.00328,0,0,0,3,3h1a3.00328,3.00328,0,0,0,3-3Zm4,6V15a1.00067,1.00067,0,0,1,1-1h3a1,1,0,0,0,0-2H26a3.00328,3.00328,0,0,0-3,3v6a3.00328,3.00328,0,0,0,3,3h3a1,1,0,0,0,0-2H26A1.00067,1.00067,0,0,1,25,21Zm11.61816-3,2.27637-4.55273a1.00012,1.00012,0,1,0-1.78906-.89454L35.5,15.76367l-1.60547-3.21094a1.00012,1.00012,0,1,0-1.78906.89454L34.38184,18l-2.27637,4.55273a1.00012,1.00012,0,0,0,1.78906.89454L35.5,20.23633l1.60547,3.21094a1.00012,1.00012,0,0,0,1.78906-.89454Z"/></g></g></svg>