<svg xmlns="http://www.w3.org/2000/svg" viewBox="0 0 48 48"><defs><style>.cls-1{fill:#418fde;}</style></defs><title>Asset 939</title><g id="Layer_2" data-name="Layer 2"><g id="Icons"><path class="cls-1" d="M7.87891,33.12109l14,14a2.99889,2.99889,0,0,0,4.24218,0l14-14a2.99967,2.99967,0,1,0-4.24218-4.24218L27,37.75781V12a3,3,0,0,0-6,0V37.75781l-8.87891-8.8789a2.99967,2.99967,0,1,0-4.24218,4.24218Z"/><path class="cls-1" d="M45.79883,0H2.20117A2.37347,2.37347,0,0,0,0,2.51428v8.97144A2.37347,2.37347,0,0,0,2.20117,14H18V12a6,6,0,0,1,12,0v2H45.79883A2.3733,2.3733,0,0,0,48,11.48572V2.51428A2.3733,2.3733,0,0,0,45.79883,0ZM36,9a2,2,0,1,1,2-2A2.00006,2.00006,0,0,1,36,9Zm7,0a2,2,0,1,1,2-2A2.00006,2.00006,0,0,1,43,9Z"/></g></g></svg>