<svg xmlns="http://www.w3.org/2000/svg" viewBox="0 0 48 47.99989"><defs><style>.cls-1{fill:#418fde;}</style></defs><title>Asset 722</title><g id="Layer_2" data-name="Layer 2"><g id="Icons"><path class="cls-1" d="M13.21454,30.98628a7.94336,7.94336,0,0,1,3.44537-.98639,8.67344,8.67344,0,0,1,4.63013,1.24,4.63739,4.63739,0,0,0,2.71.76,4.62642,4.62642,0,0,0,2.7-.76,11.06826,11.06826,0,0,1,1.87012-.85,12.27607,12.27607,0,0,1,3.18994-.39H32a19.852,19.852,0,0,0-5.73-10.27l-.01587-.01288a10.77669,10.77669,0,0,1-.07373-15.361A2.60007,2.60007,0,0,0,26.46509.95387a2.50081,2.50081,0,0,0-3.73267-.222,15.84726,15.84726,0,0,0-4.70019,11.26807,15.55962,15.55962,0,0,0,2.96777,9l-.09009.1L13.03583,30.7483A.15255.15255,0,0,0,13.21454,30.98628Z"/><path class="cls-1" d="M46,41.99989a8.603,8.603,0,0,0-4.62,1.24,5.22951,5.22951,0,0,1-5.43005,0,8.60316,8.60316,0,0,0-4.61987-1.24,8.44567,8.44567,0,0,0-3.22009.57,9.30909,9.30909,0,0,0-1.41.67c-.26.14-.49.27-.73.38h-.01a4.30888,4.30888,0,0,1-1.96.38,4.63739,4.63739,0,0,1-2.71-.76,8.67344,8.67344,0,0,0-4.63013-1.24,8.60323,8.60323,0,0,0-4.61993,1.24,4.68345,4.68345,0,0,1-2.71.76,4.68375,4.68375,0,0,1-2.71-.76,8.60314,8.60314,0,0,0-4.62-1.24,2,2,0,0,0,0,4,4.68375,4.68375,0,0,1,2.71.76,8.603,8.603,0,0,0,4.62,1.24,8.60331,8.60331,0,0,0,4.62-1.24,4.68352,4.68352,0,0,1,2.7099-.76,4.6607,4.6607,0,0,1,2.71009.76,8.64407,8.64407,0,0,0,4.63,1.24,8.632,8.632,0,0,0,4.62-1.24,5.21166,5.21166,0,0,1,5.42,0,9.24531,9.24531,0,0,0,9.25,0,4.66026,4.66026,0,0,1,2.71-.76,2,2,0,0,0,0-4Z"/><path class="cls-1" d="M2,37.99989a4.69126,4.69126,0,0,1,2.707.75586A8.58031,8.58031,0,0,0,9.3291,39.99989a8.58819,8.58819,0,0,0,4.624-1.24414,4.69237,4.69237,0,0,1,2.708-.75586,4.6957,4.6957,0,0,1,2.709.75586,8.58937,8.58937,0,0,0,4.625,1.24414,8.5833,8.5833,0,0,0,4.624-1.24463,5.23561,5.23561,0,0,1,5.41895.00049,9.22042,9.22042,0,0,0,9.251,0A4.70237,4.70237,0,0,1,46,37.99989a2,2,0,0,0,0-4A8.58937,8.58937,0,0,0,41.375,35.244a5.24115,5.24115,0,0,1-5.42285,0,8.59052,8.59052,0,0,0-4.626-1.24414A8.58149,8.58149,0,0,0,26.70312,35.244a4.69232,4.69232,0,0,1-2.708.75586,4.69572,4.69572,0,0,1-2.709-.75586,8.58937,8.58937,0,0,0-4.625-1.24414,8.58822,8.58822,0,0,0-4.624,1.24414,4.69237,4.69237,0,0,1-2.708.75586,4.69019,4.69019,0,0,1-2.70605-.75537A8.57658,8.57658,0,0,0,2,33.99989a2,2,0,0,0,0,4Z"/><circle class="cls-1" cx="35" cy="18.99989" r="5"/></g></g></svg>