<svg xmlns="http://www.w3.org/2000/svg" viewBox="0 0 48 30"><defs><style>.cls-1{fill:#418fde;}</style></defs><title>Asset 908</title><g id="Layer_2" data-name="Layer 2"><g id="Icons"><path class="cls-1" d="M46,0H2A2.00583,2.00583,0,0,0,0,2V28a2.00583,2.00583,0,0,0,2,2H46a2.00583,2.00583,0,0,0,2-2V2A2.00583,2.00583,0,0,0,46,0ZM13.3,20.52l-7,6a2.00011,2.00011,0,0,1-2.6-3.04l7-6a2.00011,2.00011,0,0,1,2.6,3.04ZM44.52,26.2998A2.00018,2.00018,0,0,1,41.7,26.52l-7-6a2.00011,2.00011,0,0,1,2.6-3.04l7,6A1.99772,1.99772,0,0,1,44.52,26.2998ZM44.19,6.60986l-19,14a2.00993,2.00993,0,0,1-2.38,0l-19-14A2.00194,2.00194,0,1,1,6.19,3.39014L24,16.52,41.81,3.39014a2.00194,2.00194,0,1,1,2.38,3.21972Z"/></g></g></svg>