<svg xmlns="http://www.w3.org/2000/svg" viewBox="0 0 47.99384 45.00011"><defs><style>.cls-1{fill:#418fde;}</style></defs><title>Asset 662</title><g id="Layer_2" data-name="Layer 2"><g id="Icons"><polygon class="cls-1" points="22.731 17 20.261 19.47 25.531 24.74 28.541 21.73 23.271 16.46 22.731 17"/><path class="cls-1" d="M.5858,39.14291a1.99989,1.99989,0,0,0,0,2.82837l2.443,2.443a1.99986,1.99986,0,0,0,2.82843,0L24.02257,26.24886,18.75114,20.9775Z"/><path class="cls-1" d="M47.37132,16.46005l-3.78-3.76a1.06853,1.06853,0,0,0-1.5,0l-1.51,1.51-2.26-2.26,1.4-1.39991a1.05622,1.05622,0,0,0-.01-1.49l-4.09-4.09008-.43-.42994-1.08-1.08007a11.77608,11.77608,0,0,0-8.31-3.46,11.57208,11.57208,0,0,0-7.42,2.64,1.057,1.057,0,0,0-.07,1.58l6.76,6.76a2.30678,2.30678,0,0,1,.68,1.02,3.02012,3.02012,0,0,1-.64,2.61l-.34.34,2.05,2.05,3.23,3.22,2.25-2.25,2.26,2.25-1.51,1.52a1.05037,1.05037,0,0,0,0,1.5l3.77,3.76a2.14246,2.14246,0,0,0,3.02,0l7.53-7.53A2.13052,2.13052,0,0,0,47.37132,16.46005Z"/></g></g></svg>