<svg xmlns="http://www.w3.org/2000/svg" viewBox="0 0 48 48.00024"><defs><style>.cls-1{fill:#418fde;}</style></defs><g id="Layer_2" data-name="Layer 2"><g id="FINAL"><path class="cls-1" d="M48,4.00012a3.98883,3.98883,0,0,1-1.17139,2.82862l-20,19a4.0006,4.0006,0,0,1-5.65722,0l-20.00025-19A4.00027,4.00027,0,0,1,6.82837,1.17151L24,17.00024,41.17139,1.17151A4,4,0,0,1,48,4.00012ZM46.82861,22.17151a4.0006,4.0006,0,0,0-5.65722,0L24,38.00024,6.82837,22.17151a4.00027,4.00027,0,0,0-5.65723,5.65723l20.00025,19a4.0006,4.0006,0,0,0,5.65722,0l20-19a4.0009,4.0009,0,0,0,0-5.65723Z"/></g></g></svg>