<svg xmlns="http://www.w3.org/2000/svg" viewBox="0 0 48.00024 48"><defs><style>.cls-1{fill:#418fde;}</style></defs><g id="Layer_2" data-name="Layer 2"><g id="FINAL"><path class="cls-1" d="M4.00012,0A3.98883,3.98883,0,0,1,6.82874,1.17139l19,20a4.0006,4.0006,0,0,1,0,5.65722l-19,20.00025a4.00027,4.00027,0,0,1-5.65723-5.65723L17.00024,24,1.17151,6.82861A4,4,0,0,1,4.00012,0ZM22.17151,1.17139a4.0006,4.0006,0,0,0,0,5.65722L38.00024,24,22.17151,41.17163a4.00027,4.00027,0,0,0,5.65723,5.65723l19-20.00025a4.0006,4.0006,0,0,0,0-5.65722l-19-20a4.0009,4.0009,0,0,0-5.65723,0Z"/></g></g></svg>