<svg xmlns="http://www.w3.org/2000/svg" viewBox="0 0 48.00024 48"><defs><style>.cls-1{fill:#418fde;}</style></defs><g id="Layer_2" data-name="Layer 2"><g id="FINAL"><path class="cls-1" d="M44.00012,48a3.98886,3.98886,0,0,1-2.82861-1.17139l-19-20a4.0006,4.0006,0,0,1,0-5.65722l19-20.00025a4.00027,4.00027,0,0,1,5.65723,5.65723L31,24,46.82874,41.17139A4,4,0,0,1,44.00012,48ZM25.82874,46.82861a4.0006,4.0006,0,0,0,0-5.65722L10,24,25.82874,6.82837a4.00027,4.00027,0,0,0-5.65723-5.65723l-19,20.00025a4.0006,4.0006,0,0,0,0,5.65722l19,20a4.0009,4.0009,0,0,0,5.65723,0Z"/></g></g></svg>