<svg xmlns="http://www.w3.org/2000/svg" viewBox="0 0 48 30"><defs><style>.cls-1{fill:#418fde;}</style></defs><title>Asset 741</title><g id="Layer_2" data-name="Layer 2"><g id="Icons"><path class="cls-1" d="M47,0H6A1.00291,1.00291,0,0,0,5,1V7H21.02A6.505,6.505,0,0,1,31.98,7H42a3.00879,3.00879,0,0,1,3,3V21h2a1.00291,1.00291,0,0,0,1-1V1A1.00291,1.00291,0,0,0,47,0Z"/><path class="cls-1" d="M42,9H1a1.00291,1.00291,0,0,0-1,1V29a1.00291,1.00291,0,0,0,1,1H42a1.00291,1.00291,0,0,0,1-1V10A1.00291,1.00291,0,0,0,42,9ZM6,23a2.99507,2.99507,0,0,1-1-5.82A2.77244,2.77244,0,0,1,6,17a2.996,2.996,0,0,1,3,3,2.77474,2.77474,0,0,1-.17993,1A2.968,2.968,0,0,1,6,23Zm15.5,3a6.48918,6.48918,0,0,1-6.32007-5A6.169,6.169,0,0,1,15,19.5a6.48685,6.48685,0,0,1,5.53-6.42A5.21907,5.21907,0,0,1,21.5,13,6.48854,6.48854,0,0,1,28,19.5a6.169,6.169,0,0,1-.17993,1.5A6.48918,6.48918,0,0,1,21.5,26ZM37,22.5A2.99551,2.99551,0,1,1,39.6,21,2.99617,2.99617,0,0,1,37,22.5Z"/></g></g></svg>