<svg xmlns="http://www.w3.org/2000/svg" viewBox="0 0 48 48"><defs><style>.cls-1{fill:#418fde;}</style></defs><title>Asset 825</title><g id="Layer_2" data-name="Layer 2"><g id="Icons"><path class="cls-1" d="M45.25,0H2.75A2.74842,2.74842,0,0,0,0,2.75v28.5A2.74842,2.74842,0,0,0,2.75,34H17.26a15.19573,15.19573,0,0,1,.56006-2c.11987-.34009.25-.66992.38989-1,.14-.34009.30005-.66992.47-1h-3.99a8.406,8.406,0,0,1,.38013-7.51l5.11,5.11011h-.00012L21.61,29.03a10.21026,10.21026,0,0,0-.65.97c-.19995.32007-.38989.65991-.55994,1A9.90447,9.90447,0,0,0,19.95,32a12.95218,12.95218,0,0,0-.6499,2,14.74231,14.74231,0,0,0,3.21,13.26,2.0692,2.0692,0,0,0,1.46.73.757.757,0,0,0,.15.01,2.11584,2.11584,0,0,0,1.4-.52,2.14006,2.14006,0,0,0,.22-3.02A10.73253,10.73253,0,0,1,23.75,34a10.164,10.164,0,0,1,2.53-4l.75-.75.65991-.66016.46008-.46L28.78,27.5,31.27,30H29.15s-.53283.4436-1.024.93481c-.08789.0879-.20166.21119-.32483.34864A9.79452,9.79452,0,0,0,25.89,34H45.25A2.74842,2.74842,0,0,0,48,31.25V2.75A2.74842,2.74842,0,0,0,45.25,0ZM15.68994,15.26l-.23.2c-4.59,4.3501-6.37988,9.77-5.02,14.54H4V4H18.77a.43523.43523,0,0,0,.04.07007C21.14,7.76,20.09009,11.52,15.68994,15.26ZM44,30H36.72l-6.6-6.6001-8.57-8.56982C24.07007,11.33984,24.66992,7.58984,23.24,4H44Z"/><circle class="cls-1" cx="10" cy="12" r="4"/></g></g></svg>