<svg xmlns="http://www.w3.org/2000/svg" viewBox="0 0 35.99269 48"><defs><style>.cls-1{fill:#418fde;}</style></defs><title>Asset 742</title><g id="Layer_2" data-name="Layer 2"><g id="Icons"><path class="cls-1" d="M34.84632,28.49,26.99635,13h-18l-7.85,15.49a13.95831,13.95831,0,0,0,2.83,15.28,13.81547,13.81547,0,0,0,10.02,4.23h8a13.81547,13.81547,0,0,0,10.02-4.23A13.95829,13.95829,0,0,0,34.84632,28.49ZM18.99635,38v1.5a1.5,1.5,0,0,1-3,0V38h-.5a1.5,1.5,0,0,1,0-3h2.95a1.50082,1.50082,0,1,0,0-3h-.8899a4.49291,4.49291,0,0,1-1.56005-8.73V21.5a1.5,1.5,0,0,1,3,0V23h1.5a1.5,1.5,0,0,1,0,3H17.5564a1.50116,1.50116,0,1,0,0,3h.8899a4.51478,4.51478,0,0,1,.55,9Z"/><path class="cls-1" d="M8.99269,11h8L15.34437,3.5661A2.00006,2.00006,0,0,0,13.392,2H7.99269a.9999.9999,0,0,0-.97607,1.21692Z"/><path class="cls-1" d="M22.99635,11h3.99634l1.984-9.82a1.00452,1.00452,0,0,0-.99-1.18H24.99635a2.0296,2.0296,0,0,0-2.00366,2,2.018,2.018,0,0,0-1.99036-2h-3a1.00452,1.00452,0,0,0-.99,1.18L18.99269,11Z"/></g></g></svg>