<svg xmlns="http://www.w3.org/2000/svg" viewBox="0 0 43.99023 48"><defs><style>.cls-1{fill:#418fde;}</style></defs><title>Asset 896</title><g id="Layer_2" data-name="Layer 2"><g id="Icons"><path class="cls-1" d="M23.5,45H1.5a1.5,1.5,0,0,0,0,3h22a1.5,1.5,0,0,0,0-3Z"/><path class="cls-1" d="M43.40723,4.59277a1.98986,1.98986,0,0,0-2.81446,0l-6,6A1.98981,1.98981,0,0,0,34.00977,12V37.5a1.50977,1.50977,0,0,1-3.01954,0V27A6.99806,6.99806,0,0,0,24,20.00977V2a2.00583,2.00583,0,0,0-2-2H3A2.00583,2.00583,0,0,0,1,2V41a2.00583,2.00583,0,0,0,2,2H22a2.00583,2.00583,0,0,0,2-2V23.99023A3.01371,3.01371,0,0,1,27.00977,27V37.5a5.49023,5.49023,0,1,0,10.98046,0V15.99023H41a1.99023,1.99023,0,0,0,0-3.98046H38.80469l4.60254-4.60254A1.98986,1.98986,0,0,0,43.40723,4.59277ZM21,17a1.003,1.003,0,0,1-1,1H5a1.003,1.003,0,0,1-1-1V5A1.003,1.003,0,0,1,5,4H20a1.003,1.003,0,0,1,1,1Z"/></g></g></svg>