<svg xmlns="http://www.w3.org/2000/svg" viewBox="0 0 37 48"><defs><style>.cls-1{fill:#418fde;}</style></defs><title>Asset 963</title><g id="Layer_2" data-name="Layer 2"><g id="Icons"><path class="cls-1" d="M12.5022,6.99878a1.5,1.5,0,0,0,1.5-1.5V1.5a1.5,1.5,0,0,0-3,0V5.49878A1.5,1.5,0,0,0,12.5022,6.99878Z"/><path class="cls-1" d="M5.4989,10.99548H1.5a1.5,1.5,0,0,0,0,3H5.4989a1.5,1.5,0,0,0,0-3Z"/><path class="cls-1" d="M5.55957,3.43823A1.5,1.5,0,0,0,3.43823,5.55957L6.44116,8.56238A1.5,1.5,0,1,0,8.5625,6.44116Z"/><path class="cls-1" d="M11,22a2,2,0,0,0,4,0,7.40365,7.40365,0,0,1,5-7L16,33.98A.92.92,0,0,0,16.99,35h2V46a2,2,0,0,0,4,0V10C15.98,10.42993,11,15.36,11,22Z"/><path class="cls-1" d="M19.99,4a4.14548,4.14548,0,0,0,3,4V0A4.14548,4.14548,0,0,0,19.99,4Z"/><path class="cls-1" d="M25.01,10V46a2,2,0,0,0,4,0V15A7.85669,7.85669,0,0,1,33,22a2,2,0,0,0,4,0C37,15.36,32.01,10.42993,25.01,10Z"/><path class="cls-1" d="M28.01,4a4.14548,4.14548,0,0,0-3-4V8A4.14548,4.14548,0,0,0,28.01,4Z"/></g></g></svg>