<?xml version="1.0" encoding="utf-8"?>
<!-- Generator: Adobe Illustrator 24.1.0, SVG Export Plug-In . SVG Version: 6.00 Build 0)  -->
<svg version="1.1" id="Layer_1" xmlns="http://www.w3.org/2000/svg" xmlns:xlink="http://www.w3.org/1999/xlink" x="0px" y="0px"
	 viewBox="0 0 48 48" style="enable-background:new 0 0 48 48;" xml:space="preserve">
<style type="text/css">
	.st0{fill:#418FDE;}
</style>
<path class="st0" d="M18.1,8H0V0h18.1C24.7,0,30,5.3,30,11.9V14h1c0.6,0,1,0.4,1,1v3c0,0.6-0.4,1-1,1H21c-0.6,0-1-0.4-1-1v-3
	c0-0.6,0.4-1,1-1h1v-2.1C22,9.7,20.3,8,18.1,8z M33,29.5c0,1.4,1.1,2.5,2.5,2.5s2.5-1.1,2.5-2.5S36.9,27,35.5,27S33,28.1,33,29.5z
	 M31,22.5c0,0.8,0.7,1.5,1.5,1.5s1.5-0.7,1.5-1.5S33.3,21,32.5,21S31,21.7,31,22.5z M41.5,35C41.5,35,41.5,35,41.5,35
	c-0.1,0-0.1,0-0.1,0h-8.9c-1.4,0-2.5,1.1-2.5,2.5c0,1.4,1.1,2.5,2.5,2.5c0,0,0,0,0,0h2.7l0,0h1.3c0.8,0,1.5,0.7,1.5,1.5
	S37.3,43,36.5,43h-6.4c-0.4,0-0.8-0.2-1.1-0.4l-9.3-9.8c-1.1-1.1-2.9-1.1-3.9,0c-0.1,0.1-0.1,0.1-0.2,0.2c-0.9,1.2-0.8,2.8,0.3,3.8
	l10.6,10.3c0.5,0.5,1.2,0.8,2,0.8h13c0,0,0,0,0.1,0h0c3.6,0,6.5-2.9,6.5-6.5S45.1,35,41.5,35z M17,30c1.1,0,2-0.9,2-2s-0.9-2-2-2
	s-2,0.9-2,2S15.9,30,17,30z M25.9,22C25.8,22.1,25.8,22.1,25.9,22c-0.9,1.2-3.7,5.2-3.7,7.1c0,2.1,1.7,3.9,3.9,3.9
	c2.1,0,3.9-1.7,3.9-3.9c0,0,0,0,0,0c0-1.9-2.9-5.9-3.7-7C26.1,22,26,22,25.9,22z"/>
</svg>
