<svg xmlns="http://www.w3.org/2000/svg" viewBox="0 0 48 47.99932"><defs><style>.cls-1{fill:#418fde;}</style></defs><title>Asset 827</title><g id="Layer_2" data-name="Layer 2"><g id="Icons"><path class="cls-1" d="M41.89575,28.99932H41a2.0001,2.0001,0,0,0-2,2v9.73877l-4.50488-5.06787a2.00013,2.00013,0,0,0-3.24317.35742l-5,9a2,2,0,1,0,3.4961,1.94336l3.63086-6.53516,6.126,6.89258c.01367.01538.03028.02588.04444.04077a2.01685,2.01685,0,0,0,.15039.13843c.04858.04175.09558.085.147.12109.052.03711.10815.0669.1637.09888.057.03247.11267.0669.17212.09351.05749.02588.118.04394.17834.06421a1.92084,1.92084,0,0,0,.18848.05859c.05981.01392.12133.02026.1831.02856a2.05792,2.05792,0,0,0,.2085.021c.02.00049.03882.00586.05908.00586h5a2.0001,2.0001,0,0,0,2-2V35.10357A6.10418,6.10418,0,0,0,41.89575,28.99932Z"/><circle class="cls-1" cx="35.5" cy="25.49932" r="3.5"/><path class="cls-1" d="M13,9.99932c-7.53223,0-13,5.04687-13,12a2,2,0,0,0,4,0,7.5324,7.5324,0,0,1,4-6.80176v13.906c0,.029.0072.05591.00854.08423C8.00732,29.21636,8,29.24322,8,29.272v16.7273a2,2,0,0,0,4,0v-15h2v15a2,2,0,0,0,4,0V29.272c0-.0288-.00732-.05566-.00854-.08422.00134-.02832.00854-.05518.00854-.08423v-13.906a7.5324,7.5324,0,0,1,4,6.80176,2,2,0,0,0,4,0C26,15.04619,20.53223,9.99932,13,9.99932Z"/><circle class="cls-1" cx="19" cy="4.99932" r="4"/><path class="cls-1" d="M33,8.49932a1.50039,1.50039,0,0,0,1.5,1.5h4a1.5,1.5,0,0,0,0-3h-4A1.50039,1.50039,0,0,0,33,8.49932Z"/><path class="cls-1" d="M29.8291,6.84112a1.5007,1.5007,0,0,0,2.0127-.6709l2-4A1.50018,1.50018,0,1,0,31.1582.82842l-2,4A1.50052,1.50052,0,0,0,29.8291,6.84112Z"/><path class="cls-1" d="M31.1582,16.17022a1.50018,1.50018,0,1,0,2.6836-1.3418l-2-4a1.50018,1.50018,0,1,0-2.6836,1.3418Z"/></g></g></svg>