<svg xmlns="http://www.w3.org/2000/svg" viewBox="0 0 48 48"><defs><style>.cls-1{fill:#418fde;}</style></defs><title>Asset 9642111</title><g id="Layer_2" data-name="Layer 2"><g id="Icons"><path class="cls-1" d="M47.90283,24.04614a.99674.99674,0,0,0-.27221-.34643L32,11,16.36938,23.69971A1.00135,1.00135,0,0,0,16,24.476V48H48V24.476A.9987.9987,0,0,0,47.90283,24.04614ZM41,35a1,1,0,0,1-1,1H35v5a1,1,0,0,1-1,1H30a1,1,0,0,1-1-1V36H24a1,1,0,0,1-1-1V31a1,1,0,0,1,1-1h5V25a1,1,0,0,1,1-1h4a1,1,0,0,1,1,1v5h5a1,1,0,0,1,1,1Z"/><path class="cls-1" d="M20,10A10,10,0,1,0,10,20,9.99991,9.99991,0,0,0,20,10Zm-5.293,3.293A.99989.99989,0,1,1,13.293,14.707L10,11.41406,6.707,14.707A.99989.99989,0,0,1,5.293,13.293L8.58594,10,5.293,6.707A.99989.99989,0,0,1,6.707,5.293L10,8.58594l3.293-3.293A.99989.99989,0,0,1,14.707,6.707L11.41406,10Z"/></g></g></svg>