<svg xmlns="http://www.w3.org/2000/svg" viewBox="0 0 48 48"><defs><style>.cls-1{fill:#418fde;}</style></defs><title>Asset 852</title><g id="Layer_2" data-name="Layer 2"><g id="Icons"><path class="cls-1" d="M10,0A10,10,0,1,0,20,10,10.00362,10.00362,0,0,0,10,0Zm5.6499,7.76-7,6A1.00664,1.00664,0,0,1,8,14a1.02445,1.02445,0,0,1-.71-.29l-3-3A1.004,1.004,0,0,1,5.71,9.29l2.34009,2.3501,6.3-5.40015a1,1,0,0,1,1.2998,1.52Z"/><path class="cls-1" d="M47.82007,22.85,33.64014,10.23175a.99992.99992,0,0,0-1.28028,0L18.17993,22.85A.52787.52787,0,0,0,18,23.23V48H29V38a2,2,0,0,1,2-2h4a2,2,0,0,1,2,2V48H48V23.23A.52787.52787,0,0,0,47.82007,22.85Z"/></g></g></svg>