<svg xmlns="http://www.w3.org/2000/svg" viewBox="0 0 48 48"><defs><style>.cls-1{fill:#418fde;}</style></defs><title>Asset 828</title><g id="Layer_2" data-name="Layer 2"><g id="Icons"><path class="cls-1" d="M47.81006,20.97,32.64,8.23a.997.997,0,0,0-1.28,0l-6.38,5.3501a19.32387,19.32387,0,0,1,2.02,7.47,15.9178,15.9178,0,0,1-11,15.26V47a1.00288,1.00288,0,0,0,1,1H28V36a1.00288,1.00288,0,0,1,1-1h6a1.00288,1.00288,0,0,1,1,1V48H48V21.37988A.5654.5654,0,0,0,47.81006,20.97Z"/><path class="cls-1" d="M23,21.05005a13.44985,13.44985,0,0,0-1.21-4.78C19.18994,9.98,13.17993,1.96,11.79.1499a.35555.35555,0,0,0-.58008,0C9.41992,2.48,0,15.07007,0,21.05005A11.73224,11.73224,0,0,0,11.5,33a11.09819,11.09819,0,0,0,4.5-.95A11.97811,11.97811,0,0,0,23,21.05005ZM11.5,30A5.58628,5.58628,0,0,1,6,24.33008c0-2.83008,4.51-9.15015,5.36-10.26a.17884.17884,0,0,1,.28,0,47.70654,47.70654,0,0,1,4.41,7.09985v.01A8.29152,8.29152,0,0,1,17,24.33008a5.73386,5.73386,0,0,1-1,3.25A5.42951,5.42951,0,0,1,11.5,30Z"/></g></g></svg>