<svg xmlns="http://www.w3.org/2000/svg" viewBox="0 0 48 47.9975"><defs><style>.cls-1{fill:#418fde;}</style></defs><title>Asset 813</title><g id="Layer_2" data-name="Layer 2"><g id="Icons"><path class="cls-1" d="M45.66992,12.66742a1.49656,1.49656,0,0,0-.58984-1.01L30.5.33746a1.65038,1.65038,0,0,0-2,0l-14.58008,11.32a1.49656,1.49656,0,0,0-.58984,1.01l-.77,5.70007,3.09985-2.4a4.6429,4.6429,0,0,1,5.68018,0L27,20.36749l2,1.54993,2.68994,2.09009,1.28.99,2.92,2.27a4.41348,4.41348,0,0,1,1.70008,2.73H48Z"/><path class="cls-1" d="M34.08008,29.65741,29,25.71747l-.91992-.72L27,24.15741l-7.5-5.81995a1.613,1.613,0,0,0-1-.34,1.59276,1.59276,0,0,0-1,.34l-5.51,4.28L2.91992,29.65741a1.49656,1.49656,0,0,0-.58984,1.01L0,47.9975H18v-9.71a.292.292,0,0,1,.3-.29.30169.30169,0,0,1,.26.1499L24,47.9975H37L34.66992,30.66742A1.49656,1.49656,0,0,0,34.08008,29.65741Z"/></g></g></svg>