<svg xmlns="http://www.w3.org/2000/svg" viewBox="0 0 24 40.73999"><defs><style>.cls-1{fill:#418fde;}</style></defs><title>Asset 724</title><g id="Layer_2" data-name="Layer 2"><g id="Icons"><path class="cls-1" d="M12,11C5.38281,11,0,15.93457,0,22a2,2,0,0,0,4,0,6.53961,6.53961,0,0,1,3-5.442V23H17V16.558A6.53961,6.53961,0,0,1,20,22a2,2,0,0,0,4,0C24,15.93457,18.61719,11,12,11Z"/><circle class="cls-1" cx="12" cy="4.5" r="4.5"/><path class="cls-1" d="M9.14,37.1a4.9941,4.9941,0,0,1,.37757-8.435.245.245,0,0,0,.05871-.38873L7.0437,25.74359a.25716.25716,0,0,0-.33093-.02753,8.99347,8.99347,0,0,0,.06994,14.61,2.0578,2.0578,0,0,0,2.67591-.2196A1.99521,1.99521,0,0,0,9.14,37.1Z"/><path class="cls-1" d="M17.28723,25.71606a.25716.25716,0,0,0-.33093.02753l-2.53259,2.53266a.245.245,0,0,0,.05871.38873A4.9941,4.9941,0,0,1,14.86,37.1,1.99946,1.99946,0,0,0,16,40.74a2.02177,2.02177,0,0,0,1.14-.36,8.9931,8.9931,0,0,0,.14722-14.66394Z"/></g></g></svg>