<svg xmlns="http://www.w3.org/2000/svg" viewBox="0 0 28 48"><defs><style>.cls-1{fill:#418fde;}</style></defs><title>Asset 725</title><g id="Layer_2" data-name="Layer 2"><g id="Icons"><path class="cls-1" d="M8.47,41.53A4.93887,4.93887,0,0,1,7,38a5.00181,5.00181,0,0,1,5-5h4.04a1.8739,1.8739,0,0,1,.34.03L19,18H6a6.00475,6.00475,0,0,0-6,6V44a3.99891,3.99891,0,0,0,4,4H18a3.99891,3.99891,0,0,0,4-4V43H12A4.93871,4.93871,0,0,1,8.47,41.53Z"/><path class="cls-1" d="M9,38a3.00452,3.00452,0,0,0,3,3h3l1.04-6H12A2.996,2.996,0,0,0,9,38Z"/><path class="cls-1" d="M24.01,18,24,35v6h1a2.996,2.996,0,0,0,3-3V22A3.99677,3.99677,0,0,0,24.01,18Z"/><circle class="cls-1" cx="14" cy="7" r="7"/></g></g></svg>