<svg xmlns="http://www.w3.org/2000/svg" viewBox="0 0 48 48.00037"><defs><style>.cls-1{fill:#418fde;}</style></defs><title>Asset 747</title><g id="Layer_2" data-name="Layer 2"><g id="Icons"><path class="cls-1" d="M27.5,40.00037h-7a1.5,1.5,0,0,0,0,3h7a1.5,1.5,0,1,0,0-3Z"/><path class="cls-1" d="M24,14.00037a10.99479,10.99479,0,0,0-5,20.78955v2.21045a1,1,0,0,0,1,1h8a1,1,0,0,0,1-1V34.78992a10.99479,10.99479,0,0,0-5-20.78955Z"/><path class="cls-1" d="M24,10a2,2,0,0,0,2-2V2a2,2,0,0,0-4,0V8A2,2,0,0,0,24,10Z"/><path class="cls-1" d="M8,22H2a2,2,0,0,0,0,4H8a2,2,0,0,0,0-4Z"/><path class="cls-1" d="M46,22H40a2,2,0,0,0,0,4h6a2,2,0,0,0,0-4Z"/><path class="cls-1" d="M13.94574,10.73151,10.15466,6.08093a2,2,0,0,0-3.1004,2.52735l3.79108,4.65057a2,2,0,0,0,3.1004-2.52734Z"/><path class="cls-1" d="M40.65924,5.79443a2,2,0,0,0-2.8139.2865l-3.79108,4.65058a2,2,0,0,0,3.1004,2.52734l3.79108-4.65057A2,2,0,0,0,40.65924,5.79443Z"/><path class="cls-1" d="M27,45.00037H21a1,1,0,0,0-1,1,2,2,0,0,0,2,2h4a2,2,0,0,0,2-2A1,1,0,0,0,27,45.00037Z"/></g></g></svg>