<svg xmlns="http://www.w3.org/2000/svg" viewBox="0 0 47.99176 47.98908"><defs><style>.cls-1{fill:#418fde;}</style></defs><title>Asset 691</title><g id="Layer_2" data-name="Layer 2"><g id="Icons"><path class="cls-1" d="M19.74654,21.09992l1.30665,4.78418a1.50033,1.50033,0,0,0,2.89453-.791l-1.5-5.48877a1.50113,1.50113,0,0,0-.86621-.9873L17.0007,16.69342V13.16156l3.72241-2.047a1.50181,1.50181,0,0,0,.76074-1.08985l.5-3.30029a1.50031,1.50031,0,0,0-2.9668-.44922l-.38867,2.56738L16.566,9.97687a4.99787,4.99787,0,0,0-1.08716-1.55969l3.34192-6.20642A1.49955,1.49955,0,1,0,16.18014.78888l-3.38745,6.291a4.97312,4.97312,0,0,0-.792-.07984,4.97244,4.97244,0,0,0-.79249.0799L7.82076.78888A1.49955,1.49955,0,1,0,5.18014,2.21076l3.342,6.20672A5.00176,5.00176,0,0,0,7.43527,9.97712L5.37252,8.84259,4.98385,6.27521a1.50031,1.50031,0,0,0-2.9668.44922l.5,3.30029a1.50186,1.50186,0,0,0,.76074,1.08985L7.0007,13.16193v3.53125L2.4194,18.617a1.50111,1.50111,0,0,0-.86621.9873l-1.5,5.48877a1.50033,1.50033,0,1,0,2.89453.791l1.30664-4.78418L7.0007,19.94678v.05328a5,5,0,1,0,10,0v-.053Z"/><path class="cls-1" d="M47.42819,27.86213a1.49956,1.49956,0,0,0-2.1084.23583l-1.6211,2.02881-2.353-.0487a4.99851,4.99851,0,0,0-.16114-1.89356l5.99756-3.70422a1.50007,1.50007,0,0,0-1.57617-2.55274l-6.07935,3.75477A3.97293,3.97293,0,0,0,38.154,24.89l.21264-7.14166a1.49968,1.49968,0,1,0-2.998-.08887l-.20972,7.046a5.00038,5.00038,0,0,0-1.7207.80713l-1.219-2.01374.94629-2.418a1.49975,1.49975,0,1,0-2.793-1.09375L29.15572,23.095a1.49681,1.49681,0,0,0,.11329,1.32373l2.20044,3.63464-1.76539,3.0578-4.92919-.62408a1.50049,1.50049,0,0,0-1.24415.42285L19.4819,34.92316A1.49985,1.49985,0,1,0,21.59322,37.054l3.53028-3.49854,2.95337.374-.02661.046a5,5,0,0,0,1.8302,6.83008v.00006a5.00019,5.00019,0,0,0,6.8302-1.83014l.02661-.04621,1.80029,2.37134-1.26367,4.80664a1.4995,1.4995,0,1,0,2.90039.7627l1.45019-5.51319a1.4962,1.4962,0,0,0-.25585-1.28857l-3.0044-3.95685,1.76563-3.058,4.24755.08813.03125.00049a1.50031,1.50031,0,0,0,1.17188-.564l2.083-2.60791A1.49988,1.49988,0,0,0,47.42819,27.86213Z"/></g></g></svg>