<svg xmlns="http://www.w3.org/2000/svg" viewBox="0 0 48.00004 42.9883"><defs><style>.cls-1{fill:#418fde;}</style></defs><title>Asset 692</title><g id="Layer_2" data-name="Layer 2"><g id="Icons"><path class="cls-1" d="M47.5452,20.39088l-6.94775-6.94776a1.55232,1.55232,0,0,0-2.19531,2.19532L42.752,19.98829H29.5a1.5,1.5,0,0,0,0,3H42.75235l-4.35021,4.34985a1.55232,1.55232,0,1,0,2.19531,2.19532l6.94775-6.94727a1.55189,1.55189,0,0,0,0-2.19531Z"/><path class="cls-1" d="M29.79838,2.75031a4,4,0,1,0-2.54859,5.05017A4,4,0,0,0,29.79838,2.75031Z"/><path class="cls-1" d="M20.73478,23.50074,24.666,15.71107a4.85294,4.85294,0,0,0-2.146-6.5188l-2.55639-1.2901a1.9702,1.9702,0,0,0-.42639-.15259A14.18033,14.18033,0,0,0,1.23478,14.25752a2.06788,2.06788,0,0,0,3.68164,1.88415A10.04665,10.04665,0,0,1,15.113,10.7674L.22806,39.95264a2.08721,2.08721,0,1,0,3.71875,1.89649l9.04187-17.72864,4.47571,2.25873a10.13741,10.13741,0,0,1,4.1521,13.55994,2.08675,2.08675,0,1,0,3.70386,1.9234A14.31661,14.31661,0,0,0,20.73478,23.50074Z"/></g></g></svg>