<svg xmlns="http://www.w3.org/2000/svg" viewBox="0 0 43.99999 47.85581"><defs><style>.cls-1{fill:#418fde;}</style></defs><title>Asset 709</title><g id="Layer_2" data-name="Layer 2"><g id="Icons"><path class="cls-1" d="M43.15,24.85581H6.85a.85787.85787,0,0,0-.85.86v2.14H40.05a.94324.94324,0,0,1,.95.95v14.05h2.15a.84928.84928,0,0,0,.85-.85v-16.29A.85787.85787,0,0,0,43.15,24.85581Z"/><path class="cls-1" d="M38.15,29.85581H1.85a.84928.84928,0,0,0-.85.85v16.29a.85788.85788,0,0,0,.85.86H38.15a.85787.85787,0,0,0,.85-.86v-16.29A.84927.84927,0,0,0,38.15,29.85581Zm-31.15,11a2,2,0,1,1,2-2A2.00592,2.00592,0,0,1,7,40.85581Zm13,4a6,6,0,1,1,6-6A6.00476,6.00476,0,0,1,20,44.85581Zm13-4a2,2,0,1,1,2-2A2.00592,2.00592,0,0,1,33,40.85581Z"/><path class="cls-1" d="M18.88848,12.07914,16.401,11.41263a5,5,0,0,0-6.12372,3.53552l-.17633.65815,2.48742.66656a5,5,0,0,0,6.12372-3.53558Z"/><path class="cls-1" d="M18.33264,17.812l2.48748.6665A5,5,0,0,0,26.94384,14.943l.17633-.65815-2.48742-.66656A5,5,0,0,0,18.509,17.15384Z"/><path class="cls-1" d="M26.56439,20.01767l2.48742.66651a4.99993,4.99993,0,0,0,6.12372-3.53552l.17639-.65815L32.86444,15.824a5.00007,5.00007,0,0,0-6.12372,3.53552Z"/><path class="cls-1" d="M17.13622,8.66867l2.48749.66657L19.8,8.677a5,5,0,0,0-3.53552-6.12372l-2.48743-.66651L13.6007,2.545A4.99993,4.99993,0,0,0,17.13622,8.66867Z"/><path class="cls-1" d="M25.368,10.87436l2.48742.66657.17639-.65821A5,5,0,0,0,24.49627,4.759L22.00878,4.0925l-.17633.65814A4.99993,4.99993,0,0,0,25.368,10.87436Z"/><path class="cls-1" d="M33.59966,13.08005l2.48749.66651.17633-.65815A4.99994,4.99994,0,0,0,32.728,6.9647l-2.48743-.66651-.17639.65814A5,5,0,0,0,33.59966,13.08005Z"/><path class="cls-1" d="M43.95123,17.32419a1.4203,1.4203,0,0,0-1.00434-1.73956l-5.03045-1.3479-.73523,2.7439,5.03045,1.3479A1.42027,1.42027,0,0,0,43.95123,17.32419Z"/><path class="cls-1" d="M3.97637,11.02433a1.42034,1.42034,0,1,0-.73523,2.74389l3.65857.98035a1.42035,1.42035,0,1,0,.73523-2.7439Z"/><path class="cls-1" d="M6.18206,2.79264l3.65857.98028A1.42034,1.42034,0,0,0,10.57586,1.029L6.91729.04874a1.42035,1.42035,0,0,0-.73523,2.7439Z"/><path class="cls-1" d="M11.11407,9.996a1.42035,1.42035,0,0,0,.73523-2.7439L1.78832,4.55625a1.42034,1.42034,0,0,0-.73523,2.74389Z"/></g></g></svg>