<svg xmlns="http://www.w3.org/2000/svg" viewBox="0 0 48 35.63257"><defs><style>.cls-1{fill:#418fde;}</style></defs><title>Asset 710</title><g id="Layer_2" data-name="Layer 2"><g id="Icons"><path class="cls-1" d="M46.70709,10.66376,40.46387,5.80151,41.77148,4.4939A2.63231,2.63231,0,1,0,38.04883.77124L35.92456,2.89551l-.364-.364a2.63232,2.63232,0,1,0-3.72266,3.72266l.364.364L31.18749,7.63257H5.49609A5.50278,5.50278,0,0,0,0,13.12915v9.13672a2,2,0,0,0,4,0V13.12915a1.49789,1.49789,0,0,1,1.49609-1.49658L6,11.633V32.63257a3,3,0,0,0,6,0v-6h1.79413a11.474,11.474,0,0,0,17.41174,0H33v6a3,3,0,0,0,6,0v-16h5.657A3.33648,3.33648,0,0,0,46.70709,10.66376Z"/></g></g></svg>