<svg xmlns="http://www.w3.org/2000/svg" viewBox="0 0 47.99827 37.99754"><defs><style>.cls-1{fill:#418fde;}</style></defs><title>Asset 694</title><g id="Layer_2" data-name="Layer 2"><g id="Icons"><path class="cls-1" d="M47.98826,23.6A24.26884,24.26884,0,0,0,23.5283,0a1.52586,1.52586,0,0,0-1.53,1.51,1.52391,1.52391,0,0,0,1.53,1.5A21.318,21.318,0,0,1,44.53825,20.02c-.08,0-.16-.02-.24-.02h-2.01a3.67529,3.67529,0,0,0-3.27,2h-1.08l-6.5-6.42a2.07708,2.07708,0,0,0-2.89,0l-2.55,2.52-2.56-2.52a2.07708,2.07708,0,0,0-2.89,0l-6.49,6.42h-7.56a3.5,3.5,0,1,0,0,7h.47l-6.48,6.4a1.52535,1.52535,0,0,0-.29,1.86,1.53005,1.53005,0,0,0,2.38.3l8.67-8.56h1.75a1.926,1.926,0,0,0,.57,1.38l-5.08,5.02a1.50345,1.50345,0,1,0,2.09,2.16l6.65-6.56h7.71l-4.45,4.4a1.50345,1.50345,0,1,0,2.09,2.16l4.92-4.85,4.9,4.84a1.53921,1.53921,0,0,0,2.16.01,1.494,1.494,0,0,0-.01-2.13l-4.49-4.43h4.71l6.63,6.55a1.53921,1.53921,0,0,0,2.16.01,1.494,1.494,0,0,0-.01-2.13l-4.49-4.43h5.24a3.69226,3.69226,0,0,0,3.7-3.7V23.7C47.99827,23.66,47.98826,23.63,47.98826,23.6Zm-25.94-1.6h-3.71l3.66-3.61,1.85,1.83Zm7.89,0-1.8-1.78,1.86-1.83,3.66,3.61Zm14.56,5a1.5,1.5,0,1,1,1.5-1.5A1.498,1.498,0,0,1,44.49827,27Z"/></g></g></svg>