<svg xmlns="http://www.w3.org/2000/svg" viewBox="0 0 48 41"><defs><style>.cls-1{fill:#418fde;}</style></defs><g id="Layer_2" data-name="Layer 2"><g id="Expanded_Icons" data-name="Expanded Icons"><path class="cls-1" d="M1.41187,13,5.76465.66724A.99968.99968,0,0,1,6.70752,0h33.6228a1,1,0,0,1,.92456.61914L46.353,13ZM.70581,15,0,17v2a4,4,0,0,0,8,0,4,4,0,0,0,8,0,4,4,0,0,0,8,0,4,4,0,0,0,8,0,4,4,0,0,0,8,0,4,4,0,0,0,8,0V17l-.82349-2ZM40,23.45947a5.96328,5.96328,0,0,1-8,0,5.96328,5.96328,0,0,1-8,0,5.96328,5.96328,0,0,1-8,0,5.96328,5.96328,0,0,1-8,0A5.96711,5.96711,0,0,1,4,25V41H8V31a2.0001,2.0001,0,0,1,2-2h4a2.0001,2.0001,0,0,1,2,2V41H44V25A5.96711,5.96711,0,0,1,40,23.45947Z"/></g></g></svg>