<svg xmlns="http://www.w3.org/2000/svg" viewBox="0 0 26 48"><defs><style>.cls-1{fill:#418fde;}</style></defs><title>Asset 784</title><g id="Layer_2" data-name="Layer 2"><g id="Icons"><path class="cls-1" d="M24,0H2A2.00583,2.00583,0,0,0,0,2V14H26V2A2.00583,2.00583,0,0,0,24,0ZM22,8a2.00591,2.00591,0,0,1-2,2H6A2.00591,2.00591,0,0,1,4,8V6A2.00583,2.00583,0,0,1,6,4H20a2.00583,2.00583,0,0,1,2,2Z"/><path class="cls-1" d="M0,46a2.00591,2.00591,0,0,0,2,2H24a2.00591,2.00591,0,0,0,2-2V17H0Z"/></g></g></svg>