<svg xmlns="http://www.w3.org/2000/svg" viewBox="0 0 48.00006 48"><defs><style>.cls-1{fill:#418fde;}</style></defs><title>Asset 786</title><g id="Layer_2" data-name="Layer 2"><g id="Icons"><path class="cls-1" d="M31.51007,14.51a8.49944,8.49944,0,1,0-12.02-12.02l-8.5,8.5-8.5,8.5a8.49944,8.49944,0,1,0,12.02,12.02l8.5-8.5Zm-18.4-1.4,8.5-8.5a5.50447,5.50447,0,0,1,7.78,0,5.51656,5.51656,0,0,1,0,7.78l-8.5,8.5Z"/><path class="cls-1" d="M35.00006,22a12.986,12.986,0,0,0-10.49,20.65991L42.66,24.51A12.8922,12.8922,0,0,0,35.00006,22Z"/><path class="cls-1" d="M45.49,27.34,27.34015,45.49A12.986,12.986,0,0,0,45.49,27.34Z"/></g></g></svg>