<svg xmlns="http://www.w3.org/2000/svg" viewBox="0 0 48 41"><defs><style>.cls-1{fill:#418fde;}</style></defs><title>Asset 785</title><g id="Layer_2" data-name="Layer 2"><g id="Icons"><path class="cls-1" d="M46,9H35V2a2.00583,2.00583,0,0,0-2-2H15a2.00583,2.00583,0,0,0-2,2V9H2a2.00583,2.00583,0,0,0-2,2V39a2.00591,2.00591,0,0,0,2,2H46a2.00591,2.00591,0,0,0,2-2V11A2.00583,2.00583,0,0,0,46,9ZM18,5H30V9H18Zm2.27,22.27A2.50224,2.50224,0,0,1,18.5,28H16v2.5a2.5,2.5,0,0,1-5,0V28H8.5a2.5,2.5,0,0,1,0-5H11V20.5a2.5,2.5,0,1,1,5,0V23h2.5a2.50319,2.50319,0,0,1,1.77,4.27Z"/></g></g></svg>