<svg xmlns="http://www.w3.org/2000/svg" viewBox="0 0 48 48"><defs><style>.cls-1{fill:#418fde;}</style></defs><title>Asset 751</title><g id="Layer_2" data-name="Layer 2"><g id="Icons"><path class="cls-1" d="M32,21a2.00591,2.00591,0,0,0,2-2V2a2.00587,2.00587,0,0,0-2-2H2A2.00587,2.00587,0,0,0,0,2V19a2.00591,2.00591,0,0,0,2,2H8.20886l4.13269,3.74194A.997.997,0,0,0,14,23.96313V21ZM6.5,5h21a1.5,1.5,0,0,1,0,3H6.5a1.5,1.5,0,0,1,0-3ZM5,13.5A1.49793,1.49793,0,0,1,6.5,12h21a1.5,1.5,0,0,1,0,3H6.5A1.498,1.498,0,0,1,5,13.5Z"/><path class="cls-1" d="M45.22,27.78A9.47783,9.47783,0,0,0,38.5,25h-12a9.5,9.5,0,1,0,0,19H33v2.998a1,1,0,0,0,1.65845.75256L39,44a8.342,8.342,0,0,0,1.07007-.13h.01A9.50579,9.50579,0,0,0,45.22,27.78ZM40.5,39h-16a1.5,1.5,0,0,1,0-3h16a1.5,1.5,0,0,1,0,3Zm0-6h-16a1.5,1.5,0,1,1,0-3h16a1.5,1.5,0,0,1,0,3Z"/></g></g></svg>