<svg xmlns="http://www.w3.org/2000/svg" viewBox="0 0 42 48"><defs><style>.cls-1{fill:#418fde;}</style></defs><title>Asset 726</title><g id="Layer_2" data-name="Layer 2"><g id="Icons"><path class="cls-1" d="M29,10c-7.41113,0-13,5.15869-13,12a2,2,0,0,0,4,0,7.4486,7.4486,0,0,1,3.99994-6.74451V46a2,2,0,0,0,4,0V31h2V46a2,2,0,0,0,4,0V15.25537A7.4487,7.4487,0,0,1,38,22a2,2,0,0,0,4,0C42,15.15869,36.41113,10,29,10Z"/><circle class="cls-1" cx="28.99994" cy="4" r="4"/><path class="cls-1" d="M8,0a8,8,0,1,0,8,8A7.99778,7.99778,0,0,0,8,0ZM8,14.09A1.09,1.09,0,1,1,9.09,13,1.09258,1.09258,0,0,1,8,14.09ZM10.94,5.8A3.01316,3.01316,0,0,1,9,8.03V9.6a1,1,0,1,1-2,0V7.2a1.00291,1.00291,0,0,1,1-1,1.63231,1.63231,0,0,0,.22-.02,1.01155,1.01155,0,0,0,.76-.78A1.12308,1.12308,0,0,0,9,5.2a1.63408,1.63408,0,0,0-.02-.22,1.01159,1.01159,0,0,0-.78-.76.945.945,0,0,0-.41,0,1.0071,1.0071,0,0,0-.74.66.99934.99934,0,0,1-1.89-.65A3.01494,3.01494,0,0,1,7.38,2.26a3.18058,3.18058,0,0,1,1.23,0,3.02755,3.02755,0,0,1,2.33,2.32A3.258,3.258,0,0,1,11,5.2,2.90828,2.90828,0,0,1,10.94,5.8Z"/></g></g></svg>