<svg xmlns="http://www.w3.org/2000/svg" viewBox="0 0 26 48"><defs><style>.cls-1{fill:#418fde;}</style></defs><title>Asset 912</title><g id="Layer_2" data-name="Layer 2"><g id="Icons"><path class="cls-1" d="M22,0H4A3.99891,3.99891,0,0,0,0,4V44a3.999,3.999,0,0,0,4,4H22a3.999,3.999,0,0,0,4-4V4A3.99891,3.99891,0,0,0,22,0ZM10,3h6a1,1,0,0,1,0,2H10a1,1,0,0,1,0-2ZM6,45a2,2,0,1,1,2-2A2.00583,2.00583,0,0,1,6,45Zm0-8a2,2,0,1,1,2-2A2.00583,2.00583,0,0,1,6,37Zm0-8a2,2,0,1,1,2-2A2.00583,2.00583,0,0,1,6,29Zm7,16a2,2,0,1,1,2-2A2.00583,2.00583,0,0,1,13,45Zm0-8a2,2,0,1,1,2-2A2.00583,2.00583,0,0,1,13,37Zm0-8a2,2,0,1,1,2-2A2.00583,2.00583,0,0,1,13,29Zm7,16a2,2,0,1,1,2-2A2.00583,2.00583,0,0,1,20,45Zm0-8a2,2,0,1,1,2-2A2.00583,2.00583,0,0,1,20,37Zm0-8a2,2,0,1,1,2-2A2.00583,2.00583,0,0,1,20,29Zm2-8a1.00291,1.00291,0,0,1-1,1H5a1.00291,1.00291,0,0,1-1-1V9A1.00291,1.00291,0,0,1,5,8H21a1.00291,1.00291,0,0,1,1,1Z"/></g></g></svg>