<svg xmlns="http://www.w3.org/2000/svg" viewBox="0 0 48 43"><defs><style>.cls-1{fill:#418fde;}</style></defs><title>Asset 907</title><g id="Layer_2" data-name="Layer 2"><g id="Icons"><path class="cls-1" d="M47,0H1A1.003,1.003,0,0,0,0,1V32a1.003,1.003,0,0,0,1,1H19v6H10a2.0001,2.0001,0,0,0-2,2v1.5a.49987.49987,0,0,0,.5.5h31a.49987.49987,0,0,0,.5-.5V41a2.0001,2.0001,0,0,0-2-2H29V33H47a1.003,1.003,0,0,0,1-1V1A1.003,1.003,0,0,0,47,0ZM25.8999,31.5a1.97336,1.97336,0,0,1-3.7998,0,1.88083,1.88083,0,0,1-.07007-.53027A1.85112,1.85112,0,0,1,22.29,30,1.962,1.962,0,0,1,25.71,30a1.85112,1.85112,0,0,1,.26.96973A1.88083,1.88083,0,0,1,25.8999,31.5ZM4,27V4H44V27Z"/></g></g></svg>