<svg xmlns="http://www.w3.org/2000/svg" viewBox="0 0 32 48"><defs><style>.cls-1{fill:#418fde;}</style></defs><title>Asset 884</title><g id="Layer_2" data-name="Layer 2"><g id="Icons"><path class="cls-1" d="M25,14a1.00288,1.00288,0,0,0-1,1v6a1,1,0,0,0,2,0V15A1.00288,1.00288,0,0,0,25,14Z"/><path class="cls-1" d="M30,6H2A2.00583,2.00583,0,0,0,0,8V30H32V8A2.00583,2.00583,0,0,0,30,6ZM11,23a.99518.99518,0,0,1-.77.97A.90621.90621,0,0,1,10,24a.999.999,0,0,1-.89-.55L6,17.24V23a1,1,0,0,1-2,0V13a.99918.99918,0,0,1,1.89-.44995L9,18.76V13a1,1,0,0,1,2,0Zm9-2.5a3.5,3.5,0,0,1-7,0V15a3.00887,3.00887,0,0,1,3-3h2a1,1,0,0,1,0,2H16a1.00288,1.00288,0,0,0-1,1v5.5a1.5,1.5,0,0,0,3,0V19H17a1,1,0,0,1,0-2h1a2.00583,2.00583,0,0,1,2,2Zm8,.5a3,3,0,0,1-6,0V15a3,3,0,0,1,6,0Z"/><path class="cls-1" d="M6,4H26a2,2,0,0,0,0-4H6A2,2,0,0,0,6,4Z"/><path class="cls-1" d="M0,48H12V38a2.00583,2.00583,0,0,1,2-2h4a2.00583,2.00583,0,0,1,2,2V48H32V32H0Z"/></g></g></svg>