<svg xmlns="http://www.w3.org/2000/svg" viewBox="0 0 42 42"><defs><style>.cls-1{fill:#418fde;}</style></defs><title>Asset 788</title><g id="Layer_2" data-name="Layer 2"><g id="Icons"><path class="cls-1" d="M38,0H4A3.99891,3.99891,0,0,0,0,4V38a3.99891,3.99891,0,0,0,4,4H38a3.99891,3.99891,0,0,0,4-4V4A3.99891,3.99891,0,0,0,38,0ZM18,29.5a1.50749,1.50749,0,0,1-1.14,1.46,1.47078,1.47078,0,0,1-.36.04,1.50928,1.50928,0,0,1-1.33-.8L9,18.54V29.5a1.5,1.5,0,0,1-3,0v-17a1.50749,1.50749,0,0,1,1.14-1.46,1.52333,1.52333,0,0,1,1.69.76L15,23.46V12.5a1.5,1.5,0,0,1,3,0ZM28.5,19a1.5,1.5,0,0,1,0,3H24v7.5a1.5,1.5,0,0,1-3,0v-17A1.49793,1.49793,0,0,1,22.5,11h6a1.5,1.5,0,0,1,0,3H24v5ZM36,29.5a1.5,1.5,0,0,1-3,0v-17a1.5,1.5,0,0,1,3,0Z"/></g></g></svg>