<svg xmlns="http://www.w3.org/2000/svg" viewBox="0 0 48 35"><defs><style>.cls-1{fill:#418fde;}</style></defs><title>Asset 962211</title><g id="Layer_2" data-name="Layer 2"><g id="Icons"><path class="cls-1" d="M47.5,0h-31a.5.5,0,0,0-.5.5V8H26.5A2.50279,2.50279,0,0,1,29,10.5v24a2.50046,2.50046,0,0,1-.05054.5H47.5a.5.5,0,0,0,.5-.5V.5A.5.5,0,0,0,47.5,0ZM43.56067,20.56067a1.5,1.5,0,0,1-2.12134,0L40,19.12134V27.5a1.5,1.5,0,0,1-3,0V19.12134l-1.43933,1.43933a1.5,1.5,0,0,1-2.12134-2.12134L37.38965,14.489c.00561-.00561.01343-.0072.01916-.01269a1.49143,1.49143,0,0,1,2.16248-.024l.00683.00452,3.98255,3.98254A1.5,1.5,0,0,1,43.56067,20.56067Z"/><path class="cls-1" d="M26.5,10H.5a.5.5,0,0,0-.5.5v24a.5.5,0,0,0,.5.5h26a.5.5,0,0,0,.5-.5v-24A.5.5,0,0,0,26.5,10ZM17,19H10a2,2,0,0,1,0-4h7a2,2,0,0,1,0,4Z"/></g></g></svg>