<svg xmlns="http://www.w3.org/2000/svg" viewBox="0 0 38 48"><defs><style>.cls-1{fill:#418fde;}</style></defs><title>Asset 958</title><g id="Layer_2" data-name="Layer 2"><g id="Icons"><path class="cls-1" d="M18,48h2a4,4,0,0,0,4-4H14A4,4,0,0,0,18,48Z"/><path class="cls-1" d="M33.5,33h-.16669l-1.88-14.1A12.54987,12.54987,0,0,0,24,9.04834V5A5,5,0,0,0,14,5V9.04834A12.54987,12.54987,0,0,0,6.54669,18.9L4.66669,33H4.5a4.5,4.5,0,0,0,0,9h29a4.5,4.5,0,0,0,0-9ZM19,3a2,2,0,1,1-2,2A2,2,0,0,1,19,3Z"/></g></g></svg>