<?xml version="1.0" encoding="utf-8"?>
<!-- Generator: Adobe Illustrator 24.1.0, SVG Export Plug-In . SVG Version: 6.00 Build 0)  -->
<svg version="1.1" id="Layer_1" xmlns="http://www.w3.org/2000/svg" xmlns:xlink="http://www.w3.org/1999/xlink" x="0px" y="0px"
	 viewBox="0 0 36 48" style="enable-background:new 0 0 36 48;" xml:space="preserve">
<style type="text/css">
	.st0{fill:#418FDE;}
</style>
<path class="st0" d="M29.6,19.8c-0.4-0.5-1-0.8-1.6-0.8H10.2c-0.7,0-1.4,0.4-1.8,1.1L0.2,36.6C-0.2,37.4,0,38.4,0.6,39
	c0,0,12.2,9,17.4,9c0.9,0,1.7-0.4,2.2-1.1c0.4-0.5,0.7-1.2,0.8-1.9c0-1,0-3-3-4c-4.2-1.6-7.1-2.4-8.2-3c-0.6-0.3-1-0.8-0.7-1.4
	c1.2-2.4,1.8-4.9,1.9-7.6c0-2,1-3,2-3s2,1,2,3c0,3.4,5,7.4,6.6,8.6c0.3,0.2,0.4,0.6,0.4,0.9c0,1.5-0.2,4.5,2.5,4.5
	C28,43,36,38,36,33C36,28.9,31.3,22.1,29.6,19.8z M24,34C24,34,24,34,24,34c-2.2,0-4-1.8-4-4c0-2.2,1.8-4,4-4c2.2,0,4,1.8,4,4
	C28,32.2,26.2,34,24,34z M12,7c0-3.9,3.1-7,7-7c3.9,0,7,3.1,7,7s-3.1,7-7,7C15.1,14,12,10.9,12,7z"/>
</svg>
