<svg xmlns="http://www.w3.org/2000/svg" viewBox="0 0 48 48"><defs><style>.cls-1{fill:#418fde;}</style></defs><title>Asset 926</title><g id="Layer_2" data-name="Layer 2"><g id="Icons"><path class="cls-1" d="M33,22.65V44H4V20H20.09009l9-9H2.2A2.19363,2.19363,0,0,0,0,13.2V45.8A2.19367,2.19367,0,0,0,2.2,48h32.6001A2.19367,2.19367,0,0,0,37,45.8V18.65ZM11.5,14A1.5,1.5,0,1,1,10,15.5,1.49793,1.49793,0,0,1,11.5,14Zm-6,0A1.5,1.5,0,1,1,4,15.5,1.49793,1.49793,0,0,1,5.5,14Z"/><path class="cls-1" d="M46,0H25a2,2,0,0,0,0,4H41.02979L18.51465,26.51514a2.10026,2.10026,0,0,0,2.9707,2.96972L44,6.97021V23a2,2,0,0,0,4,0V2A2.0001,2.0001,0,0,0,46,0Z"/></g></g></svg>