<svg xmlns="http://www.w3.org/2000/svg" viewBox="0 0 48 44"><defs><style>.cls-1{fill:#418fde;}</style></defs><g id="Layer_2" data-name="Layer 2"><g id="FINAL"><path class="cls-1" d="M47.12109,4.87891l-4-4a2.99889,2.99889,0,0,0-4.24218,0L14.621,25.13684A10.01307,10.01307,0,1,0,18.86316,29.379L33.49121,14.751l1.87891,1.8789A2.99967,2.99967,0,0,0,39.6123,12.3877l-1.8789-1.87891L41,7.24219l1.87891,1.8789a2.99967,2.99967,0,0,0,4.24218-4.24218ZM10,38a4,4,0,1,1,4-4A4.00454,4.00454,0,0,1,10,38Z"/></g></g></svg>