<svg xmlns="http://www.w3.org/2000/svg" viewBox="0 0 48 39"><defs><style>.cls-1{fill:#418fde;}</style></defs><title>Asset 728</title><g id="Layer_2" data-name="Layer 2"><g id="Icons"><path class="cls-1" d="M45.5,19H42.98A21.56668,21.56668,0,0,0,0,21.5V27a3.999,3.999,0,0,0,4,4H21.01l8,8H36.5a1.5,1.5,0,0,0,0-3H32V24H45.5a2.5,2.5,0,0,0,0-5ZM19.98,16.5a3.5,3.5,0,1,1-7,0V9a1,1,0,0,1,2,0v7.5a1.5,1.5,0,1,0,3,0V9a1,1,0,0,1,2,0Zm4,2.5a1,1,0,0,1-2,0V9a.99919.99919,0,0,1,1.89-.45l3.11,6.21V9a1,1,0,1,1,2,0V19a.99529.99529,0,0,1-.77.97.90621.90621,0,0,1-.23.03.99922.99922,0,0,1-.89-.55l-3.11-6.21ZM29,33.01l-5-5L28,24h1Z"/></g></g></svg>