<svg xmlns="http://www.w3.org/2000/svg" viewBox="0 0 48.0011 34"><defs><style>.cls-1{fill:#418fde;}</style></defs><title>Asset 963</title><g id="Layer_2" data-name="Layer 2"><g id="Editable_Icons" data-name="Editable Icons"><path class="cls-1" d="M1.50256,18.979a1.49975,1.49975,0,0,0,1.5-1.5,6.21808,6.21808,0,0,1,2.99988-5.3601V21a4,4,0,0,0,8,0V12.12134A6.21767,6.21767,0,0,1,16.99915,17.479a1.5,1.5,0,0,0,3,0l-.00123-.02612.00123-.01294a4.754,4.754,0,0,1,1.00463-2.93725v3.49865a2.99866,2.99866,0,0,0,5.99732,0V14.50146a4.75434,4.75434,0,0,1,1.00537,2.93848c0,.01318-.002.02588-.002.03906a1.5,1.5,0,0,0,3,0,6.64017,6.64017,0,0,1,3.99658-5.693L33.07336,19a5.01834,5.01834,0,1,0,9.84278,0l-1.915-7.214a6.64369,6.64369,0,0,1,4,5.693,1.5,1.5,0,0,0,3,0c0-5.38867-4.29834-9.45263-9.99854-9.45263A9.9165,9.9165,0,0,0,29.35071,12.62a6.70439,6.70439,0,0,0-10.6969.00146,9.91637,9.91637,0,0,0-8.6532-4.59509c-5.69971,0-9.998,4.064-9.998,9.45263A1.49976,1.49976,0,0,0,1.50256,18.979Z"/><circle class="cls-1" cx="38.00281" cy="3" r="3"/><circle class="cls-1" cx="10.00183" cy="3" r="3"/><path class="cls-1" d="M24.00183,8a2.50519,2.50519,0,1,0-2.50525-2.50513A2.50512,2.50512,0,0,0,24.00183,8Z"/><path class="cls-1" d="M46,30H2a2,2,0,0,0,0,4H46a2,2,0,0,0,0-4Z"/></g></g></svg>