<svg xmlns="http://www.w3.org/2000/svg" viewBox="0 0 48 32"><defs><style>.cls-1{fill:#418fde;}</style></defs><title>Asset 771</title><g id="Layer_2" data-name="Layer 2"><g id="Icons"><path class="cls-1" d="M24,26a9.00821,9.00821,0,0,1-8.93994-8H0V30a2.00591,2.00591,0,0,0,2,2H46a2.00591,2.00591,0,0,0,2-2V18H32.93994A9.00821,9.00821,0,0,1,24,26Z"/><path class="cls-1" d="M46,6H33V2a2.00587,2.00587,0,0,0-2-2H17a2.00587,2.00587,0,0,0-2,2V6H10V4A1,1,0,0,0,9,3H6A1,1,0,0,0,5,4V6H2A2.00587,2.00587,0,0,0,0,8v8H15.06006a8.99516,8.99516,0,0,1,17.87988,0H48V8A2.00587,2.00587,0,0,0,46,6Zm-3.5,6h-5a1.5,1.5,0,0,1,0-3h5a1.5,1.5,0,0,1,0,3Z"/><path class="cls-1" d="M24,24a6.98869,6.98869,0,0,0,6.77-5.23,6.92639,6.92639,0,0,0,0-3.54,6.99676,6.99676,0,0,0-13.54,0,6.92639,6.92639,0,0,0,0,3.54A6.98869,6.98869,0,0,0,24,24Zm-3.87-8a3.99615,3.99615,0,0,1,7.74,0,3.91115,3.91115,0,0,1,0,2,3.99615,3.99615,0,0,1-7.74,0,3.91115,3.91115,0,0,1,0-2Z"/></g></g></svg>