<svg xmlns="http://www.w3.org/2000/svg" viewBox="0 0 48 48.00012"><defs><style>.cls-1{fill:#418fde;}</style></defs><g id="Layer_2" data-name="Layer 2"><g id="Expanded_Icons" data-name="Expanded Icons"><path class="cls-1" d="M39,7.49915v.001a1.44416,1.44416,0,0,1-.02869.28516,1.48615,1.48615,0,0,1-.079.26562l-.00293.00977h-.00012a1.49468,1.49468,0,0,1-.37585.53906l-5.97632,5.96582a1.48469,1.48469,0,1,1-2.10169-2.09765l3.47376-3.46778H14.09082l3.47376,3.46778a1.48469,1.48469,0,0,1-2.10169,2.09765L9.486,8.59924a1.49583,1.49583,0,0,1-.37536-.53857l-.0033-.01074A1.4895,1.4895,0,0,1,9,7.50012v-.001a1.49151,1.49151,0,0,1,.10693-.54737l.00415-.01367a1.49666,1.49666,0,0,1,.37207-.53467L15.46289.43469a1.4847,1.4847,0,1,1,2.10169,2.09766l-3.474,3.46777H33.90942l-3.474-3.46777A1.4847,1.4847,0,0,1,32.53711.43469L38.51624,6.403a1.49586,1.49586,0,0,1,.37268.53516h0l.00439.01416.00049.00195a1.49173,1.49173,0,0,1,.07764.26172A1.45252,1.45252,0,0,1,39,7.49915Zm7.99994,13.501a4,4,0,1,0-4,4A4,4,0,0,0,46.99994,21.00012ZM48,27.86194a14.61125,14.61125,0,0,0-5-.86182c-7.41113,0-13,5.15918-13,12a2,2,0,1,0,4,0,7.44887,7.44887,0,0,1,4-6.74463V48.00012H48V32.25549h0ZM5.00006,25.00012a4,4,0,1,0-4-4A4,4,0,0,0,5.00006,25.00012Zm-.00006,2a14.61125,14.61125,0,0,0-5,.86182v4.39355H0V48.00012H10V32.25549a7.44887,7.44887,0,0,1,4,6.74463,2,2,0,0,0,4,0C18,32.1593,12.41113,27.00012,5,27.00012Z"/></g></g></svg>