<svg xmlns="http://www.w3.org/2000/svg" viewBox="0 0 32 48"><defs><style>.cls-1{fill:#418fde;}</style></defs><title>Asset 885</title><g id="Layer_2" data-name="Layer 2"><g id="Icons"><path class="cls-1" d="M30,6H2A2.00583,2.00583,0,0,0,0,8V30H32V8A2.00583,2.00583,0,0,0,30,6ZM23,20a6.91929,6.91929,0,0,1-.54,2.7.03677.03677,0,0,1-.01.03,7.0064,7.0064,0,0,1-12.8999,0,.03677.03677,0,0,1-.01-.03A6.91929,6.91929,0,0,1,9,20V11.75a1.01419,1.01419,0,0,1,.73-.96l6-1.71a.98994.98994,0,0,1,.54,0l6,1.71a1.01419,1.01419,0,0,1,.73.96Z"/><path class="cls-1" d="M6,4H26a2,2,0,0,0,0-4H6A2,2,0,0,0,6,4Z"/><path class="cls-1" d="M0,48H12V38a2.00583,2.00583,0,0,1,2-2h4a2.00583,2.00583,0,0,1,2,2V48H32V32H0Z"/><path class="cls-1" d="M19.48,16.62988l-1.88-.04a.51015.51015,0,0,1-.48-.36987l-.62-1.84985a.52381.52381,0,0,0-1,0L14.88,16.22a.51015.51015,0,0,1-.48.36987l-1.88.04a.55624.55624,0,0,0-.31006.99024l1.5,1.18994a.56441.56441,0,0,1,.18.59985L13.35,21.29a.534.534,0,0,0,.80993.60986L15.7,20.78a.51.51,0,0,1,.6001,0l1.54,1.11987A.534.534,0,0,0,18.65,21.29l-.54-1.88013a.56441.56441,0,0,1,.18005-.59985l1.5-1.18994A.55624.55624,0,0,0,19.48,16.62988Z"/></g></g></svg>