<svg xmlns="http://www.w3.org/2000/svg" viewBox="0 0 47.99613 42.9883"><defs><style>.cls-1{fill:#418fde;}</style></defs><title>Asset 697</title><g id="Layer_2" data-name="Layer 2"><g id="Icons"><path class="cls-1" d="M38.89457,30.97169c.03589.00256.07007.01074.10644.01074a8.99512,8.99512,0,1,0,0-17.99023l-9.50158.0014a1.5,1.5,0,0,0,0,3l9.50158-.0014a5.99512,5.99512,0,1,1,0,11.99023,1.4764,1.4764,0,0,0-.16455.0166c-.03589-.00256-.07007-.01074-.10644-.01074H35.131l4.15246-4.1521a1.49984,1.49984,0,1,0-2.12109-2.12109L30.4495,28.4275a1.49946,1.49946,0,0,0,0,2.12109l6.71289,6.71289a1.49984,1.49984,0,1,0,2.12109-2.12109l-4.1521-4.1521H38.73A1.4764,1.4764,0,0,0,38.89457,30.97169Z"/><path class="cls-1" d="M29.79838,2.75031a4,4,0,1,0-2.54859,5.05017A4,4,0,0,0,29.79838,2.75031Z"/><path class="cls-1" d="M20.73478,23.50074,24.666,15.71107a4.85294,4.85294,0,0,0-2.146-6.5188l-2.55639-1.2901a1.9702,1.9702,0,0,0-.42639-.15259A14.18033,14.18033,0,0,0,1.23478,14.25752a2.06788,2.06788,0,0,0,3.68164,1.88415A10.04665,10.04665,0,0,1,15.113,10.7674L.22806,39.95264a2.08721,2.08721,0,1,0,3.71875,1.89649l9.04187-17.72864,4.47571,2.25873a10.13741,10.13741,0,0,1,4.1521,13.55994,2.08675,2.08675,0,1,0,3.70386,1.9234A14.31661,14.31661,0,0,0,20.73478,23.50074Z"/></g></g></svg>