<svg xmlns="http://www.w3.org/2000/svg" viewBox="0 0 48 48"><defs><style>.cls-1{fill:#418fde;}</style></defs><title>Asset 853</title><g id="Layer_2" data-name="Layer 2"><g id="Icons"><path class="cls-1" d="M20,10A10,10,0,1,0,10,20,10.00362,10.00362,0,0,0,20,10ZM9,4a1,1,0,0,1,2,0v8a1,1,0,0,1-2,0ZM9,16a1,1,0,1,1,1,1A1.00288,1.00288,0,0,1,9,16Z"/><path class="cls-1" d="M47.12109,33.87891a2.99889,2.99889,0,0,0-4.24218,0A19.49777,19.49777,0,0,1,32,39.36768V26h7a3,3,0,0,0,0-6H32V13a5.68013,5.68013,0,0,0,3-5A6,6,0,0,0,23,8a5.68013,5.68013,0,0,0,3,5v7H19a3,3,0,0,0,0,6h7V39.36768a19.49777,19.49777,0,0,1-10.87891-5.48877,2.99967,2.99967,0,1,0-4.24218,4.24218,25.49424,25.49424,0,0,0,15.16528,7.31739,2.98616,2.98616,0,0,0,5.91162,0,25.49424,25.49424,0,0,0,15.16528-7.31739A2.99889,2.99889,0,0,0,47.12109,33.87891ZM29,10a2,2,0,1,1,2-2A2.00575,2.00575,0,0,1,29,10Z"/></g></g></svg>