<svg xmlns="http://www.w3.org/2000/svg" viewBox="0 0 32.00732 44"><defs><style>.cls-1{fill:#418fde;}</style></defs><title>Asset 803</title><g id="Layer_2" data-name="Layer 2"><g id="Icons"><path class="cls-1" d="M30.99365,0h-29.98a.96043.96043,0,0,0-1.01.99l3.7,40.49a2.92668,2.92668,0,0,0,3.01,2.52H25.2937a2.92668,2.92668,0,0,0,3.01-2.52l3.7-40.49A.96043.96043,0,0,0,30.99365,0Zm-4.77,20.24a13.1538,13.1538,0,0,0-2.6-.24,11.47084,11.47084,0,0,0-5.30993,1.17,7.65013,7.65013,0,0,1-3.69007.83,7.63608,7.63608,0,0,1-3.68-.83A11.43338,11.43338,0,0,0,5.76367,20l-1.46-16h23.3999Z"/></g></g></svg>