<svg xmlns="http://www.w3.org/2000/svg" viewBox="0 0 35.99277 48"><defs><style>.cls-1{fill:#418fde;}</style></defs><title>Asset 962</title><g id="Layer_2" data-name="Layer 2"><g id="Text"><path class="cls-1" d="M34.84648,28.49,26.99638,13h-18L1.14628,28.49A13.95867,13.95867,0,0,0,3.97636,43.77a13.81566,13.81566,0,0,0,10.02,4.23h8a13.81566,13.81566,0,0,0,10.02-4.23A13.95867,13.95867,0,0,0,34.84648,28.49Zm-10.29,6.95a1.49128,1.49128,0,0,1,0,2.12012,1.49711,1.49711,0,0,1-2.12012,0L17.99638,33.12l-4.43994,4.44006a1.49711,1.49711,0,0,1-2.12012,0,1.49128,1.49128,0,0,1,0-2.12012L15.87627,31l-4.43995-4.43994a1.49915,1.49915,0,0,1,2.12012-2.12012L17.99638,28.88l4.43994-4.44006a1.49915,1.49915,0,0,1,2.12012,2.12012L20.1165,31Z"/><path class="cls-1" d="M8.99089,11h8.00165L15.34385,3.5661A2.00029,2.00029,0,0,0,13.3911,2H7.99071a.99993.99993,0,0,0-.97626,1.21692Z"/><path class="cls-1" d="M22.99742,11h3.99713l1.98438-9.82A1.00456,1.00456,0,0,0,27.98875,0h-2.9909a2.0298,2.0298,0,0,0-2.00409,2A2.0182,2.0182,0,0,0,21.003,0H18.00236a1.00459,1.00459,0,0,0-.99017,1.18L18.993,11Z"/></g></g></svg>