<svg xmlns="http://www.w3.org/2000/svg" viewBox="0 0 48 48"><defs><style>.cls-1{fill:#418fde;}</style></defs><title>Asset 964</title><g id="Layer_2" data-name="Layer 2"><g id="Text"><path class="cls-1" d="M47,13H43V2a2,2,0,0,0-4,0V13H31V2a2,2,0,0,0-4,0V13H23a1,1,0,0,0-1,1v8a13.94922,13.94922,0,0,0,7,11.99432V37a1,1,0,0,0,1,1h2V48h6V38h2a1,1,0,0,0,1-1V33.99432A13.94922,13.94922,0,0,0,48,22V14A1,1,0,0,0,47,13Z"/><path class="cls-1" d="M10,0A10,10,0,1,0,20,10,10.00362,10.00362,0,0,0,10,0Zm5.6499,7.76-7,6A1.00664,1.00664,0,0,1,8,14a1.02445,1.02445,0,0,1-.71-.29l-3-3A1.004,1.004,0,0,1,5.71,9.29l2.34009,2.3501,6.3-5.40015a1,1,0,0,1,1.2998,1.52Z"/></g></g></svg>