<svg xmlns="http://www.w3.org/2000/svg" viewBox="0 0 48 48"><defs><style>.cls-1{fill:#418fde;fill-rule:evenodd;}</style></defs><title>Asset 756</title><g id="Layer_2" data-name="Layer 2"><g id="Icons"><path class="cls-1" d="M13.41406,35.58594a1.99926,1.99926,0,0,0-2.82812,0L7.5,38.67188,4.41406,35.58594a1.99978,1.99978,0,0,0-2.82812,2.82812L4.67188,41.5,1.58594,44.58594a1.99978,1.99978,0,1,0,2.82812,2.82812L7.5,44.32812l3.08594,3.08594a1.99978,1.99978,0,0,0,2.82812-2.82812L10.32812,41.5l3.08594-3.08594A1.99926,1.99926,0,0,0,13.41406,35.58594Z"/><path class="cls-1" d="M12.58594,17.58594,6,24.17188,3.41406,21.58594A1.99978,1.99978,0,0,0,.58594,24.41406l4,4a1.99926,1.99926,0,0,0,2.82812,0l8-8a1.99978,1.99978,0,0,0-2.82812-2.82812Z"/><path class="cls-1" d="M45,22H23a3,3,0,0,0,0,6H45a3,3,0,0,0,0-6Z"/><path class="cls-1" d="M12.58594.58594,6,7.17188,3.41406,4.58594A1.99978,1.99978,0,0,0,.58594,7.41406l4,4a1.99926,1.99926,0,0,0,2.82812,0l8-8A1.99978,1.99978,0,1,0,12.58594.58594Z"/><path class="cls-1" d="M23,11H45a3,3,0,0,0,0-6H23a3,3,0,0,0,0,6Z"/><path class="cls-1" d="M45,39H23a3,3,0,0,0,0,6H45a3,3,0,0,0,0-6Z"/></g></g></svg>