<svg xmlns="http://www.w3.org/2000/svg" viewBox="0 0 48 48"><defs><style>.cls-1{fill:#418fde;}</style></defs><title>Asset 669</title><g id="Layer_2" data-name="Layer 2"><g id="Icons"><path class="cls-1" d="M45,5a3.01837,3.01837,0,0,0-3,3V24l-4.8064,4.84448a.97262.97262,0,0,1-1.60327.17249,1.2506,1.2506,0,0,1,0-1.747L39.646,23.14343a2.14761,2.14761,0,0,0,0-3,2.05957,2.05957,0,0,0-2.94849,0l-7.86768,8.00525A6.39638,6.39638,0,0,0,27.01672,33H27V48h9V38.34485a6.22717,6.22717,0,0,0,1.66492-1.20667l9.46936-9.61572A3.02662,3.02662,0,0,0,48,25.39905V8A3.01837,3.01837,0,0,0,45,5Z"/><path class="cls-1" d="M19.17017,28.14868l-7.86768-8.00525a2.05957,2.05957,0,0,0-2.94849,0,2.14761,2.14761,0,0,0,0,3L12.40967,27.27a1.2506,1.2506,0,0,1,0,1.747,1.19946,1.19946,0,0,1-1.717,0L6,24V8A3.01837,3.01837,0,0,0,3,5,3.01837,3.01837,0,0,0,0,8V25.39905a3.02662,3.02662,0,0,0,.86572,2.12341l9.46936,9.61572A6.22717,6.22717,0,0,0,12,38.34485V48h9V33h-.01672A6.39638,6.39638,0,0,0,19.17017,28.14868Z"/><circle class="cls-1" cx="24" cy="9" r="9"/></g></g></svg>