<svg xmlns="http://www.w3.org/2000/svg" viewBox="0 0 47.99997 47.05323"><defs><style>.cls-1{fill:#418fde;}</style></defs><title>Asset 698</title><g id="Layer_2" data-name="Layer 2"><g id="Icons"><path class="cls-1" d="M29.79838,6.81519a4,4,0,1,0-2.54859,5.05029A4.00007,4.00007,0,0,0,29.79838,6.81519Z"/><path class="cls-1" d="M20.73478,27.56567,24.666,19.776a4.853,4.853,0,0,0-2.146-6.5188L19.96366,11.967a1.97711,1.97711,0,0,0-.42639-.15259A14.18038,14.18038,0,0,0,1.23478,18.32251a2.06785,2.06785,0,1,0,3.68164,1.884A10.0469,10.0469,0,0,1,15.113,14.83228L.22806,44.01758a2.08721,2.08721,0,1,0,3.71875,1.89648l9.04187-17.72864,4.47571,2.25867a10.13757,10.13757,0,0,1,4.1521,13.56006,2.08673,2.08673,0,1,0,3.70386,1.92334A14.31661,14.31661,0,0,0,20.73478,27.56567Z"/><path class="cls-1" d="M47.54514,22.40259l-6.94775-6.94776a1.55233,1.55233,0,1,0-2.19532,2.19532L42.75193,22H29.5a1.5,1.5,0,0,0,0,3H42.75229l-4.35022,4.34985a1.55233,1.55233,0,1,0,2.19532,2.19532l6.94775-6.94727a1.55192,1.55192,0,0,0,0-2.19531Z"/><path class="cls-1" d="M33.5,28A1.50008,1.50008,0,0,0,32,29.5v5a1.5,1.5,0,0,0,3,0v-5A1.50007,1.50007,0,0,0,33.5,28Z"/><path class="cls-1" d="M33.5,19A1.50007,1.50007,0,0,0,35,17.5v-5a1.5,1.5,0,1,0-3,0v5A1.50008,1.50008,0,0,0,33.5,19Z"/><path class="cls-1" d="M33.5,8A1.50007,1.50007,0,0,0,35,6.5v-5a1.5,1.5,0,1,0-3,0v5A1.50008,1.50008,0,0,0,33.5,8Z"/><path class="cls-1" d="M33.49985,39a1.5,1.5,0,0,0-1.5,1.5v5a1.5,1.5,0,1,0,3,0v-5A1.5,1.5,0,0,0,33.49985,39Z"/></g></g></svg>