<svg xmlns="http://www.w3.org/2000/svg" viewBox="0 0 34.00012 48"><defs><style>.cls-1{fill:#418fde;}</style></defs><title>Asset 791</title><g id="Layer_2" data-name="Layer 2"><g id="Icons"><path class="cls-1" d="M17,0A17,17,0,0,0,0,17H34.00012A17,17,0,0,0,17,0Z"/><path class="cls-1" d="M28.461,19.418,17.00006,30.42041,5.53912,19.418A1.50014,1.50014,0,0,0,3.461,21.582l12.5,12c.00976.00928.02276.012.03271.021a1.49411,1.49411,0,0,0,.44709.28711c.01123.00451.02258.0061.03387.01037a1.437,1.437,0,0,0,1.05078,0c.01129-.00427.02265-.00586.03388-.01037a1.49419,1.49419,0,0,0,.44708-.28711c.00995-.009.023-.01172.03271-.021l12.5-12A1.50014,1.50014,0,0,0,28.461,19.418Z"/><rect class="cls-1" x="11.00006" y="36" width="12" height="12" rx="1"/></g></g></svg>