<svg xmlns="http://www.w3.org/2000/svg" viewBox="0 0 48 48"><defs><style>.cls-1{fill:#418fde;}</style></defs><g id="Layer_2" data-name="Layer 2"><g id="Expanded_Icons" data-name="Expanded Icons"><path class="cls-1" d="M43.81055,17.083a19.97285,19.97285,0,0,0-39.52393-.00977A4.99633,4.99633,0,0,0,0,22.01074v8.97852A5.01093,5.01093,0,0,0,5.01074,36H8.99561A2.00447,2.00447,0,0,0,11,33.99561V19.00439A2.00447,2.00447,0,0,0,8.99561,17H8.33984a15.99006,15.99006,0,0,1,31.416,0h-.75147A2.00447,2.00447,0,0,0,37,19.00439V33.99561A2.00447,2.00447,0,0,0,39.00439,36h.94776a7.11688,7.11688,0,0,1-7.01563,6H29.44531a4,4,0,1,0,0,4h3.49121A11.12222,11.12222,0,0,0,43.99658,35.89844,5.01249,5.01249,0,0,0,48,30.98926V22.01074A5,5,0,0,0,43.81055,17.083Z"/></g></g></svg>