<svg xmlns="http://www.w3.org/2000/svg" viewBox="0 0 36 48"><defs><style>.cls-1{fill:#418fde;}</style></defs><title>Asset 772</title><g id="Layer_2" data-name="Layer 2"><g id="Icons"><path class="cls-1" d="M35,0H13a1.00291,1.00291,0,0,0-1,1V12H23a3.00777,3.00777,0,0,1,2.23,1H32a1,1,0,0,1,0,2H26v3h6a1,1,0,0,1,0,2H26v3h6a1,1,0,0,1,0,2H26v9h9a1.00288,1.00288,0,0,0,1-1V1A1.00291,1.00291,0,0,0,35,0ZM32,10H16a1,1,0,0,1,0-2H32a1,1,0,0,1,0,2Z"/><path class="cls-1" d="M23,14H1a1.00291,1.00291,0,0,0-1,1V47a1.00288,1.00288,0,0,0,1,1H23a1.00288,1.00288,0,0,0,1-1V15A1.00291,1.00291,0,0,0,23,14ZM4,22H20a1,1,0,0,1,0,2H4a1,1,0,0,1,0-2Zm0,5H20a1,1,0,0,1,0,2H4a1,1,0,0,1,0-2ZM20,39H4a1,1,0,0,1,0-2H20a1,1,0,0,1,0,2ZM4,34a1,1,0,0,1,0-2H20a1,1,0,0,1,0,2Z"/></g></g></svg>