<svg xmlns="http://www.w3.org/2000/svg" viewBox="0 0 48 43"><defs><style>.cls-1{fill:#418fde;}</style></defs><g id="Layer_2" data-name="Layer 2"><g id="Expanded_Icons" data-name="Expanded Icons"><path class="cls-1" d="M19,26.60352V40.00488A2.99489,2.99489,0,0,1,16.00513,43H2.99487A2.99489,2.99489,0,0,1,0,40.00488V20.56738A16.56742,16.56742,0,0,1,16.5675,4,2.43243,2.43243,0,0,1,19,6.43262v8.8208l-5.52539,5.56494-2.64649-2.64648a3.99957,3.99957,0,0,0-5.65624,5.65625l2.666,2.666-1.665,1.67676A3.99958,3.99958,0,1,0,11.833,33.82324ZM31.4325,4A2.43243,2.43243,0,0,0,29,6.43262v8.91015l5.5,5.501,2.67188-2.67187a3.99957,3.99957,0,1,1,5.65624,5.65625L40.15625,26.5l1.67187,1.67188a3.99957,3.99957,0,1,1-5.65624,5.65625L29,26.65674V40.00488A2.99489,2.99489,0,0,0,31.99487,43H45.00513A2.99489,2.99489,0,0,0,48,40.00488V20.56738A16.56742,16.56742,0,0,0,31.4325,4Zm9.98156,15.58594a1.99926,1.99926,0,0,0-2.82812,0l-4.08576,4.08594L26,15.17139V2a2,2,0,0,0-4,0V15.0708l-8.52069,8.58057L9.41406,19.58594a1.99978,1.99978,0,0,0-2.82812,2.82812l4.07507,4.0752L7.58575,29.58594a1.99989,1.99989,0,0,0,2.82843,2.82812L23.94971,18.77832,37.58582,32.41406a1.99989,1.99989,0,0,0,2.82843-2.82812L37.32825,26.5l4.08581-4.08594A1.99926,1.99926,0,0,0,41.41406,19.58594Z"/></g></g></svg>