<svg xmlns="http://www.w3.org/2000/svg" viewBox="0 0 48 28.99988"><defs><style>.cls-1{fill:#418fde;}</style></defs><title>Asset 792</title><g id="Layer_2" data-name="Layer 2"><g id="Icons"><path class="cls-1" d="M5.49939,12.99963,7.5,12.99988a1.49982,1.49982,0,0,0,.00037-2.99964L5.49976,10a1.49982,1.49982,0,0,0-.00037,2.99963Z"/><path class="cls-1" d="M12.49963,12.99963l2.00061.00025a1.49982,1.49982,0,0,0,.00037-2.99964L12.5,10a1.49982,1.49982,0,0,0-.00037,2.99963Z"/><path class="cls-1" d="M19.49963,12.99963l2.00061.00025a1.49982,1.49982,0,0,0,.00037-2.99964L19.5,10a1.49982,1.49982,0,0,0-.00037,2.99963Z"/><path class="cls-1" d="M26.49963,12.99963l2.00061.00025a1.49982,1.49982,0,0,0,.00037-2.99964L26.5,10a1.49982,1.49982,0,0,0-.00037,2.99963Z"/><path class="cls-1" d="M33.5,12.99963l2.00049.00025a1.49982,1.49982,0,0,0,.00049-2.99964L33.50024,10A1.49982,1.49982,0,1,0,33.5,12.99963Z"/><path class="cls-1" d="M12.49963,7.99951l2.00061.00025a1.49982,1.49982,0,0,0,.00037-2.99964L12.5,4.99988a1.49982,1.49982,0,1,0-.00037,2.99963Z"/><path class="cls-1" d="M19.49963,7.99951l2.00061.00025a1.49982,1.49982,0,0,0,.00037-2.99964L19.5,4.99988a1.49982,1.49982,0,1,0-.00037,2.99963Z"/><path class="cls-1" d="M26.49963,7.99951l2.00061.00025a1.49982,1.49982,0,0,0,.00037-2.99964L26.5,4.99988a1.49982,1.49982,0,0,0-.00037,2.99963Z"/><path class="cls-1" d="M19.49963,2.99963l2.00061.00025A1.49982,1.49982,0,0,0,21.50061.00024L19.5,0a1.49982,1.49982,0,0,0-.00037,2.99963Z"/><path class="cls-1" d="M26.49963,2.99963l2.00061.00025A1.49982,1.49982,0,0,0,28.50061.00024L26.5,0a1.49982,1.49982,0,0,0-.00037,2.99963Z"/><path class="cls-1" d="M33.5,7.99951l2.00049.00025A1.49982,1.49982,0,0,0,35.501,5.00012l-2.00074-.00024A1.49982,1.49982,0,1,0,33.5,7.99951Z"/><path class="cls-1" d="M40.5,12.99963l2.00049.00025a1.49982,1.49982,0,0,0,.00049-2.99964L40.50024,10A1.49982,1.49982,0,1,0,40.5,12.99963Z"/><path class="cls-1" d="M47,14.99988H1a1,1,0,0,0-1,1,13,13,0,0,0,13,13H35a13,13,0,0,0,13-13A1,1,0,0,0,47,14.99988Z"/></g></g></svg>