<svg xmlns="http://www.w3.org/2000/svg" viewBox="0 0 48 48"><defs><style>.cls-1{fill:#418fde;}</style></defs><title>Asset 831</title><g id="Layer_2" data-name="Layer 2"><g id="Icons"><path class="cls-1" d="M19.20752,19c-3.84766-.54883-7.4773-2.71094-8.9773-6.21191l-.22363-.52247A2.08275,2.08275,0,0,0,8,11.00806V11H2.23608A2.236,2.236,0,0,0,0,13.23608V28.76392a2.19474,2.19474,0,0,0,.02563.25463A1.9787,1.9787,0,0,0,0,29.27271V46a2,2,0,0,0,4,0V31H6V46a2,2,0,0,0,4,0V29.27271a1.9787,1.9787,0,0,0-.02563-.25416A2.19474,2.19474,0,0,0,10,28.76392V19.24023A17.11839,17.11839,0,0,0,18.61768,23a2.16579,2.16579,0,0,0,.29785,0A1.95923,1.95923,0,0,0,20.979,21.36133,2.0888,2.0888,0,0,0,19.20752,19Z"/><circle class="cls-1" cx="5" cy="5" r="4"/><circle class="cls-1" cx="34" cy="6" r="4"/><path class="cls-1" d="M46,0a2.0001,2.0001,0,0,0-2,2A10.13349,10.13349,0,0,1,34,12c-5.13086,0-9-4.29883-9-10a2,2,0,0,0-4,0c0,6.05127,3.21631,10.96753,8,12.99463V28.82056a2.16374,2.16374,0,0,0,.02271.22632A1.96356,1.96356,0,0,0,29,29.27271V46a2,2,0,0,0,4,0V31h2V46a2,2,0,0,0,4,0V29.27271a1.96356,1.96356,0,0,0-.02271-.22583A2.16374,2.16374,0,0,0,39,28.82056V15.02539A14.20818,14.20818,0,0,0,48,2,2.0001,2.0001,0,0,0,46,0Z"/></g></g></svg>