<svg xmlns="http://www.w3.org/2000/svg" viewBox="0 0 48 48"><defs><style>.cls-1{fill:#418fde;}</style></defs><title>Asset 714</title><g id="Layer_2" data-name="Layer 2"><g id="Icons"><path class="cls-1" d="M1.5,11H12.90918L9.43542,14.46759A1.48345,1.48345,0,0,0,10.48633,17h0a1.48277,1.48277,0,0,0,1.05078-.43463l5.97681-5.96619a1.49663,1.49663,0,0,0,.37536-.53839l.00012-.00024v-.00019l.00342-.011a1.49231,1.49231,0,0,0,.07849-.26441A1.43973,1.43973,0,0,0,18,9.5V9.49915a1.45471,1.45471,0,0,0-.02856-.28357,1.48332,1.48332,0,0,0-.07691-.25922L17.89331,8.952l-.00024-.00055-.00415-.01337V8.93793l-.00013-.00019a1.498,1.498,0,0,0-.3717-.53436l-.00024-.00024L13.97607,4.869l-2.439-2.43433A1.48474,1.48474,0,1,0,9.43542,4.53241L12.90942,8H1.5a1.5,1.5,0,0,0,0,3Z"/><path class="cls-1" d="M46.92993,16H45V13.06A1.05417,1.05417,0,0,0,43.93994,12H42V1.5a1.5,1.5,0,0,0-3,0V12H37.06006A1.05417,1.05417,0,0,0,36,13.06V16H34.07007A1.0712,1.0712,0,0,0,33,17.07V45H24V38.81909a6.5,6.5,0,1,0-3,0V45H0v3H48V17.07A1.0712,1.0712,0,0,0,46.92993,16ZM42,31.5a.49511.49511,0,0,1,.5-.5h2a.49511.49511,0,0,1,.5.5v2a.49511.49511,0,0,1-.5.5h-2a.49511.49511,0,0,1-.5-.5ZM44.5,28h-2a.49511.49511,0,0,1-.5-.5v-2a.49511.49511,0,0,1,.5-.5h2a.49511.49511,0,0,1,.5.5v2A.49511.49511,0,0,1,44.5,28Zm0-6h-2a.49511.49511,0,0,1-.5-.5v-2a.49511.49511,0,0,1,.5-.5h2a.49511.49511,0,0,1,.5.5v2A.49511.49511,0,0,1,44.5,22ZM36,19.5a.49511.49511,0,0,1,.5-.5h2a.49511.49511,0,0,1,.5.5v2a.49511.49511,0,0,1-.5.5h-2a.49511.49511,0,0,1-.5-.5Zm0,6a.49511.49511,0,0,1,.5-.5h2a.49511.49511,0,0,1,.5.5v2a.49511.49511,0,0,1-.5.5h-2a.49511.49511,0,0,1-.5-.5Zm0,6a.49511.49511,0,0,1,.5-.5h2a.49511.49511,0,0,1,.5.5v2a.49511.49511,0,0,1-.5.5h-2a.49511.49511,0,0,1-.5-.5ZM42,45V40a1.00291,1.00291,0,0,1,1-1h1a1.00291,1.00291,0,0,1,1,1v5Z"/></g></g></svg>