<svg xmlns="http://www.w3.org/2000/svg" viewBox="0 0 32 41.98248"><defs><style>.cls-1{fill:#418fde;}</style></defs><title>Asset 678</title><g id="Layer_2" data-name="Layer 2"><g id="Icons"><path class="cls-1" d="M31.18994,2.97247l-15-2.94995a.81218.81218,0,0,0-.37988,0l-15,2.95A.99693.99693,0,0,0,0,3.95245V24.13251c0,9.86,7.30005,17.85,16,17.85s16-7.99,16-17.85V3.95245A.99693.99693,0,0,0,31.18994,2.97247Zm-8.51,18.30005-.69995.68994-5.62,5.87a.50685.50685,0,0,1-.72,0l-5.62-5.87-.7-.68994a4.33449,4.33449,0,0,1-.06006-6.17,4.23094,4.23094,0,0,1,2.89-1.13,4.27405,4.27405,0,0,1,2.99,1.22l.86.79.86-.79a4.27405,4.27405,0,0,1,2.99-1.22,4.23094,4.23094,0,0,1,2.89,1.13A4.33449,4.33449,0,0,1,22.67993,21.27252Z"/></g></g></svg>