<svg xmlns="http://www.w3.org/2000/svg" viewBox="0 0 30 48"><defs><style>.cls-1{fill:#418fde;}</style></defs><title>Asset 793</title><g id="Layer_2" data-name="Layer 2"><g id="Icons"><path class="cls-1" d="M28,13A13,13,0,0,0,2,13L0,47a1.00288,1.00288,0,0,0,1,1H29a1.00288,1.00288,0,0,0,1-1ZM22,7a2,2,0,1,1-2,2A2.00583,2.00583,0,0,1,22,7ZM15,3a2,2,0,1,1-2,2A2.00583,2.00583,0,0,1,15,3ZM8,7A2,2,0,1,1,6,9,2.00583,2.00583,0,0,1,8,7ZM4,44,6,17H24l2,27Z"/><circle class="cls-1" cx="9" cy="40" r="2"/><circle class="cls-1" cx="15" cy="40" r="2"/><circle class="cls-1" cx="21" cy="40" r="2"/><circle class="cls-1" cx="9" cy="34" r="2"/><circle class="cls-1" cx="15" cy="34" r="2"/><circle class="cls-1" cx="9" cy="28" r="2"/></g></g></svg>