<svg xmlns="http://www.w3.org/2000/svg" viewBox="0 0 48 48"><defs><style>.cls-1{fill:#418fde;}</style></defs><title>Asset 861</title><g id="Layer_2" data-name="Layer 2"><g id="Icons"><path class="cls-1" d="M46.5,45H1.5a1.5,1.5,0,0,0,0,3h45a1.5,1.5,0,0,0,0-3Z"/><path class="cls-1" d="M13,22.65V27a1.00291,1.00291,0,0,1-1,1H10a1.00291,1.00291,0,0,1-1-1V22.96a12.97074,12.97074,0,0,1-5-1.43V43H20V33a2.00579,2.00579,0,0,1,2-2h4a2.00579,2.00579,0,0,1,2,2V43H44V18a1.00291,1.00291,0,0,0-1-1H33l-7-5.25V8h9V2H26a2,2,0,0,0-4,0V4.99a13.011,13.011,0,0,1-9,17.66ZM13,38a1.00291,1.00291,0,0,1-1,1H10a1.00291,1.00291,0,0,1-1-1V33a1.00291,1.00291,0,0,1,1-1h2a1.00291,1.00291,0,0,1,1,1ZM35,22a1.00291,1.00291,0,0,1,1-1h2a1.00291,1.00291,0,0,1,1,1v5a1.00291,1.00291,0,0,1-1,1H36a1.00291,1.00291,0,0,1-1-1Zm0,11a1.00291,1.00291,0,0,1,1-1h2a1.00291,1.00291,0,0,1,1,1v5a1.00291,1.00291,0,0,1-1,1H36a1.00291,1.00291,0,0,1-1-1ZM28,21a4,4,0,1,1-4-4A3.99895,3.99895,0,0,1,28,21Z"/><path class="cls-1" d="M10,20A10,10,0,1,0,0,10,10.00362,10.00362,0,0,0,10,20ZM4.29,9.29A1.00761,1.00761,0,0,1,5.71,9.29l2.34009,2.3501,6.3-5.40015a1,1,0,0,1,1.2998,1.52l-7,6A1.00664,1.00664,0,0,1,8,14a1.02445,1.02445,0,0,1-.71-.29l-3-3A1.00761,1.00761,0,0,1,4.29,9.29Z"/></g></g></svg>