<svg xmlns="http://www.w3.org/2000/svg" viewBox="0 0 48 48"><defs><style>.a{fill:#418fde;}</style></defs><path class="a" d="M46.5,45H1.5a1.5,1.5,0,0,0,0,3h45a1.5,1.5,0,0,0,0-3Z"/><path class="a" d="M10,20A10,10,0,1,0,0,10,10.00362,10.00362,0,0,0,10,20ZM5,8A5,5,0,0,1,15,8v6a2.0001,2.0001,0,0,1-2,2H7a2.0001,2.0001,0,0,1-2-2Z"/><path class="a" d="M13,22.6499V27a1.00288,1.00288,0,0,1-1,1H10a1.00288,1.00288,0,0,1-1-1V22.96A12.96963,12.96963,0,0,1,4,21.53V43H20V33a2.00575,2.00575,0,0,1,2-2h4a2.00575,2.00575,0,0,1,2,2V43H44V18a1.00288,1.00288,0,0,0-1-1H33l-7-5.25V8h9V2H26a2,2,0,0,0-4,0V4.99A13.0109,13.0109,0,0,1,13,22.6499ZM13,38a1.00288,1.00288,0,0,1-1,1H10a1.00288,1.00288,0,0,1-1-1V33a1.00288,1.00288,0,0,1,1-1h2a1.00288,1.00288,0,0,1,1,1ZM35,22a1.00288,1.00288,0,0,1,1-1h2a1.00288,1.00288,0,0,1,1,1v5a1.00288,1.00288,0,0,1-1,1H36a1.00288,1.00288,0,0,1-1-1Zm0,11a1.00288,1.00288,0,0,1,1-1h2a1.00288,1.00288,0,0,1,1,1v5a1.00288,1.00288,0,0,1-1,1H36a1.00288,1.00288,0,0,1-1-1ZM28,21a4,4,0,1,1-4-4A3.99895,3.99895,0,0,1,28,21Z"/><path class="a" d="M10,5A3.00336,3.00336,0,0,0,7,8h6A3.00328,3.00328,0,0,0,10,5Z"/><rect class="a" x="8" y="10" width="4" height="4" rx="1"/></svg>