<svg xmlns="http://www.w3.org/2000/svg" viewBox="0 0 44 48"><defs><style>.cls-1{fill:#418fde;}</style></defs><g id="Layer_2" data-name="Layer 2"><g id="FINAL"><path class="cls-1" d="M44,9.97V30.15C44,40.01,36.7,48,28,48S12,40.01,12,30.15V22.82983A12.9344,12.9344,0,0,0,22.65063,7.05469L27.81006,6.04a.81218.81218,0,0,1,.37988,0l15,2.95A.99693.99693,0,0,1,44,9.97ZM0,10A10,10,0,1,1,10,20,10.00362,10.00362,0,0,1,0,10Zm4.29.71,3,3A1.02445,1.02445,0,0,0,8,14a1.00664,1.00664,0,0,0,.6499-.24l7-6a1,1,0,0,0-1.2998-1.52l-6.3,5.40015L5.71,9.29A1.004,1.004,0,0,0,4.29,10.71Z"/></g></g></svg>