<svg xmlns="http://www.w3.org/2000/svg" viewBox="0 0 48 48"><defs><style>.cls-1{fill:#418fde;}</style></defs><title>Asset 924</title><g id="Layer_2" data-name="Layer 2"><g id="Icons"><path class="cls-1" d="M45,21H43.74994a19.86716,19.86716,0,0,0-3.66785-8.83936l.88861-.88818A3,3,0,1,0,36.72852,7.0293l-.889.88861A19.86773,19.86773,0,0,0,27,4.25006V3a3,3,0,0,0-6,0V4.25006a19.86773,19.86773,0,0,0-8.83948,3.66785l-.889-.88861A3,3,0,1,0,7.0293,11.27246l.88861.88818A19.86716,19.86716,0,0,0,4.25006,21H3a3,3,0,0,0,0,6H4.25006a19.86716,19.86716,0,0,0,3.66785,8.83936l-.88861.88818a3,3,0,0,0,4.24218,4.24316l.889-.88861A19.86773,19.86773,0,0,0,21,43.74994V45a3,3,0,0,0,6,0V43.74994a19.86773,19.86773,0,0,0,8.83948-3.66785l.889.88861a3,3,0,1,0,4.24218-4.24316l-.88861-.88818A19.86716,19.86716,0,0,0,43.74994,27H45a3,3,0,0,0,0-6ZM24,38A14,14,0,1,1,38,24,14.01572,14.01572,0,0,1,24,38Z"/></g></g></svg>