<svg xmlns="http://www.w3.org/2000/svg" viewBox="0 0 48 48"><defs><style>.cls-1{fill:#418fde;}</style></defs><title>Asset 901</title><g id="Layer_2" data-name="Layer 2"><g id="Icons"><rect class="cls-1" x="14" width="8" height="8" rx="1"/><rect class="cls-1" x="24" width="8" height="8" rx="1"/><path class="cls-1" d="M9.33,32a4.68382,4.68382,0,0,0,2.71-.75977A8.60034,8.60034,0,0,1,16.66,30a8.67,8.67,0,0,1,4.63,1.24023A4.63823,4.63823,0,0,0,24,32a4.62726,4.62726,0,0,0,2.7-.75977A8.64081,8.64081,0,0,1,31.33,30a8.60034,8.60034,0,0,1,4.62,1.24023,4.63327,4.63327,0,0,0,2.43.75,20.14563,20.14563,0,0,0,4.61-10.82031A1.98717,1.98717,0,0,0,40.99,19H5.01a1.98717,1.98717,0,0,0-2,2.16992A20.1142,20.1142,0,0,0,7.3,31.58984,4.2762,4.2762,0,0,0,9.33,32Z"/><path class="cls-1" d="M46,42a8.58756,8.58756,0,0,0-4.626,1.24414,5.23851,5.23851,0,0,1-5.42138,0A8.58756,8.58756,0,0,0,31.32666,42a8.58976,8.58976,0,0,0-4.624,1.24414A4.69184,4.69184,0,0,1,23.99512,44a4.6974,4.6974,0,0,1-2.70948-.75586A8.583,8.583,0,0,0,16.66113,42a8.58976,8.58976,0,0,0-4.624,1.24414A4.69184,4.69184,0,0,1,9.32959,44a4.69126,4.69126,0,0,1-2.707-.75586A8.58525,8.58525,0,0,0,2,42a2,2,0,0,0,0,4,4.69072,4.69072,0,0,1,2.70654.75586A8.58586,8.58586,0,0,0,9.32959,48a8.58045,8.58045,0,0,0,4.62353-1.24414A4.69351,4.69351,0,0,1,16.66113,46a4.6974,4.6974,0,0,1,2.70948.75586A8.583,8.583,0,0,0,23.99512,48a8.58045,8.58045,0,0,0,4.62353-1.24414,5.23416,5.23416,0,0,1,5.41895,0,9.22133,9.22133,0,0,0,9.25146,0A4.70237,4.70237,0,0,1,46,46a2,2,0,0,0,0-4Z"/><path class="cls-1" d="M2,38a4.69072,4.69072,0,0,1,2.70654.75586A8.58586,8.58586,0,0,0,9.32959,40a8.58045,8.58045,0,0,0,4.62353-1.24414A4.69351,4.69351,0,0,1,16.66113,38a4.6974,4.6974,0,0,1,2.70948.75586A8.583,8.583,0,0,0,23.99512,40a8.58045,8.58045,0,0,0,4.62353-1.24414,5.23416,5.23416,0,0,1,5.41895,0,9.22133,9.22133,0,0,0,9.25146,0A4.70237,4.70237,0,0,1,46,38a2,2,0,0,0,0-4,8.58756,8.58756,0,0,0-4.626,1.24414,5.23851,5.23851,0,0,1-5.42138,0A8.58756,8.58756,0,0,0,31.32666,34a8.58976,8.58976,0,0,0-4.624,1.24414A4.69184,4.69184,0,0,1,23.99512,36a4.6974,4.6974,0,0,1-2.70948-.75586A8.583,8.583,0,0,0,16.66113,34a8.58976,8.58976,0,0,0-4.624,1.24414A4.69184,4.69184,0,0,1,9.32959,36a4.69126,4.69126,0,0,1-2.707-.75586A8.58525,8.58525,0,0,0,2,34a2,2,0,0,0,0,4Z"/><rect class="cls-1" x="8" y="11" width="30" height="5" rx="1"/></g></g></svg>