<svg xmlns="http://www.w3.org/2000/svg" viewBox="0 0 47.99996 48"><defs><style>.cls-1{fill:#418fde;}</style></defs><title>Asset 699</title><g id="Layer_2" data-name="Layer 2"><g id="Icons"><path class="cls-1" d="M36.19072,7.33313v.00012a1.47433,1.47433,0,0,0,1.94207.48792L39,7.35156V8.5a1.5,1.5,0,0,0,3,0V7.35156l.86719.46961a1.47434,1.47434,0,0,0,1.94208-.48792V7.33313A1.289,1.289,0,0,0,44.28892,5.512L43.34343,5l.94549-.512a1.289,1.289,0,0,0,.52033-1.82117V2.66675a1.47434,1.47434,0,0,0-1.94208-.48792L42,2.64844V1.5a1.5,1.5,0,0,0-3,0V2.64844l-.86719-.46961a1.47433,1.47433,0,0,0-1.94207.48792v.00012A1.289,1.289,0,0,0,36.711,4.488l.9455.512-.9455.512A1.289,1.289,0,0,0,36.19072,7.33313Z"/><path class="cls-1" d="M47.61052,19.70557A4.2332,4.2332,0,0,0,45.214,17.31641a4.64835,4.64835,0,0,0-3.46972.00976,1.36935,1.36935,0,0,0-.57691,1.92261,1.472,1.472,0,0,0,1.70423.73279,2.27445,2.27445,0,0,1,1.19689.1073,1.40636,1.40636,0,0,1,.77051.76416,2.23522,2.23522,0,0,1-1.249,2.8916,3.21,3.21,0,0,1-2.47656.01123,3.09686,3.09686,0,0,1-1.69239-1.72119L32.85447,7.85645a1.4996,1.4996,0,1,0-2.709,1.2871L36.68083,23.252a6.01727,6.01727,0,0,0,3.28711,3.27637A6.18355,6.18355,0,0,0,42.33317,27a6.27371,6.27371,0,0,0,2.41016-.48584A5.23882,5.23882,0,0,0,47.61052,19.70557Z"/><path class="cls-1" d="M21.05,7.33008a2.24482,2.24482,0,0,0-4.1,0L.19554,44.84009A2.24623,2.24623,0,0,0,2.25554,48H35.74443a2.2507,2.2507,0,0,0,2.06-3.16992ZM15,22l4-9,4,9Z"/></g></g></svg>