<svg xmlns="http://www.w3.org/2000/svg" viewBox="0 0 42.00128 48"><defs><style>.cls-1{fill:#418fde;}</style></defs><title>Asset 816</title><g id="Layer_2" data-name="Layer 2"><g id="Icons"><path class="cls-1" d="M5.43936,17.56177c.00391.00415.0094.00512.01343.009a1.50037,1.50037,0,0,0,.4729.314c.01318.00537.02686.00732.04028.01245a1.4915,1.4915,0,0,0,.52039.10132l.01428.00244.01294-.0022a1.48972,1.48972,0,0,0,.52515-.1023c.01184-.00439.02392-.0061.03589-.011a1.50724,1.50724,0,0,0,.4801-.31885l.0072-.00488.00244-.00366,4.99756-4.99756a1.5,1.5,0,0,0-2.12134-2.12134L8.00125,12.87866V1.5a1.5,1.5,0,0,0-3,0V12.87988L2.5607,10.43921A1.5,1.5,0,0,0,.43936,12.56055l4.99756,4.99756Z"/><path class="cls-1" d="M41.56192,10.43921a1.5002,1.5002,0,0,0-2.12134,0l-2.43933,2.43945V1.5a1.5,1.5,0,0,0-3,0V12.87988L31.5607,10.43921a1.5,1.5,0,0,0-2.12134,2.12134l4.99756,4.99756.00244.00366c.00391.00415.0094.00512.01343.009a1.50037,1.50037,0,0,0,.4729.314c.01318.00537.02686.00732.04028.01245a1.4915,1.4915,0,0,0,.52039.10132l.01428.00244.01294-.0022a1.48972,1.48972,0,0,0,.52515-.1023c.01184-.00439.02392-.0061.03589-.011a1.50724,1.50724,0,0,0,.4801-.31885l.0072-.00488.00244-.00366,4.99756-4.99756A1.5,1.5,0,0,0,41.56192,10.43921Z"/><path class="cls-1" d="M37.00064,29.65991l-14.97-11.32007a1.74148,1.74148,0,0,0-2.06006,0l-14.97,11.32007a1.52184,1.52184,0,0,0-.61,1.01L2.00064,48h18V38.29c0-.3.44995-.3999.62-.14014L26.15067,48h13.85l-2.39-17.33008A1.52189,1.52189,0,0,0,37.00064,29.65991Z"/></g></g></svg>