<svg xmlns="http://www.w3.org/2000/svg" viewBox="0 0 48 48"><defs><style>.cls-1{fill:#418fde;}</style></defs><title>Asset 808</title><g id="Layer_2" data-name="Layer 2"><g id="Icons"><path class="cls-1" d="M6.62,31.24A4.68412,4.68412,0,0,0,9.33008,32a4.68431,4.68431,0,0,0,2.71-.76A8.60263,8.60263,0,0,1,16.65991,30,9.64948,9.64948,0,0,1,19,30.27V16H2a2.00583,2.00583,0,0,0-2,2V30.2A9.43035,9.43035,0,0,1,2,30,8.60243,8.60243,0,0,1,6.62,31.24Z"/><path class="cls-1" d="M46,16H29V30.27A9.50048,9.50048,0,0,1,31.33008,30,8.60263,8.60263,0,0,1,35.95,31.24a5.22951,5.22951,0,0,0,5.43005,0A8.60243,8.60243,0,0,1,46,30a9.43035,9.43035,0,0,1,2,.2V18A2.00583,2.00583,0,0,0,46,16Z"/><path class="cls-1" d="M46,42a8.585,8.585,0,0,0-4.625,1.24414,5.24115,5.24115,0,0,1-5.42285,0A8.58615,8.58615,0,0,0,31.32617,42a8.57713,8.57713,0,0,0-4.62305,1.24414A4.69232,4.69232,0,0,1,23.99512,44a4.69572,4.69572,0,0,1-2.709-.75586A8.585,8.585,0,0,0,16.66113,42a8.58385,8.58385,0,0,0-4.624,1.24414A4.69237,4.69237,0,0,1,9.3291,44a4.69018,4.69018,0,0,1-2.70605-.75586A8.58586,8.58586,0,0,0,2,42a2,2,0,0,0,0,4,4.69126,4.69126,0,0,1,2.707.75586A8.58468,8.58468,0,0,0,9.3291,48a8.58382,8.58382,0,0,0,4.624-1.24414A4.69237,4.69237,0,0,1,16.66113,46a4.6957,4.6957,0,0,1,2.709.75586A8.585,8.585,0,0,0,23.99512,48a8.59259,8.59259,0,0,0,4.624-1.24414,5.23415,5.23415,0,0,1,5.41895,0,9.22042,9.22042,0,0,0,9.251,0A4.70237,4.70237,0,0,1,46,46a2,2,0,0,0,0-4Z"/><path class="cls-1" d="M46,34a8.585,8.585,0,0,0-4.625,1.24414,5.24115,5.24115,0,0,1-5.42285,0A8.58615,8.58615,0,0,0,31.32617,34a8.57713,8.57713,0,0,0-4.62305,1.24414A4.69232,4.69232,0,0,1,23.99512,36a4.69572,4.69572,0,0,1-2.709-.75586A8.585,8.585,0,0,0,16.66113,34a8.58385,8.58385,0,0,0-4.624,1.24414A4.69237,4.69237,0,0,1,9.3291,36a4.69018,4.69018,0,0,1-2.70605-.75586A8.58586,8.58586,0,0,0,2,34a2,2,0,0,0,0,4,4.69126,4.69126,0,0,1,2.707.75586A8.58468,8.58468,0,0,0,9.3291,40a8.58382,8.58382,0,0,0,4.624-1.24414A4.69237,4.69237,0,0,1,16.66113,38a4.6957,4.6957,0,0,1,2.709.75586A8.585,8.585,0,0,0,23.99512,40a8.59259,8.59259,0,0,0,4.624-1.24414,5.23415,5.23415,0,0,1,5.41895,0,9.22042,9.22042,0,0,0,9.251,0A4.70237,4.70237,0,0,1,46,38a2,2,0,0,0,0-4Z"/><path class="cls-1" d="M18.41992,10.40991,19,9.82007l1.5-1.51L22,6.79V27a2,2,0,0,0,4,0V6.87l1.5,1.48L29,9.84l.59009.58a2.00343,2.00343,0,0,0,2.82983-.01,2.00369,2.00369,0,0,0-.01-2.83L29,4.2,27.48,2.7,25.34009.58A1.94556,1.94556,0,0,0,24.62.13,1.80171,1.80171,0,0,0,23.92993,0h-.01A1.71664,1.71664,0,0,0,23.24.13a1.92726,1.92726,0,0,0-.73.46l-1.98,2L19,4.14,15.58008,7.59a2.001,2.001,0,1,0,2.83984,2.81994Z"/></g></g></svg>