<svg xmlns="http://www.w3.org/2000/svg" viewBox="0 0 48 48"><defs><style>.cls-1{fill:#418fde;}</style></defs><title>Asset 795</title><g id="Layer_2" data-name="Layer 2"><g id="Icons"><path class="cls-1" d="M46,36H41V30a2.0001,2.0001,0,0,0-2-2H32a2,2,0,0,0,0,4h5v4H27V33a3,3,0,0,0-6,0v3H11V32h5a2,2,0,0,0,0-4H9a2.0001,2.0001,0,0,0-2,2v6H2a2.00583,2.00583,0,0,0-2,2v8a2.00591,2.00591,0,0,0,2,2H46a2.00591,2.00591,0,0,0,2-2V38A2.00583,2.00583,0,0,0,46,36ZM26,43a2,2,0,0,1-4,0V41a2.00583,2.00583,0,0,1,2-2,2.01467,2.01467,0,0,1,2,2Z"/><path class="cls-1" d="M12,17.99471a2,2,0,1,0,4,0,9.70262,9.70262,0,0,0-1.21289-4.8967A5.7857,5.7857,0,0,1,14,10a5.77767,5.77767,0,0,1,.78809-3.099A9.71307,9.71307,0,0,0,16,2.00529a2,2,0,1,0-4,0,5.7857,5.7857,0,0,1-.78711,3.098A9.70259,9.70259,0,0,0,10,10a9.71307,9.71307,0,0,0,1.21191,4.89572A5.7777,5.7777,0,0,1,12,17.99471Z"/><path class="cls-1" d="M34,17.99471a2,2,0,1,0,4,0,9.70262,9.70262,0,0,0-1.21289-4.8967A5.7857,5.7857,0,0,1,36,10a5.77767,5.77767,0,0,1,.78809-3.099A9.71307,9.71307,0,0,0,38,2.00529a2,2,0,1,0-4,0,5.7857,5.7857,0,0,1-.78711,3.098A9.70259,9.70259,0,0,0,32,10a9.71307,9.71307,0,0,0,1.21191,4.89572A5.7777,5.7777,0,0,1,34,17.99471Z"/><path class="cls-1" d="M23,17.99471a2,2,0,1,0,4,0,9.70262,9.70262,0,0,0-1.21289-4.8967A5.7857,5.7857,0,0,1,25,10a5.77767,5.77767,0,0,1,.78809-3.099A9.71307,9.71307,0,0,0,27,2.00529a2,2,0,1,0-4,0,5.7857,5.7857,0,0,1-.78711,3.098A9.70259,9.70259,0,0,0,21,10a9.71307,9.71307,0,0,0,1.21191,4.89572A5.7777,5.7777,0,0,1,23,17.99471Z"/></g></g></svg>