<svg xmlns="http://www.w3.org/2000/svg" viewBox="0 0 48 47.99997"><defs><style>.cls-1{fill:#418fde;}</style></defs><title>Asset 962</title><g id="Layer_2" data-name="Layer 2"><g id="Icons"><path class="cls-1" d="M30.96039,5H27.20013a1.0204,1.0204,0,0,1-.96-.73975L25.00006.73544a1.04767,1.04767,0,0,0-2.00012,0L21.75989,4.26022a1.0204,1.0204,0,0,1-.96.73975H17.03961a1.11255,1.11255,0,0,0-.62018,1.98059L19.58929,9.5a1.129,1.129,0,0,1,.36011,1.19983l-1.89886,3.87634a1.06806,1.06806,0,0,0,1.61993,1.21979l3.72937-2.60071a1.02009,1.02009,0,0,1,1.20032,0l3.72937,2.60071a1.06806,1.06806,0,0,0,1.61993-1.21979L28.0506,10.6998A1.129,1.129,0,0,1,28.41071,9.5l3.16986-2.51941A1.11255,1.11255,0,0,0,30.96039,5Z"/><path class="cls-1" d="M30,25H18a1,1,0,0,0-1,1V48H31V26A1,1,0,0,0,30,25Z"/><path class="cls-1" d="M47,35H35a1,1,0,0,0-1,1V48H48V36A1,1,0,0,0,47,35Z"/><path class="cls-1" d="M13,31H1a1,1,0,0,0-1,1V48H14V32A1,1,0,0,0,13,31Z"/></g></g></svg>