<svg xmlns="http://www.w3.org/2000/svg" viewBox="0 0 48 48.0002"><defs><style>.cls-1{fill:#418fde;}</style></defs><title>Asset 9632</title><g id="Layer_2" data-name="Layer 2"><g id="Icons"><path class="cls-1" d="M24.5,41.0002h-3a3.5,3.5,0,0,0,0,7h3a3.5,3.5,0,1,0,0-7Z"/><path class="cls-1" d="M30.5,31.0002h-9a3.5,3.5,0,0,0,0,7h9a3.5,3.5,0,1,0,0-7Z"/><path class="cls-1" d="M32,24.5002a3.50017,3.50017,0,0,0-3.5-3.5h-16a3.5,3.5,0,0,0,0,7h16A3.50017,3.50017,0,0,0,32,24.5002Z"/><path class="cls-1" d="M39.5,11.0002h-26a3.5,3.5,0,0,0,0,7h26a3.5,3.5,0,0,0,0-7Z"/><path class="cls-1" d="M44.5,0H3.5a3.5,3.5,0,0,0,0,7h41a3.5,3.5,0,0,0,0-7Z"/></g></g></svg>