<svg xmlns="http://www.w3.org/2000/svg" viewBox="0 0 48.00003 48"><defs><style>.cls-1{fill:#418fde;}</style></defs><title>Asset 715</title><g id="Layer_2" data-name="Layer 2"><g id="Icons"><path class="cls-1" d="M20.5,9.62134l8.93933,8.93933a1.48985,1.48985,0,0,0,1.08838.434,1.35628,1.35628,0,0,0,.99377-.39478L45,5.12134V11.5a1.5,1.5,0,0,0,3,0V1.5A1.50007,1.50007,0,0,0,46.5,0h-10a1.5,1.5,0,0,0,0,3h6.37866L30.5,15.37866,21.62137,6.5a1.68407,1.68407,0,0,0-2.24268,0L.43936,25.43933A1.5,1.5,0,0,0,2.5607,27.56067Z"/><path class="cls-1" d="M47.15,25H10.85a.85787.85787,0,0,0-.85.86V28H44.05a.94319.94319,0,0,1,.95.95V43h2.15a.84928.84928,0,0,0,.85-.85V25.86A.85788.85788,0,0,0,47.15,25Z"/><path class="cls-1" d="M42.15,30H5.85a.84928.84928,0,0,0-.85.85V47.14a.85787.85787,0,0,0,.85.86h36.3a.85788.85788,0,0,0,.85-.86V30.85A.84928.84928,0,0,0,42.15,30ZM11,41a2,2,0,1,1,2-2A2.00591,2.00591,0,0,1,11,41Zm13,4a6,6,0,1,1,6-6A6.00472,6.00472,0,0,1,24,45Zm13-4a2,2,0,1,1,2-2A2.00591,2.00591,0,0,1,37,41Z"/></g></g></svg>