<svg xmlns="http://www.w3.org/2000/svg" viewBox="0 0 48 48"><defs><style>.cls-1{fill:#418fde;}</style></defs><title>Asset 963</title><g id="Layer_2" data-name="Layer 2"><g id="Icons"><circle class="cls-1" cx="13" cy="4" r="4"/><path class="cls-1" d="M46,0H24a2,2,0,0,0-2,2v8H12.97559C5.57812,10,0,15.15918,0,22a2,2,0,0,0,4,0,7.4529,7.4529,0,0,1,4-6.75079V29.1c0,.0296.00732.05712.00879.08642C8.00745,29.21564,8,29.24316,8,29.27271V46a2,2,0,0,0,4,0V31h2V46a2,2,0,0,0,4,0V29.27271c0-.02955-.00745-.05707-.00879-.08631C17.99268,29.1571,18,29.12958,18,29.1V14h4v7a2.00006,2.00006,0,0,0,2,2H46a2.00006,2.00006,0,0,0,2-2V2A2,2,0,0,0,46,0ZM30,10H26V4H44V19H26V14h4a2,2,0,0,0,0-4Z"/></g></g></svg>