<svg xmlns="http://www.w3.org/2000/svg" viewBox="0 0 40 48"><defs><style>.cls-1{fill:#418fde;}</style></defs><title>Asset 904</title><g id="Layer_2" data-name="Layer 2"><g id="Icons"><path class="cls-1" d="M12,7H28a11.97947,11.97947,0,0,1,10,5.37988V2a1.99318,1.99318,0,0,0-2-2H4A1.99318,1.99318,0,0,0,2,2V12.37988A11.97947,11.97947,0,0,1,12,7Z"/><path class="cls-1" d="M38.5,24.3999a2.2321,2.2321,0,0,0-.5-.21972A2.76977,2.76977,0,0,0,37,24V19a9.01361,9.01361,0,0,0-9-9H12a9.01361,9.01361,0,0,0-9,9v5a2.76977,2.76977,0,0,0-1,.18018,2.2321,2.2321,0,0,0-.5.21972A2.99655,2.99655,0,0,0,0,27V39a2.99594,2.99594,0,0,0,3,3v3.06982A2.94051,2.94051,0,0,0,5.92993,48h.14014A2.94051,2.94051,0,0,0,9,45.06982V42H31.04v3.06982A2.94043,2.94043,0,0,0,33.97,48h.1001A2.94051,2.94051,0,0,0,37,45.06982V42a2.99594,2.99594,0,0,0,3-3V27A2.99655,2.99655,0,0,0,38.5,24.3999ZM5.5,34A2.5,2.5,0,1,1,8,31.5,2.501,2.501,0,0,1,5.5,34ZM15,35a2,2,0,0,1-4,0V30a2.178,2.178,0,0,1,.03-.35986A2.0154,2.0154,0,0,1,13,28a2.0266,2.0266,0,0,1,1.97,1.64014A2.178,2.178,0,0,1,15,30Zm7,0a2,2,0,0,1-4,0V30a2.178,2.178,0,0,1,.03-.35986A2.0154,2.0154,0,0,1,20,28a2.0266,2.0266,0,0,1,1.97,1.64014A2.178,2.178,0,0,1,22,30Zm7,0a2,2,0,0,1-4,0V30a2.178,2.178,0,0,1,.03-.35986A2.0154,2.0154,0,0,1,27,28a2.0266,2.0266,0,0,1,1.97,1.64014A2.178,2.178,0,0,1,29,30Zm2-11H9V19a3.00887,3.00887,0,0,1,3-3H28a3.00887,3.00887,0,0,1,3,3Zm3.5,10A2.5,2.5,0,1,1,37,31.5,2.501,2.501,0,0,1,34.5,34Z"/></g></g></svg>