<svg xmlns="http://www.w3.org/2000/svg" viewBox="0 0 48 48"><defs><style>.cls-1{fill:#418fde;}</style></defs><title>Asset 9642</title><g id="Layer_2" data-name="Layer 2"><g id="Icons"><path class="cls-1" d="M47.9,19.4798l-7.76-5.37a.28017.28017,0,0,0-.28,0l-7.76,5.37a.20418.20418,0,0,0-.1.16v6.45c-.21-.01-.43994-.02-.66992-.02a8.67353,8.67353,0,0,0-4.63013,1.24,4.63731,4.63731,0,0,1-2.70337.75983A6.23679,6.23679,0,0,1,18,22.06982a5.71418,5.71418,0,0,1,5.5-5.89453,5.14209,5.14209,0,0,1,2.52734.65821,2,2,0,1,0,1.94532-3.49512A9.22272,9.22272,0,0,0,23.5,12.17529,9.71419,9.71419,0,0,0,14,22.06982a10.26176,10.26176,0,0,0,9.97852,9.99884l.01147.00116.006-.00024.004.00024.00586-.00061A8.67425,8.67425,0,0,0,28.62,30.82983a4.63777,4.63777,0,0,1,2.71008-.76,4.70172,4.70172,0,0,1,2.69995.75,8.39124,8.39124,0,0,0,3.97,1.23c.21.01.42993.02.65991.02a8.67344,8.67344,0,0,0,4.63013-1.24,4.907,4.907,0,0,1,1.71-.68,2.90484,2.90484,0,0,1,.32751-.04962c.15455-.00873.30726-.01868.47254-.02039a1.27223,1.27223,0,0,1,.2-.01,9.42927,9.42927,0,0,1,2,.2v-10.63A.20418.20418,0,0,0,47.9,19.4798Z"/><path class="cls-1" d="M46,42a8.58937,8.58937,0,0,0-4.625,1.24414,5.24115,5.24115,0,0,1-5.42285,0A8.59052,8.59052,0,0,0,31.32617,42a8.58149,8.58149,0,0,0-4.62305,1.24414A4.69232,4.69232,0,0,1,23.99512,44a4.69572,4.69572,0,0,1-2.709-.75586A8.58937,8.58937,0,0,0,16.66113,42a8.58822,8.58822,0,0,0-4.624,1.24414A4.69237,4.69237,0,0,1,9.3291,44a4.69019,4.69019,0,0,1-2.70605-.75537A8.57658,8.57658,0,0,0,2,42a2,2,0,0,0,0,4,4.69126,4.69126,0,0,1,2.707.75586A8.58031,8.58031,0,0,0,9.3291,48a8.58819,8.58819,0,0,0,4.624-1.24414A4.69237,4.69237,0,0,1,16.66113,46a4.6957,4.6957,0,0,1,2.709.75586A8.58937,8.58937,0,0,0,23.99512,48a8.5833,8.5833,0,0,0,4.624-1.24463,5.23561,5.23561,0,0,1,5.41895.00049,9.22042,9.22042,0,0,0,9.251,0A4.70237,4.70237,0,0,1,46,46a2,2,0,0,0,0-4Z"/><path class="cls-1" d="M46,34a8.58937,8.58937,0,0,0-4.625,1.24414,5.24115,5.24115,0,0,1-5.42285,0A8.59052,8.59052,0,0,0,31.32617,34a8.58149,8.58149,0,0,0-4.62305,1.24414A4.69232,4.69232,0,0,1,23.99512,36a4.69572,4.69572,0,0,1-2.709-.75586A8.58937,8.58937,0,0,0,16.66113,34a8.58822,8.58822,0,0,0-4.624,1.24414A4.69237,4.69237,0,0,1,9.3291,36a4.69019,4.69019,0,0,1-2.70605-.75537A8.57658,8.57658,0,0,0,2,34a2,2,0,0,0,0,4,4.69126,4.69126,0,0,1,2.707.75586A8.58031,8.58031,0,0,0,9.3291,40a8.58819,8.58819,0,0,0,4.624-1.24414A4.69237,4.69237,0,0,1,16.66113,38a4.6957,4.6957,0,0,1,2.709.75586A8.58937,8.58937,0,0,0,23.99512,40a8.5833,8.5833,0,0,0,4.624-1.24463,5.23561,5.23561,0,0,1,5.41895.00049,9.22042,9.22042,0,0,0,9.251,0A4.70237,4.70237,0,0,1,46,38a2,2,0,0,0,0-4Z"/><path class="cls-1" d="M4.10156,31.07031a2.0009,2.0009,0,0,0,1.77051-2.92773A16.50712,16.50712,0,0,1,20.5,4,16.58527,16.58527,0,0,1,31.64844,8.544,1.99994,1.99994,0,1,0,34.35156,5.5957,20.57082,20.57082,0,0,0,20.5,0,20.50832,20.50832,0,0,0,2.32715,29.99707,2.001,2.001,0,0,0,4.10156,31.07031Z"/></g></g></svg>