<svg xmlns="http://www.w3.org/2000/svg" viewBox="0 0 47.98635 48"><defs><style>.cls-1{fill:#418fde;}</style></defs><title>Asset 717</title><g id="Layer_2" data-name="Layer 2"><g id="Icons"><path class="cls-1" d="M46.91628,16H44.98635V13.06A1.05417,1.05417,0,0,0,43.92629,12H41.98611V1.5a1.5,1.5,0,0,0-3,0V12h-1.9397a1.05417,1.05417,0,0,0-1.06006,1.06V16H34.05642a1.0712,1.0712,0,0,0-1.07007,1.07V36l6.35,11,.57,1h7.58007a.49511.49511,0,0,0,.5-.5V17.07A1.0712,1.0712,0,0,0,46.91628,16ZM35.98635,19.5a.49511.49511,0,0,1,.5-.5h2a.49511.49511,0,0,1,.5.5v2a.49511.49511,0,0,1-.5.5h-2a.49511.49511,0,0,1-.5-.5Zm0,6a.49511.49511,0,0,1,.5-.5h2a.49511.49511,0,0,1,.5.5v2a.49511.49511,0,0,1-.5.5h-2a.49511.49511,0,0,1-.5-.5Zm3,8a.49511.49511,0,0,1-.5.5h-2a.49511.49511,0,0,1-.5-.5v-2a.49511.49511,0,0,1,.5-.5h2a.49511.49511,0,0,1,.5.5Zm6,11.5h-3V40a1.00291,1.00291,0,0,1,1-1h1a1.00291,1.00291,0,0,1,1,1Zm0-11.5a.49511.49511,0,0,1-.5.5h-2a.49511.49511,0,0,1-.5-.5v-2a.49511.49511,0,0,1,.5-.5h2a.49511.49511,0,0,1,.5.5Zm0-6a.49511.49511,0,0,1-.5.5h-2a.49511.49511,0,0,1-.5-.5v-2a.49511.49511,0,0,1,.5-.5h2a.49511.49511,0,0,1,.5.5Zm0-6a.49511.49511,0,0,1-.5.5h-2a.49511.49511,0,0,1-.5-.5v-2a.49511.49511,0,0,1,.5-.5h2a.49511.49511,0,0,1,.5.5Z"/><path class="cls-1" d="M23.0364,22.64a5.23238,5.23238,0,0,0-9.09009,0L.11636,46.71a.85877.85877,0,0,0,.75,1.29h36.73l-4.61-8.03Z"/></g></g></svg>