<svg xmlns="http://www.w3.org/2000/svg" viewBox="0 0 48 42.87549"><defs><style>.cls-1{fill:#418fde;}</style></defs><g id="Layer_2" data-name="Layer 2"><g id="Expanded_Icons" data-name="Expanded Icons"><path class="cls-1" d="M46,12.87549H39.45563L32.57745,3.96826a10.205,10.205,0,0,0-16.1549,0L9.54437,12.87549H2a2,2,0,0,0,0,4H8.19531A16.49474,16.49474,0,0,0,22,30.67139v12.2041h6V30.48877A16.50145,16.50145,0,0,0,40.80469,16.87549H46a2,2,0,0,0,0-4ZM28,27.06592V21.87549a3.00011,3.00011,0,1,0-6,.02392v5.16651a6,6,0,1,1,6,0Z"/></g></g></svg>