<svg xmlns="http://www.w3.org/2000/svg" viewBox="0 0 20.02002 48"><defs><style>.cls-1{fill:#418fde;}</style></defs><title>Asset 914</title><g id="Layer_2" data-name="Layer 2"><g id="Icons"><path class="cls-1" d="M18.02,14.05762V2a2,2,0,0,0-4,0V14h-8V12a1,1,0,0,0-1-1h-2a1,1,0,0,0-1,1v2.05518A2.77523,2.77523,0,0,0,0,16.8335v11.333a2.956,2.956,0,0,0,1.07947,2.32422V44.89941A3.11,3.11,0,0,0,4.18018,48H15.91931A3.10989,3.10989,0,0,0,19.02,44.89941V30.416a2.96088,2.96088,0,0,0,1-2.24952V16.8335A2.78068,2.78068,0,0,0,18.02,14.05762ZM15.02,41.25a.76084.76084,0,0,1-.771.75H5.7688a.76084.76084,0,0,1-.771-.75v-4.5a.76084.76084,0,0,1,.771-.75H14.249a.76084.76084,0,0,1,.771.75Zm0-12.25H5a1,1,0,0,1,0-2H15.02a1,1,0,0,1,0,2Zm0-4H5a1,1,0,0,1,0-2H15.02a1,1,0,0,1,0,2Zm0-4H5a1,1,0,0,1,0-2H15.02a1,1,0,0,1,0,2Z"/></g></g></svg>