<svg xmlns="http://www.w3.org/2000/svg" viewBox="0 0 34 48.00006"><defs><style>.cls-1{fill:#418fde;}</style></defs><title>Asset 811</title><g id="Layer_2" data-name="Layer 2"><g id="Icons"><path class="cls-1" d="M17.42993.21a.54506.54506,0,0,0-.85986,0C13.92993,3.61005,0,21.92,0,30.61005a17.20029,17.20029,0,0,0,17,17.39,17.20029,17.20029,0,0,0,17-17.39C34,21.92,20.07007,3.61005,17.42993.21ZM21.5,41.00006a1.5,1.5,0,0,1,0-3c2.48,0,4.5-2.47,4.5-5.5a1.5,1.5,0,0,1,3,0C29,37.19,25.64,41.00006,21.5,41.00006Z"/></g></g></svg>