<svg xmlns="http://www.w3.org/2000/svg" viewBox="0 0 48 30"><defs><style>.cls-1,.cls-2{fill:#418fde;}.cls-1{fill-rule:evenodd;}</style></defs><title>Asset 812</title><g id="Layer_2" data-name="Layer 2"><g id="Icons"><path class="cls-1" d="M43,14V12a6.00468,6.00468,0,0,0-6-6H33V3a2.996,2.996,0,0,0-3-3H3A2.996,2.996,0,0,0,0,3V26H5a6,6,0,0,1,12,0H29a6,6,0,0,1,12,0h5a2.00583,2.00583,0,0,0,2-2V19A5.00181,5.00181,0,0,0,43,14ZM17,16a3.98831,3.98831,0,0,1-4-3.98c0-2,3.28-6.19006,3.9-6.97a.12138.12138,0,0,1,.2,0c.62.77991,3.9,4.97,3.9,6.97A3.98831,3.98831,0,0,1,17,16ZM37,9a2.996,2.996,0,0,1,3,3v2H33V9Z"/><circle class="cls-2" cx="11" cy="26" r="4"/><circle class="cls-2" cx="35" cy="26" r="4"/></g></g></svg>