<svg xmlns="http://www.w3.org/2000/svg" viewBox="0 0 44 32"><defs><style>.cls-1{fill:#418fde;}</style></defs><g id="Layer_2" data-name="Layer 2"><g id="FINAL"><path class="cls-1" d="M37,.94V0l7,7H37.78A.781.781,0,0,1,37,6.22ZM44,9V30a2.00006,2.00006,0,0,1-2,2H2a2.00006,2.00006,0,0,1-2-2V2A2,2,0,0,1,2,0H35V6.21973A2.78322,2.78322,0,0,0,37.78027,9ZM9.61816,18l2.27637-4.55273a1.00012,1.00012,0,1,0-1.78906-.89454L8.5,15.76367,6.89453,12.55273a1.00012,1.00012,0,1,0-1.78906.89454L7.38184,18,5.10547,22.55273a1.00012,1.00012,0,0,0,1.78906.89454L8.5,20.23633l1.60547,3.21094a1.00012,1.00012,0,1,0,1.78906-.89454ZM21,23a.99974.99974,0,0,0-1-1H16V13a1,1,0,0,0-2,0V23a.99974.99974,0,0,0,1,1h5A.99974.99974,0,0,0,21,23Zm8-3a3.00328,3.00328,0,0,0-3-3H25a1.001,1.001,0,0,1-1-1V15a1.001,1.001,0,0,1,1-1h2a1,1,0,0,0,0-2H25a3.00328,3.00328,0,0,0-3,3v1a3.00328,3.00328,0,0,0,3,3h1a1.001,1.001,0,0,1,1,1v1a1.001,1.001,0,0,1-1,1H23a1,1,0,0,0,0,2h3a3.00328,3.00328,0,0,0,3-3Zm6.61816-2,2.27637-4.55273a1.00012,1.00012,0,0,0-1.78906-.89454L34.5,15.76367l-1.60547-3.21094a1.00012,1.00012,0,0,0-1.78906.89454L33.38184,18l-2.27637,4.55273a1.00012,1.00012,0,0,0,1.78906.89454L34.5,20.23633l1.60547,3.21094a1.00012,1.00012,0,0,0,1.78906-.89454Z"/></g></g></svg>