<svg xmlns="http://www.w3.org/2000/svg" viewBox="0 0 48 48"><defs><style>.cls-1{fill:#418fde;}</style></defs><title>Asset 819</title><g id="Layer_2" data-name="Layer 2"><g id="Icons"><path class="cls-1" d="M45,0a3.01844,3.01844,0,0,0-3,3V19l-4.8064,4.84448a.97244.97244,0,0,1-1.60327.17237,1.25045,1.25045,0,0,1,0-1.74683L39.646,18.14355a2.14761,2.14761,0,0,0,0-3,2.05936,2.05936,0,0,0-2.94849,0l-7.86768,8.00513A6.39638,6.39638,0,0,0,27.01672,28H27v7H21V28h-.01672a6.39638,6.39638,0,0,0-1.81311-4.85132l-7.86768-8.00513a2.05936,2.05936,0,0,0-2.94849,0,2.14761,2.14761,0,0,0,0,3L12.40967,22.27a1.25045,1.25045,0,0,1,0,1.74683,1.19925,1.19925,0,0,1-1.717.00024L6,19V3A3.01844,3.01844,0,0,0,3,0,3.01844,3.01844,0,0,0,0,3V20.39893a3.02664,3.02664,0,0,0,.86566,2.12353l9.37909,9.52393h-.00006L12,33.83228V35a2,2,0,0,0,0,4v3a2,2,0,0,0,0,4v2h9V46h6v2h9V46a2,2,0,0,0,0-4V39a2,2,0,0,0,0-4V33.83252L38.10834,31.688h-.00006l9.02606-9.16553A3.02664,3.02664,0,0,0,48,20.39893V3A3.01844,3.01844,0,0,0,45,0ZM27,42H21V39h6Z"/></g></g></svg>