<svg xmlns="http://www.w3.org/2000/svg" viewBox="0 0 47.96606 33"><defs><style>.cls-1{fill:#418fde;}</style></defs><title>Asset 733</title><g id="Layer_2" data-name="Layer 2"><g id="Icons"><path class="cls-1" d="M31.92694.23883l-17.38043,9.248a1.12688,1.12688,0,0,0-.58045.99939V22.51373a1.1269,1.1269,0,0,0,.58045.99945l17.38043,9.248a2.10849,2.10849,0,0,0,3.03912-1.99884V2.23767A2.10849,2.10849,0,0,0,31.92694.23883Z"/><path class="cls-1" d="M10.96588,10H3.00061A3.00059,3.00059,0,0,0,0,13.00055v6.99884A3.00064,3.00064,0,0,0,3.00061,23h.96545v6.5a2.5,2.5,0,0,0,5,0V23h1.99982a1.0002,1.0002,0,0,0,1.00018-1.00018V11.00018A1.0002,1.0002,0,0,0,10.96588,10Z"/><path class="cls-1" d="M46.46606,15h-7a1.5,1.5,0,0,0,0,3h7a1.5,1.5,0,0,0,0-3Z"/><path class="cls-1" d="M40.15369,10.79877l6.06213-3.5a1.5,1.5,0,1,0-1.5-2.59809l-6.06213,3.5a1.5,1.5,0,1,0,1.5,2.59809Z"/><path class="cls-1" d="M46.21582,25.70117l-6.06213-3.5a1.5,1.5,0,1,0-1.5,2.59808l6.06213,3.5a1.5,1.5,0,1,0,1.5-2.59808Z"/></g></g></svg>