<svg xmlns="http://www.w3.org/2000/svg" viewBox="0 0 48.00007 48.00057"><defs><style>.cls-1{fill:#418fde;}</style></defs><title>Asset 718</title><g id="Layer_2" data-name="Layer 2"><g id="Icons"><path class="cls-1" d="M7.68851,37.40438.57816,44.59432a1.99982,1.99982,0,1,0,2.84375,2.8125l7.11035-7.18994a1.99982,1.99982,0,1,0-2.84375-2.8125Z"/><path class="cls-1" d="M38.8096,11.11043a1.9946,1.9946,0,0,0,1.40625-.57763l7.19043-7.10987A2.00016,2.00016,0,0,0,44.59378.57821L37.40335,7.68807a2.00024,2.00024,0,0,0,1.40625,3.42236Z"/><path class="cls-1" d="M40.29984,37.41219A1.99981,1.99981,0,0,0,37.46,40.2286l7.12012,7.18017A1.9998,1.9998,0,1,0,47.42,44.59237Z"/><path class="cls-1" d="M7.77152,10.54061a1.9998,1.9998,0,0,0,2.8164-2.83985L3.40824.58065A1.9998,1.9998,0,1,0,.59183,3.42049Z"/><path class="cls-1" d="M24,10.00057c-7.41113,0-13,5.15869-13,12a2,2,0,0,0,4,0A7.44861,7.44861,0,0,1,19,15.25606V46.00057a2,2,0,0,0,4,0v-15h2v15a2,2,0,0,0,4,0V15.25594A7.4487,7.4487,0,0,1,33,22.00057a2,2,0,1,0,4,0C37,15.15926,31.41117,10.00057,24,10.00057Z"/><circle class="cls-1" cx="23.99997" cy="4.00057" r="4"/></g></g></svg>