<svg xmlns="http://www.w3.org/2000/svg" viewBox="0 0 42 48"><defs><style>.cls-1{fill:#418fde;}</style></defs><title>Asset 962</title><g id="Layer_2" data-name="Layer 2"><g id="Icons"><path class="cls-1" d="M39.5,43A11.57678,11.57678,0,0,1,28,31.10742V8.53125l2.74121,2.74121A2.49974,2.49974,0,1,0,34.27637,7.7373L27.27246.73242a2.4991,2.4991,0,0,0-3.53516,0L16.73242,7.7373a2.49974,2.49974,0,0,0,3.53516,3.53516L23,8.54053V25.88025A17.17334,17.17334,0,0,0,12,22H8.54053l2.73193-2.73242A2.49974,2.49974,0,0,0,7.7373,15.73242L.73242,22.7373a2.4991,2.4991,0,0,0,0,3.53516L7.7373,33.27637a2.49974,2.49974,0,0,0,3.53516-3.53516L8.53125,27H12a11.72841,11.72841,0,0,1,11.51086,8.377l.01978-.00464A16.35306,16.35306,0,0,0,39.5,48a2.5,2.5,0,0,0,0-5Z"/></g></g></svg>