<svg xmlns="http://www.w3.org/2000/svg" viewBox="0 0 47.99991 48"><defs><style>.cls-1{fill:#418fde;}</style></defs><title>Asset 844</title><g id="Layer_2" data-name="Layer 2"><g id="Icons"><path class="cls-1" d="M20,10A10,10,0,1,0,10,20,10.00362,10.00362,0,0,0,20,10ZM10,17a1,1,0,1,1,1-1A1.00288,1.00288,0,0,1,10,17Zm1-5a1,1,0,0,1-2,0V4a1,1,0,0,1,2,0Z"/><path class="cls-1" d="M47.988,28.86646c-.00415-.06153-.00318-.12354-.01294-.18433a1.91509,1.91509,0,0,0-.05469-.21289c-.01465-.05322-.02441-.10791-.04346-.15967a1.98255,1.98255,0,0,0-.08764-.18579c-.02661-.0542-.04859-.11035-.08008-.16211-.03369-.05542-.07617-.10449-.115-.15649-.03833-.051-.07227-.1045-.11572-.15186a1.94919,1.94919,0,0,0-.17188-.15723c-.03882-.03369-.07275-.07129-.1145-.10229a1.97359,1.97359,0,0,0-.30444-.18237c-.01246-.00635-.02247-.01514-.03492-.021l-.00317-.00147-.01416-.00683L32.00122,20V12a3,3,0,0,0-6,0v8L11.165,27.18311l-.01.00488-.00537.00244c-.021.01-.03809.02466-.0586.03516a1.99343,1.99343,0,0,0-.27954.16772c-.04785.0354-.0874.07813-.13134.11694a1.9611,1.9611,0,0,0-.15552.14258,1.98112,1.98112,0,0,0-.12378.1626c-.03589.04883-.07568.09424-.10718.146-.03345.05493-.05737.1145-.0852.17236-.02832.0581-.06006.11426-.08277.17529-.02051.05567-.03125.11426-.04687.17163a1.93478,1.93478,0,0,0-.05127.20093c-.0105.06494-.00977.13135-.01392.19727a1.88963,1.88963,0,0,0-.01074.18969,1.99023,1.99023,0,0,0,.03516.26905c.00708.04028.00634.08007.01587.12036l.002.00561c.00439.01831.01294.03589.01782.0542a2.01983,2.01983,0,0,0,.1084.30689c.00415.00879.00537.01806.00952.02685.00659.01392.01807.02368.0249.0376a1.97709,1.97709,0,0,0,.2815.425c.00781.009.01416.01953.022.02856a2.00657,2.00657,0,0,0,.37915.31763c.02734.01807.05347.03687.08154.05347a2.01034,2.01034,0,0,0,.43677.19384c.02856.00879.05689.01465.08569.022A1.97061,1.97061,0,0,0,11.99927,31l.00171-.00024L12.0022,31a1.99474,1.99474,0,0,0,.44287-.051l.01416-.0017L26.00122,28V43s-3.67822,3.27814-3.80981,3.40991A.83251.83251,0,0,0,22.00122,47a.55277.55277,0,0,0,.02.17993c.01.05.02.09009.03.13013a.93845.93845,0,0,0,.2.34985c.05.05.1001.1001.15991.15015a.01.01,0,0,1,.01026.01,1.1199,1.1199,0,0,0,.27.12988,1.0565,1.0565,0,0,0,.30981.05,1.097,1.097,0,0,0,.17993-.02c.04-.01.09009-.02.13013-.03l.06006-.02L29.00122,46l5.65991,1.93994.03028.01a.98466.98466,0,0,0,.61987,0,.522.522,0,0,0,.13989-.06006.99484.99484,0,0,0,.5-.57983c.01026-.04.02-.08008.03-.13013a.55277.55277,0,0,0,.02-.17993.79379.79379,0,0,0-.18994-.59009C35.689,46.2876,32.00122,43,32.00122,43V28l13.52661,2.9436.00928.0022.0061.00147c.01685.0039.03369.00293.05054.00634a1.973,1.973,0,0,0,.34814.04493c.01026.00024.02027-.002.03052-.00171a1.98781,1.98781,0,0,0,.36011-.02564c.01318-.00244.02539-.00732.03833-.01a2.013,2.013,0,0,0,.33423-.09106c.0144-.00537.0271-.01392.04126-.01953a2.00885,2.00885,0,0,0,.30224-.14917c.01929-.01172.03565-.02759.05445-.0398a1.98668,1.98668,0,0,0,.24951-.18945c.03711-.03369.06714-.07446.10156-.11084a2.006,2.006,0,0,0,.15454-.17285,1.98172,1.98172,0,0,0,.16529-.27539c.011-.02149.02636-.03931.03686-.06153l.001-.00268a1.993,1.993,0,0,0,.08423-.23828c.01587-.04932.03857-.09742.05053-.147l.002-.00561c.01074-.04541.01049-.09058.01782-.136a1.95023,1.95023,0,0,0,.0332-.25293A1.92862,1.92862,0,0,0,47.988,28.86646Z"/></g></g></svg>