<svg xmlns="http://www.w3.org/2000/svg" viewBox="0 0 48 48"><defs><style>.cls-1{fill:#418fde;}</style></defs><title>Asset 820</title><g id="Layer_2" data-name="Layer 2"><g id="Icons"><path class="cls-1" d="M17,25.08984h-.00024V23.5a2.50735,2.50735,0,0,0-2.5-2.5H9.50024a2.50735,2.50735,0,0,0-2.5,2.5v1.58008H7A12.00667,12.00667,0,1,0,22.32,42.14014a14.9407,14.9407,0,0,1,0-12.28028A12.05748,12.05748,0,0,0,17,25.08984ZM12,43a7,7,0,1,1,7-7A7.00778,7.00778,0,0,1,12,43Z"/><path class="cls-1" d="M12,18a2.00583,2.00583,0,0,0,2-2V13a2,2,0,0,0-4,0v3A2.00583,2.00583,0,0,0,12,18Z"/><path class="cls-1" d="M16.35938,8.43237,18.4256,6.3689a1.968,1.968,0,1,0-2.785-2.78125L13.5744,5.65112a1.968,1.968,0,0,0,2.785,2.78125Z"/><path class="cls-1" d="M34,13v3a2,2,0,0,0,4,0V13a2,2,0,0,0-4,0Z"/><path class="cls-1" d="M31.65906,8.42627A1.95955,1.95955,0,1,0,34.4317,5.65649L32.347,3.57373a1.97014,1.97014,0,0,0-2.77612-.00342H29.5708a1.96527,1.96527,0,0,0,.00354,2.7732Z"/><path class="cls-1" d="M27,2a1.9999,1.9999,0,0,0-2-2H23a2,2,0,0,0,0,4h2A2.00006,2.00006,0,0,0,27,2Z"/><path class="cls-1" d="M41,25.08008h-.00024V23.5a2.50735,2.50735,0,0,0-2.5-2.5H33.50024a2.50735,2.50735,0,0,0-2.5,2.5v1.58008H31a12,12,0,1,0,10,0ZM36,43a7,7,0,1,1,7-7A7.00778,7.00778,0,0,1,36,43Z"/></g></g></svg>