<svg xmlns="http://www.w3.org/2000/svg" viewBox="0 0 47.9989 48"><defs><style>.cls-1{fill:#418fde;}</style></defs><title>Asset 821</title><g id="Layer_2" data-name="Layer 2"><g id="Icons"><path class="cls-1" d="M12.49554,41a1.5,1.5,0,0,0-1.5,1.5v3.99878a1.5,1.5,0,0,0,3,0V42.5A1.5,1.5,0,0,0,12.49554,41Z"/><path class="cls-1" d="M23.49774,34.00342H19.4989a1.49987,1.49987,0,0,0-1.5,1.5h0a1.5,1.5,0,0,0,1.5,1.5h3.99884a1.5,1.5,0,0,0,1.5-1.5h0A1.49987,1.49987,0,0,0,23.49774,34.00342Z"/><path class="cls-1" d="M12.50226,23.001a1.5,1.5,0,0,0-1.5,1.5V28.5a1.5,1.5,0,0,0,3,0V24.501A1.5,1.5,0,0,0,12.50226,23.001Z"/><path class="cls-1" d="M6.9989,35.49658a1.5,1.5,0,0,0-1.5-1.5H1.5a1.5,1.5,0,0,0,0,3H5.4989A1.49987,1.49987,0,0,0,6.9989,35.49658Z"/><path class="cls-1" d="M18.55957,39.43628a1.5,1.5,0,1,0-2.12134,2.12134l3.00312,3.00293a1.49993,1.49993,0,1,0,2.12133-2.1211Z"/><path class="cls-1" d="M18.55646,31.56372l3.00311-3.00317a1.49993,1.49993,0,0,0-2.12134-2.1211l-3.00311,3.00293a1.5,1.5,0,1,0,2.12134,2.12134Z"/><path class="cls-1" d="M6.44116,31.56348a1.5,1.5,0,0,0,2.12128-2.12134L5.55957,26.43945a1.49993,1.49993,0,0,0-2.12134,2.1211Z"/><path class="cls-1" d="M6.44135,39.43628,3.43823,42.43945a1.49993,1.49993,0,0,0,2.12134,2.1211l3.00311-3.00293a1.5,1.5,0,0,0-2.12133-2.12134Z"/><path class="cls-1" d="M34.9989,10c-7.41113,0-13,5.15918-13,12a2,2,0,0,0,4,0,7.449,7.449,0,0,1,3.99994-6.74463V46a2,2,0,0,0,4,0V31h2V46a2,2,0,0,0,4,0V15.25537A7.44863,7.44863,0,0,1,43.9989,22a2,2,0,0,0,4,0C47.9989,15.15918,42.41,10,34.9989,10Z"/><circle class="cls-1" cx="34.99884" cy="4" r="4"/></g></g></svg>