<svg xmlns="http://www.w3.org/2000/svg" viewBox="0 0 48 48"><defs><style>.cls-1{fill:#418fde;}</style></defs><title>Asset 865</title><g id="Layer_2" data-name="Layer 2"><g id="Icons"><circle class="cls-1" cx="24" cy="24" r="5"/><path class="cls-1" d="M46,22H37.82861l1.58545-1.58594a1.99978,1.99978,0,0,0-2.82812-2.82812l-5,5a1.98208,1.98208,0,0,0-.3161.42724c-.02106.03711-.04.07349-.05866.11158a1.99012,1.99012,0,0,0-.16907.47485l-.00378.01269a2.00364,2.00364,0,0,0-.02612.51514c.00262.04126.00659.0813.01178.12256a1.9877,1.9877,0,0,0,.12738.51172l.001.0039L31.161,24.78a1.98946,1.98946,0,0,0,.25958.43164c.02869.03735.05719.073.08832.10815.02716.03052.04767.06495.077.09424l5,5a1.99978,1.99978,0,0,0,2.82812-2.82812L37.82812,26H46a2,2,0,0,0,0-4Z"/><path class="cls-1" d="M16.98779,24.12744a2.00364,2.00364,0,0,0-.02612-.51514l-.00378-.01269a1.99012,1.99012,0,0,0-.16907-.47485c-.01862-.03809-.0376-.07447-.05866-.11158a1.98208,1.98208,0,0,0-.3161-.42724l-5-5a1.99978,1.99978,0,0,0-2.82812,2.82812L10.17139,22H2a2,2,0,0,0,0,4h8.17188L8.58594,27.58594a1.99978,1.99978,0,1,0,2.82812,2.82812l5-5c.02936-.02929.04987-.06372.077-.09424.03113-.03515.05963-.0708.08832-.10815A1.98946,1.98946,0,0,0,16.839,24.78l.00867-.01441.001-.0039A1.9877,1.9877,0,0,0,16.976,24.25C16.9812,24.20874,16.98517,24.1687,16.98779,24.12744Z"/><path class="cls-1" d="M22.58594,16.41406a1.99612,1.99612,0,0,0,.31036.25366,1.94728,1.94728,0,0,0,.28021.14844c.02259.01026.043.02539.06586.03467a1.97669,1.97669,0,0,0,.31549.09473c.01929.00439.03742.01294.05683.01684A2.0057,2.0057,0,0,0,24,17h.00049c.00867,0,.01733-.00244.026-.00244a2.0124,2.0124,0,0,0,.3587-.03516c.01593-.00317.03107-.0105.047-.01391a1.99722,1.99722,0,0,0,.32971-.09986l.00324-.001.0097-.00586a1.987,1.987,0,0,0,.43829-.26343c.03644-.02808.07111-.05591.10535-.08618.03107-.02735.06586-.04834.09558-.07813l5-5a1.99978,1.99978,0,0,0-2.82812-2.82812L26,10.17188V2a2,2,0,0,0-4,0v8.17188L20.41406,8.58594a1.99978,1.99978,0,0,0-2.82812,2.82812Z"/><path class="cls-1" d="M25.41406,31.58594c-.02972-.02979-.06451-.05078-.09564-.07813-.03418-.03027-.06885-.0581-.10516-.08593a1.98384,1.98384,0,0,0-.43921-.26417l-.00891-.00537-.00238-.00048a1.98294,1.98294,0,0,0-.50971-.12769c-.04358-.00562-.08587-.00952-.12958-.01245a2.0145,2.0145,0,0,0-.50836.02588c-.00934.00171-.01788.00586-.02722.00781a1.99334,1.99334,0,0,0-.46.16406c-.0401.01953-.07843.03931-.11725.06153a1.97889,1.97889,0,0,0-.42468.31494l-5,5a1.99978,1.99978,0,0,0,2.82812,2.82812L22,37.82812V46a2,2,0,0,0,4,0V37.82812l1.58594,1.58594a1.99978,1.99978,0,0,0,2.82812-2.82812Z"/></g></g></svg>