<svg xmlns="http://www.w3.org/2000/svg" viewBox="0 0 48.00144 48"><defs><style>.cls-1{fill:#418fde;}</style></defs><title>Asset 822</title><g id="Layer_2" data-name="Layer 2"><g id="Icons"><path class="cls-1" d="M24,9a2.99952,2.99952,0,0,0,3-3V3a3,3,0,0,0-6,0V6A2.99952,2.99952,0,0,0,24,9Z"/><path class="cls-1" d="M45.5,43H35.04l9.45-5.3999a2.99676,2.99676,0,0,0-2.98-5.2002l-9.19,5.25L47.61,10.47A2.99547,2.99547,0,0,0,42.39,7.53L27,34.89014V20a3,3,0,0,0-6,0V35.58984l-9.5-14.25a3.001,3.001,0,0,0-5,3.32007l8.16,12.24-4.12-2.47a2.99613,2.99613,0,0,0-3.08,5.14014L13.18,43H2.5a2.5,2.5,0,0,0,0,5h43a2.5,2.5,0,0,0,0-5ZM23.24,43H17a6.95,6.95,0,0,1,.32-2.10986A7.04615,7.04615,0,0,1,21,36.67993a2.87734,2.87734,0,0,1,.57-.24A6.72028,6.72028,0,0,1,24,36a6.8211,6.8211,0,0,1,2.18.3501,5.84449,5.84449,0,0,1,.82.32983,6.92472,6.92472,0,0,1,3.61,4.02A6.98367,6.98367,0,0,1,31,43H23.24Z"/></g></g></svg>