<svg xmlns="http://www.w3.org/2000/svg" viewBox="0 0 48 48"><defs><style>.a{fill:#418fde;}</style></defs><path class="a" d="M9.26367,29.99121a8.99976,8.99976,0,0,0,15.36377,6.36426L35.94141,25.042A9.00042,9.00042,0,0,0,23.21289,12.31348L11.89941,23.627A8.94224,8.94224,0,0,0,9.26367,29.99121ZM22.5,19A2.5,2.5,0,1,1,20,21.5,2.49989,2.49989,0,0,1,22.5,19ZM19,27a4,4,0,1,1-4,4A4.00008,4.00008,0,0,1,19,27Z"/><path class="a" d="M46.00293,16l-2.68921-.00342a14.03387,14.03387,0,0,0-.372-1.46045c-.033-.10644-.07446-.21-.11017-.31543-.13031-.38965-.27606-.77441-.44146-1.15332-.039-.08886-.08112-.17578-.122-.26367q-.283-.613-.62818-1.20166c-.02862-.04834-.05645-.09717-.08569-.145a13.82969,13.82969,0,0,0-.8841-1.29883l1.744-1.74414a1.99978,1.99978,0,0,0-2.82812-2.82812l-1.783,1.7832a13.90992,13.90992,0,0,0-5.80023-2.46533L32,4.90332V2a2,2,0,0,0-4,0V4.78174l-.00391.00049a14.05084,14.05084,0,0,0-2.51239.51416c-.01477.00439-.029.01123-.04382.01562-.39581.12158-.78815.25684-1.17389.41455q-.6048.24537-1.18964.55078l-2.69158-2.6914a1.99979,1.99979,0,0,0-2.82813,2.82812l2.2486,2.24854c-.04151.04052-.08686.0747-.128.11572l-3.5354,3.53516L12.41406,8.58594a1.99978,1.99978,0,0,0-2.82812,2.82812l3.72778,3.72754L9.14185,19.31348,6.41406,16.58594a1.99978,1.99978,0,0,0-2.82812,2.82812L6.53,22.35791l-.01526.02588a13.9092,13.9092,0,0,0-1.91193,4.61572L4.60266,27H2a2,2,0,0,0,0,4H4.31793l.00006.00049c.02039.28418.05262.56689.09021.84961.01013.07568.02124.15136.0326.22656a13.9979,13.9979,0,0,0,.65759,2.627c.00928.02588.01782.05225.02728.07813a13.8667,13.8667,0,0,0,1.8291,3.43506L5.58594,39.58594a1.99978,1.99978,0,1,0,2.82812,2.82812L9.74414,41.084a13.88827,13.88827,0,0,0,1.60077,1.0625c.031.01758.06134.03711.09253.05469.24164.13477.48633.26026.734.37988.109.05274.219.10254.3291.15235.22864.103.45648.207.68933.29687q.46728.18238.94458.33008c.16937.05176.34039.09375.51123.13916.22583.06055.45215.11719.68024.166.15869.03369.31689.0664.47644.09472q.44073.07838.88507.12745c.09442.01074.188.02734.28253.03613h.00073V46a2,2,0,0,0,4,0V43.72168c.01245-.00244.02466-.00684.03711-.00928a13.92776,13.92776,0,0,0,4.88874-1.98779l2.68939,2.68945a1.99978,1.99978,0,0,0,2.82812-2.82812l-2.47333-2.47315,4.17206-4.17187,3.47315,3.47314a1.99978,1.99978,0,0,0,2.82812-2.82812l-3.473-3.47315,3.536-3.53564c.04089-.041.07477-.08594.11505-.12744l2.006,2.00634a1.99979,1.99979,0,0,0,2.82813-2.82812l-2.44891-2.44922a13.954,13.954,0,0,0,1.34069-3.84619l.001-.00684q.12617-.65991.189-1.32812l.00006-.00049L45.99707,20H46a2,2,0,0,0,.00293-4Zm-24.2041-5.10059c.041-.041.08618-.07519.12768-.11523A10.92978,10.92978,0,0,1,25.3089,8.5459l.02612-.01221A10.974,10.974,0,0,1,28,7.80811q.4975-.07179.9986-.09815h.006q.49677-.02637.99408-.00732l.018.001q.49376.019.98505.08252l.01611.00244q.49375.06446.98212.17334a11.191,11.191,0,0,1,1.87238.5962c.04046.01709.07971.03808.12.05566.26361.11426.52478.23535.78046.37158.10162.0542.199.11865.29925.17676.19733.11328.39594.22363.58728.35059q.44889.29809.874.644a11.0281,11.0281,0,0,1,.82214.74267c.22577.22559.433.46289.635.70264q.28208.342.536.69971.30084.42188.55676.86474l.00769.0127q.25278.43725.46161.89209l.011.02344q.20764.4541.372.92138l.00677.01953q.16534.47242.28687.957a11.11974,11.11974,0,0,1,.30969,1.98388l.001.021c.0205.32666.02667.65478.018.98242l-.00152.03174c-.00965.32764-.03278.65478-.07172.981l-.00018.00146a11.264,11.264,0,0,1-.26532,1.41016c-.01014.04-.01868.08008-.02924.12011a10.76863,10.76863,0,0,1-.46948,1.39747,10.93225,10.93225,0,0,1-2.2464,3.40283c-.04132.043-.07642.08935-.11853.13134l-7.8432,7.84278-2.69269,2.69238-.77808.77832a10.48713,10.48713,0,0,1-1.0617.9209c-.05164.04-.105.07666-.15717.11572a11.50694,11.50694,0,0,1-1.1123.729l-.00312.002A10.92977,10.92977,0,0,1,20.9707,40.6377a11.77689,11.77689,0,0,1-1.25683.24121c-.04767.00634-.0951.01513-.14283.0205a10.45828,10.45828,0,0,1-1.30737.08692,11.11477,11.11477,0,0,1-1.2923-.08447l-.00213-.00049a10.90874,10.90874,0,0,1-1.28095-.23145c-.03473-.0083-.06933-.0166-.104-.02539a10.929,10.929,0,0,1-3.69672-1.7041q-.35622-.25415-.69824-.53467c-.24029-.20264-.47778-.41015-.704-.63623a11.01182,11.01182,0,0,1-1.3869-1.69629,10.88414,10.88414,0,0,1-.64417-1.11719c-.04553-.09033-.084-.1831-.127-.27441-.13763-.292-.263-.58887-.37347-.88965q-.0618-.16845-.11823-.33887-.1527-.46288-.26257-.935c-.02106-.08985-.04681-.17871-.06555-.269A10.87955,10.87955,0,0,1,7.68628,27a10.9288,10.9288,0,0,1,1.03186-2.45361l.0003-.00049a11.57267,11.57267,0,0,1,.731-1.11475c.03864-.05176.07495-.10449.11456-.15576a10.50952,10.50952,0,0,1,.92139-1.0625l.77783-.77783,4.17188-4.17188,2.82812-2.82812Z"/></svg>