<svg xmlns="http://www.w3.org/2000/svg" viewBox="0 0 42 44.01142"><defs><style>.cls-1{fill:#418fde;}</style></defs><title>Asset 931</title><g id="Layer_2" data-name="Layer 2"><g id="Icons"><path class="cls-1" d="M34,0H8A8,8,0,0,0,0,8V27a8,8,0,0,0,8,8H22.00037l8.80468,8.805A.7.7,0,0,0,32,43.31006L32.00024,35H34a8,8,0,0,0,8-8V8A8,8,0,0,0,34,0ZM32.5,27H9.5a1.5,1.5,0,0,1,0-3h23a1.5,1.5,0,0,1,0,3Zm0-8H9.5a1.5,1.5,0,0,1,0-3h23a1.5,1.5,0,0,1,0,3Zm0-8H9.5a1.5,1.5,0,0,1,0-3h23a1.5,1.5,0,0,1,0,3Z"/></g></g></svg>