<svg xmlns="http://www.w3.org/2000/svg" viewBox="0 0 48 48"><defs><style>.cls-1{fill:#418fde;}</style></defs><title>Asset 833</title><g id="Layer_2" data-name="Layer 2"><g id="Icons"><rect class="cls-1" x="40" y="19" width="8" height="9"/><rect class="cls-1" x="20" y="19" width="8" height="9"/><rect class="cls-1" y="19" width="8" height="9"/><path class="cls-1" d="M40.87891,14.12109a2.99967,2.99967,0,1,0,4.24218-4.24218L36.12494.88281a3.01911,3.01911,0,0,0-.46277-.3789c-.06665-.04444-.13916-.07447-.20837-.113A2.93287,2.93287,0,0,0,35.1463.229a2.93484,2.93484,0,0,0-.292-.09057c-.08917-.02661-.17481-.061-.26727-.07935a3.0113,3.0113,0,0,0-1.174,0c-.09271.01856-.17852.05274-.26794.07959A2.928,2.928,0,0,0,32.8537.229a2.95264,2.95264,0,0,0-.30878.1626c-.06872.03833-.14075.06812-.20691.11231a3.00984,3.00984,0,0,0-.46295.3789l-8.99615,8.9961a2.99967,2.99967,0,1,0,4.24218,4.24218L31,10.24219V45a3,3,0,0,0,6,0V10.24219Z"/><path class="cls-1" d="M20.87891,33.87891,17,37.75781V3a3,3,0,0,0-6,0V37.75781l-3.87891-3.8789a2.99967,2.99967,0,0,0-4.24218,4.24218l8.99615,8.9961a3.00984,3.00984,0,0,0,.463.3789c.06623.04419.13819.074.20691.11231a2.95264,2.95264,0,0,0,.30878.1626,2.9231,2.9231,0,0,0,.29138.09033c.08942.02685.17523.061.26794.07959a2.94576,2.94576,0,0,0,1.174,0c.09246-.01831.1781-.05274.26727-.07935a2.93484,2.93484,0,0,0,.292-.09057,2.93287,2.93287,0,0,0,.3075-.16187c.06927-.03857.14172-.0686.20837-.113a3.01911,3.01911,0,0,0,.46277-.3789l8.99615-8.9961a2.99967,2.99967,0,0,0-4.24218-4.24218Z"/></g></g></svg>