<?xml version="1.0" encoding="utf-8"?>
<!-- Generator: Adobe Illustrator 24.1.0, SVG Export Plug-In . SVG Version: 6.00 Build 0)  -->
<svg version="1.1" id="Layer_1" xmlns="http://www.w3.org/2000/svg" xmlns:xlink="http://www.w3.org/1999/xlink" x="0px" y="0px"
	 viewBox="0 0 48 48" style="enable-background:new 0 0 48 48;" xml:space="preserve">
<style type="text/css">
	.st0{fill:#418FDE;}
</style>
<path class="st0" d="M40,19h8v9h-8V19z M10,5C8.3,5,7,6.3,7,8h6C13,6.3,11.7,5,10,5z M10,20c5.5,0,10-4.5,10-10S15.5,0,10,0
	S0,4.5,0,10C0,15.5,4.5,20,10,20z M5,8c0-2.8,2.2-5,5-5s5,2.2,5,5v6c0,1.1-0.9,2-2,2H7c-1.1,0-2-0.9-2-2V8z M8,22.8
	C5.2,22.4,2.6,21,0.6,19H0v9h8V22.8z M20,19h8v9h-8V19z M43,15c1.7,0,3-1.3,3-3c0-0.8-0.3-1.6-0.9-2.1l-9-9
	c-0.1-0.1-0.3-0.3-0.5-0.4c-0.1,0-0.1-0.1-0.2-0.1c-0.1-0.1-0.2-0.1-0.3-0.2c-0.1,0-0.2-0.1-0.3-0.1c-0.1,0-0.2-0.1-0.3-0.1
	c-0.4-0.1-0.8-0.1-1.2,0c-0.1,0-0.2,0.1-0.3,0.1c-0.1,0-0.2,0.1-0.3,0.1c-0.1,0-0.2,0.1-0.3,0.2c-0.1,0-0.1,0.1-0.2,0.1
	c-0.2,0.1-0.3,0.2-0.5,0.4l-9,9c-1.2,1.2-1.2,3.1,0,4.2s3.1,1.2,4.2,0l3.9-3.9V45c0,1.7,1.3,3,3,3s3-1.3,3-3V10.2l3.9,3.9
	C41.4,14.7,42.2,15,43,15z M20.9,33.9L17,37.8V20.9c-1.8,1.2-3.9,1.9-6,2v14.8l-3.9-3.9c-1.2-1.2-3.1-1.2-4.2,0s-1.2,3.1,0,4.2l9,9
	c0.1,0.1,0.3,0.3,0.5,0.4c0.1,0,0.1,0.1,0.2,0.1c0.1,0.1,0.2,0.1,0.3,0.2c0.1,0,0.2,0.1,0.3,0.1c0.1,0,0.2,0.1,0.3,0.1
	c0.4,0.1,0.8,0.1,1.2,0c0.1,0,0.2,0,0.3-0.1c0.1,0,0.2-0.1,0.3-0.1c0.1,0,0.2-0.1,0.3-0.2c0.1,0,0.1-0.1,0.2-0.1
	c0.2-0.1,0.3-0.2,0.5-0.4l9-9c1.2-1.2,1.2-3.1,0-4.2S22.1,32.7,20.9,33.9L20.9,33.9z M9,10h2c0.6,0,1,0.4,1,1v2c0,0.6-0.4,1-1,1H9
	c-0.6,0-1-0.4-1-1v-2C8,10.4,8.4,10,9,10z"/>
</svg>
