<svg xmlns="http://www.w3.org/2000/svg" viewBox="0 0 20 48"><defs><style>.cls-1{fill:#418fde;}</style></defs><title>Asset 776</title><g id="Layer_2" data-name="Layer 2"><g id="Icons"><path class="cls-1" d="M1,15H19a1,1,0,0,0,1-1,6,6,0,0,0-6-6V4a2,2,0,0,0,0-4H6A2,2,0,0,0,6,4V8a6,6,0,0,0-6,6A1,1,0,0,0,1,15Z"/><rect class="cls-1" y="18" width="20" height="4" rx="1"/><rect class="cls-1" y="25" width="20" height="4" rx="1"/><path class="cls-1" d="M19,32H1a1,1,0,0,0-1,1V46a2.00006,2.00006,0,0,0,2,2H18a2.00006,2.00006,0,0,0,2-2V33A1,1,0,0,0,19,32Z"/></g></g></svg>