<svg xmlns="http://www.w3.org/2000/svg" viewBox="0 0 48 48"><defs><style>.a{fill:#418fde;}</style></defs><path class="a" d="M10,5A3.00344,3.00344,0,0,0,7,8h6A3.00344,3.00344,0,0,0,10,5Z"/><path class="a" d="M10,20A10,10,0,1,0,0,10,10.00394,10.00394,0,0,0,10,20ZM5,8A5,5,0,0,1,15,8v6a2.00006,2.00006,0,0,1-2,2H7a2,2,0,0,1-2-2Z"/><path class="a" d="M0,24v7a7.9979,7.9979,0,0,1,8,8v9h8V39a8,8,0,0,1,16,0v9h8V39a7.9979,7.9979,0,0,1,8-8V24Z"/><rect class="a" x="8" y="10" width="4" height="4" rx="1"/></svg>