<svg xmlns="http://www.w3.org/2000/svg" viewBox="0 0 48 48"><defs><style>.cls-1{fill:#418fde;}</style></defs><title>Asset 849</title><g id="Layer_2" data-name="Layer 2"><g id="Icons"><path class="cls-1" d="M10,20A10,10,0,1,0,0,10,10.00362,10.00362,0,0,0,10,20ZM4.29,9.29A1.00761,1.00761,0,0,1,5.71,9.29l2.34009,2.3501,6.3-5.40015a1,1,0,0,1,1.2998,1.52l-7,6A1.00664,1.00664,0,0,1,8,14a1.02445,1.02445,0,0,1-.71-.29l-3-3A1.00761,1.00761,0,0,1,4.29,9.29Z"/><path class="cls-1" d="M0,24v7a7.9979,7.9979,0,0,1,8,8v9h8V39a8,8,0,0,1,16,0v9h8V39a7.9979,7.9979,0,0,1,8-8V24Z"/></g></g></svg>