<svg xmlns="http://www.w3.org/2000/svg" viewBox="0 0 48 48"><defs><style>.cls-1{fill:#418fde;}</style></defs><title>Asset 848</title><g id="Layer_2" data-name="Layer 2"><g id="Icons"><path class="cls-1" d="M10,20A10,10,0,1,0,0,10,10.00362,10.00362,0,0,0,10,20ZM5.29,6.71A1.004,1.004,0,0,1,6.71,5.29l3.29,3.29,3.29-3.29A1.004,1.004,0,1,1,14.71,6.71l-3.29,3.29,3.29,3.29a1.00761,1.00761,0,0,1,0,1.41992,1.01394,1.01394,0,0,1-1.41992,0l-3.29-3.29L6.71,14.71a1.01394,1.01394,0,0,1-1.41992,0,1.00761,1.00761,0,0,1,0-1.41992l3.29-3.29Z"/><path class="cls-1" d="M0,24v7a7.9979,7.9979,0,0,1,8,8v9h8V39a8,8,0,0,1,16,0v9h8V39a7.9979,7.9979,0,0,1,8-8V24Z"/></g></g></svg>