<svg xmlns="http://www.w3.org/2000/svg" viewBox="0 0 48 43"><defs><style>.cls-1{fill:#418fde;}</style></defs><title>Asset 892</title><g id="Layer_2" data-name="Layer 2"><g id="Icons"><path class="cls-1" d="M46,37a8.585,8.585,0,0,0-4.625,1.24414,5.24115,5.24115,0,0,1-5.42285,0A8.58615,8.58615,0,0,0,31.32617,37a8.57713,8.57713,0,0,0-4.62305,1.24414A4.69232,4.69232,0,0,1,23.99512,39a4.69572,4.69572,0,0,1-2.709-.75586A8.585,8.585,0,0,0,16.66113,37a8.58385,8.58385,0,0,0-4.624,1.24414A4.69237,4.69237,0,0,1,9.3291,39a4.69018,4.69018,0,0,1-2.70605-.75586A8.58586,8.58586,0,0,0,2,37a2,2,0,0,0,0,4,4.69126,4.69126,0,0,1,2.707.75586A8.58468,8.58468,0,0,0,9.3291,43a8.58382,8.58382,0,0,0,4.624-1.24414A4.69237,4.69237,0,0,1,16.66113,41a4.6957,4.6957,0,0,1,2.709.75586A8.585,8.585,0,0,0,23.99512,43a8.59259,8.59259,0,0,0,4.624-1.24414,5.23415,5.23415,0,0,1,5.41895,0,9.22042,9.22042,0,0,0,9.251,0A4.70237,4.70237,0,0,1,46,41a2,2,0,0,0,0-4Z"/><path class="cls-1" d="M46,29a8.585,8.585,0,0,0-4.625,1.24414,5.24115,5.24115,0,0,1-5.42285,0A8.58615,8.58615,0,0,0,31.32617,29a8.57713,8.57713,0,0,0-4.62305,1.24414A4.69232,4.69232,0,0,1,23.99512,31a4.69572,4.69572,0,0,1-2.709-.75586A8.585,8.585,0,0,0,16.66113,29a8.58385,8.58385,0,0,0-4.624,1.24414A4.69237,4.69237,0,0,1,9.3291,31a4.69018,4.69018,0,0,1-2.70605-.75586A8.58586,8.58586,0,0,0,2,29a2,2,0,0,0,0,4,4.69126,4.69126,0,0,1,2.707.75586A8.58468,8.58468,0,0,0,9.3291,35a8.58382,8.58382,0,0,0,4.624-1.24414A4.69237,4.69237,0,0,1,16.66113,33a4.6957,4.6957,0,0,1,2.709.75586A8.585,8.585,0,0,0,23.99512,35a8.59259,8.59259,0,0,0,4.624-1.24414,5.23415,5.23415,0,0,1,5.41895,0,9.22042,9.22042,0,0,0,9.251,0A4.70237,4.70237,0,0,1,46,33a2,2,0,0,0,0-4Z"/><path class="cls-1" d="M0,0V7a7.9979,7.9979,0,0,1,8,8v9h8V15a8,8,0,0,1,16,0v9h8V15a7.9979,7.9979,0,0,1,8-8V0Z"/></g></g></svg>