<svg xmlns="http://www.w3.org/2000/svg" viewBox="0 0 48 48"><defs><style>.cls-1{fill:#418fde;}</style></defs><title>Asset 866</title><g id="Layer_2" data-name="Layer 2"><g id="Icons"><path class="cls-1" d="M46.5,45H1.5a1.5,1.5,0,0,0,0,3h45a1.5,1.5,0,0,0,0-3Z"/><path class="cls-1" d="M5.5,43h37a1.5,1.5,0,0,0,0-3H5.5a1.5,1.5,0,0,0,0,3Z"/><path class="cls-1" d="M5,32H43a1.00007,1.00007,0,0,0,.8-1.6001l-4.5-6A1.00013,1.00013,0,0,0,38.5,24H9.5a1.00013,1.00013,0,0,0-.8.3999l-4.5,6A1.00007,1.00007,0,0,0,5,32Z"/><path class="cls-1" d="M9,22H39a1.00007,1.00007,0,0,0,.8-1.6001l-4.5-6A1.00013,1.00013,0,0,0,34.5,14h-21a1.00013,1.00013,0,0,0-.8.3999l-4.5,6A1.00007,1.00007,0,0,0,9,22Z"/><path class="cls-1" d="M12.00153,12H36a1,1,0,0,0,.86377-1.50391l-5.57434-10A1.00022,1.00022,0,0,0,30.42566,0H17.57434a1.00022,1.00022,0,0,0-.86377.49609l-5.57281,10A1,1,0,0,0,12.00153,12Z"/><rect class="cls-1" x="34" y="34" width="6" height="4" rx="1"/><rect class="cls-1" x="8" y="34" width="6" height="4" rx="1"/><rect class="cls-1" x="21" y="34" width="6" height="4" rx="1"/></g></g></svg>