<svg xmlns="http://www.w3.org/2000/svg" viewBox="0 0 32 48"><defs><style>.cls-1{fill:#418fde;}</style></defs><title>Asset 867</title><g id="Layer_2" data-name="Layer 2"><g id="Icons"><path class="cls-1" d="M30,6H2A2.00583,2.00583,0,0,0,0,8V30H32V8A2.00583,2.00583,0,0,0,30,6ZM10,21a1.00291,1.00291,0,0,1-1,1H5a1.00291,1.00291,0,0,1-1-1V13a1.00291,1.00291,0,0,1,1-1H9a1.00291,1.00291,0,0,1,1,1Zm9,0a1.00291,1.00291,0,0,1-1,1H14a1.00291,1.00291,0,0,1-1-1V13a1.00291,1.00291,0,0,1,1-1h4a1.00291,1.00291,0,0,1,1,1Zm9,0a1.00291,1.00291,0,0,1-1,1H23a1.00291,1.00291,0,0,1-1-1V13a1.00291,1.00291,0,0,1,1-1h4a1.00291,1.00291,0,0,1,1,1Z"/><path class="cls-1" d="M6,4H26a2,2,0,0,0,0-4H6A2,2,0,0,0,6,4Z"/><path class="cls-1" d="M0,48H12V38a2.00588,2.00588,0,0,1,2-2h4a2.00588,2.00588,0,0,1,2,2V48H32V32H0Z"/></g></g></svg>