<svg xmlns="http://www.w3.org/2000/svg" viewBox="0 0 48 48"><defs><style>.cls-1{fill:#418fde;}</style></defs><title>Asset 863</title><g id="Layer_2" data-name="Layer 2"><g id="Icons"><path class="cls-1" d="M20,10A10,10,0,1,0,10,20,10.00362,10.00362,0,0,0,20,10Zm-5.29,3.29a1.00761,1.00761,0,0,1,0,1.41992,1.01394,1.01394,0,0,1-1.41992,0l-3.29-3.29L6.71,14.71a1.01394,1.01394,0,0,1-1.41992,0,1.00761,1.00761,0,0,1,0-1.41992l3.29-3.29L5.29,6.71A1.004,1.004,0,0,1,6.71,5.29l3.29,3.29,3.29-3.29A1.004,1.004,0,1,1,14.71,6.71l-3.29,3.29Z"/><path class="cls-1" d="M46,6H22.37012A12.93317,12.93317,0,0,1,23,10a13.18735,13.18735,0,0,1-.1499,2H25a1.00288,1.00288,0,0,1,1,1v8a1.00288,1.00288,0,0,1-1,1H21a1.00288,1.00288,0,0,1-1-1v-2.7a12.92511,12.92511,0,0,1-4,3.23V30H48V8A2.00575,2.00575,0,0,0,46,6ZM35,21a1.00288,1.00288,0,0,1-1,1H30a1.00288,1.00288,0,0,1-1-1V13a1.00288,1.00288,0,0,1,1-1h4a1.00288,1.00288,0,0,1,1,1Zm9,0a1.00288,1.00288,0,0,1-1,1H39a1.00288,1.00288,0,0,1-1-1V13a1.00288,1.00288,0,0,1,1-1h4a1.00288,1.00288,0,0,1,1,1Z"/><path class="cls-1" d="M22,4H42a1.95436,1.95436,0,0,0,1.40991-.59009A1.95436,1.95436,0,0,0,44,2a2.00575,2.00575,0,0,0-2-2H22a1.95514,1.95514,0,0,0-1.40991.58984A1.92023,1.92023,0,0,0,20.02,1.72a13.3128,13.3128,0,0,1,1.48,2.21A1.67707,1.67707,0,0,0,22,4Z"/><path class="cls-1" d="M16,48H28V38a2.00575,2.00575,0,0,1,2-2h4a2.00575,2.00575,0,0,1,2,2V48H48V32H16Z"/></g></g></svg>