<svg xmlns="http://www.w3.org/2000/svg" viewBox="0 0 44 44"><defs><style>.cls-1{fill:#418fde;}</style></defs><title>Asset 893</title><g id="Layer_2" data-name="Layer 2"><g id="Icons"><path class="cls-1" d="M43,7H42V3.1001A3.11557,3.11557,0,0,0,38.9,0H5.1A3.11557,3.11557,0,0,0,2,3.1001V7H1A1.00308,1.00308,0,0,0,0,8V20a1.00308,1.00308,0,0,0,1,1H2V36.8999a3.101,3.101,0,0,0,3,3.09033V41.5a2.5,2.5,0,0,0,5,0V40H35v1.5a2.5,2.5,0,0,0,5,0V39.7998a3.13623,3.13623,0,0,0,2-2.8999V21h1a1.00308,1.00308,0,0,0,1-1V8A1.00308,1.00308,0,0,0,43,7ZM5,4A1.00308,1.00308,0,0,1,6,3H38a1.00308,1.00308,0,0,1,1,1V5a1.00308,1.00308,0,0,1-1,1H6A1.00308,1.00308,0,0,1,5,5ZM9,35.5a2.50258,2.50258,0,0,1-1.5.5,2.41116,2.41116,0,0,1-1.49-.5A2.495,2.495,0,1,1,9,35.5ZM20,23a1.00308,1.00308,0,0,1-1,1H6a1.00308,1.00308,0,0,1-1-1V11a1.00308,1.00308,0,0,1,1-1H19a1.00308,1.00308,0,0,1,1,1Zm4,0V11a1.00308,1.00308,0,0,1,1-1H38a1.00308,1.00308,0,0,1,1,1V23a1.00308,1.00308,0,0,1-1,1H25A1.00308,1.00308,0,0,1,24,23ZM39,35.5a2.50258,2.50258,0,0,1-1.5.5,2.41116,2.41116,0,0,1-1.49-.5,2.495,2.495,0,1,1,2.99,0Z"/></g></g></svg>