<svg xmlns="http://www.w3.org/2000/svg" viewBox="0 0 42 48"><defs><style>.cls-1{fill:#418fde;}</style></defs><title>Asset 764</title><g id="Layer_2" data-name="Layer 2"><g id="Icons"><path class="cls-1" d="M40,6H35V8.5a3.5,3.5,0,0,1-7,0V6H15V8.5a3.5,3.5,0,0,1-7,0V6H2A1.9931,1.9931,0,0,0,0,8V46a1.9931,1.9931,0,0,0,2,2H40a1.9931,1.9931,0,0,0,2-2V8A1.9931,1.9931,0,0,0,40,6ZM38,44H4V18H38Z"/><path class="cls-1" d="M11.5,10A1.498,1.498,0,0,0,13,8.5v-7a1.5,1.5,0,0,0-3,0v7A1.498,1.498,0,0,0,11.5,10Z"/><path class="cls-1" d="M31.5,10A1.498,1.498,0,0,0,33,8.5v-7a1.5,1.5,0,0,0-3,0v7A1.498,1.498,0,0,0,31.5,10Z"/><path class="cls-1" d="M18.74,30.52l-5.27,4.95A1.44379,1.44379,0,0,0,13,36.53,1.46,1.46,0,0,0,13.47,37.59a1.68532,1.68532,0,0,0,2.26,0L21,32.64l5.27,4.95a1.69936,1.69936,0,0,0,1.14.44006A1.63233,1.63233,0,0,0,28.53,37.59a1.42533,1.42533,0,0,0,0-2.12l-5.27-4.95,5.27-4.94995A1.46021,1.46021,0,0,0,29,24.51,1.44381,1.44381,0,0,0,28.53,23.45a1.66416,1.66416,0,0,0-2.26,0L21,28.3999l-5.27-4.96A1.6284,1.6284,0,0,0,14.6,23a1.61144,1.61144,0,0,0-1.13.43994,1.42546,1.42546,0,0,0,0,2.12012Z"/></g></g></svg>