<svg xmlns="http://www.w3.org/2000/svg" viewBox="0 0 48.00103 43.99988"><defs><style>.cls-1{fill:#418fde;}</style></defs><title>Asset 661</title><g id="Layer_2" data-name="Layer 2"><g id="Icons"><path class="cls-1" d="M4.48882,17.60486,24.002,6.455,43.51226,17.60437a2.99972,2.99972,0,0,0,2.97656-5.209l-20.99853-12A3.00033,3.00033,0,0,0,22.51372.3949l-21.00146,12a3.00015,3.00015,0,0,0,2.97656,5.21Z"/><path class="cls-1" d="M38.002,27.02625a9.91644,9.91644,0,0,0-8.65185,4.59362,6.7044,6.7044,0,0,0-10.6969.00147,9.91637,9.91637,0,0,0-8.6532-4.59509c-5.69971,0-9.998,4.064-9.998,9.45263a1.5,1.5,0,0,0,3,0,6.21824,6.21824,0,0,1,2.99988-5.36011v8.88111a4,4,0,0,0,8,0V31.12122a6.21765,6.21765,0,0,1,2.99671,5.35766,1.5,1.5,0,0,0,3,0l-.00129-.02612.00129-.01294a4.75439,4.75439,0,0,1,1.00463-2.93726v3.49866a2.99866,2.99866,0,1,0,5.99732,0V33.50134a4.75469,4.75469,0,0,1,1.00537,2.93848c-.00006.01318-.002.02588-.002.03906a1.5,1.5,0,0,0,3,0,6.25744,6.25744,0,0,1,3.59967-5.693l-1.60309,7.214a5.0897,5.0897,0,1,0,10.01526,0l-1.61536-7.214a6.25762,6.25762,0,0,1,3.6001,5.693,1.5,1.5,0,1,0,3,0C48.00054,31.09021,43.7022,27.02625,38.002,27.02625Z"/><circle class="cls-1" cx="38.00219" cy="21.99988" r="3"/><circle class="cls-1" cx="10.00121" cy="21.99988" r="3"/><path class="cls-1" d="M21.496,24.49475a2.50519,2.50519,0,1,0,2.50519-2.50525A2.50514,2.50514,0,0,0,21.496,24.49475Z"/></g></g></svg>