<svg xmlns="http://www.w3.org/2000/svg" viewBox="0 0 48 38"><defs><style>.cls-1{fill:#418fde;}</style></defs><g id="Layer_2" data-name="Layer 2"><g id="FINAL"><path class="cls-1" d="M47,14H22.36377a13.01423,13.01423,0,0,1-3.47272,5.458L29,26.19727,43.168,16.752a1.5,1.5,0,0,1,1.66406,2.4961L29,29.80273,16.32074,21.34985A12.91025,12.91025,0,0,1,10,23V37a1,1,0,0,0,1,1H47a1,1,0,0,0,1-1V15A1,1,0,0,0,47,14ZM20.06055,30.06055l-4,4a1.49984,1.49984,0,0,1-2.1211-2.1211l4-4a1.49984,1.49984,0,0,1,2.1211,2.1211Zm24,4a1.49947,1.49947,0,0,1-2.1211,0l-4-4a1.49984,1.49984,0,0,1,2.1211-2.1211l4,4A1.49947,1.49947,0,0,1,44.06055,34.06055ZM10,0A10,10,0,1,0,20,10,10.00362,10.00362,0,0,0,10,0Zm5.6499,7.76-7,6A1.00664,1.00664,0,0,1,8,14a1.02445,1.02445,0,0,1-.71-.29l-3-3A1.004,1.004,0,0,1,5.71,9.29l2.34009,2.3501,6.3-5.40015a1,1,0,0,1,1.2998,1.52Z"/></g></g></svg>