<svg xmlns="http://www.w3.org/2000/svg" viewBox="0 0 47.99902 37"><defs><style>.cls-1{fill:#418fde;}</style></defs><title>Asset 720</title><g id="Layer_2" data-name="Layer 2"><g id="Icons"><path class="cls-1" d="M9.99609,10.01709C4.29785,10.01709,0,14.07129,0,19.5a1.5,1.5,0,0,0,3,0,6.23432,6.23432,0,0,1,2.99927-5.37848V35.5a1.5,1.5,0,0,0,3,0V25h2V35.5a1.5,1.5,0,0,0,3,0V14.12585A6.23385,6.23385,0,0,1,16.99219,19.5a1.5,1.5,0,0,0,3,0C19.99219,14.07129,15.69434,10.01709,9.99609,10.01709Z"/><circle class="cls-1" cx="9.99927" cy="4" r="4"/><path class="cls-1" d="M38.00293,10.01709c-5.69824,0-9.99609,4.0542-9.99609,9.48291a1.5,1.5,0,0,0,3,0A6.258,6.258,0,0,1,34.447,13.873L32.13977,25.876A1,1,0,0,0,33.13208,27h.86719v8.5a1.5,1.5,0,0,0,3,0V27h2v8.5a1.5,1.5,0,0,0,3,0V27h.86719a1,1,0,0,0,.9923-1.124l-2.3081-12.00751A6.25868,6.25868,0,0,1,44.999,19.5a1.5,1.5,0,0,0,3,0C47.999,14.07129,43.70117,10.01709,38.00293,10.01709Z"/><circle class="cls-1" cx="37.99927" cy="4" r="4"/></g></g></svg>