<svg xmlns="http://www.w3.org/2000/svg" viewBox="0 0 48 41"><defs><style>.cls-1{fill:#418fde;}</style></defs><title>Asset 9622111</title><g id="Layer_2" data-name="Layer 2"><g id="Icons"><path class="cls-1" d="M39,22v.02551C38.83173,22.0166,38.66547,22,38.495,22c-.11139,0-.21949.01294-.3299.0166C38.10974,22.01208,38.05658,22,38,22H25.5a3.5,3.5,0,0,0,0,7H31a2,2,0,0,1,0,4H22a2.48469,2.48469,0,0,1-1.60327-.60156L6.80725,19.17358a4.00922,4.00922,0,0,0-5.93365.29248,4.1249,4.1249,0,0,0,.38824,5.49781L16.48853,39.82605A4.01191,4.01191,0,0,0,19.32245,41H37.99213c.08014,0,.1549-.019.23388-.02368.09021.00256.17816.01367.269.01367.17047,0,.33673-.01672.505-.02563V41a9,9,0,0,0,9-9V31A9,9,0,0,0,39,22Z"/><path class="cls-1" d="M6.49652,13c.02307,0,.04529-.00317.0683-.00342.01166.00025.02252.00342.03424.00342h8.907a2.494,2.494,0,1,0,0-4.98792H12.80975L12.812,8H11.5a1.5,1.5,0,0,1,0-3h6.3847A1.72837,1.72837,0,0,1,19,5.41846l9.26453,9.76513a2.789,2.789,0,0,0,4.12774-.20349,2.86945,2.86945,0,0,0-.27008-3.82458L21.52972.81665A2.79072,2.79072,0,0,0,19.55829,0H6.57068c-.02417,0-.04657.00659-.07062.00708L6.49652.007a6.49652,6.49652,0,1,0,0,12.993Z"/></g></g></svg>