<svg xmlns="http://www.w3.org/2000/svg" viewBox="0 0 48 48"><defs><style>.cls-1{fill:#418fde;}</style></defs><title>Asset 719</title><g id="Layer_2" data-name="Layer 2"><g id="Icons"><path class="cls-1" d="M48,23V20a2,2,0,0,0-4,0v3a2.00229,2.00229,0,0,1-2,2V11a2,2,0,0,0-2-2V.5a.5.5,0,0,0-.5-.5H37a1,1,0,0,0,0,2V9.2774A1.99154,1.99154,0,0,0,36,11v6H35a2,2,0,0,0-2,2V34a2.00006,2.00006,0,0,0,2,2h1V46a2.00006,2.00006,0,0,0,2,2h4.43848a2,2,0,0,0,1.94018-2.48511l-2.319-9.27606A2.00192,2.00192,0,0,1,42.03027,36H46a2,2,0,0,0,0-4H42V29A6.00657,6.00657,0,0,0,48,23Z"/><path class="cls-1" d="M13,13C5.58887,13,0,18.15918,0,25.00049a2,2,0,0,0,4,0,7.66876,7.66876,0,0,1,4-6.72583V46.02228A1.97775,1.97775,0,0,0,9.97778,48h.04444A1.97775,1.97775,0,0,0,12,46.02228V32h2V46.02228A1.97775,1.97775,0,0,0,15.97778,48h.04444A1.97775,1.97775,0,0,0,18,46.02228V18.2746A7.66838,7.66838,0,0,1,22,25a2,2,0,0,0,4,0C26,18.15869,20.41113,13,13,13Z"/><circle class="cls-1" cx="13" cy="6" r="5"/></g></g></svg>