<svg xmlns="http://www.w3.org/2000/svg" viewBox="0 0 44 44"><defs><style>.cls-1{fill:#418fde;}</style></defs><title>Asset 801</title><g id="Layer_2" data-name="Layer 2"><g id="Icons"><path class="cls-1" d="M0,39.08032v3.45716A1.482,1.482,0,0,0,1.5,44,1.482,1.482,0,0,0,3,42.53748V41H16v1.53748a1.50048,1.50048,0,0,0,3,0V7H0ZM14,23a1,1,0,0,1,2,0v3a1,1,0,0,1-2,0Z"/><path class="cls-1" d="M14,0H5A5,5,0,0,0,0,5H19A5,5,0,0,0,14,0Z"/><path class="cls-1" d="M25,39.08032v3.45716a1.50048,1.50048,0,0,0,3,0V41H41v1.53748a1.50048,1.50048,0,0,0,3,0V7H25ZM39,23a1,1,0,0,1,2,0v3a1,1,0,0,1-2,0Z"/><path class="cls-1" d="M39,0H30a5,5,0,0,0-5,5H44A5,5,0,0,0,39,0Z"/></g></g></svg>