<svg xmlns="http://www.w3.org/2000/svg" viewBox="0 0 32 48"><defs><style>.cls-1{fill:#418fde;}</style></defs><title>Asset 870</title><g id="Layer_2" data-name="Layer 2"><g id="Icons"><path class="cls-1" d="M18.51,14.64014a2.9964,2.9964,0,0,1-5.02,0A5.01715,5.01715,0,0,0,10.98,18.98a1.2714,1.2714,0,0,0,.01.19995A2.97688,2.97688,0,0,1,13,22a2.91188,2.91188,0,0,1-.14.89014,4.99678,4.99678,0,0,0,6.28,0A2.91188,2.91188,0,0,1,19,22a2.97688,2.97688,0,0,1,2.01-2.82007,1.2714,1.2714,0,0,0,.01-.19995A5.01715,5.01715,0,0,0,18.51,14.64014Z"/><path class="cls-1" d="M30,6H2A2.00583,2.00583,0,0,0,0,8V30H32V8A2.00583,2.00583,0,0,0,30,6ZM22,25a3.02555,3.02555,0,0,1-1.67993-.51,6.93477,6.93477,0,0,1-8.64014,0A3.00508,3.00508,0,0,1,7,22a2.99167,2.99167,0,0,1,1.99-2.82007A1.33821,1.33821,0,0,1,8.98,18.98,7.00339,7.00339,0,0,1,13.03,12.62988a2.992,2.992,0,0,1,5.93994,0A7.00339,7.00339,0,0,1,23.02,18.98a1.33821,1.33821,0,0,1-.01.19995A2.99719,2.99719,0,0,1,22,25Z"/><path class="cls-1" d="M6,4H26a2,2,0,0,0,0-4H6A2,2,0,0,0,6,4Z"/><path class="cls-1" d="M0,48H12V38a2.00583,2.00583,0,0,1,2-2h4a2.00583,2.00583,0,0,1,2,2V48H32V32H0Z"/></g></g></svg>