<svg xmlns="http://www.w3.org/2000/svg" viewBox="0 0 48.00039 48"><defs><style>.cls-1{fill:#418fde;}</style></defs><title>Asset 738</title><g id="Layer_2" data-name="Layer 2"><g id="Icons"><path class="cls-1" d="M5.86528,33.478a20.493,20.493,0,0,1-1.90159-5.38445,2.00105,2.00105,0,0,0-3.92321.79069,24.32609,24.32609,0,0,0,2.78226,7.356A6.572,6.572,0,0,1,5.86528,33.478Z"/><path class="cls-1" d="M19.90677,44.03671a20.18831,20.18831,0,0,1-5.40436-1.92157,6.56822,6.56822,0,0,1-2.7723,3.05251A24.56346,24.56346,0,0,0,19.10618,47.96a1.87505,1.87505,0,0,0,.40036.04,2.00183,2.00183,0,0,0,.40023-3.96329Z"/><path class="cls-1" d="M28.09357,3.96369A20.42333,20.42333,0,0,1,33.468,5.86528a6.56647,6.56647,0,0,1,2.78232-3.04254A24.65151,24.65151,0,0,0,28.88426.04048a2.00106,2.00106,0,1,0-.79069,3.92321Z"/><path class="cls-1" d="M42.11514,14.51237a20.24834,20.24834,0,0,1,1.92163,5.39446,1.99976,1.99976,0,0,0,1.96158,1.60136,1.87135,1.87135,0,0,0,.40035-.04007,1.9953,1.9953,0,0,0,1.56123-2.35192,24.52136,24.52136,0,0,0-2.79234-7.38609A6.63694,6.63694,0,0,1,42.11514,14.51237Z"/><path class="cls-1" d="M1.60176,21.46812a1.80973,1.80973,0,0,0,.40029.04007,2.00794,2.00794,0,0,0,1.96164-1.60136,20.9853,20.9853,0,0,1,1.88156-5.35439,6.61228,6.61228,0,0,1-3.07254-2.72228,24.4552,24.4552,0,0,0-2.73223,7.286A1.99524,1.99524,0,0,0,1.60176,21.46812Z"/><path class="cls-1" d="M14.42233,5.92533a20.341,20.341,0,0,1,5.48444-1.96164A2.002,2.002,0,1,0,19.10618.04048a24.52837,24.52837,0,0,0-7.4261,2.81231A6.55294,6.55294,0,0,1,14.42233,5.92533Z"/><path class="cls-1" d="M33.468,42.13518a20.42106,20.42106,0,0,1-5.37443,1.90153A2.00076,2.00076,0,0,0,28.48391,48a1.81378,1.81378,0,0,0,.40035-.04,24.65216,24.65216,0,0,0,7.36606-2.78232A6.56669,6.56669,0,0,1,33.468,42.13518Z"/><path class="cls-1" d="M46.3987,26.53229a2.00546,2.00546,0,0,0-2.36193,1.56128A20.247,20.247,0,0,1,42.11514,33.488a6.637,6.637,0,0,1,3.05245,2.78232,24.52212,24.52212,0,0,0,2.79234-7.3861A1.99538,1.99538,0,0,0,46.3987,26.53229Z"/><path class="cls-1" d="M6.87607,12.801a4.40038,4.40038,0,0,0,1.55132.2802,4.55259,4.55259,0,0,0,1.251-8.92735,4.608,4.608,0,0,0-1.251-.17012A4.54388,4.54388,0,0,0,6.87607,12.801Z"/><path class="cls-1" d="M34.89911,8.52745a4.55749,4.55749,0,0,0,4.5538,4.55375,4.473,4.473,0,0,0,1.64137-.31026,4.52458,4.52458,0,0,0,2.75227-3.0825,4.4504,4.4504,0,0,0,.15015-1.161,4.54039,4.54039,0,0,0-4.54379-4.54372,4.46985,4.46985,0,0,0-1.17088.15009,4.57542,4.57542,0,0,0-3.07261,2.75227A4.47513,4.47513,0,0,0,34.89911,8.52745Z"/><path class="cls-1" d="M13.06122,39.473a4.55752,4.55752,0,0,0-4.5538-4.55374,4.31166,4.31166,0,0,0-1.61132.30023A4.52845,4.52845,0,0,0,4.1238,38.272,4.702,4.702,0,0,0,3.96369,39.473a4.54043,4.54043,0,0,0,4.54373,4.54379,4.68179,4.68179,0,0,0,1.191-.16017A4.54225,4.54225,0,0,0,13.06122,39.473Z"/><path class="cls-1" d="M41.09428,35.22946a4.473,4.473,0,0,0-1.64137-.31025,4.55752,4.55752,0,0,0-4.5538,4.55374,4.47515,4.47515,0,0,0,.31031,1.64137A4.57533,4.57533,0,0,0,38.282,43.86659a4.46732,4.46732,0,0,0,1.17088.15015A4.54045,4.54045,0,0,0,43.9967,39.473a4.45,4.45,0,0,0-.15015-1.16093A4.52482,4.52482,0,0,0,41.09428,35.22946Z"/><path class="cls-1" d="M23.9802,32.00683A8.0104,8.0104,0,0,1,16,24.51952l.84934.97022A1.50161,1.50161,0,0,0,19.109,23.51155l-3.5068-4.00526a1.5022,1.5022,0,0,0-2.25869-.001L9.83572,23.50666a1.50152,1.50152,0,1,0,2.25772,1.98015l.90089-1.02789A11.01332,11.01332,0,0,0,23.9802,35.00931a1.50124,1.50124,0,0,0,0-3.00248Z"/><path class="cls-1" d="M23.9802,15.99363a8.01055,8.01055,0,0,1,7.98033,7.48847l-.85043-.97138a1.50125,1.50125,0,1,0-2.2587,1.9782l3.5068,4.00525a1.50127,1.50127,0,0,0,2.2587,0l3.50679-4.00134a1.50088,1.50088,0,0,0-2.25772-1.9782l-.89991,1.02648A11.01345,11.01345,0,0,0,23.9802,12.99116a1.50124,1.50124,0,1,0,0,3.00247Z"/></g></g></svg>