<svg xmlns="http://www.w3.org/2000/svg" viewBox="0 0 48 48.0498"><defs><style>.cls-1{fill:#418fde;}</style></defs><title>Asset 906</title><g id="Layer_2" data-name="Layer 2"><g id="Icons"><path class="cls-1" d="M4,30H44a2.00583,2.00583,0,0,0,2-2V2a2.00583,2.00583,0,0,0-2-2H4A2.00583,2.00583,0,0,0,2,2V28A2.00583,2.00583,0,0,0,4,30ZM6,4H42V26H6Z"/><path class="cls-1" d="M45.75,33H2.25A2.25325,2.25325,0,0,0,0,35.25V45.81006A2.25109,2.25109,0,0,0,2.25,48.0498h43.5A2.25109,2.25109,0,0,0,48,45.81006V35.25A2.25325,2.25325,0,0,0,45.75,33ZM19.5,41H5.5a1.5,1.5,0,0,1,0-3h14a1.5,1.5,0,0,1,0,3Zm22,1A2.5,2.5,0,1,1,44,39.5,2.501,2.501,0,0,1,41.5,42Z"/></g></g></svg>