<svg xmlns="http://www.w3.org/2000/svg" viewBox="0 0 48 48"><defs><style>.a{fill:#418fde;}</style></defs><path class="a" d="M45.25,0H2.75A2.74842,2.74842,0,0,0,0,2.75v42.5A2.74842,2.74842,0,0,0,2.75,48h42.5A2.74842,2.74842,0,0,0,48,45.25V2.75A2.74842,2.74842,0,0,0,45.25,0ZM44,44H4V4H44Z"/><path class="a" d="M13.35254,40.66943A2.629,2.629,0,0,0,16.928,39.64874l4.77344-8.50195,8.05371,8.97186c.01806.0202.03979.034.05835.05359.06176.06549.12988.12293.19775.182.064.05487.12573.11169.19336.15918.06836.04883.14209.08795.21509.13.075.04267.14819.08795.22632.12293.07568.03406.15527.0578.23437.08441a2.52664,2.52664,0,0,0,.248.077c.07861.01831.15942.02667.24072.03759a2.72681,2.72681,0,0,0,.27393.02759c.02636.00061.051.00769.07763.00769h6.57349A2.69578,2.69578,0,0,0,41,38.37128V24.04681a8.09069,8.09069,0,0,0-8.10156-8.02514H31.7207A2.70912,2.70912,0,0,0,29,18.65106V31.45447l-5.83105-6.573a2.62952,2.62952,0,0,0-4.26368.46991L12.33179,37.09387A2.62912,2.62912,0,0,0,13.35254,40.66943Z"/><circle class="a" cx="24.5" cy="11.50067" r="4.5"/></svg>