<svg xmlns="http://www.w3.org/2000/svg" viewBox="0 0 44 32"><defs><style>.cls-1{fill:#418fde;}</style></defs><g id="Layer_2" data-name="Layer 2"><g id="FINAL"><path class="cls-1" d="M37,.94V0l7,7H37.78A.781.781,0,0,1,37,6.22ZM44,9V30a2.00006,2.00006,0,0,1-2,2H2a2.00006,2.00006,0,0,1-2-2V2A2,2,0,0,1,2,0H35V6.21973A2.78322,2.78322,0,0,0,37.78027,9ZM11,21V15a1.001,1.001,0,0,1,1-1h3a1,1,0,0,0,0-2H12a3.00328,3.00328,0,0,0-3,3v6a3.00328,3.00328,0,0,0,3,3h3a1,1,0,0,0,0-2H12A1.001,1.001,0,0,1,11,21Zm14-1a3.00328,3.00328,0,0,0-3-3H21a1.001,1.001,0,0,1-1-1V15a1.001,1.001,0,0,1,1-1h2a1,1,0,0,0,0-2H21a3.00328,3.00328,0,0,0-3,3v1a3.00328,3.00328,0,0,0,3,3h1a1.001,1.001,0,0,1,1,1v1a1.001,1.001,0,0,1-1,1H19a1,1,0,0,0,0,2h3a3.00328,3.00328,0,0,0,3-3Zm8.28711-7.958a1.00461,1.00461,0,0,0-1.24512.6709L30,19.51953l-2.042-6.80664a1.00011,1.00011,0,0,0-1.916.57422l3,10a1.00015,1.00015,0,0,0,1.916,0l3-10A1.00044,1.00044,0,0,0,33.28711,12.042Z"/></g></g></svg>