<svg xmlns="http://www.w3.org/2000/svg" viewBox="0 0 48.01906 47.99567"><defs><style>.cls-1{fill:#418fde;}</style></defs><title>Asset 681</title><g id="Layer_2" data-name="Layer 2"><g id="Icons"><path class="cls-1" d="M47.62783,24.27785l-.04-.07a2.97161,2.97161,0,0,0-4.04-1.09l-4.63995,2.68a14.82416,14.82416,0,0,0-1.78-9.07995,1.51788,1.51788,0,0,0-.09-.18l-.03-.04-8.67-15.02a2.95731,2.95731,0,0,0-4.04-1.08l-.07995.04a2.97491,2.97491,0,0,0-1.08,4.04l2.67,4.63a14.88981,14.88981,0,0,0-9.25,1.88l-.11.06-14.97,8.65a2.95725,2.95725,0,0,0-1.08,4.04l.04.07a2.95722,2.95722,0,0,0,4.04,1.08l4.65-2.68a14.919,14.919,0,0,0,1.85,9.19.21221.21221,0,0,0,.03.07l.02.03,8.67,15.02a2.95966,2.95966,0,0,0,4.04,1.08l.08-.04a2.96607,2.96607,0,0,0,1.08-4.04l-2.67-4.63a14.74207,14.74207,0,0,0,8.91-1.7,2.90375,2.90375,0,0,0,.35-.18l.03-.02,15.03-8.67A2.97491,2.97491,0,0,0,47.62783,24.27785Zm-31.4,4.22c-.00995-.01-.00995-.02-.02-.03a8.9961,8.9961,0,0,1,3.24-12.22c.02-.01.05-.03.07-.04s.03-.02.05-.03a9.003,9.003,0,0,1,12.21,3.25c.01.02.03.05.04.07s.02.03.03.05a9.01219,9.01219,0,0,1-3.33,12.25c-.01.01-.02.01-.03.02A9.00068,9.00068,0,0,1,16.22781,28.49783Z"/></g></g></svg>