<svg xmlns="http://www.w3.org/2000/svg" viewBox="0 0 36 48"><defs><style>.cls-1{fill:#418fde;}</style></defs><title>Asset 766</title><g id="Layer_2" data-name="Layer 2"><g id="Icons"><path class="cls-1" d="M33,0H3A3,3,0,0,0,0,3V45a3,3,0,0,0,3,3H33a3,3,0,0,0,3-3V3A3,3,0,0,0,33,0ZM32,44H4V4H32Z"/><path class="cls-1" d="M22.56055,13.56055,23,13.12109V20.5a1.5,1.5,0,0,0,3,0V9.5a1.49987,1.49987,0,0,0-2.56055-1.06055l-3,3a1.49984,1.49984,0,0,0,2.1211,2.1211Z"/><path class="cls-1" d="M14.07422,26.11426a1.49692,1.49692,0,0,0-1.63477.32519l-3,3a1.49984,1.49984,0,0,0,2.1211,2.1211L12,31.12109V38.5a1.5,1.5,0,0,0,3,0v-11A1.50016,1.50016,0,0,0,14.07422,26.11426Z"/><path class="cls-1" d="M22,40h3a3,3,0,0,0,3-3V29a3,3,0,0,0-3-3H22a3,3,0,0,0-3,3v8A3,3,0,0,0,22,40Zm0-11h3v8H22Z"/><path class="cls-1" d="M11,22h3a3,3,0,0,0,3-3V11a3,3,0,0,0-3-3H11a3,3,0,0,0-3,3v8A3,3,0,0,0,11,22Zm0-11h3v8H11Z"/></g></g></svg>