<svg xmlns="http://www.w3.org/2000/svg" viewBox="0 0 42 48"><defs><style>.cls-1{fill:#418fde;}</style></defs><title>Asset 721</title><g id="Layer_2" data-name="Layer 2"><g id="Icons"><path class="cls-1" d="M29,10c-7.41113,0-13,5.15869-13,12a2,2,0,0,0,4,0,7.4486,7.4486,0,0,1,3.99994-6.74451V46a2,2,0,0,0,4,0V31h2V46a2,2,0,0,0,4,0V15.25537A7.4487,7.4487,0,0,1,38,22a2,2,0,0,0,4,0C42,15.15869,36.41113,10,29,10Z"/><circle class="cls-1" cx="28.99994" cy="4" r="4"/><path class="cls-1" d="M8,0a8,8,0,1,0,8,8A7.99778,7.99778,0,0,0,8,0Zm3.72,10.3a1.0079,1.0079,0,0,1,0,1.42,1.014,1.014,0,0,1-1.42,0L8,9.41,5.7,11.72a1.014,1.014,0,0,1-1.42,0,1.0079,1.0079,0,0,1,0-1.42L6.59,8,4.28,5.7A1.0041,1.0041,0,1,1,5.7,4.28L8,6.59l2.3-2.31A1.0041,1.0041,0,0,1,11.72,5.7L9.41,8Z"/></g></g></svg>