<svg xmlns="http://www.w3.org/2000/svg" viewBox="0 0 48 48"><defs><style>.cls-1{fill:#418fde;}</style></defs><g id="Layer_2" data-name="Layer 2"><g id="FINAL"><path class="cls-1" d="M48,44v4H14V44A16,16,0,0,1,30,28h2A16,16,0,0,1,48,44ZM40,17v0a9,9,0,0,0-9-9h0a9,9,0,0,0-9,9v0a9,9,0,0,0,9,9h0A9,9,0,0,0,40,17ZM0,10A10,10,0,1,1,10,20,10.00362,10.00362,0,0,1,0,10Zm8.58008,0L5.29,13.29a1.00761,1.00761,0,0,0,0,1.41992,1.01394,1.01394,0,0,0,1.41992,0l3.29-3.29,3.29,3.29a1.01394,1.01394,0,0,0,1.41992,0,1.00761,1.00761,0,0,0,0-1.41992l-3.29-3.29,3.29-3.29A1.004,1.004,0,1,0,13.29,5.29L10,8.58008,6.71,5.29A1.004,1.004,0,0,0,5.29,6.71Z"/></g></g></svg>