<svg xmlns="http://www.w3.org/2000/svg" viewBox="0 0 32 48"><defs><style>.cls-1{fill:#418fde;}</style></defs><title>Asset 872</title><g id="Layer_2" data-name="Layer 2"><g id="Icons"><path class="cls-1" d="M30,6H2A2.00583,2.00583,0,0,0,0,8V30H32V8A2.00583,2.00583,0,0,0,30,6ZM25.89,18.04v.02a1.51462,1.51462,0,0,1-.33.49l-6.01,6.02a1.50321,1.50321,0,0,1-2.1001,0,1.485,1.485,0,0,1,0-2.1001l3.49-3.49H7.48a1.48,1.48,0,1,1,0-2.96h13.46l-3.49-3.49a1.485,1.485,0,0,1,2.1001-2.1001l6.01,6.02a1.51194,1.51194,0,0,1,.33.49v.02a1.38077,1.38077,0,0,1,0,1.08008Z"/><path class="cls-1" d="M6,4H26a2,2,0,0,0,0-4H6A2,2,0,0,0,6,4Z"/><path class="cls-1" d="M0,48H12V38a2.00583,2.00583,0,0,1,2-2h4a2.00583,2.00583,0,0,1,2,2V48H32V32H0Z"/></g></g></svg>