<svg xmlns="http://www.w3.org/2000/svg" viewBox="0 0 32 44"><defs><style>.cls-1{fill:#418fde;}</style></defs><title>Asset 767</title><g id="Layer_2" data-name="Layer 2"><g id="Icons"><path class="cls-1" d="M30,0H2A2.00583,2.00583,0,0,0,0,2V42a2.00591,2.00591,0,0,0,2,2H21V37a3.999,3.999,0,0,1,4-4h7V2A2.00583,2.00583,0,0,0,30,0ZM25.5,28H6.5a1.5,1.5,0,0,1,0-3h19a1.5,1.5,0,0,1,0,3Zm0-8H6.5a1.5,1.5,0,0,1,0-3h19a1.5,1.5,0,0,1,0,3Zm0-8H6.5a1.5,1.5,0,0,1,0-3h19a1.5,1.5,0,0,1,0,3Z"/><path class="cls-1" d="M23,37v7l9-9H25A2.00583,2.00583,0,0,0,23,37Z"/></g></g></svg>