<svg xmlns="http://www.w3.org/2000/svg" viewBox="0 0 48 48"><defs><style>.cls-1{fill:#418fde;}</style></defs><title>Asset 682</title><g id="Layer_2" data-name="Layer 2"><g id="Icons"><path class="cls-1" d="M45.5,43H35V19.9541A4.038,4.038,0,0,1,39.0459,16,3.95843,3.95843,0,0,1,43,19.9541c0,.01575.00415.03028.00464.0459H43v.68829a3.491,3.491,0,0,0-2,3.15027c0,1.74964,2.86737,5.43482,3.4115,6.11829a.11237.11237,0,0,0,.17706,0C45.13263,29.27338,48,25.5882,48,23.83856a3.491,3.491,0,0,0-2-3.15027V20h-.00464c.00049-.01562.00464-.03015.00464-.0459A6.9617,6.9617,0,0,0,39.0459,13,7.04078,7.04078,0,0,0,32,19.9541V25H29.5a4.06619,4.06619,0,0,0-.5.03A5.5338,5.5338,0,0,0,24.03,30a4.06619,4.06619,0,0,0-.03.5v1.18829a3.491,3.491,0,0,0-2,3.15027c0,1.74964,2.86737,5.43482,3.4115,6.11829a.11237.11237,0,0,0,.17706,0C26.13263,40.27338,29,36.5882,29,34.83856a3.491,3.491,0,0,0-2-3.15027V30.5A2.50091,2.50091,0,0,1,29.5,28H32V43H2.5a2.5,2.5,0,0,0,0,5h43a2.5,2.5,0,0,0,0-5Z"/><path class="cls-1" d="M12.5,6A1.50008,1.50008,0,0,0,14,4.5v-3a1.5,1.5,0,0,0-3,0v3A1.50008,1.50008,0,0,0,12.5,6Z"/><path class="cls-1" d="M11,20.5v3a1.5,1.5,0,0,0,3,0v-3a1.5,1.5,0,0,0-3,0Z"/><path class="cls-1" d="M19.21753,7.90381l2.12128-2.12134a1.5,1.5,0,1,0-2.12128-2.12128L17.09619,5.78247a1.5,1.5,0,0,0,2.12134,2.12134Z"/><path class="cls-1" d="M5.78247,17.09619,3.66119,19.21753a1.5,1.5,0,0,0,2.12128,2.12128l2.12134-2.12128a1.5,1.5,0,0,0-2.12134-2.12134Z"/><path class="cls-1" d="M19,12.5A1.50008,1.50008,0,0,0,20.5,14h3a1.5,1.5,0,0,0,0-3h-3A1.50008,1.50008,0,0,0,19,12.5Z"/><path class="cls-1" d="M1.5,14h3a1.5,1.5,0,0,0,0-3h-3a1.5,1.5,0,0,0,0,3Z"/><path class="cls-1" d="M17.09619,17.09619a1.50008,1.50008,0,0,0,0,2.12134l2.12134,2.12128a1.5,1.5,0,0,0,2.12128-2.12128l-2.12128-2.12134A1.50008,1.50008,0,0,0,17.09619,17.09619Z"/><path class="cls-1" d="M5.78247,7.90381A1.5,1.5,0,0,0,7.90381,5.78247L5.78247,3.66119A1.5,1.5,0,0,0,3.66119,5.78247Z"/><circle class="cls-1" cx="12.5" cy="12.5" r="4.5"/></g></g></svg>