<svg xmlns="http://www.w3.org/2000/svg" viewBox="0 0 40 48.00002"><defs><style>.cls-1{fill:#418fde;}</style></defs><title>Asset 683</title><g id="Layer_2" data-name="Layer 2"><g id="Icons"><path class="cls-1" d="M39.57,18.04,20.69.27a1.01658,1.01658,0,0,0-1.38,0L.43,18.04a1.31057,1.31057,0,0,0-.43.98V47a1.003,1.003,0,0,0,1,1H14.18l8.91-8.92L14.66,31.49A1.9938,1.9938,0,0,1,14,29.98a2.01493,2.01493,0,0,1,.7-1.5l5.36-4.59-3.47-3.48a1.97384,1.97384,0,0,1,0-2.82l4-4A1.994,1.994,0,0,1,23.41,16.41L20.83,19l3.58,3.59A1.97412,1.97412,0,0,1,25,24.08a2.013,2.013,0,0,1-.7,1.44l-5.27,4.52,8.31,7.47a1.99529,1.99529,0,0,1,.06994,2.9L19.82,48H39a1.003,1.003,0,0,0,1-1V19.02A1.31057,1.31057,0,0,0,39.57,18.04Z"/></g></g></svg>