<svg xmlns="http://www.w3.org/2000/svg" viewBox="0 0 34 42"><defs><style>.cls-1{fill:#418fde;}</style></defs><title>Asset 663</title><g id="Layer_2" data-name="Layer 2"><g id="Icons"><path class="cls-1" d="M33,0H29V8L26,7,23,8V0H0V42H33a.98043.98043,0,0,0,1-.95V.95A.98043.98043,0,0,0,33,0ZM6,38.5a.49511.49511,0,0,1-.5.5h-2a.49511.49511,0,0,1-.5-.5V3.5A.49511.49511,0,0,1,3.5,3h2a.49511.49511,0,0,1,.5.5ZM25.5,23h-13a1.5,1.5,0,0,1,0-3h13a1.5,1.5,0,0,1,0,3Zm0-6h-13a1.5,1.5,0,0,1,0-3h13a1.5,1.5,0,0,1,0,3Z"/></g></g></svg>