<svg xmlns="http://www.w3.org/2000/svg" viewBox="0 0 35.97852 44.97122"><defs><style>.cls-1{fill:#418fde;}</style></defs><title>Asset 664</title><g id="Layer_2" data-name="Layer 2"><g id="Icons"><path class="cls-1" d="M29.9892,40.97122H19.98883l.00043-28.50085c0-.01752-.00476-.03376-.00519-.05121a4,4,0,1,0-3.98938.00024c-.00043.01734-.00513.03345-.00513.05091L15.9892,40.97122h-10a2,2,0,0,0,0,4h24a2,2,0,0,0,0-4Z"/><path class="cls-1" d="M24.69989,15.6575c.55737.6095,1.83276.33118,2.54376-.77972a10.97041,10.97041,0,0,0,0-11.81311c-.71106-1.11115-1.98639-1.3891-2.54376-.77973a2.03026,2.03026,0,0,0,.01636,2.3971,7.96642,7.96642,0,0,1,0,8.57837A2.03014,2.03014,0,0,0,24.69989,15.6575Z"/><path class="cls-1" d="M33.39362.95279C32.67493-.04453,31.46484-.27164,30.89984.3317a1.916,1.916,0,0,0,.05908,2.37463,10.72675,10.72675,0,0,1,0,12.52978,1.91557,1.91557,0,0,0-.05908,2.37464c.56476.60284,1.77527.37616,2.49378-.62116A13.72906,13.72906,0,0,0,33.39362.95279Z"/><path class="cls-1" d="M11.17859,15.6575a2.03062,2.03062,0,0,0-.0163-2.39709,7.96655,7.96655,0,0,1,0-8.57837,2.03065,2.03065,0,0,0,.0163-2.3971c-.557-.60962-1.83252-.33136-2.5437.77973a10.97041,10.97041,0,0,0,0,11.81311C9.34583,15.98874,10.6214,16.26706,11.17859,15.6575Z"/><path class="cls-1" d="M5.07861,17.61069a1.91546,1.91546,0,0,0-.059-2.37464,10.72675,10.72675,0,0,1,0-12.52978,1.91554,1.91554,0,0,0,.059-2.37464C4.51373-.27145,3.30341-.04453,2.5849.95279a13.72906,13.72906,0,0,0,0,16.0368C3.30334,17.98679,4.51361,18.21371,5.07861,17.61069Z"/></g></g></svg>