<svg xmlns="http://www.w3.org/2000/svg" viewBox="0 0 48 42.00001"><defs><style>.cls-1{fill:#418fde;}</style></defs><title>Asset 684</title><g id="Layer_2" data-name="Layer 2"><g id="Icons"><path class="cls-1" d="M47.99927,29.49275v-.49243h-.04956L47.94958,29h.04993v.00977L48,29A12.98961,12.98961,0,0,0,35.53406,16.027c-.03211-.06189-.058-.12744-.09107-.18872A12.52392,12.52392,0,0,0,33.53967,1.11616l.00147-.00146L33.15063.71626l-.00146.00147a2.41219,2.41219,0,0,0-3.447.01367A2.53572,2.53572,0,0,0,29.68872,4.25l-.00146.002.36145.36865A7.01348,7.01348,0,0,1,32,10a8.68824,8.68824,0,0,1-.22949,1.60279,12.90063,12.90063,0,0,0-15.53882-.00165A8.65464,8.65464,0,0,1,16,10a6.995,6.995,0,0,1,1.94958-5.37255l-.04125-.042.00024-.00048.04163.043.34668-.3667-.00123-.00146A2.53638,2.53638,0,0,0,18.28967.732,2.41312,2.41312,0,0,0,14.83362.7256L14.832.72706,14.82617.732l-.00476.00586-.34082.34814.03442.03516h-.00012L14.4801,1.086l.007-.00732-.0072.00683A12.51279,12.51279,0,0,0,12.561,15.83009c-.03467.06391-.06153.13233-.0951.1969A12.98961,12.98961,0,0,0,0,29l.00049.00977V29H.05042l-.00013.00031H.00073v.49243L0,29.5l.00073.00727v.00256H.001a2.499,2.499,0,0,0,4.998,0h.00171L5.01,29.00032h-.0603L4.94958,29h.0597a7.99745,7.99745,0,0,1,6.02807-7.73681C11.02344,21.5085,11,21.7513,11,22a13.01276,13.01276,0,0,0,8.17944,12.06287A7.97426,7.97426,0,0,1,13,37h-.52148v.0022a2.49788,2.49788,0,0,0,0,4.99561V42h.56372v-.00213A12.97742,12.97742,0,0,0,24,35.906a12.97742,12.97742,0,0,0,10.95776,6.09192V42h.56372v-.00219a2.49788,2.49788,0,0,0,0-4.99561V37H35a7.97426,7.97426,0,0,1-6.17944-2.93713A13.01276,13.01276,0,0,0,37,22c0-.24871-.02344-.49151-.03735-.73681A7.99745,7.99745,0,0,1,42.99072,29h.0597l-.00013.00031H42.99l.00928.50952H43.001a2.499,2.499,0,0,0,4.998,0h.00025v-.00256L48,29.5ZM24,13a8.95255,8.95255,0,0,1,5.913,2.23175c-.12146.14112-.2406.28357-.37292.41864a7.69431,7.69431,0,0,1-11.07007,0c-.13379-.13671-.25464-.2807-.37756-.42358A8.95276,8.95276,0,0,1,24,13Zm-9,9c0-.24231.01758-.48028.03638-.71777a7.93921,7.93921,0,0,1,5.82031,9.14008A9.00665,9.00665,0,0,1,15,22Zm12.14331,8.42237a7.93928,7.93928,0,0,1,5.82031-9.14014C32.98242,21.51973,33,21.7577,33,22A9.00679,9.00679,0,0,1,27.14331,30.42238Z"/></g></g></svg>