<svg xmlns="http://www.w3.org/2000/svg" viewBox="0 0 48 48.00024"><defs><style>.cls-1{fill:#418fde;}</style></defs><g id="Layer_2" data-name="Layer 2"><g id="FINAL"><path class="cls-1" d="M0,44.00012a3.98882,3.98882,0,0,1,1.17139-2.82861l20-19a4.0006,4.0006,0,0,1,5.65722,0l20.00025,19a4.00027,4.00027,0,0,1-5.65723,5.65723L24,31,6.82861,46.82874A4,4,0,0,1,0,44.00012ZM1.17139,25.82874a4.0006,4.0006,0,0,0,5.65722,0L24,10,41.17163,25.82874a4.00027,4.00027,0,0,0,5.65723-5.65723l-20.00025-19a4.0006,4.0006,0,0,0-5.65722,0l-20,19a4.0009,4.0009,0,0,0,0,5.65723Z"/></g></g></svg>