<svg xmlns="http://www.w3.org/2000/svg" viewBox="0 0 48 44"><defs><style>.cls-1{fill:#418fde;}</style></defs><title>Asset 909</title><g id="Layer_2" data-name="Layer 2"><g id="Icons"><path class="cls-1" d="M46,16H2a2.00583,2.00583,0,0,0-2,2V31.96a2.00583,2.00583,0,0,0,2,2H8V27.99023H40V33.96h6a2.00583,2.00583,0,0,0,2-2V18A2.00583,2.00583,0,0,0,46,16ZM32,23a2,2,0,1,1,2-2A2.00583,2.00583,0,0,1,32,23Zm6,0a2,2,0,1,1,2-2A2.00583,2.00583,0,0,1,38,23Z"/><path class="cls-1" d="M11,33.96V42a2.00583,2.00583,0,0,0,2,2H35a2.00583,2.00583,0,0,0,2-2V30.99023H11Z"/><path class="cls-1" d="M37,7H33a3.00887,3.00887,0,0,1-3-3V0H13a2.00583,2.00583,0,0,0-2,2V14H37Z"/><path class="cls-1" d="M33,5h4L32,0V4A1.00308,1.00308,0,0,0,33,5Z"/></g></g></svg>