<svg xmlns="http://www.w3.org/2000/svg" viewBox="0 0 48 48"><defs><style>.cls-1{fill:#418fde;}</style></defs><title>Asset 895</title><g id="Layer_2" data-name="Layer 2"><g id="Icons"><path class="cls-1" d="M6.62012,31.24023A4.59783,4.59783,0,0,0,9,31.99023C9.1001,32,9.21,32,9.33008,32a4.68451,4.68451,0,0,0,2.71-.75977,10.65779,10.65779,0,0,1,1.27-.62011A8.35584,8.35584,0,0,1,16.65991,30,8.67044,8.67044,0,0,1,21.29,31.24023,4.638,4.638,0,0,0,24,32a4.62651,4.62651,0,0,0,2.7-.75977A8.6413,8.6413,0,0,1,31.33008,30a8.546,8.546,0,0,1,3.35986.62012,11.26672,11.26672,0,0,1,1.26.62011,4.68451,4.68451,0,0,0,2.71.75977A4.94787,4.94787,0,0,0,40,31.8501a5.79356,5.79356,0,0,0,1.37988-.60987c.23-.13037.47022-.26025.74024-.39013A19.69024,19.69024,0,0,0,44,22.41016V14a1.003,1.003,0,0,0-1-1H5a1.003,1.003,0,0,0-1,1v8.41016A19.69024,19.69024,0,0,0,5.87988,30.8501C6.1499,30.98,6.39014,31.10986,6.62012,31.24023ZM10,17H38v4.58984A13.86434,13.86434,0,0,1,37,27H11a13.86434,13.86434,0,0,1-1-5.41016Z"/><path class="cls-1" d="M20,4h8a2,2,0,0,0,0-4H20a2,2,0,0,0,0,4Z"/><path class="cls-1" d="M11.5,11h25a2.5,2.5,0,0,0,0-5h-25a2.5,2.5,0,0,0,0,5Z"/><path class="cls-1" d="M46,42a8.585,8.585,0,0,0-4.625,1.24414,5.24115,5.24115,0,0,1-5.42285,0A8.58615,8.58615,0,0,0,31.32617,42a8.57713,8.57713,0,0,0-4.62305,1.24414A4.69232,4.69232,0,0,1,23.99512,44a4.69572,4.69572,0,0,1-2.709-.75586A8.585,8.585,0,0,0,16.66113,42a8.58385,8.58385,0,0,0-4.624,1.24414A4.69237,4.69237,0,0,1,9.3291,44a4.69018,4.69018,0,0,1-2.70605-.75586A8.58586,8.58586,0,0,0,2,42a2,2,0,0,0,0,4,4.69126,4.69126,0,0,1,2.707.75586A8.58468,8.58468,0,0,0,9.3291,48a8.58382,8.58382,0,0,0,4.624-1.24414A4.69237,4.69237,0,0,1,16.66113,46a4.6957,4.6957,0,0,1,2.709.75586A8.585,8.585,0,0,0,23.99512,48a8.59259,8.59259,0,0,0,4.624-1.24414,5.23415,5.23415,0,0,1,5.41895,0,9.22042,9.22042,0,0,0,9.251,0A4.70237,4.70237,0,0,1,46,46a2,2,0,0,0,0-4Z"/><path class="cls-1" d="M2,38a4.69126,4.69126,0,0,1,2.707.75586A8.58468,8.58468,0,0,0,9.3291,40a8.58382,8.58382,0,0,0,4.624-1.24414A4.69237,4.69237,0,0,1,16.66113,38a4.6957,4.6957,0,0,1,2.709.75586A8.585,8.585,0,0,0,23.99512,40a8.59259,8.59259,0,0,0,4.624-1.24414,5.23415,5.23415,0,0,1,5.41895,0,9.22042,9.22042,0,0,0,9.251,0A4.70237,4.70237,0,0,1,46,38a2,2,0,0,0,0-4,8.585,8.585,0,0,0-4.625,1.24414,5.24115,5.24115,0,0,1-5.42285,0A8.58615,8.58615,0,0,0,31.32617,34a8.57713,8.57713,0,0,0-4.62305,1.24414A4.69232,4.69232,0,0,1,23.99512,36a4.69572,4.69572,0,0,1-2.709-.75586A8.585,8.585,0,0,0,16.66113,34a8.58385,8.58385,0,0,0-4.624,1.24414A4.69237,4.69237,0,0,1,9.3291,36a4.69018,4.69018,0,0,1-2.70605-.75586A8.58586,8.58586,0,0,0,2,34a2,2,0,0,0,0,4Z"/></g></g></svg>