<svg xmlns="http://www.w3.org/2000/svg" viewBox="0 0 48 41"><defs><style>.cls-1{fill:#418fde;}</style></defs><title>Asset 768</title><g id="Layer_2" data-name="Layer 2"><g id="Icons"><path class="cls-1" d="M11.5,18A5.5,5.5,0,1,0,6,12.5,5.49687,5.49687,0,0,0,11.5,18Zm0-7A1.5,1.5,0,1,1,10,12.5,1.498,1.498,0,0,1,11.5,11Z"/><path class="cls-1" d="M28.5,17A8.5,8.5,0,1,0,20,8.5,8.5057,8.5057,0,0,0,28.5,17Zm0-11A2.5,2.5,0,1,1,26,8.5,2.50091,2.50091,0,0,1,28.5,6Z"/><path class="cls-1" d="M46.80389,24.01941,38,26V23a2.00583,2.00583,0,0,0-2-2H6a2.00583,2.00583,0,0,0-2,2v1H2a2,2,0,0,0-2,2v.6a2,2,0,0,0,2,2H4V39a2.00591,2.00591,0,0,0,2,2H36a2.00591,2.00591,0,0,0,2-2V35l8.80389,1.98059A1,1,0,0,0,48,36V25A1,1,0,0,0,46.80389,24.01941ZM18,34a2.00591,2.00591,0,0,1-2,2H10a2.00591,2.00591,0,0,1-2-2V32a2.00583,2.00583,0,0,1,2-2h6a2.00583,2.00583,0,0,1,2,2Z"/></g></g></svg>