<svg xmlns="http://www.w3.org/2000/svg" viewBox="0 0 47.99441 21.99607"><defs><style>.cls-1{fill:#418fde;}</style></defs><title>Asset 675</title><g id="Layer_2" data-name="Layer 2"><g id="Icons"><path class="cls-1" d="M47.507,9.99854a35.32808,35.32808,0,0,0-18.96-6.91992L23.987.44849a3.31006,3.31006,0,0,0-4.95,3.30005,35.32888,35.32888,0,0,0-10.21,3.86l-5.68-1.5199a2.50087,2.50087,0,0,0-1.3,4.82983l.31995.08008-.31995.08008a2.50087,2.50087,0,0,0,1.3,4.82983l5.68-1.51989a35.34432,35.34432,0,0,0,10.29993,3.88,2.89824,2.89824,0,0,0,4.83,2.88l2.16-2.15h.21008a35.45123,35.45123,0,0,0,21.17993-7A1.2695,1.2695,0,0,0,47.507,9.99854Zm-10.51,1a2,2,0,1,1,2-2A2.00591,2.00591,0,0,1,36.997,10.99854Z"/></g></g></svg>