<svg xmlns="http://www.w3.org/2000/svg" viewBox="0 0 48 48.00002"><defs><style>.cls-1{fill:#418fde;}</style></defs><title>Asset 686</title><g id="Layer_2" data-name="Layer 2"><g id="Icons"><path class="cls-1" d="M1.5,9H12.87891L9.43945,12.43947a1.49984,1.49984,0,1,0,2.1211,2.12109l6-6a1.49946,1.49946,0,0,0,0-2.12109l-6-6a1.49984,1.49984,0,1,0-2.1211,2.12109L12.87891,6H1.5a1.5,1.5,0,0,0,0,3Z"/><path class="cls-1" d="M47.82007,12,33.15991.06a.24307.24307,0,0,0-.31982,0L18.17993,12A.52777.52777,0,0,0,18,12.38V30.09a8.73356,8.73356,0,0,1,3.29,1.15A4.63739,4.63739,0,0,0,24,32a4.62642,4.62642,0,0,0,2.7-.76A8.64428,8.64428,0,0,1,31.33008,30,8.60316,8.60316,0,0,1,35.95,31.24a5.22951,5.22951,0,0,0,5.43005,0A8.603,8.603,0,0,1,46,30a9.42933,9.42933,0,0,1,2,.2V12.38A.52777.52777,0,0,0,47.82007,12Z"/><path class="cls-1" d="M46,42a8.603,8.603,0,0,0-4.62,1.24,5.22951,5.22951,0,0,1-5.43005,0A8.60316,8.60316,0,0,0,31.33008,42,8.64428,8.64428,0,0,0,26.7,43.24,4.62642,4.62642,0,0,1,24,44a4.63739,4.63739,0,0,1-2.71-.76A8.67344,8.67344,0,0,0,16.65991,42,8.60316,8.60316,0,0,0,12.04,43.24a4.68387,4.68387,0,0,1-2.71.76A4.68367,4.68367,0,0,1,6.62,43.24,8.603,8.603,0,0,0,2,42a2,2,0,0,0,0,4,4.68319,4.68319,0,0,1,2.71.76A8.60355,8.60355,0,0,0,9.33008,48,8.60325,8.60325,0,0,0,13.95,46.76a4.68407,4.68407,0,0,1,2.71-.76,4.66062,4.66062,0,0,1,2.71009.76A8.64416,8.64416,0,0,0,24,48a8.63212,8.63212,0,0,0,4.62-1.24,5.21166,5.21166,0,0,1,5.42,0,9.24531,9.24531,0,0,0,9.25,0A4.66018,4.66018,0,0,1,46,46a2,2,0,0,0,0-4Z"/><path class="cls-1" d="M46,34a8.58937,8.58937,0,0,0-4.625,1.24414,5.24115,5.24115,0,0,1-5.42285,0A8.59052,8.59052,0,0,0,31.32617,34a8.58149,8.58149,0,0,0-4.62305,1.24414A4.69239,4.69239,0,0,1,23.99512,36a4.6958,4.6958,0,0,1-2.709-.75586A8.58937,8.58937,0,0,0,16.66113,34a8.58822,8.58822,0,0,0-4.624,1.24414A4.69245,4.69245,0,0,1,9.3291,36a4.69019,4.69019,0,0,1-2.70605-.75538A8.57668,8.57668,0,0,0,2,34a2,2,0,0,0,0,4,4.69133,4.69133,0,0,1,2.707.75585A8.5803,8.5803,0,0,0,9.3291,40a8.58818,8.58818,0,0,0,4.624-1.24415A4.69245,4.69245,0,0,1,16.66113,38a4.69578,4.69578,0,0,1,2.709.75585A8.58935,8.58935,0,0,0,23.99512,40a8.58339,8.58339,0,0,0,4.624-1.24463,5.23564,5.23564,0,0,1,5.41895.00048,9.22036,9.22036,0,0,0,9.251,0A4.70244,4.70244,0,0,1,46,38a2,2,0,0,0,0-4Z"/></g></g></svg>