<svg xmlns="http://www.w3.org/2000/svg" viewBox="0 0 32 48"><defs><style>.cls-1{fill:#418fde;}</style></defs><title>Asset 780</title><g id="Layer_2" data-name="Layer 2"><g id="Icons"><path class="cls-1" d="M28,7H4a4.01182,4.01182,0,0,0-4,4V44a4.01182,4.01182,0,0,0,4,4H28a4.01182,4.01182,0,0,0,4-4V11A4.01182,4.01182,0,0,0,28,7ZM14,12a2.00583,2.00583,0,0,1,2-2,2.01467,2.01467,0,0,1,2,2v3a2,2,0,0,1-4,0ZM9,16H9.2A4.80121,4.80121,0,0,1,14,20.80005V23h-.19995A4.80129,4.80129,0,0,1,9,18.2Zm0,8H9.2A4.80121,4.80121,0,0,1,14,28.80005V31h-.19995A4.80129,4.80129,0,0,1,9,26.2ZM9,34.2V32H9.2A4.80121,4.80121,0,0,1,14,36.80005V39h-.19995A4.80129,4.80129,0,0,1,9,34.2ZM18,43a2,2,0,0,1-4,0V41.5a.49511.49511,0,0,1,.5-.5h3a.49511.49511,0,0,1,.5.5Zm5-8.8A4.80129,4.80129,0,0,1,18.2,39H18v-2.2a4.80121,4.80121,0,0,1,4.8-4.8H23Zm0-8A4.80129,4.80129,0,0,1,18.2,31H18v-2.2a4.80121,4.80121,0,0,1,4.8-4.8H23Zm0-8A4.80129,4.80129,0,0,1,18.2,23H18v-2.2a4.80121,4.80121,0,0,1,4.8-4.8H23Z"/><path class="cls-1" d="M4.5,5h23a2.5,2.5,0,0,0,0-5H4.5a2.5,2.5,0,0,0,0,5Z"/></g></g></svg>