<svg xmlns="http://www.w3.org/2000/svg" viewBox="0 0 48 33"><defs><style>.cls-1{fill:#418fde;}</style></defs><title>Asset 781</title><g id="Layer_2" data-name="Layer 2"><g id="Icons"><path class="cls-1" d="M0,20A12.99971,12.99971,0,0,0,13,33H35A13.00837,13.00837,0,0,0,48,20Z"/><path class="cls-1" d="M15.04,17H47a7.00558,7.00558,0,0,0-7.02-7l-.00525.00024a6.48409,6.48409,0,0,0-9.37366-5.31176,6.99118,6.99118,0,0,0-13.20214,0,6.48409,6.48409,0,0,0-9.37366,5.31176L8.02,10A7.00558,7.00558,0,0,0,1,17H15.04Z"/></g></g></svg>