<svg xmlns="http://www.w3.org/2000/svg" viewBox="0 0 48 36.85583"><defs><style>.cls-1{fill:#418fde;}</style></defs><title>Asset 665</title><g id="Layer_2" data-name="Layer 2"><g id="Icons"><path class="cls-1" d="M47,22.85583H1a1,1,0,0,0-1,1,13,13,0,0,0,13,13H35a13,13,0,0,0,13-13A1,1,0,0,0,47,22.85583Z"/><path class="cls-1" d="M20.88849,12.0791,18.401,11.4126a5.00007,5.00007,0,0,0-6.12372,3.53552l-.17633.6582,2.48743.66651A4.99993,4.99993,0,0,0,20.7121,12.7373Z"/><path class="cls-1" d="M20.33264,17.812l2.48749.6665A5,5,0,0,0,28.94385,14.943l.17633-.6582-2.48743-.66651A5,5,0,0,0,20.509,17.15381Z"/><path class="cls-1" d="M28.56439,20.0177l2.48743.6665a5,5,0,0,0,6.12372-3.53552l.17639-.6582L34.86444,15.824a5,5,0,0,0-6.12372,3.53553Z"/><path class="cls-1" d="M19.13623,8.6687l2.48749.6665.17633-.65814a5,5,0,0,0-3.53552-6.12372l-2.48743-.6665-.17639.65814A5,5,0,0,0,19.13623,8.6687Z"/><path class="cls-1" d="M27.368,10.87439l2.48743.6665.17639-.65814A5,5,0,0,0,26.49628,4.759l-2.48749-.66656-.17633.6582A5,5,0,0,0,27.368,10.87439Z"/><path class="cls-1" d="M35.59967,13.08008l2.48749.6665.17633-.6582A4.99989,4.99989,0,0,0,34.728,6.96472l-2.48743-.66656-.17639.6582A5,5,0,0,0,35.59967,13.08008Z"/><path class="cls-1" d="M45.95123,17.32422a1.42028,1.42028,0,0,0-1.00433-1.73957l-5.03046-1.3479-.73523,2.7439,5.03046,1.3479A1.4203,1.4203,0,0,0,45.95123,17.32422Z"/><path class="cls-1" d="M5.97638,11.02435a1.42035,1.42035,0,0,0-.73523,2.7439l3.65857.98028A1.42034,1.42034,0,1,0,9.635,12.00464Z"/><path class="cls-1" d="M8.18207,2.79266l3.65857.98029a1.42035,1.42035,0,0,0,.73523-2.7439L8.9173.04877a1.42034,1.42034,0,1,0-.73523,2.74389Z"/><path class="cls-1" d="M3.0531,7.30017l10.061,2.6958a1.42035,1.42035,0,1,0,.73523-2.7439l-10.061-2.6958a1.42035,1.42035,0,0,0-.73523,2.7439Z"/></g></g></svg>