<svg xmlns="http://www.w3.org/2000/svg" viewBox="0 0 32 48"><defs><style>.cls-1{fill:#418fde;}</style></defs><title>Asset 873</title><g id="Layer_2" data-name="Layer 2"><g id="Icons"><path class="cls-1" d="M30,6H2A2.00583,2.00583,0,0,0,0,8V30H32V8A2.00583,2.00583,0,0,0,30,6ZM11,11a1,1,0,0,1,2,0v3a1,1,0,0,1-2,0Zm4,17h-.13A3.8666,3.8666,0,0,1,11,24.12988V23h.13A3.8666,3.8666,0,0,1,15,26.87012Zm0-6h-.13A3.8666,3.8666,0,0,1,11,18.12988V17h.13A3.8666,3.8666,0,0,1,15,20.87012Zm1.02-5h-.04a.98151.98151,0,0,1-.98-.98V8.98A.98151.98151,0,0,1,15.98,8h.04a.98151.98151,0,0,1,.98.98v7.04A.98151.98151,0,0,1,16.02,17ZM21,24.12988A3.8666,3.8666,0,0,1,17.13,28H17V26.87012A3.8666,3.8666,0,0,1,20.87,23H21Zm0-6A3.8666,3.8666,0,0,1,17.13,22H17V20.87012A3.8666,3.8666,0,0,1,20.87,17H21ZM21,14a1,1,0,0,1-2,0V11a1,1,0,0,1,2,0Z"/><path class="cls-1" d="M6,4H26a2,2,0,0,0,0-4H6A2,2,0,0,0,6,4Z"/><path class="cls-1" d="M0,48H12V38a2.00583,2.00583,0,0,1,2-2h4a2.00583,2.00583,0,0,1,2,2V48H32V32H0Z"/></g></g></svg>