<svg xmlns="http://www.w3.org/2000/svg" viewBox="0 0 48.00001 48"><defs><style>.cls-1{fill:#418fde;}</style></defs><title>Asset 826</title><g id="Layer_2" data-name="Layer 2"><g id="Icons"><circle class="cls-1" cx="4" cy="4" r="4"/><path class="cls-1" d="M38.75024,28.45947,42.66992,20.71a4.86608,4.86608,0,0,0-2.1499-6.52l-1.26-.62988-1.3-.66016a1.73246,1.73246,0,0,0-.37988-.13989A14.27606,14.27606,0,0,0,20.75,16.64014l-2.13-2.46021A15.98431,15.98431,0,0,0,6.86,9,6.831,6.831,0,0,0,.41992,18.1001c.02.0498.04.08984.06006.13989l2.88,6.59985c.21008.76026.72009,2.41016,1.52,4.91016A68.32137,68.32137,0,0,1,7.75,43.57007L8.01,46.2A1.99678,1.99678,0,0,0,10,48,1.40554,1.40554,0,0,0,10.2,47.99a1.99893,1.99893,0,0,0,1.79-2.18994l-.26-2.62012A72.3121,72.3121,0,0,0,9.14,30h3.98A31.6192,31.6192,0,0,1,15,42a1.99549,1.99549,0,0,0,1.5,1.92993l2.42993-4.76A35.27432,35.27432,0,0,0,15.31006,24.8501c-.40015-.92017-.82007-1.87012-1.24-2.91016l-3.38013-8.31006A11.91,11.91,0,0,1,15.63,16.83008l3.85,4.48a1.989,1.989,0,0,0,1.3501.67993c.08984,0,.15991.01.24.01a2.06861,2.06861,0,0,0,1.84985-1.12988,9.66664,9.66664,0,0,1,8.01-5.22022,8.56218,8.56218,0,0,1,1.13013-.02A9.7264,9.7264,0,0,1,33.13,15.73L18.23,44.95A2.07963,2.07963,0,0,0,19.14,47.76a2.01839,2.01839,0,0,0,.95008.23A2.0928,2.0928,0,0,0,21.95,46.8501l9.04-17.73.89.45.9.44995,3.26636,1.658c.01489.00928.031.01733.0459.02685a.2354.2354,0,0,1,.06762.04517l.05322.02539a10.14342,10.14342,0,0,1,3.4751,13.16382,2.08673,2.08673,0,1,0,3.70386,1.92334A14.31818,14.31818,0,0,0,38.75024,28.45947Z"/><path class="cls-1" d="M47.79834,7.75024a4,4,0,1,0-2.54858,5.0503A3.99986,3.99986,0,0,0,47.79834,7.75024Z"/></g></g></svg>