<svg xmlns="http://www.w3.org/2000/svg" viewBox="0 0 26 48"><defs><style>.cls-1{fill:#418fde;}</style></defs><title>Asset 962</title><g id="Layer_2" data-name="Layer 2"><g id="Icons"><path class="cls-1" d="M0,22a2,2,0,0,0,4,0,7.40365,7.40365,0,0,1,5-7L5,33.98A.92.92,0,0,0,5.99,35h2V46a2,2,0,0,0,4,0V10C4.98,10.42993,0,15.36,0,22Z"/><path class="cls-1" d="M8.99,4a4.14548,4.14548,0,0,0,3,4V0A4.14548,4.14548,0,0,0,8.99,4Z"/><path class="cls-1" d="M14.01,10V46a2,2,0,1,0,4,0V15A7.85669,7.85669,0,0,1,22,22a2,2,0,0,0,4,0C26,15.36,21.01,10.42993,14.01,10Z"/><path class="cls-1" d="M17.01,4a4.14548,4.14548,0,0,0-3-4V8A4.14548,4.14548,0,0,0,17.01,4Z"/></g></g></svg>