<svg xmlns="http://www.w3.org/2000/svg" viewBox="0 0 48 48"><defs><style>.cls-1{fill:#418fde;}</style></defs><title>Asset 874</title><g id="Layer_2" data-name="Layer 2"><g id="Icons"><path class="cls-1" d="M46.5,45H1.5a1.5,1.5,0,0,0,0,3h45a1.5,1.5,0,0,0,0-3Z"/><path class="cls-1" d="M5.5,43h37a1.5,1.5,0,0,0,0-3H5.5a1.5,1.5,0,0,0,0,3Z"/><rect class="cls-1" x="10" y="17" width="4" height="21"/><rect class="cls-1" x="18" y="17" width="4" height="21"/><rect class="cls-1" x="26" y="17" width="4" height="21"/><rect class="cls-1" x="34" y="17" width="4" height="21"/><path class="cls-1" d="M8,15H40a2,2,0,0,0,0-4H25V8h9V2H25V1.5a1.5,1.5,0,0,0-3,0V11H8a2,2,0,0,0,0,4Z"/></g></g></svg>