<svg xmlns="http://www.w3.org/2000/svg" viewBox="0 0 48 32"><defs><style>.cls-1{fill:#418fde;}</style></defs><title>Asset 928</title><g id="Layer_2" data-name="Layer 2"><g id="Icons"><path class="cls-1" d="M39,15H37a8.95691,8.95691,0,0,0-3.65912.78235A13.97324,13.97324,0,0,1,39,27h9V24A9,9,0,0,0,39,15Z"/><path class="cls-1" d="M14.65912,15.78235A8.95691,8.95691,0,0,0,11,15H9a9,9,0,0,0-9,9v3H9A13.97324,13.97324,0,0,1,14.65912,15.78235Z"/><path class="cls-1" d="M25,16H23A11,11,0,0,0,12,27v5H36V27A11,11,0,0,0,25,16Z"/><circle class="cls-1" cx="24" cy="7" r="7"/><circle class="cls-1" cx="10" cy="8" r="5"/><circle class="cls-1" cx="38" cy="8" r="5"/></g></g></svg>