<svg xmlns="http://www.w3.org/2000/svg" viewBox="0 0 34 48"><defs><style>.cls-1{fill:#5091cd;}</style></defs><title>Asset 960</title><g id="Layer_2" data-name="Layer 2"><g id="Icons"><path class="cls-1" d="M21,3a3,3,0,0,0-6,0V6h6Z"/><path class="cls-1" d="M15,26h6V24h5A8,8,0,0,0,26,8H11.64A3.99985,3.99985,0,0,0,9,7H4a4,4,0,0,0,0,8H9a3.99985,3.99985,0,0,0,2.64-1H26a2,2,0,0,1,0,4H21V16H15v2H12a8,8,0,0,0,0,16H22a2,2,0,0,1,0,4H21V36H15v2H13a3,3,0,0,0,0,6h2v1a2.77221,2.77221,0,0,0,.18,1,2.65394,2.65394,0,0,0,.18.42.81833.81833,0,0,0,.12.2,1.30254,1.30254,0,0,0,.1.15,2.90039,2.90039,0,0,0,1.36,1.03.493.493,0,0,0,.17.06.82971.82971,0,0,0,.21.06.85738.85738,0,0,0,.17.03,2.62662,2.62662,0,0,0,1.02,0,.85738.85738,0,0,0,.17-.03,2.95206,2.95206,0,0,0,1.74-1.15,1.30254,1.30254,0,0,0,.1-.15.81833.81833,0,0,0,.12-.2,2.65394,2.65394,0,0,0,.18-.42A2.77221,2.77221,0,0,0,21,45V44h1a8,8,0,0,0,0-16H12a2,2,0,0,1,0-4h3ZM4,11a1,1,0,1,1,1-1A1.003,1.003,0,0,1,4,11Z"/></g></g></svg>