<svg xmlns="http://www.w3.org/2000/svg" viewBox="0 0 48 48"><defs><style>.cls-1{fill:#418fde;}</style></defs><title>Asset 9652111</title><g id="Layer_2" data-name="Layer 2"><g id="Icons"><path class="cls-1" d="M47.90283,24.04614a.99674.99674,0,0,0-.27221-.34643L32,11,16.36938,23.69971A1.00135,1.00135,0,0,0,16,24.476V48H48V24.476A.9987.9987,0,0,0,47.90283,24.04614ZM41,35a1,1,0,0,1-1,1H35v5a1,1,0,0,1-1,1H30a1,1,0,0,1-1-1V36H24a1,1,0,0,1-1-1V31a1,1,0,0,1,1-1h5V25a1,1,0,0,1,1-1h4a1,1,0,0,1,1,1v5h5a1,1,0,0,1,1,1Z"/><path class="cls-1" d="M20,10A10,10,0,1,0,10,20,9.99991,9.99991,0,0,0,20,10ZM9,4a1,1,0,0,1,2,0v8a1,1,0,0,1-2,0Zm1,13.134A1.134,1.134,0,1,1,11.134,16,1.13405,1.13405,0,0,1,10,17.134Z"/></g></g></svg>