<svg xmlns="http://www.w3.org/2000/svg" viewBox="0 0 34 48"><defs><style>.cls-1{fill:#418fde;}</style></defs><title>Asset 688</title><g id="Layer_2" data-name="Layer 2"><g id="Icons"><path class="cls-1" d="M16,6.5a6.5,6.5,0,0,0-13,0V31.57715A9.49838,9.49838,0,1,0,19,38.5a9.44953,9.44953,0,0,0-3-6.92285ZM9.5,45A6.49635,6.49635,0,0,1,5.439,33.43018L6,32.98V6.5a3.5,3.5,0,0,1,7,0V32.98l.561.4502A6.49635,6.49635,0,0,1,9.5,45Z"/><path class="cls-1" d="M11,34.79663V8.5a1.5,1.5,0,0,0-3,0V34.79663a4,4,0,1,0,3,0Z"/><path class="cls-1" d="M32.5,10.00006H28v-4.5a1.5,1.5,0,1,0-3,0v4.5H20.5a1.5,1.5,0,0,0,0,3H25V17.5a1.5,1.5,0,0,0,3,0V13.00006h4.5a1.5,1.5,0,0,0,0-3Z"/></g></g></svg>