<svg xmlns="http://www.w3.org/2000/svg" viewBox="0 0 47.97998 40"><defs><style>.cls-1{fill:#418fde;}</style></defs><title>Asset 689</title><g id="Layer_2" data-name="Layer 2"><g id="Icons"><path class="cls-1" d="M11.22876,31a1.76724,1.76724,0,0,0-1.25.51776l-5.4646,5.46448a1.76777,1.76777,0,0,0,2.5,2.5l5.4646-5.46448A1.7678,1.7678,0,0,0,11.22876,31Z"/><path class="cls-1" d="M24.23584,31a1.76724,1.76724,0,0,0-1.25.51776l-5.4646,5.46448a1.76777,1.76777,0,0,0,2.5,2.5l5.4646-5.46448A1.7678,1.7678,0,0,0,24.23584,31Z"/><path class="cls-1" d="M37.23584,31a1.76724,1.76724,0,0,0-1.25.51776l-5.4646,5.46448a1.76777,1.76777,0,0,0,2.5,2.5l5.4646-5.46448A1.7678,1.7678,0,0,0,37.23584,31Z"/><path class="cls-1" d="M38.98,9.01a8.73424,8.73424,0,0,0-3.16.58l-.01068.00494A11.49,11.49,0,0,0,12.98749,11.3515a5.97663,5.97663,0,0,0-7.9112,6.68994L5.07,18.04A3.81789,3.81789,0,0,0,4.48,18a4.5,4.5,0,0,0,0,9h34.5a9.00311,9.00311,0,0,0,8.83-7.24A9.29646,9.29646,0,0,0,47.98,18,8.99222,8.99222,0,0,0,38.98,9.01Z"/></g></g></svg>