<svg xmlns="http://www.w3.org/2000/svg" viewBox="0 0 48 35"><defs><style>.cls-1{fill:#418fde;}</style></defs><title>Asset 898</title><g id="Layer_2" data-name="Layer 2"><g id="Icons"><path class="cls-1" d="M46.5,3a1.5,1.5,0,0,0,0-3H8.5a1.5,1.5,0,0,0,0,3H26v7H8.74a4.50324,4.50324,0,1,0-.261,3.5918L17,17v2h.00671c-.00061.04443-.00671.0874-.00671.13184A8.88436,8.88436,0,0,0,25.48218,27.978c.01977.00293.03808.01025.05786.0122C25.66992,28,25.79,28,25.91992,28H27v4H18.4231A1.423,1.423,0,0,0,17,33.42285v.1543A1.423,1.423,0,0,0,18.4231,35H40.769a1.40954,1.40954,0,0,0,.45-.07324l4.808-1.60254a1.42289,1.42289,0,1,0-.9-2.69971l-3.908,1.30225A1.40954,1.40954,0,0,1,40.769,32H39V27.93994A8.99772,8.99772,0,0,0,38.01,10H29V3ZM4.5,13A1.5,1.5,0,1,1,6,11.5,1.49789,1.49789,0,0,1,4.5,13ZM30,32V28h6v4ZM44,19H37V13a7.76344,7.76344,0,0,1,.97.06006C41.38,13.46,44,15.96973,44,19Z"/></g></g></svg>