<svg xmlns="http://www.w3.org/2000/svg" viewBox="0 0 47.99989 42"><defs><style>.cls-1{fill:#418fde;}</style></defs><title>Asset 935</title><g id="Layer_2" data-name="Layer 2"><g id="Icons"><path class="cls-1" d="M15.99988,21a7.981,7.981,0,0,1,8.879-7.94934l6.286-6.286A32.24156,32.24156,0,0,0,23.99988,6C14.1684,6,6.0827,9.77533.61652,18.8028A4.2247,4.2247,0,0,0,.61542,23.196a27.26911,27.26911,0,0,0,6.58587,7.53223L16.05054,21.879A8.06914,8.06914,0,0,1,15.99988,21Z"/><path class="cls-1" d="M47.38434,18.804a27.26913,27.26913,0,0,0-6.58588-7.53223L31.94922,20.121a7.981,7.981,0,0,1-8.82837,8.82837l-6.28595,6.286A32.24149,32.24149,0,0,0,23.99988,36c9.83148,0,17.91717-3.77533,23.38446-12.804A4.225,4.225,0,0,0,47.38434,18.804Z"/><path class="cls-1" d="M4.99988,42a2,2,0,0,1-1.41406-3.41406l38-38a1.99978,1.99978,0,1,1,2.82812,2.82812l-38,38A1.99267,1.99267,0,0,1,4.99988,42Z"/></g></g></svg>