<svg xmlns="http://www.w3.org/2000/svg" viewBox="0 0 32 48"><defs><style>.cls-1{fill:#418fde;}</style></defs><title>Asset 879</title><g id="Layer_2" data-name="Layer 2"><g id="Icons"><path class="cls-1" d="M30,6H2A2.00583,2.00583,0,0,0,0,8V30H32V8A2.00583,2.00583,0,0,0,30,6ZM11,13a2,2,0,1,1-2,2A2.00583,2.00583,0,0,1,11,13ZM29,24.5a1.5,1.5,0,0,1-3,0V23H6v1.5a1.5,1.5,0,0,1-3,0v-13a1.5,1.5,0,0,1,3,0V20H29Zm0-9.35986A1.85652,1.85652,0,0,1,27.14,17H17.86A1.85652,1.85652,0,0,1,16,15.14014v-.28028A1.85652,1.85652,0,0,1,17.86,13h9.28A1.85652,1.85652,0,0,1,29,14.85986Z"/><path class="cls-1" d="M6,4H26a2,2,0,0,0,0-4H6A2,2,0,0,0,6,4Z"/><path class="cls-1" d="M0,48H12V38a2.00583,2.00583,0,0,1,2-2h4a2.00583,2.00583,0,0,1,2,2V48H32V32H0Z"/></g></g></svg>