<svg xmlns="http://www.w3.org/2000/svg" viewBox="0 0 48 48"><defs><style>.cls-1{fill:#418fde;}</style></defs><title>Asset 851</title><g id="Layer_2" data-name="Layer 2"><g id="Icons"><path class="cls-1" d="M10,0A10,10,0,1,0,20,10,10.00362,10.00362,0,0,0,10,0Zm4.71,13.29a1.00761,1.00761,0,0,1,0,1.41992,1.01394,1.01394,0,0,1-1.41992,0l-3.29-3.29L6.71,14.71a1.01394,1.01394,0,0,1-1.41992,0,1.00761,1.00761,0,0,1,0-1.41992l3.29-3.29L5.29,6.71A1.004,1.004,0,0,1,6.71,5.29l3.29,3.29,3.29-3.29A1.004,1.004,0,1,1,14.71,6.71l-3.29,3.29Z"/><path class="cls-1" d="M47.82007,22.85,33.64014,10.23175a.99992.99992,0,0,0-1.28028,0L18.17993,22.85A.52787.52787,0,0,0,18,23.23V48H29V38a2,2,0,0,1,2-2h4a2,2,0,0,1,2,2V48H48V23.23A.52787.52787,0,0,0,47.82007,22.85Z"/></g></g></svg>