<svg xmlns="http://www.w3.org/2000/svg" viewBox="0 0 48 48"><defs><style>.a{fill:#418fde;}</style></defs><path class="a" d="M10,5A3.00879,3.00879,0,0,0,7,8h6A3.00879,3.00879,0,0,0,10,5Z"/><path class="a" d="M47.82,22.85,33.64,10.23a.997.997,0,0,0-1.28,0L18.18,22.85a.52738.52738,0,0,0-.18.38V48H29V38a2.00583,2.00583,0,0,1,2-2h4a2.00583,2.00583,0,0,1,2,2V48H48V23.23A.52738.52738,0,0,0,47.82,22.85Z"/><path class="a" d="M10,0A10,10,0,1,0,20,10,10.00362,10.00362,0,0,0,10,0Zm5,14a2.00591,2.00591,0,0,1-2,2H7a2.00591,2.00591,0,0,1-2-2V8A5,5,0,0,1,15,8Z"/><rect class="a" x="8" y="10" width="4" height="4" rx="1"/></svg>