<svg xmlns="http://www.w3.org/2000/svg" viewBox="0 0 48 48"><defs><style>.cls-1{fill:#418fde;}</style></defs><title>Asset 850</title><g id="Layer_2" data-name="Layer 2"><g id="Icons"><path class="cls-1" d="M10,0A10,10,0,1,0,20,10,10.00362,10.00362,0,0,0,10,0Zm0,17a1,1,0,1,1,1-1A1.00288,1.00288,0,0,1,10,17Zm1-5a1,1,0,0,1-2,0V4a1,1,0,0,1,2,0Z"/><path class="cls-1" d="M47.82007,22.85,33.64014,10.23175a.99992.99992,0,0,0-1.28028,0L18.17993,22.85A.52787.52787,0,0,0,18,23.23V48H29V38a2,2,0,0,1,2-2h4a2,2,0,0,1,2,2V48H48V23.23A.52787.52787,0,0,0,47.82007,22.85Z"/></g></g></svg>