<svg xmlns="http://www.w3.org/2000/svg" viewBox="0 0 47.99685 48"><defs><style>.cls-1{fill:#418fde;}</style></defs><title>Asset 744</title><g id="Layer_2" data-name="Layer 2"><g id="Icons"><path class="cls-1" d="M38.09852,32.12l-.19018-.24a16.0217,16.0217,0,0,1-9.06983,7.37,14.81175,14.81175,0,0,1-1.77.45h-.01a14.96468,14.96468,0,0,1-2.34009.28l.53-.42a1.99984,1.99984,0,0,0-1.25-3.56,1.96875,1.96875,0,0,0-1.25.44l-3.54,2.83-1.46,1.17a2.00689,2.00689,0,0,0-.75,1.56,1.98215,1.98215,0,0,0,.16993.8,2.14565,2.14565,0,0,0,.58007.76l5,4a1.96875,1.96875,0,0,0,1.25.44,1.99984,1.99984,0,0,0,1.25-3.56l-.57006-.46a15.46159,15.46159,0,0,0,2.05-.17c.54-.07,1.08008-.17,1.61011-.29a20.03573,20.03573,0,0,0,13-9.56995A4.87591,4.87591,0,0,1,38.09852,32.12Z"/><path class="cls-1" d="M9.89833,15.88l.19018.24a16.02123,16.02123,0,0,1,9.06983-7.37,14.79983,14.79983,0,0,1,1.77-.45h.01a14.96457,14.96457,0,0,1,2.34008-.28l-.53.42a1.99985,1.99985,0,0,0,1.25,3.56,1.96871,1.96871,0,0,0,1.25-.44l3.54-2.83,1.46-1.17a2.00689,2.00689,0,0,0,.75-1.56,1.98193,1.98193,0,0,0-.16992-.8,2.14462,2.14462,0,0,0-.58008-.76l-5-4a1.96871,1.96871,0,0,0-1.25-.44,1.99985,1.99985,0,0,0-1.25,3.56l.57007.46a15.4518,15.4518,0,0,0-2.05005.17c-.54.07-1.08007.17-1.6101.29a20.027,20.027,0,0,0-13.01978,9.6A4.87354,4.87354,0,0,1,9.89833,15.88Z"/><path class="cls-1" d="M8.74842,28.84a16.32631,16.32631,0,0,1-.73-4.12l.41993.53a1.98942,1.98942,0,0,0,1.56.75,1.96871,1.96871,0,0,0,1.25-.44,2.00106,2.00106,0,0,0,.31006-2.81L8.7284,19.21,7.55848,17.75a1.99888,1.99888,0,0,0-1.56006-.71,2.05312,2.05312,0,0,0-.81005.16,1.85485,1.85485,0,0,0-.75.55l-4,5a2.00105,2.00105,0,0,0,.31005,2.81,1.96875,1.96875,0,0,0,1.25.44,1.98943,1.98943,0,0,0,1.56006-.75l.46-.57a15.4826,15.4826,0,0,0,.16993,2.05c.07006.54.16992,1.08.29,1.61a20.03576,20.03576,0,0,0,9.57007,13,4.87645,4.87645,0,0,1,1.82984-3.24l.24023-.19A16.02076,16.02076,0,0,1,8.74842,28.84Z"/><path class="cls-1" d="M47.24842,22.44a1.96871,1.96871,0,0,0-1.25-.44,1.98942,1.98942,0,0,0-1.56005.75l-.46.57a15.48434,15.48434,0,0,0-.16992-2.05c-.07007-.54-.16992-1.08-.29-1.61a20.03589,20.03589,0,0,0-9.57006-13A4.87632,4.87632,0,0,1,32.11854,9.9l-.24023.19a16.02093,16.02093,0,0,1,7.37011,9.07,16.3265,16.3265,0,0,1,.73,4.12l-.41992-.53A1.98943,1.98943,0,0,0,37.99842,22a1.96875,1.96875,0,0,0-1.25.44,2.00105,2.00105,0,0,0-.31005,2.81l2.83007,3.54,1.16993,1.46a2.00735,2.00735,0,0,0,1.56005.75,1.97949,1.97949,0,0,0,.8-.17,2.14232,2.14232,0,0,0,.76-.58l4-5A2.00106,2.00106,0,0,0,47.24842,22.44Z"/></g></g></svg>