<?xml version="1.0" encoding="utf-8"?>
<!-- Generator: Adobe Illustrator 24.1.0, SVG Export Plug-In . SVG Version: 6.00 Build 0)  -->
<svg version="1.1" id="Layer_1" xmlns="http://www.w3.org/2000/svg" xmlns:xlink="http://www.w3.org/1999/xlink" x="0px" y="0px"
	 viewBox="0 0 48 48" style="enable-background:new 0 0 48 48;" xml:space="preserve">
<style type="text/css">
	.st0{fill:#418FDE;}
</style>
<path class="st0" d="M9,4c0-2.2,1.8-4,4-4c2.2,0,4,1.8,4,4s-1.8,4-4,4C10.8,8,9,6.2,9,4z M33.5,27.8l5.7,5.6c0.7,0.7,1.9,0.7,2.6,0
	l5.6-5.5c0.6-0.6,0.7-1.6,0.3-2.3c-0.5-0.7-1.6-0.9-2.3-0.3c-0.1,0-0.1,0.1-0.2,0.2L42,28.3V15.7c0.1-0.8-0.5-1.6-1.3-1.7
	c-0.8-0.1-1.6,0.5-1.7,1.3c0,0.1,0,0.2,0,0.3v12.6l-3.2-2.8c-0.6-0.7-1.7-0.7-2.4,0C32.8,26.1,32.8,27.2,33.5,27.8
	C33.5,27.8,33.5,27.8,33.5,27.8z M47.9,47.1c-0.2,0.5-0.7,0.9-1.2,0.9H1.3c-0.5-0.1-1-0.4-1.2-0.9C0,46.9,0,46.7,0,46.5v0
	c0.1-0.6,0.5-1.1,1-1.2c0.2-0.1,1.6-0.5,3.9-1C5.8,44,6.8,43.8,8,43.6V15.3c-2.5,1.3-4.1,3.9-4,6.7c0,1.1-0.9,2-2,2s-2-0.9-2-2
	c0-6.8,5.6-12,13-12s13,5.2,13,12c0,1.1-0.9,2-2,2s-2-0.9-2-2c0.1-2.8-1.5-5.4-4-6.7v27c8.5-0.7,17.1,0,25.4,2
	c1.2,0.3,2.4,0.6,3.6,1c0,0,0,0,0.1,0C47.8,45.6,48.2,46.4,47.9,47.1z M14,31h-2v11.9c0.3,0,1-0.1,2-0.2V31z"/>
</svg>
