<svg xmlns="http://www.w3.org/2000/svg" viewBox="0 0 48 44.06445"><defs><style>.cls-1{fill:#418fde;}</style></defs><title>Asset 745</title><g id="Layer_2" data-name="Layer 2"><g id="Icons"><path class="cls-1" d="M2,8.0166H6.31677a6.00671,6.00671,0,0,0,11.33423,0H46a2,2,0,0,0,0-4H17.651a6.00623,6.00623,0,0,0-11.33423,0H2a2,2,0,0,0,0,4ZM11.98389,4A2.01612,2.01612,0,1,1,9.96777,6.0166,2.01834,2.01834,0,0,1,11.98389,4Z"/><path class="cls-1" d="M46,36.04883H25.68323a6.00623,6.00623,0,0,0-11.33423,0H2a2,2,0,0,0,0,4H14.349a6.00672,6.00672,0,0,0,11.33423,0H46a2,2,0,0,0,0-4ZM20.01611,40.06445a2.01611,2.01611,0,1,1,2.01612-2.01562A2.01812,2.01812,0,0,1,20.01611,40.06445Z"/><path class="cls-1" d="M46,20.03223H41.68323a6.00671,6.00671,0,0,0-11.33423,0H2a2,2,0,0,0,0,4H30.349a6.00623,6.00623,0,0,0,11.33423,0H46a2,2,0,0,0,0-4Zm-9.98389,4.0166a2.01612,2.01612,0,1,1,2.01612-2.0166A2.01834,2.01834,0,0,1,36.01611,24.04883Z"/></g></g></svg>