<svg xmlns="http://www.w3.org/2000/svg" viewBox="0 0 48 48"><defs><style>.cls-1{fill:#418fde;}</style></defs><title>Asset 746</title><g id="Layer_2" data-name="Layer 2"><g id="Icons"><path class="cls-1" d="M45.39,27a2.50232,2.50232,0,1,0,0-5H42V18h3.39a2.50232,2.50232,0,1,0,0-5H42V8.07A1.07119,1.07119,0,0,0,40.93,7H36V2.61a2.50232,2.50232,0,1,0-5,0V7H27V2.61a2.50232,2.50232,0,1,0-5,0V7H18V2.61a2.50232,2.50232,0,1,0-5,0V7H8.07A1.07119,1.07119,0,0,0,7,8.07V13H2.61a2.50232,2.50232,0,1,0,0,5H7v4H2.61a2.50232,2.50232,0,1,0,0,5H7v4H2.61a2.50232,2.50232,0,1,0,0,5H7v4.93A1.07123,1.07123,0,0,0,8.07,42H13v3.39a2.50232,2.50232,0,1,0,5,0V42h4v3.39a2.50232,2.50232,0,1,0,5,0V42h4v3.39a2.50232,2.50232,0,1,0,5,0V42h4.93A1.07123,1.07123,0,0,0,42,40.93V36h3.39a2.50232,2.50232,0,1,0,0-5H42V27ZM36,31v4.36a.6445.6445,0,0,1-.64.64H13.64a.6445.6445,0,0,1-.64-.64V13.64a.64446.64446,0,0,1,.64-.64H35.36a.64446.64446,0,0,1,.64.64V31Z"/></g></g></svg>