<svg xmlns="http://www.w3.org/2000/svg" viewBox="0 0 48.00065 44.00342"><defs><style>.cls-1{fill:#418fde;}</style></defs><title>Asset 910</title><g id="Layer_2" data-name="Layer 2"><g id="Icons"><path class="cls-1" d="M14.0765,25.70166a2.99987,2.99987,0,1,0,3.84766,4.60352,9.13315,9.13315,0,0,1,12.15234,0,2.99987,2.99987,0,1,0,3.84766-4.60352A15.09473,15.09473,0,0,0,14.0765,25.70166Z"/><path class="cls-1" d="M46.78939,7.59521a37.98635,37.98635,0,0,0-45.57813,0,3,3,0,1,0,3.57813,4.81641,32.02148,32.02148,0,0,1,38.42187,0,3,3,0,0,0,3.57813-4.81641Z"/><path class="cls-1" d="M6.0765,17.70815a2.99657,2.99657,0,1,0,3.84766,4.59491,21.44,21.44,0,0,1,28.15234,0,2.99657,2.99657,0,1,0,3.84766-4.59491A27.29985,27.29985,0,0,0,6.0765,17.70815Z"/><circle class="cls-1" cx="24.00033" cy="39.00342" r="5"/></g></g></svg>