<svg xmlns="http://www.w3.org/2000/svg" viewBox="0 0 47.99996 48"><defs><style>.cls-1{fill:#418fde;}</style></defs><title>Asset 693</title><g id="Layer_2" data-name="Layer 2"><g id="Icons"><path class="cls-1" d="M47.61052,19.70557A4.2332,4.2332,0,0,0,45.214,17.31641a4.64835,4.64835,0,0,0-3.46972.00976,1.36942,1.36942,0,0,0-.57691,1.92267,1.47207,1.47207,0,0,0,1.70423.73273,2.27445,2.27445,0,0,1,1.19689.1073,1.40636,1.40636,0,0,1,.77051.76416,2.23522,2.23522,0,0,1-1.249,2.8916,3.21,3.21,0,0,1-2.47656.01123,3.09686,3.09686,0,0,1-1.69239-1.72119L32.85447,7.85645a1.4996,1.4996,0,1,0-2.709,1.2871L36.68083,23.252a6.01727,6.01727,0,0,0,3.28711,3.27637A6.18355,6.18355,0,0,0,42.33317,27a6.27371,6.27371,0,0,0,2.41016-.48584A5.23882,5.23882,0,0,0,47.61052,19.70557Z"/><path class="cls-1" d="M21.05,7.33a2.24486,2.24486,0,0,0-4.1,0L.19554,44.84a2.24625,2.24625,0,0,0,2.06,3.16H35.74443a2.25072,2.25072,0,0,0,2.06-3.17Z"/><path class="cls-1" d="M37.1425,9.51447A1,1,0,0,0,38,10h5a1,1,0,0,0,.85749-.48553l2-4a1,1,0,0,0,0-1.02894l-2-4A1,1,0,0,0,43,0H38a1,1,0,0,0-.85748.48553l-2,4a1,1,0,0,0,0,1.02894Z"/></g></g></svg>