<svg xmlns="http://www.w3.org/2000/svg" viewBox="0 0 47.97998 32"><defs><style>.cls-1{fill:#418fde;}</style></defs><title>Asset 749</title><g id="Layer_2" data-name="Layer 2"><g id="Icons"><path class="cls-1" d="M12.18,17.84a11.6342,11.6342,0,0,1,1.41-3.85,11.3929,11.3929,0,0,1,1.28-1.81,7.28,7.28,0,0,1,.53-.58A9.84777,9.84777,0,0,0,9.99,10a9.99083,9.99083,0,0,0-5,18.64V30a2.00591,2.00591,0,0,0,2,2h6a1.99946,1.99946,0,0,0,2-2V27.92A11.15209,11.15209,0,0,1,13.6,26,11.98952,11.98952,0,0,1,12.18,17.84ZM2.98,20a7.01487,7.01487,0,0,1,2.01-4.92v9.84A7.01483,7.01483,0,0,1,2.98,20Z"/><circle class="cls-1" cx="9.995" cy="4" r="4"/><circle class="cls-1" cx="37.98975" cy="4" r="4"/><path class="cls-1" d="M37.99,10a9.90586,9.90586,0,0,0-5.43994,1.61,7.99564,7.99564,0,0,1,.54993.61A11.73648,11.73648,0,0,1,34.37,14a11.9666,11.9666,0,0,1,0,11.99,12.368,12.368,0,0,1-1.38,1.91V30a2.00591,2.00591,0,0,0,2,2h6a2.00591,2.00591,0,0,0,2-2V28.64a9.99083,9.99083,0,0,0-5-18.64Zm5,14.92V15.08a7.02649,7.02649,0,0,1,0,9.84Z"/><circle class="cls-1" cx="23.98999" cy="4" r="4"/><path class="cls-1" d="M33.98,20a9.833,9.833,0,0,0-.99-4.33c-.06006-.13-.12-.25-.18994-.38A10.20268,10.20268,0,0,0,30.99,12.87a9.95518,9.95518,0,0,0-7-2.87,11.1593,11.1593,0,0,0-1.89.17,9.79828,9.79828,0,0,0-5.12,2.69,9.57538,9.57538,0,0,0-1.81,2.42,3.01557,3.01557,0,0,0-.18.36,9.42994,9.42994,0,0,0-.84,2.55,10.0144,10.0144,0,0,0,.84,6.15c.06.12.12.25.19.37A10.01606,10.01606,0,0,0,18.99,28.64v.46c0,.03.01.06.01.09s-.01.05-.01.08V30a2.00591,2.00591,0,0,0,2,2h6a2.00591,2.00591,0,0,0,2-2v-.73c0-.03-.01-.05-.01-.08s.01-.06.01-.09v-.46a9.872,9.872,0,0,0,2-1.52,10.00754,10.00754,0,0,0,1.81006-2.42c.06995-.12.12988-.25.18994-.38A9.82183,9.82183,0,0,0,33.98,20ZM18.99,24.91a1.69782,1.69782,0,0,1-.17993-.2A6.83006,6.83006,0,0,1,16.99,20.36a3.24659,3.24659,0,0,0,0-.72,6.85656,6.85656,0,0,1,1.82007-4.36c.04993-.07.11987-.13.17993-.2v9.83Zm10.17993-.21a1.67,1.67,0,0,1-.17993.21V15.09a1.69694,1.69694,0,0,1,.17993.2A6.856,6.856,0,0,1,30.98,19.73a3.64609,3.64609,0,0,0,0,.54A6.85152,6.85152,0,0,1,29.16992,24.7Z"/></g></g></svg>