<svg xmlns="http://www.w3.org/2000/svg" viewBox="0 0 48 48"><defs><style>.cls-1{fill:#418fde;}</style></defs><title>Asset 750</title><g id="Layer_2" data-name="Layer 2"><g id="Icons"><path class="cls-1" d="M14,27a3.99891,3.99891,0,0,1,4-4h6V1a1.00291,1.00291,0,0,0-1-1H1A1.00291,1.00291,0,0,0,0,1V30a1.00291,1.00291,0,0,0,1,1H14ZM10,6H20a1,1,0,0,1,0,2H10a1,1,0,0,1,0-2ZM6,28H3V3H6ZM9,13a1.00291,1.00291,0,0,1,1-1H20a1,1,0,0,1,0,2H10A1.00291,1.00291,0,0,1,9,13Z"/><path class="cls-1" d="M18,25a2.00587,2.00587,0,0,0-2,2V42h4V29H42V42h4V27a2.00587,2.00587,0,0,0-2-2H18Z"/><path class="cls-1" d="M47,44H36a1.00291,1.00291,0,0,1-1,1H27a1.00291,1.00291,0,0,1-1-1H15a1.00291,1.00291,0,0,0-1,1v2a1.00291,1.00291,0,0,0,1,1H47a1.00291,1.00291,0,0,0,1-1V45A1.00291,1.00291,0,0,0,47,44Z"/></g></g></svg>