<svg xmlns="http://www.w3.org/2000/svg" viewBox="0 0 44 44"><defs><style>.a{fill:#418fde;}</style></defs><path class="a" d="M22,0A22,22,0,1,0,44,22,21.99992,21.99992,0,0,0,22,0ZM37.49332,13.02639l-4.27141,2.83505a.99783.99783,0,0,1-1.32078-.27468,14.80556,14.80556,0,0,0-3.48795-3.48808.99786.99786,0,0,1-.27461-1.32077l2.835-4.27125a.9936.9936,0,0,1,1.3936-.35189,18.78432,18.78432,0,0,1,5.478,5.478A.99359.99359,0,0,1,37.49332,13.02639ZM13,22a9,9,0,1,1,9,9A8.9999,8.9999,0,0,1,13,22Zm.3936-15.49334,2.46783,4.17258A.99785.99785,0,0,1,15.58682,12,15.64984,15.64984,0,0,0,12,15.58676a.99785.99785,0,0,1-1.32079.27468L6.50668,13a.99359.99359,0,0,1-.35189-1.39363A19.994,19.994,0,0,1,12,6.15477.9936.9936,0,0,1,13.3936,6.50666Zm-6.88692,24.467,4.27141-2.83505a.99783.99783,0,0,1,1.32078.27468,14.80556,14.80556,0,0,0,3.488,3.48808.99786.99786,0,0,1,.27461,1.32077l-2.83505,4.27125a.9936.9936,0,0,1-1.3936.35189,18.78432,18.78432,0,0,1-5.478-5.478A.99359.99359,0,0,1,6.50668,30.97361ZM31,37.49334l-2.86143-4.17258A.99785.99785,0,0,1,28.41318,32,15.64984,15.64984,0,0,0,32,28.41324a.99785.99785,0,0,1,1.32079-.27468l4.17253,2.46781A.99359.99359,0,0,1,37.84521,32a19.99426,19.99426,0,0,1-5.45161,5.84523A.9936.9936,0,0,1,31,37.49334Z"/></svg>