<svg xmlns="http://www.w3.org/2000/svg" viewBox="0 0 46 47.96964"><defs><style>.cls-1{fill:#418fde;}</style></defs><title>Asset 9631</title><g id="Layer_2" data-name="Layer 2"><g id="Text"><path class="cls-1" d="M44.56024,8.39249l-7.1015-6.95264a4.91647,4.91647,0,0,0-6.95264,0L13.511,18.435a4.91623,4.91623,0,0,0,0,6.95263l3.47631,3.4762a1.09269,1.09269,0,0,0,1.54517,0l2.31738-2.3175a1.09218,1.09218,0,0,0,0-1.54493l-3.09008-3.09008L33.98242,5.68863l6.17993,6.18017L33.21,18.8212l1.44556,1.44507a8.13955,8.13955,0,0,1,1.88135,2.95312l8.02337-7.87451A4.91639,4.91639,0,0,0,44.56024,8.39249Z"/><path class="cls-1" d="M28.86157,19.10806a1.09217,1.09217,0,0,0-1.54492,0L24.999,21.42545a1.09276,1.09276,0,0,0,0,1.545l.77246.77258,2.31763,2.31739-9.27,9.27014-6.95263,6.95251L8.77661,39.193l-3.09009-3.09,6.9524-6.95252-.38623-.38623-.00123-.00158L11.1936,27.7045a8.13516,8.13516,0,0,1-1.88159-2.952L1.43774,32.62674a4.92157,4.92157,0,0,0,0,6.95264l6.9524,6.95251a4.92156,4.92156,0,0,0,6.95263,0l8.50855-8.50854,8.48657-8.48658a4.92156,4.92156,0,0,0,0-6.95263Z"/></g></g></svg>