<svg xmlns="http://www.w3.org/2000/svg" viewBox="0 0 48 48"><defs><style>.a{fill:#418fde;}</style></defs><path class="a" d="M10,5A3.00336,3.00336,0,0,0,7,8h6A3.00331,3.00331,0,0,0,10,5Z"/><path class="a" d="M10,0A10,10,0,1,0,20,10,10.00362,10.00362,0,0,0,10,0Zm5,14a2.00006,2.00006,0,0,1-2,2H7a2.00006,2.00006,0,0,1-2-2V8A5,5,0,0,1,15,8Z"/><path class="a" d="M34,6c-7.732,0-14,6.66309-14,14.88232C20,27.9502,30.3526,43.40479,33.25287,47.5957a.89248.89248,0,0,0,1.49426,0C37.6474,43.40479,48,27.9502,48,20.88232,48,12.66309,41.732,6,34,6Zm0,19a6,6,0,1,1,6-6A6.00014,6.00014,0,0,1,34,25Z"/><rect class="a" x="8" y="10" width="4" height="4" rx="1"/></svg>