<svg xmlns="http://www.w3.org/2000/svg" viewBox="0 0 47.98935 39"><defs><style>.cls-1{fill:#418fde;}</style></defs><title>Asset 667</title><g id="Layer_2" data-name="Layer 2"><g id="Icons"><path class="cls-1" d="M25.99448,37.88013a1.01272,1.01272,0,0,0-.054-.19043.99729.99729,0,0,0-.052-.17627,1.02085,1.02085,0,0,0-.0813-.10474.97477.97477,0,0,0-.16211-.20044l-.008-.01L21.983,34.17639V18.75085l3.01635.71912V12.62L21.983,11.20166V2.99182a2.99183,2.99183,0,0,0-5.98365,0V11.2l-14.78,6.96A1.95973,1.95973,0,0,0,.27939,18.99a.64027.64027,0,0,0-.08008.14.60055.60055,0,0,0-.04992.12.48985.48985,0,0,0-.05994.16992,1.91283,1.91283,0,0,0-.04,1.01c-.01.01,0,.02,0,.03A.63754.63754,0,0,0,.10935,20.64a.70308.70308,0,0,0,.07995.20008,1.90234,1.90234,0,0,0,.8.87988.64011.64011,0,0,0,.14.08008.60028.60028,0,0,0,.12.04993.49.49,0,0,0,.16992.05993A1.8987,1.8987,0,0,0,1.99936,22a2.18118,2.18118,0,0,0,.42993-.05h.03l13.54-3.18994V34.18188l-3.63867,3.01685-.00806.01a.98673.98673,0,0,0-.1571.19482,1.032,1.032,0,0,0-.08594.1106,20.12628,20.12628,0,0,0-.10534.36646,1.04122,1.04122,0,0,0,.01269.12744.98264.98264,0,0,0,.03076.26l.00147.01269a7.45749,7.45749,0,0,1,.18066.32617l.00952.00769a.98136.98136,0,0,0,.177.14344,1.03291,1.03291,0,0,0,.13012.10083,1.00609,1.00609,0,0,0,.09741.02856,1.00021,1.00021,0,0,0,.26856.07605,1.02754,1.02754,0,0,0,.10815-.01062.99468.99468,0,0,0,.27808-.03247l.01221-.00146,5.68847-1.8667,5.66651,1.85949.00049.00013.02148.00708a.93179.93179,0,0,0,.68506-.032.96716.96716,0,0,0,.09338-.047.98581.98581,0,0,0,.261-.20118c.01257-.01367.03064-.01843.0426-.03283.00464-.00562.00537-.01294.01-.01868a.98954.98954,0,0,0,.16968-.30652l.00146-.01245a.98266.98266,0,0,0,.03138-.26538A1.03342,1.03342,0,0,0,25.99448,37.88013Z"/><path class="cls-1" d="M30.20932,16.58008a6.79236,6.79236,0,0,1,2.07007-.54h.01a5.52317,5.52317,0,0,1,.71-.04h9a6.97,6.97,0,0,1,5,2.11V12a1.9931,1.9931,0,0,0-2-2h-15a1.99311,1.99311,0,0,0-2,2v6.11a6.778,6.778,0,0,1,2-1.43006A2.00682,2.00682,0,0,1,30.20932,16.58008Z"/><path class="cls-1" d="M46.99936,26V23a5.00181,5.00181,0,0,0-5-5h-9a4.94136,4.94136,0,0,0-3,1,1.73971,1.73971,0,0,0-.3.25,4.96211,4.96211,0,0,0-1.7,3.75v3a1.00288,1.00288,0,0,0-1,1v8a1.00288,1.00288,0,0,0,1,1h1v1.5a1.5,1.5,0,0,0,3,0V36h11v1.5a1.5,1.5,0,0,0,3,0V36h.99a1.00288,1.00288,0,0,0,1-1V27A1.00078,1.00078,0,0,0,46.99936,26Zm-16-3a2.00737,2.00737,0,0,1,1.19995-1.83008h.01a1.90072,1.90072,0,0,1,.79-.16992h9a2.01379,2.01379,0,0,1,1.93994,1.52,1.85449,1.85449,0,0,1,.06006.48v3h-13Zm.5,9a1.5,1.5,0,1,1,1.5-1.5A1.49789,1.49789,0,0,1,31.49936,32Zm12,0a1.5,1.5,0,1,1,1.5-1.5A1.49789,1.49789,0,0,1,43.49936,32Z"/></g></g></svg>