<svg xmlns="http://www.w3.org/2000/svg" viewBox="0 0 48 40"><defs><style>.cls-1{fill:#418fde;}</style></defs><title>Asset 770</title><g id="Layer_2" data-name="Layer 2"><g id="Icons"><path class="cls-1" d="M45,0H38V33h5a2.00583,2.00583,0,0,1,2,2,2.01488,2.01488,0,0,1-2,2H3V8H35V5H0V40H45a2.9961,2.9961,0,0,0,3-3V3A2.996,2.996,0,0,0,45,0Z"/><path class="cls-1" d="M14,34a1,1,0,0,0,1,1h1a1,1,0,0,0,1-1V32h1a1,1,0,0,0,1-1V27h1a1,1,0,0,0,1-1V25a1,1,0,0,0-1-1H15V22a1,1,0,0,0,1-1V20h1a1,1,0,0,0,1-1V17h1a1,1,0,0,0,1-1V15a1,1,0,0,0-1-1H14V12a1,1,0,0,0-1-1H10a1,1,0,0,0-1,1v2H7a1,1,0,0,0-1,1v1a1,1,0,0,0,1,1H9v2a1,1,0,0,0,1,1h1v1a1,1,0,0,0,1,1v2H11a1,1,0,0,0-1,1v1a1,1,0,0,0,1,1h1v2a1,1,0,0,0,1,1h1v4Z"/><path class="cls-1" d="M32,24h3V12H26a1,1,0,0,0-1,1v2a1,1,0,0,0,1,1h1v2H24a1.00288,1.00288,0,0,0-1,1v1a1.00288,1.00288,0,0,0,1,1h1v3H24a1,1,0,0,0-1,1v1a1,1,0,0,0,1,1h1v2a1,1,0,0,0,1,1h1v2a1.00288,1.00288,0,0,0,1,1h3a1.00288,1.00288,0,0,0,1-1V29h1a1,1,0,0,0,1-1V27a1,1,0,0,0-1-1H32V24Z"/></g></g></svg>