<svg xmlns="http://www.w3.org/2000/svg" viewBox="0 0 48 48"><defs><style>.a{fill:#418fde;}</style></defs><path class="a" d="M47.17651,22H14.99231a12.96158,12.96158,0,0,1-9.98462,0H.70587L0,24v2a4,4,0,0,0,8,0,4,4,0,0,0,8,0,4,4,0,0,0,8,0,4,4,0,0,0,8,0,4,4,0,0,0,8,0,4,4,0,0,0,8,0V24Z"/><path class="a" d="M18.29517,20H46.353L41.255,7.61914A1.00014,1.00014,0,0,0,40.33032,7H22.63672a12.89572,12.89572,0,0,1-4.34155,13Z"/><path class="a" d="M10,5A3.00336,3.00336,0,0,0,7,8h6A3.00331,3.00331,0,0,0,10,5Z"/><path class="a" d="M44,32V48H16V38a2.00583,2.00583,0,0,0-2-2H10a2.00583,2.00583,0,0,0-2,2V48H4V32a5.97956,5.97956,0,0,0,4-1.54,5.96469,5.96469,0,0,0,8,0,5.96469,5.96469,0,0,0,8,0,5.96469,5.96469,0,0,0,8,0,5.96469,5.96469,0,0,0,8,0A5.97956,5.97956,0,0,0,44,32Z"/><path class="a" d="M19.54,7A10.00037,10.00037,0,0,0,0,10a10,10,0,0,0,20,0A9.90592,9.90592,0,0,0,19.54,7ZM15,14a2.00591,2.00591,0,0,1-2,2H7a2.00591,2.00591,0,0,1-2-2V8a5.00057,5.00057,0,0,1,9.9-1A4.71537,4.71537,0,0,1,15,8Z"/><rect class="a" x="8" y="10" width="4" height="4" rx="1"/></svg>