<svg xmlns="http://www.w3.org/2000/svg" viewBox="0 0 48 28"><defs><style>.cls-1{fill:#418fde;}</style></defs><title>Asset 835</title><g id="Layer_2" data-name="Layer 2"><g id="Icons"><path class="cls-1" d="M46.46448,7.53564a1.82835,1.82835,0,0,0-2.58582,0L40,11.41406,36.12134,7.53564a1.82841,1.82841,0,0,0-2.58582,2.5857L37.41418,14l-3.87866,3.87866a1.82841,1.82841,0,0,0,2.58582,2.5857L40,16.58594l3.87866,3.87842a1.82841,1.82841,0,0,0,2.58582-2.5857L42.58582,14l3.87866-3.87866A1.82842,1.82842,0,0,0,46.46448,7.53564Z"/><path class="cls-1" d="M14.46448,7.53564a1.82835,1.82835,0,0,0-2.58582,0L8,11.41406,4.12134,7.53564a1.82841,1.82841,0,0,0-2.58582,2.5857L5.41418,14,1.53552,17.87866a1.82841,1.82841,0,0,0,2.58582,2.5857L8,16.58594l3.87866,3.87842a1.82841,1.82841,0,0,0,2.58582-2.5857L10.58582,14l3.87866-3.87866A1.82842,1.82842,0,0,0,14.46448,7.53564Z"/><path class="cls-1" d="M30.46448,7.53564a1.82835,1.82835,0,0,0-2.58582,0L24,11.41406,20.12134,7.53564a1.82841,1.82841,0,0,0-2.58582,2.5857L21.41418,14l-3.87866,3.87866a1.82841,1.82841,0,0,0,2.58582,2.5857L24,16.58594l3.87866,3.87842a1.82841,1.82841,0,0,0,2.58582-2.5857L26.58582,14l3.87866-3.87866A1.82842,1.82842,0,0,0,30.46448,7.53564Z"/><path class="cls-1" d="M2,4H46a2,2,0,0,0,0-4H2A2,2,0,0,0,2,4Z"/><path class="cls-1" d="M46,24H2a2,2,0,0,0,0,4H46a2,2,0,0,0,0-4Z"/></g></g></svg>