<svg xmlns="http://www.w3.org/2000/svg" viewBox="0 0 48.00002 47.99997"><defs><style>.cls-1{fill:#418fde;}</style></defs><title>Asset 752</title><g id="Layer_2" data-name="Layer 2"><g id="Icons"><path class="cls-1" d="M8.38,33.8,1.2,40.98A4.11537,4.11537,0,0,0,7.02,46.8l7.18-7.18A24.00963,24.00963,0,0,1,8.38,33.8Z"/><path class="cls-1" d="M28,0A20,20,0,1,0,48,20,19.9945,19.9945,0,0,0,28,0ZM39,30.18A15,15,0,0,1,13,20,15,15,0,1,1,39,30.18Z"/><path class="cls-1" d="M39.41408,18.58594l-6-6A1.99979,1.99979,0,1,0,30.586,15.41406L33.17189,18H18a2,2,0,0,0,0,4H33.17189L30.586,24.58594a1.99979,1.99979,0,1,0,2.82813,2.82812l6-6A1.99926,1.99926,0,0,0,39.41408,18.58594Z"/></g></g></svg>