<svg xmlns="http://www.w3.org/2000/svg" viewBox="0 0 48 47.99995"><defs><style>.cls-1{fill:#418fde;}</style></defs><title>Asset 787</title><g id="Layer_2" data-name="Layer 2"><g id="Icons"><path class="cls-1" d="M18.7677,25.83881l-3.04883-3.04895a1.98126,1.98126,0,0,0-2.02789-.47814L1.691,26.31757A2.47389,2.47389,0,1,0,3.25928,31.0102l9.1795-3.061-7.70654,7.783a2.5,2.5,0,0,0,3.53552,3.53564L20.182,27.253Z"/><path class="cls-1" d="M25.48523,18.41413,27.253,20.182,39.26776,8.26777a2.5,2.5,0,0,0-3.53552-3.53564l-7.783,7.70666,3.061-9.17956a2.47389,2.47389,0,1,0-4.69263-1.56836l-4.0058,12a1.98074,1.98074,0,0,0,.47809,2.02795Z"/><path class="cls-1" d="M45.12061,25.00044l2.43994-2.43995a1.49984,1.49984,0,0,0-2.1211-2.12109l-25,25a1.49984,1.49984,0,1,0,2.1211,2.12109l2.44-2.43994L27.44,47.56A1.50873,1.50873,0,0,0,28.5,48h1A1.50871,1.50871,0,0,0,30.56,47.56l2.93951-2.93946,2.93994,2.93994a1.49944,1.49944,0,0,0,2.1211,0l9-9a1.49944,1.49944,0,0,0,0-2.12109l-2.93994-2.93994L47.56,30.56A1.48372,1.48372,0,0,0,48,29.5v-1a1.4837,1.4837,0,0,0-.44-1.06006ZM38.5,31.621l1.87946,1.8794-2.37891,2.3789L36.1211,34ZM29,44.87983l-1.87939-1.87939L29.5,40.621l1.87946,1.8794ZM31.6211,38.5,34,36.121l1.87946,1.8794-2.37891,2.3789ZM37.5,44.37885l-1.87939-1.87939,2.3789-2.37891L39.87891,42Zm4.5-4.5-1.87939-1.87939,2.3789-2.37891L44.37891,37.5Zm.50055-8.49951L40.6211,29.5l2.37945-2.3794L44.88,29Z"/><path class="cls-1" d="M22.34583,25.18086l.66931.66919c-.00257.05078-.01514.09863-.01514.1499A2.95939,2.95939,0,0,0,26.80414,28.877a1.407,1.407,0,0,0,.09528.14344l1.54,1.54a1.49984,1.49984,0,0,0,2.1211-2.12109l-1.54-1.54a1.39086,1.39086,0,0,0-.14343-.09521A2.95947,2.95947,0,0,0,26,22.99995c-.05139,0-.0993.01257-.15008.01513l-.66919-.66919L11.44489,8.60981a2.00512,2.00512,0,1,0-2.835,2.835Z"/></g></g></svg>