<svg xmlns="http://www.w3.org/2000/svg" viewBox="0 0 48 48.00006"><defs><style>.cls-1{fill:#418fde;}</style></defs><title>Asset 883</title><g id="Layer_2" data-name="Layer 2"><g id="Icons"><path class="cls-1" d="M46.5,45.00006H1.5a1.5,1.5,0,0,0,0,3h45a1.5,1.5,0,0,0,0-3Z"/><path class="cls-1" d="M5.5,43.00006h37a1.5,1.5,0,0,0,0-3H5.5a1.5,1.5,0,0,0,0,3Z"/><path class="cls-1" d="M12.93994,20.23A6.71749,6.71749,0,0,0,14,21.10016v16.8999h7v-10.74c0-1.8,3-3.26,3-3.26s3,1.46,3,3.26v10.74h7V21.10016A6.71749,6.71749,0,0,0,35.06006,20.23l.04993-.04a6.621,6.621,0,0,0,0-9.33984L24.43994.18a.62765.62765,0,0,0-.87988,0L12.89,10.85016a6.621,6.621,0,0,0,0,9.33984ZM24,9.00006a3.963,3.963,0,0,1,.78.08008,3.49711,3.49711,0,0,0,.72,6.91992A3.35161,3.35161,0,0,0,26.98,15.66,3.958,3.958,0,0,1,24,17.00006a4,4,0,1,1,0-8Z"/></g></g></svg>