<svg xmlns="http://www.w3.org/2000/svg" viewBox="0 0 48 48"><defs><style>.cls-1{fill:#418fde;}</style></defs><title>Asset 676</title><g id="Layer_2" data-name="Layer 2"><g id="Icons"><path class="cls-1" d="M48,8a7.99477,7.99477,0,0,0-15.97888-.41809l-18.004,6.15747A8.00316,8.00316,0,1,0,11.5437,26.16431l12.887,11.26294a7.99888,7.99888,0,1,0,12.30042-3.86792l4.448-17.65577A7.9947,7.9947,0,0,0,48,8ZM28.35229,32.88574l-12.822-11.20581a7.96009,7.96009,0,0,0,.449-2.27075l17.99768-6.15527a8.03045,8.03045,0,0,0,1.36853,1.24389L30.91553,32.082A7.93907,7.93907,0,0,0,28.35229,32.88574Z"/></g></g></svg>