<svg xmlns="http://www.w3.org/2000/svg" viewBox="0 0 41.99998 48"><defs><style>.cls-1{fill:#418fde;}</style></defs><title>Asset 830</title><g id="Layer_2" data-name="Layer 2"><g id="Icons"><circle class="cls-1" cx="3.99998" cy="14" r="3.99996"/><path class="cls-1" d="M40.249,27.4375a15.92032,15.92032,0,0,0-18.0282-.9397l-8.48157-7.71045A14.05413,14.05413,0,0,0,16,10.67285,15.061,15.061,0,0,0,11.41405.58594,1.99979,1.99979,0,1,0,8.58592,3.41406,11.11505,11.11505,0,0,1,12,10.6709c-.002,3.02344-.792,5.28222-2.41406,6.90527-.01953.01953-.03277.04273-.05133.06275l-2.1723,2.29663A13.789,13.789,0,0,0,3.00194,30.0918a14.47449,14.47449,0,0,0,4.584,9.32226,1.99979,1.99979,0,0,0,2.82813-2.82812A10.6838,10.6838,0,0,1,6.998,29.9082a8.61406,8.61406,0,0,1,1.35132-4.78906L32.64549,47.47168a2.00012,2.00012,0,0,0,2.709-2.94336L21.76793,32.02881c3.61682-4.06934,10.77466-5.62988,15.983-1.46631a2.00037,2.00037,0,0,0,2.498-3.125Z"/><path class="cls-1" d="M25.5,10A1.50039,1.50039,0,0,0,27,8.5v-7a1.5,1.5,0,0,0-3,0v7A1.50039,1.50039,0,0,0,25.5,10Z"/><path class="cls-1" d="M40.5,15h-7a1.5,1.5,0,0,0,0,3h7a1.5,1.5,0,0,0,0-3Z"/><path class="cls-1" d="M32.56053,11.56079l5.00025-5.00024a1.5,1.5,0,0,0-2.12134-2.12134L30.43919,9.43945a1.5,1.5,0,1,0,2.12134,2.12134Z"/></g></g></svg>