<svg xmlns="http://www.w3.org/2000/svg" viewBox="0 0 42 48"><defs><style>.cls-1{fill:#418fde;}</style></defs><title>Asset 727</title><g id="Layer_2" data-name="Layer 2"><g id="Icons"><path class="cls-1" d="M14,8.5a6.5,6.5,0,0,0,13,0A6.16828,6.16828,0,0,0,26.82007,7H14.17993A6.16828,6.16828,0,0,0,14,8.5Z"/><path class="cls-1" d="M15,5H26a2.03219,2.03219,0,0,0,2-2.06V2.06A2.034,2.034,0,0,0,25.99,0h-.12l-11,.76A2.03512,2.03512,0,0,0,13,2.81v.13A2.03219,2.03219,0,0,0,15,5Z"/><path class="cls-1" d="M39.96,29.82a20.51367,20.51367,0,0,0-9.34-9.56l1.78991-3.1a1.99452,1.99452,0,0,0-.73-2.73l3.5-6.06.75-1.3A.5049.5049,0,0,0,35.75,6.38L33.58008,5.13A.99869.99869,0,0,0,32.22,5.5a1.02192,1.02192,0,0,0-.13989.5,1.00636,1.00636,0,0,0,.5.87L28.95,13.16a1.99714,1.99714,0,0,0-1.73,1l-2.40991,4.18A20.692,20.692,0,0,0,21,18a21.34078,21.34078,0,0,0-7.55,1.35l.02.03.47.82L16.5,24.63h.01l.01.04,2.32007,4.01L19.6,30l9.74011,16.87A2.97693,2.97693,0,0,0,30,45V26.87a14.3589,14.3589,0,0,1,5.12,6.87A15.81868,15.81868,0,0,1,36,39a3,3,0,0,0,6,0A21.33681,21.33681,0,0,0,39.96,29.82ZM25,29a2,2,0,1,1,2-2A2.00591,2.00591,0,0,1,25,29Z"/><path class="cls-1" d="M13.7,25.77,12.01,22.85l-1.28-2.22-.01-.02A20.52436,20.52436,0,0,0,2.04,29.82,21.33681,21.33681,0,0,0,0,39a3,3,0,0,0,6,0,15.81868,15.81868,0,0,1,.88-5.26A14.3589,14.3589,0,0,1,12,26.87V45a2.99606,2.99606,0,0,0,3,3H26.53L13.71,25.8Z"/></g></g></svg>