<svg xmlns="http://www.w3.org/2000/svg" viewBox="0 0 32 48"><defs><style>.cls-1{fill:#418fde;}</style></defs><title>Asset 753</title><g id="Layer_2" data-name="Layer 2"><g id="Icons"><path class="cls-1" d="M30,6H25a2.00587,2.00587,0,0,0-2-2H20a4,4,0,0,0-8,0H9A2.00587,2.00587,0,0,0,7,6H2A2.08679,2.08679,0,0,0,0,8.15v37.7A2.08684,2.08684,0,0,0,2,48H30a2.08684,2.08684,0,0,0,2-2.15V8.15A2.08679,2.08679,0,0,0,30,6ZM17,5a1,1,0,1,1-1-1A1.00291,1.00291,0,0,1,17,5ZM28,44H4V10H7a2.00591,2.00591,0,0,0,2,2H23a2.00591,2.00591,0,0,0,2-2h3Z"/><path class="cls-1" d="M15.97,35.4a2.3,2.3,0,1,0,2.3,2.3A2.30039,2.30039,0,0,0,15.97,35.4Z"/><path class="cls-1" d="M17.2,16.98a6.328,6.328,0,0,0-2.49.01,6.09422,6.09422,0,0,0-4.72,4.67,2.29092,2.29092,0,0,0-.08008.64,1.99711,1.99711,0,0,0,3.9801.24.06.06,0,0,0,.01-.04,2.1547,2.1547,0,0,1,1.61-1.59,2.4299,2.4299,0,0,1,.89-.01,2.1656,2.1656,0,0,1,1.65,1.63,2.31417,2.31417,0,0,1,.04.46,1.90388,1.90388,0,0,1-.04.43A2.07312,2.07312,0,0,1,15.97,25.11a1.99947,1.99947,0,0,0-2,2v4.12a2,2,0,1,0,4,0V28.78a6.14081,6.14081,0,0,0,4-4.56,6.25029,6.25029,0,0,0,.12012-1.23A6.7136,6.7136,0,0,0,21.97,21.73,6.16617,6.16617,0,0,0,17.2,16.98Z"/></g></g></svg>