<svg xmlns="http://www.w3.org/2000/svg" viewBox="0 0 44 48"><defs><style>.cls-1{fill:#418fde;}</style></defs><g id="Layer_2" data-name="Layer 2"><g id="FINAL"><path class="cls-1" d="M10,20A10,10,0,1,0,0,10,10.00362,10.00362,0,0,0,10,20ZM5.29,6.71A1.004,1.004,0,0,1,6.71,5.29l3.29,3.29,3.29-3.29A1.004,1.004,0,1,1,14.71,6.71l-3.29,3.29,3.29,3.29a1.00761,1.00761,0,0,1,0,1.41992,1.01394,1.01394,0,0,1-1.41992,0l-3.29-3.29L6.71,14.71a1.01394,1.01394,0,0,1-1.41992,0,1.00761,1.00761,0,0,1,0-1.41992l3.29-3.29ZM44,9.97V30.15C44,40.01,36.7,48,28,48S12,40.01,12,30.15V22.82983A12.9344,12.9344,0,0,0,22.65063,7.05469L27.81006,6.04a.81218.81218,0,0,1,.37988,0l15,2.95A.99693.99693,0,0,1,44,9.97Z"/></g></g></svg>