<?xml version="1.0" encoding="utf-8"?>
<!-- Generator: Adobe Illustrator 24.1.0, SVG Export Plug-In . SVG Version: 6.00 Build 0)  -->
<svg version="1.1" id="Layer_1" xmlns="http://www.w3.org/2000/svg" xmlns:xlink="http://www.w3.org/1999/xlink" x="0px" y="0px"
	 viewBox="0 0 32 48" style="enable-background:new 0 0 32 48;" xml:space="preserve">
<style type="text/css">
	.st0{fill:#418FDE;}
</style>
<path class="st0" d="M1,42c0,3.3,2.7,6,6,6s6-2.7,6-6V9H1V42z M4,17h6v11H4V17z M0,0h14v7H0V0z M31.4,21.4l-8,8c0,0,0,0,0,0
	c-0.8,0.8-2,0.8-2.8,0l-4-4c-0.8-0.8-0.8-2,0-2.8s2-0.8,2.8,0l2.6,2.6l6.6-6.6c0,0,0,0,0,0c0.8-0.8,2-0.8,2.8,0c0,0,0,0,0,0
	C32.2,19.4,32.2,20.6,31.4,21.4z"/>
</svg>
