<svg xmlns="http://www.w3.org/2000/svg" viewBox="0 0 36 48.00012"><defs><style>.cls-1{fill:#418fde;}</style></defs><title>Asset 837</title><g id="Layer_2" data-name="Layer 2"><g id="Icons"><path class="cls-1" d="M7.00171,10.00012H28.99829A1.00008,1.00008,0,0,0,29.5282,8.152L18.53.152A1.00023,1.00023,0,0,0,17.47.152l-10.99817,8A1.00008,1.00008,0,0,0,7.00171,10.00012Z"/><path class="cls-1" d="M34,44.00012H30.3252l-3.70289-21H26.9A2.09968,2.09968,0,0,0,29,20.9v-8.8999H7V20.9a2.09968,2.09968,0,0,0,2.1,2.1001h.22058l-3.70288,21H2A1.95511,1.95511,0,0,0,.59009,44.59,1.95532,1.95532,0,0,0,0,46.00012a2.00583,2.00583,0,0,0,2,2H34a2.01488,2.01488,0,0,0,2-2A2.00583,2.00583,0,0,0,34,44.00012ZM18,37.32019l6.67993,6.67993H11.32007Zm-7.46436,1.82422L11.928,31.24817l3.252,3.252Zm14.8595-.06909-4.57507-4.5752,3.20349-3.20361ZM11.5,16.00012h13a1.5,1.5,0,0,1,0,3h-13a1.5,1.5,0,0,1,0-3Zm11.06067,7,.61743,3.502L18,31.68005l-5.22656-5.22656.60888-3.45337Z"/></g></g></svg>