<svg xmlns="http://www.w3.org/2000/svg" viewBox="0 0 48 47.74346"><defs><style>.a{fill:#418fde;}</style></defs><path class="a" d="M46.5,44.74346H33.28528L26.53381,19.54772a4.47077,4.47077,0,0,0,1.38709-2.5199l9.86731-2.0282L39.9967,25.74346c.21167-.02728.42347-.05463.63611-.09833a8.24356,8.24356,0,0,0,6.55-9.6413L45.21973,6.45354A8.24358,8.24358,0,0,0,35.39777.1776c-.21265.0437-.418.10211-.62329.16052l2.20843,10.74366-10.2038,2.09735A4.47069,4.47069,0,0,0,19.28284,14.72L7.87378,17.06511A1.9956,1.9956,0,0,0,4,17.744V38.74346H2a1,1,0,0,0-1,1v5.0918a1.49648,1.49648,0,0,0,.5,2.9082h45a1.5,1.5,0,0,0,0-3ZM21.1087,28.744h4.7826l1.60778,6H19.50092Zm-2.67962,10H28.57092l1.60761,5.99951H16.82147Zm6.39038-14H22.18054L23.259,20.71917c.08142.00439.15845.02429.241.02429s.15955-.0199.241-.02429ZM8,21.08068a1.971,1.971,0,0,0,.40234-.04083l11.33893-2.33069a4.49891,4.49891,0,0,0,.72492.83856L13.71472,44.74346H11v-5a1,1,0,0,0-1-1H8Z"/></svg>