<svg xmlns="http://www.w3.org/2000/svg" viewBox="0 0 43.995 43.99281"><defs><style>.cls-1{fill:#418fde;}</style></defs><title>Asset 754</title><g id="Layer_2" data-name="Layer 2"><g id="Icons"><path class="cls-1" d="M9.21165,26.09068l1.73086-1.73092a1.83245,1.83245,0,0,0,.50687-1.01368,1.99039,1.99039,0,0,0-.56419-1.71177,2.04168,2.04168,0,0,0-.95631-.53553,1.869,1.869,0,0,0-1.76914.47815L5.52031,24.21635l-2.1134,2.11341a1.932,1.932,0,0,0,.05732,2.72551,2.00884,2.00884,0,0,0,1.41532.59291,1.86912,1.86912,0,0,0,1.31013-.53553l3.022-3.022Z"/><path class="cls-1" d="M22.54266,10.64633l-.2678.26773L18.6217,14.56717l-.13378.1339L17.063,16.11639a3.8036,3.8036,0,0,1-2.70643,1.10935c-.11475,0-.22951-.00957-.34426-.01915-.03829,0-.086-.00957-.12432-.00957a3.81348,3.81348,0,0,1-2.23785-6.49332l8.1382-8.12862c.2009-.20085.41126-.40169.62174-.58339A13.3879,13.3879,0,0,0,3.92324,22.85835l.11475.11476,2.76375-2.76369a3.737,3.737,0,0,1,2.66813-1.09021,3.85894,3.85894,0,0,1,1.93165.50681,3.89859,3.89859,0,0,1,.85125.64077,3.96652,3.96652,0,0,1,1.0232,1.7883,4.16061,4.16061,0,0,1,.12432.9085,3.3294,3.3294,0,0,1-.1339,1.07106,3.40128,3.40128,0,0,1,.985-.13389,3.91923,3.91923,0,0,1,3.93041,3.84438,3.32919,3.32919,0,0,1-.13389,1.07106,3.40092,3.40092,0,0,1,.985-.1339,3.91925,3.91925,0,0,1,3.93042,3.84438,3.3294,3.3294,0,0,1-.1339,1.07106,3.40128,3.40128,0,0,1,.985-.1339,3.91925,3.91925,0,0,1,3.93041,3.84438,3.71626,3.71626,0,0,1-.34425,1.68306,2.92947,2.92947,0,0,0,1.09977.22,2.87034,2.87034,0,0,0,2.50541-4.26516A2.862,2.862,0,0,0,34.946,30.99655a2.80325,2.80325,0,0,0,1.39617.373,2.86893,2.86893,0,0,0,2.02737-4.8963Z"/><path class="cls-1" d="M23.81451,35.386a1.559,1.559,0,0,0-.2964.02866,1.86363,1.86363,0,0,0-1.01374.50688l-4.75283,4.75282a1.932,1.932,0,0,0,.05732,2.72552,2.00888,2.00888,0,0,0,1.41532.5929,1.86916,1.86916,0,0,0,1.31014-.53553l4.75282-4.75288a1.83256,1.83256,0,0,0,.50688-1.01369A2.0119,2.0119,0,0,0,23.81451,35.386Z"/><path class="cls-1" d="M16.23093,28.12762A2.01188,2.01188,0,0,0,14.25142,25.823a1.559,1.559,0,0,0-.2964.02865,1.86363,1.86363,0,0,0-1.01374.50688L8.18845,31.1113a1.932,1.932,0,0,0,.05732,2.72552,2.00889,2.00889,0,0,0,1.41532.59291,1.86917,1.86917,0,0,0,1.31014-.53554l4.75283-4.75288A1.83261,1.83261,0,0,0,16.23093,28.12762Z"/><path class="cls-1" d="M21.01247,32.90917A2.0119,2.0119,0,0,0,19.033,30.60449a1.55814,1.55814,0,0,0-.29639.02866,1.86364,1.86364,0,0,0-1.01375.50687L12.97,35.89285a1.932,1.932,0,0,0,.05732,2.72551,2.00886,2.00886,0,0,0,1.41531.59291,1.86912,1.86912,0,0,0,1.31014-.53553l4.75283-4.75289A1.83245,1.83245,0,0,0,21.01247,32.90917Z"/><path class="cls-1" d="M40.07176,3.92345A13.37905,13.37905,0,0,0,21.9975,3.13927c-.29651.24865-.58334.50687-.8607.78418l-8.12863,8.12862a1.91644,1.91644,0,0,0,0,2.70637,1.92785,1.92785,0,0,0,2.70631,0l7.04811-7.048,2.42906,2.429L38.92412,23.872a12.77629,12.77629,0,0,0,1.14764-1.01369A13.38492,13.38492,0,0,0,40.07176,3.92345Z"/></g></g></svg>