<svg xmlns="http://www.w3.org/2000/svg" viewBox="0 0 44 32"><defs><style>.cls-1{fill:#418fde;}</style></defs><g id="Layer_2" data-name="Layer 2"><g id="FINAL"><path class="cls-1" d="M37,.94V0l7,7H37.78A.781.781,0,0,1,37,6.22ZM44,9V30a2.00006,2.00006,0,0,1-2,2H2a2.00006,2.00006,0,0,1-2-2V2A2,2,0,0,1,2,0H35V6.21973A2.78322,2.78322,0,0,0,37.78027,9ZM17,15a3.00328,3.00328,0,0,0-3-3H11a.99974.99974,0,0,0-1,1V23a1,1,0,0,0,2,0V19h2a3.00328,3.00328,0,0,0,3-3Zm9,0a3.00328,3.00328,0,0,0-3-3H20a.99974.99974,0,0,0-1,1V23a.99974.99974,0,0,0,1,1h3a3.00328,3.00328,0,0,0,3-3Zm9-2a.99974.99974,0,0,0-1-1H29a.99974.99974,0,0,0-1,1V23a1,1,0,0,0,2,0V19h2a1,1,0,0,0,0-2H30V14h4A.99974.99974,0,0,0,35,13ZM23,14H21v8h2a1.001,1.001,0,0,0,1-1V15A1.001,1.001,0,0,0,23,14Zm-9,0H12v3h2a1.001,1.001,0,0,0,1-1V15A1.001,1.001,0,0,0,14,14Z"/></g></g></svg>