<svg xmlns="http://www.w3.org/2000/svg" viewBox="0 0 45.99759 48.00135"><defs><style>.cls-1{fill:#418fde;}</style></defs><title>Asset 729</title><g id="Layer_2" data-name="Layer 2"><g id="Icons"><path class="cls-1" d="M38.99756,7.46479a4,4,0,1,0-1.46411-5.46411A4.00006,4.00006,0,0,0,38.99756,7.46479Z"/><path class="cls-1" d="M30.21777,34.23279a2.99744,2.99744,0,0,0-3.96,1.52442A10.77539,10.77539,0,0,1,16.5,42.00135a10.5118,10.5118,0,0,1-10.5-10.5c0-5.69141,5.03711-10.5,11-10.5a3,3,0,1,0,0-6c-9.21484,0-17,7.55615-17,16.5a16.59681,16.59681,0,0,0,31.74219,6.69043A3.00062,3.00062,0,0,0,30.21777,34.23279Z"/><path class="cls-1" d="M45.20166,23.96619a3.0103,3.0103,0,0,0-2.3916-.959l-8.81958.55121,5.53711-8.04706a2.09639,2.09639,0,0,0,.1499-.30005,2.4698,2.4698,0,0,0-.03-2.48,2.68056,2.68056,0,0,0-.67993-.75l-3.5-2.43-8-5.57a2.49379,2.49379,0,0,0-3.24.25l-4.5,4.5a2.50317,2.50317,0,0,0,3.54,3.54l2.99-2.99,4.25,2.93-7,11.85a4.00113,4.00113,0,0,0,3.5,5.94l.05444-.01093c.04151-.00073.08106.00751.123.00507l12.32129-.77L38.02783,39.577a2.99989,2.99989,0,1,0,5.93946.84863l2-14A2.99772,2.99772,0,0,0,45.20166,23.96619Z"/></g></g></svg>