<svg xmlns="http://www.w3.org/2000/svg" viewBox="0 0 47.99854 48"><defs><style>.cls-1{fill:#418fde;}</style></defs><title>Asset 962</title><g id="Layer_2" data-name="Layer 2"><g id="Editable_Icons" data-name="Editable Icons"><path class="cls-1" d="M38,31.02637A9.91643,9.91643,0,0,0,29.34814,35.62a6.70438,6.70438,0,0,0-10.69689.00146A9.91637,9.91637,0,0,0,9.998,31.02637C4.29834,31.02637,0,35.09033,0,40.479a1.5,1.5,0,0,0,3,0,6.21819,6.21819,0,0,1,2.99988-5.3601V44a4,4,0,0,0,8,0V35.12134a6.21766,6.21766,0,0,1,2.9967,5.35766,1.5,1.5,0,0,0,3,0l-.00128-.02612.00128-.01294a4.75435,4.75435,0,0,1,1.00464-2.93725v3.49865a2.99866,2.99866,0,1,0,5.99732,0V37.50146a4.75477,4.75477,0,0,1,1.00537,2.93848c-.00006.01318-.002.02588-.002.03906a1.5,1.5,0,0,0,3,0,6.25745,6.25745,0,0,1,3.59967-5.693L33.06714,42a5.02331,5.02331,0,1,0,9.85077-.02057L41.39844,34.786a6.25762,6.25762,0,0,1,3.6001,5.693,1.5,1.5,0,0,0,3,0C47.99854,35.09033,43.7002,31.02637,38,31.02637Z"/><circle class="cls-1" cx="38.00018" cy="26" r="3"/><circle class="cls-1" cx="9.99921" cy="26" r="3"/><path class="cls-1" d="M23.99921,31A2.50519,2.50519,0,1,0,21.494,28.49487,2.50517,2.50517,0,0,0,23.99921,31Z"/><path class="cls-1" d="M14.4248,15.56055a1.49947,1.49947,0,0,0,2.11915.002l4.01269-4a1.49984,1.49984,0,1,0-2.11719-2.125L16.99805,11V1.5a1.5,1.5,0,0,0-3,0L14,11,12.55859,9.43945a1.49949,1.49949,0,0,0-2.12111,0,1.51545,1.51545,0,0,0,0,2.13428Z"/><path class="cls-1" d="M31.4248,15.56055a1.49947,1.49947,0,0,0,2.11915.002l4.01269-4a1.49984,1.49984,0,1,0-2.11719-2.125L33.99805,11V1.5a1.5,1.5,0,0,0-3,0V11L29.55859,9.43945a1.49949,1.49949,0,0,0-2.12111,0,1.51545,1.51545,0,0,0,0,2.13428Z"/></g></g></svg>