<svg xmlns="http://www.w3.org/2000/svg" viewBox="0 0 48.00137 48.00122"><defs><style>.cls-1{fill:#418fde;}</style></defs><title>Asset 814</title><g id="Layer_2" data-name="Layer 2"><g id="Icons"><rect class="cls-1" x="0.00137" y="42.00122" width="48" height="6" rx="1"/><path class="cls-1" d="M5.437,17.55835l.00244.00342.0138.00927a1.49831,1.49831,0,0,0,.47235.31348c.01349.00586.02728.00757.04089.0127a1.481,1.481,0,0,0,.51935.10107l.01489.00293.01361-.00244a1.494,1.494,0,0,0,.52387-.102c.0122-.00464.02459-.00635.03662-.01123a1.50444,1.50444,0,0,0,.47961-.31861l.00757-.00512.00256-.00366,4.9975-4.99756a1.5,1.5,0,0,0-2.12134-2.12134L8.00131,12.87866V1.5a1.5,1.5,0,0,0-3,0V12.87988L2.5607,10.43921A1.5,1.5,0,0,0,.43936,12.56055Z"/><path class="cls-1" d="M12.33139,21.67114l-2.33,17.33008h18v-9.71a.30033.30033,0,0,1,.56-.14014l5.44,9.8501h13l-2.33-17.33008a1.4965,1.4965,0,0,0-.59-1.01l-14.58-11.32007a1.65111,1.65111,0,0,0-2,0l-14.58,11.32007A1.4965,1.4965,0,0,0,12.33139,21.67114Z"/></g></g></svg>