<svg xmlns="http://www.w3.org/2000/svg" viewBox="0 0 48 48"><defs><style>.cls-1{fill:#418fde;}</style></defs><title>Asset 840</title><g id="Layer_2" data-name="Layer 2"><g id="Icons"><path class="cls-1" d="M24,0A24,24,0,1,0,48,24,23.99994,23.99994,0,0,0,24,0Zm0,42A18,18,0,1,1,42,24,18.02039,18.02039,0,0,1,24,42Z"/><path class="cls-1" d="M34.12109,13.87891a2.99889,2.99889,0,0,0-4.24218,0L24,20l-5.87891-6.12109a2.99967,2.99967,0,0,0-4.24218,4.24218L20,24l-6.12109,5.87891a2.99967,2.99967,0,1,0,4.24218,4.24218L24,28l5.87891,6.12109a2.99967,2.99967,0,0,0,4.24218-4.24218L28,24l6.12109-5.87891A2.99889,2.99889,0,0,0,34.12109,13.87891Z"/></g></g></svg>