<svg xmlns="http://www.w3.org/2000/svg" viewBox="0 0 44 44"><defs><style>.cls-1{fill:#418fde;}</style></defs><title>Asset 790</title><g id="Layer_2" data-name="Layer 2"><g id="Icons"><path class="cls-1" d="M37,0H5.33A5.4242,5.4242,0,0,0,0,5.5V43.08A.9052.9052,0,0,0,.89,44H16V32a3.99891,3.99891,0,0,1,4-4H32V14h5A7,7,0,0,0,37,0ZM4.29,13.29l6-6A1.00408,1.00408,0,1,1,11.71,8.71l-6,6a1.01409,1.01409,0,0,1-1.42,0A1.00794,1.00794,0,0,1,4.29,13.29ZM19.71,10.71l-16,16a1.01409,1.01409,0,0,1-1.42,0,1.00794,1.00794,0,0,1,0-1.41992l16-16A1.00408,1.00408,0,1,1,19.71,10.71ZM32,12v-.11a.57753.57753,0,0,0,.11.11Zm5-1a4,4,0,1,1,4-4A3.99891,3.99891,0,0,1,37,11Z"/><path class="cls-1" d="M18,32V44L32,30H20A2.00583,2.00583,0,0,0,18,32Z"/></g></g></svg>