<svg xmlns="http://www.w3.org/2000/svg" viewBox="0 0 48.06006 42"><defs><style>.cls-1{fill:#418fde;}</style></defs><title>Asset 755</title><g id="Layer_2" data-name="Layer 2"><g id="Icons"><path class="cls-1" d="M47.12012,0H19a.97223.97223,0,0,0-.93994,1V5.53L19,5.72a3.79281,3.79281,0,0,1,3.02,3.71l.04,12.04a14.27887,14.27887,0,0,1-3.43994,9.46c-.18006.21-.37012.41-.56006.6V41A.97223.97223,0,0,0,19,42H39.06006V36a3.00879,3.00879,0,0,1,3-3h6V1A.97223.97223,0,0,0,47.12012,0ZM40.02,29H26.1001a1,1,0,1,1,0-2H40.02a1,1,0,0,1,0,2Zm0-6H26.1001a1,1,0,1,1,0-2H40.02a1,1,0,0,1,0,2Zm0-6H26.1001a1,1,0,1,1,0-2H40.02a1,1,0,0,1,0,2Zm0-6H26.1001a1,1,0,1,1,0-2H40.02a1,1,0,0,1,0,2Z"/><path class="cls-1" d="M42.06006,35a1.00291,1.00291,0,0,0-1,1v6l7-7h-6Z"/><path class="cls-1" d="M20.06006,21.48,20.02,9.43a1.772,1.772,0,0,0-1.40991-1.75l-.55-.11-7.72-1.54A1.87467,1.87467,0,0,0,10,6a2.04646,2.04646,0,0,0-.34.03L1.40015,7.73A1.7826,1.7826,0,0,0,0,9.49L.03,21.54c.02,6.34,4.59009,11.46,10.02,11.46h.03a9.68544,9.68544,0,0,0,7.98-4.65A12.491,12.491,0,0,0,20.06006,21.48Z"/></g></g></svg>