<svg xmlns="http://www.w3.org/2000/svg" viewBox="0 0 48 48"><defs><style>.cls-1{fill:#418fde;}</style></defs><title>Asset 963</title><g id="Layer_2" data-name="Layer 2"><g id="Text"><path class="cls-1" d="M47,13H43V2a2,2,0,0,0-4,0V13H31V2a2,2,0,0,0-4,0V13H23a1,1,0,0,0-1,1v8a13.94922,13.94922,0,0,0,7,11.99432V37a1,1,0,0,0,1,1h2V48h6V38h2a1,1,0,0,0,1-1V33.99432A13.94922,13.94922,0,0,0,48,22V14A1,1,0,0,0,47,13Z"/><path class="cls-1" d="M10,0A10,10,0,1,0,20,10,10.00362,10.00362,0,0,0,10,0Zm4.71,13.29a1.00761,1.00761,0,0,1,0,1.41992,1.01394,1.01394,0,0,1-1.41992,0l-3.29-3.29L6.71,14.71a1.01394,1.01394,0,0,1-1.41992,0,1.00761,1.00761,0,0,1,0-1.41992l3.29-3.29L5.29,6.71A1.004,1.004,0,0,1,6.71,5.29l3.29,3.29,3.29-3.29A1.004,1.004,0,1,1,14.71,6.71l-3.29,3.29Z"/></g></g></svg>