<svg xmlns="http://www.w3.org/2000/svg" viewBox="0 0 48 48"><defs><style>.cls-1{fill:#418fde;}</style></defs><title>Asset 965</title><g id="Layer_2" data-name="Layer 2"><g id="Text"><path class="cls-1" d="M47,13H43V2a2,2,0,0,0-4,0V13H31V2a2,2,0,0,0-4,0V13H23a1,1,0,0,0-1,1v8a13.94922,13.94922,0,0,0,7,11.99432V37a1,1,0,0,0,1,1h2V48h6V38h2a1,1,0,0,0,1-1V33.99432A13.94922,13.94922,0,0,0,48,22V14A1,1,0,0,0,47,13Z"/><path class="cls-1" d="M10,0A10,10,0,1,0,20,10,10.00362,10.00362,0,0,0,10,0Zm0,17a1,1,0,1,1,1-1A1.00288,1.00288,0,0,1,10,17Zm1-5a1,1,0,0,1-2,0V4a1,1,0,0,1,2,0Z"/></g></g></svg>