<svg xmlns="http://www.w3.org/2000/svg" viewBox="0 0 28.00098 48"><defs><style>.cls-1{fill:#418fde;}</style></defs><title>Asset 731</title><g id="Layer_2" data-name="Layer 2"><g id="Icons"><path class="cls-1" d="M22.001,18.02V18l-1.12-6.65A1.41268,1.41268,0,0,0,19.58105,10H13.00586L13.001,9.99951,12.99133,10h-.15027a.1703.1703,0,0,0-.07006.01l-.00562.00146A13.009,13.009,0,0,0,0,22.99951a2,2,0,0,0,4,0A9.41178,9.41178,0,0,1,11.001,14L6.031,34.19A1.42579,1.42579,0,0,0,7.231,36h3.77V46a2,2,0,0,0,4,0V36h2V46a2,2,0,0,0,4,0V34.8a5.90207,5.90207,0,0,0,1.79-3.05,7.02116,7.02116,0,0,0-.79-13.73Zm2.36,7.82-.26.27-1.35,1.4-1.23,1.27a.72389.72389,0,0,1-1.04,0l-1.46-1.51-1.12-1.16-.26-.27a2.32152,2.32152,0,0,1,.04993-3.25,2.19119,2.19119,0,0,1,3.11011.12l.19995.2.2-.2a2.26676,2.26676,0,0,1,.93005-.59,2.1247,2.1247,0,0,1,2.18006.47A2.32151,2.32151,0,0,1,24.361,25.84Z"/><circle class="cls-1" cx="17.00098" cy="4" r="4"/></g></g></svg>