<svg xmlns="http://www.w3.org/2000/svg" viewBox="0 0 48 42"><defs><style>.cls-1{fill:#418fde;}</style></defs><title>Asset 936</title><g id="Layer_2" data-name="Layer 2"><g id="Icons"><path class="cls-1" d="M44,1c0-.55231-.68876-1-1.53846-1H5.53846C4.68876,0,4,.44769,4,1V4H44Z"/><path class="cls-1" d="M46,6H2A2.00587,2.00587,0,0,0,0,8V23.96a2.00587,2.00587,0,0,0,2,2H8V15.99H40v9.97h6a2.00587,2.00587,0,0,0,2-2V8A2.00587,2.00587,0,0,0,46,6ZM31,13a2,2,0,1,1,2-2A2.00591,2.00591,0,0,1,31,13Zm7,0a2,2,0,1,1,2-2A2.00591,2.00591,0,0,1,38,13Z"/><path class="cls-1" d="M10,25.96V41a1.003,1.003,0,0,0,1,1H37a1.003,1.003,0,0,0,1-1V17.99H10ZM34,35H14a1,1,0,0,1,0-2H34a1,1,0,0,1,0,2Zm0-6H14a1,1,0,0,1,0-2H34a1,1,0,0,1,0,2Z"/></g></g></svg>