<svg xmlns="http://www.w3.org/2000/svg" viewBox="0 0 28 48"><defs><style>.cls-1{fill:#418fde;}</style></defs><title>Asset 757</title><g id="Layer_2" data-name="Layer 2"><g id="Icons"><rect class="cls-1" x="6" width="16" height="33" rx="7.97858"/><path class="cls-1" d="M28,24.5a1.5,1.5,0,0,0-3,0,11,11,0,1,1-22,0,1.5,1.5,0,0,0-3,0A13.99608,13.99608,0,0,0,12,38.3457V44H8a2.02011,2.02011,0,0,0-1.75488,3.00146A1.91506,1.91506,0,0,0,7.97845,48H20a2.02017,2.02017,0,0,0,1.75488-3.00153A1.91513,1.91513,0,0,0,20.02155,44H16V38.3349A14.02267,14.02267,0,0,0,28,24.5Z"/></g></g></svg>