<svg xmlns="http://www.w3.org/2000/svg" viewBox="0 0 48 39.00018"><defs><style>.cls-1{fill:#418fde;}</style></defs><title>Asset 913</title><g id="Layer_2" data-name="Layer 2"><g id="Icons"><path class="cls-1" d="M45,10.00018H16.76721L39.51709,3.93231A2,2,0,0,0,38.48193.06854L1.48291,9.9367a1.99979,1.99979,0,0,0-1.477,2.06348H0v24a3.00887,3.00887,0,0,0,3,3H45a3.00887,3.00887,0,0,0,3-3v-23A3.00886,3.00886,0,0,0,45,10.00018Zm-36,23.5a1.5,1.5,0,0,1-3,0v-9a1.5,1.5,0,0,1,3,0Zm7,0a1.5,1.5,0,0,1-3,0v-9a1.5,1.5,0,0,1,3,0Zm7,0a1.5,1.5,0,0,1-3,0v-9a1.5,1.5,0,0,1,3,0Zm13,1.5a6,6,0,1,1,6-6A6.00468,6.00468,0,0,1,36,35.00018Zm4.5-17H7.5a1.5,1.5,0,0,1,0-3h33a1.5,1.5,0,0,1,0,3Z"/></g></g></svg>