<svg xmlns="http://www.w3.org/2000/svg" viewBox="0 0 48.00001 48"><defs><style>.cls-1{fill:#418fde;}</style></defs><title>Asset 732</title><g id="Layer_2" data-name="Layer 2"><g id="Icons"><circle class="cls-1" cx="21.5" cy="8.5" r="6.5"/><path class="cls-1" d="M0,38.95a3.04658,3.04658,0,0,0,3.16632,3.04737,3.09274,3.09274,0,0,0,2.834-3.1446A14.57774,14.57774,0,0,1,12,27V44.03A3.97,3.97,0,0,0,15.97,48H27.03a3.98932,3.98932,0,0,0,2.82629-1.17865A.51.51,0,0,0,30,46.46118V19.58A22.665,22.665,0,0,0,21.5,18C9.22,18,0,26.95,0,38.95Z"/><path class="cls-1" d="M48,23V20.10706a2.07449,2.07449,0,0,0-1.66394-2.07966A2.00135,2.00135,0,0,0,44,20v3a2.00229,2.00229,0,0,1-2,2V11a2.00587,2.00587,0,0,0-2-2V.5a.5.5,0,0,0-.5-.5H37a1,1,0,0,0,0,2V9.27948A1.99657,1.99657,0,0,0,36,11v6H35a2.00587,2.00587,0,0,0-2,2V34a2.00591,2.00591,0,0,0,2,2h1V46a2.00591,2.00591,0,0,0,2,2h5a2.00418,2.00418,0,0,0,1.94006-2.49S42,36.08,42,36h3.89307a2.07438,2.07438,0,0,0,2.07959-1.66425A2.00135,2.00135,0,0,0,46,32H42V29A6.00657,6.00657,0,0,0,48,23Z"/></g></g></svg>