<svg xmlns="http://www.w3.org/2000/svg" viewBox="0 0 48 47.99997"><defs><style>.cls-1{fill:#418fde;}</style></defs><title>Asset 712</title><g id="Layer_2" data-name="Layer 2"><g id="Icons"><path class="cls-1" d="M1.38428,11.13126l8.50879,2.76507,15.48925,5.03345c.77247.251,1.61768-.202,1.61768-.86694V11h7v2H44.58325a3.41666,3.41666,0,1,0,0-6.83331H34V8H27V.9371c0-.66491-.84521-1.11792-1.61768-.86688L9.89307,5.10367,1.38428,7.86874A1.65329,1.65329,0,0,0,1.38428,11.13126Z"/><rect class="cls-1" x="25" y="36.99997" width="23" height="11" rx="1"/><rect class="cls-1" x="12" y="23.99997" width="24" height="11" rx="1"/><rect class="cls-1" y="36.99997" width="23" height="11" rx="1"/><rect class="cls-1" x="38" y="23.99997" width="10" height="11" rx="1"/></g></g></svg>