<svg xmlns="http://www.w3.org/2000/svg" viewBox="0 0 48 32"><defs><style>.cls-1{fill:#418fde;}</style></defs><title>Asset 815</title><g id="Layer_2" data-name="Layer 2"><g id="Icons"><path class="cls-1" d="M45,0H3A3.00887,3.00887,0,0,0,0,3V29a3.00887,3.00887,0,0,0,3,3H45a3.00887,3.00887,0,0,0,3-3V3A3.00887,3.00887,0,0,0,45,0ZM8.46,5.46A5.02184,5.02184,0,1,1,7,9,5.02225,5.02225,0,0,1,8.46,5.46ZM20,26H4V25a8,8,0,1,1,16,0Zm20.52-2H25.49a1.5,1.5,0,0,1,0-3H40.52a1.5,1.5,0,0,1,0,3Zm0-6H25.49a1.5,1.5,0,0,1,0-3H40.52a1.5,1.5,0,0,1,0,3Zm0-6H25.49a1.5,1.5,0,0,1,0-3H40.52a1.5,1.5,0,0,1,0,3Z"/></g></g></svg>