<svg xmlns="http://www.w3.org/2000/svg" viewBox="0 0 48 48"><defs><style>.cls-1{fill:#418fde;}</style></defs><title>Asset 962</title><g id="Layer_2" data-name="Layer 2"><g id="Text"><path class="cls-1" d="M46.68,1.32007A4.49611,4.49611,0,0,0,39.52,2.3999,6.29428,6.29428,0,0,1,41.56,5.14a6.46646,6.46646,0,0,1-.11,4.98L39,15.63V43.5a4.5,4.5,0,0,0,9,0V4.5A4.45631,4.45631,0,0,0,46.68,1.32007Z"/><path class="cls-1" d="M39.62,9.31006a4.50008,4.50008,0,0,0-8.24-3.62012l-.46,1.04a6.1584,6.1584,0,0,1,.95,8.15L18.71,34.2l-3.33,7.48A4.51191,4.51191,0,0,0,17.69,47.62,4.62916,4.62916,0,0,0,19.5,48a4.50759,4.50759,0,0,0,4.12-2.68994L39,10.71Z"/><path class="cls-1" d="M20.12,28.58l3.13-4.59,6.97-10.23A4.24354,4.24354,0,0,0,29.28,7.97a1.63882,1.63882,0,0,0-.26-.2,4.42458,4.42458,0,0,0-.6-.34009,4.63266,4.63266,0,0,0-5.74,1.54l-21.9,32A4.45088,4.45088,0,0,0,0,43.49a4.49464,4.49464,0,0,0,8.22,2.53L16.95,33.21Z"/></g></g></svg>