<svg xmlns="http://www.w3.org/2000/svg" viewBox="0 0 48 48"><defs><style>.cls-1{fill:#418fde;}</style></defs><title>Asset 759</title><g id="Layer_2" data-name="Layer 2"><g id="Icons"><path class="cls-1" d="M2.5,26A2.49981,2.49981,0,0,0,5,23.5,11.57678,11.57678,0,0,1,16.89258,12H39.46875l-2.74121,2.74121a2.49974,2.49974,0,1,0,3.53516,3.53516l7.00488-7.00391a2.4991,2.4991,0,0,0,0-3.53516L40.2627.73242a2.49974,2.49974,0,0,0-3.53516,3.53516L39.45947,7H16.89258A16.52218,16.52218,0,0,0,0,23.5,2.49981,2.49981,0,0,0,2.5,26Z"/><path class="cls-1" d="M40.2627,22.73242a2.49974,2.49974,0,0,0-3.53516,3.53516L39.45947,29H16.89258A16.52218,16.52218,0,0,0,0,45.5a2.5,2.5,0,0,0,5,0A11.57678,11.57678,0,0,1,16.89258,34H39.46875l-2.74121,2.74121a2.49974,2.49974,0,1,0,3.53516,3.53516l7.00488-7.00391a2.4991,2.4991,0,0,0,0-3.53516Z"/></g></g></svg>