<svg xmlns="http://www.w3.org/2000/svg" viewBox="0 0 48 48"><defs><style>.cls-1{fill:#418fde;}</style></defs><title>Asset 857</title><g id="Layer_2" data-name="Layer 2"><g id="Icons"><path class="cls-1" d="M20,10A10,10,0,1,0,10,20,10.00362,10.00362,0,0,0,20,10Zm-5.29,3.29a1.00761,1.00761,0,0,1,0,1.41992,1.01394,1.01394,0,0,1-1.41992,0l-3.29-3.29L6.71,14.71a1.01394,1.01394,0,0,1-1.41992,0,1.00761,1.00761,0,0,1,0-1.41992l3.29-3.29L5.29,6.71A1.004,1.004,0,0,1,6.71,5.29l3.29,3.29,3.29-3.29A1.004,1.004,0,1,1,14.71,6.71l-3.29,3.29Z"/><path class="cls-1" d="M18.30005,0A12.99253,12.99253,0,0,1,16,21.53V48H48V0ZM34,42a2,2,0,0,1-4,0V36a2.00579,2.00579,0,0,1,2-2,2.01467,2.01467,0,0,1,2,2Zm0-15a2,2,0,0,1-4,0V21a2.00579,2.00579,0,0,1,2-2,2.01467,2.01467,0,0,1,2,2Zm0-15a2,2,0,0,1-4,0V6a2.00579,2.00579,0,0,1,2-2,2.01467,2.01467,0,0,1,2,2Z"/></g></g></svg>