<svg xmlns="http://www.w3.org/2000/svg" viewBox="0 0 48 48"><defs><style>.a{fill:#418fde;}</style></defs><path class="a" d="M10,5A3.00344,3.00344,0,0,0,7,8h6A3.00344,3.00344,0,0,0,10,5Z"/><path class="a" d="M18.30005,0A12.99258,12.99258,0,0,1,16,21.53V48H48V0ZM34,42a2,2,0,0,1-4,0V36a2.00575,2.00575,0,0,1,2-2,2.01467,2.01467,0,0,1,2,2Zm0-15a2,2,0,0,1-4,0V21a2.00575,2.00575,0,0,1,2-2,2.01467,2.01467,0,0,1,2,2Zm0-15a2,2,0,0,1-4,0V6a2.00575,2.00575,0,0,1,2-2,2.01467,2.01467,0,0,1,2,2Z"/><path class="a" d="M20,10A10,10,0,1,0,10,20,10.00331,10.00331,0,0,0,20,10Zm-5,4a2.00006,2.00006,0,0,1-2,2H7a2,2,0,0,1-2-2V8A5,5,0,0,1,15,8Z"/><rect class="a" x="8" y="10" width="4" height="4" rx="1"/></svg>