<svg xmlns="http://www.w3.org/2000/svg" viewBox="0 0 47.87534 48"><defs><style>.cls-1{fill:#418fde;}</style></defs><title>Asset 677</title><g id="Layer_2" data-name="Layer 2"><g id="Icons"><path class="cls-1" d="M36.93767,44h-11V7H36.23784L31.51653,18.95251a1.49735,1.49735,0,1,0,2.78528,1.10022L38.43767,9.58008l4.13587,10.47265a1.49735,1.49735,0,1,0,2.78527-1.10022L39.82769,4.95a1.48769,1.48769,0,0,0-1.39-.95h-12.5V2a2,2,0,0,0-4,0V4h-12.5a1.48767,1.48767,0,0,0-1.39.95L2.51653,18.95251a1.49735,1.49735,0,1,0,2.78528,1.10022L9.43767,9.58008l4.13587,10.47265a1.49735,1.49735,0,1,0,2.78527-1.10022L11.6375,7H21.93767V44h-11a2,2,0,1,0,0,4h26a2,2,0,0,0,0-4Z"/><path class="cls-1" d="M18.86858,24.312A.25672.25672,0,0,0,18.61907,24H.25627a.25673.25673,0,0,0-.24951.312,9.69634,9.69634,0,0,0,18.86182,0Z"/><path class="cls-1" d="M47.61907,24H29.25627a.25673.25673,0,0,0-.24951.312,9.69634,9.69634,0,0,0,18.86182,0A.25672.25672,0,0,0,47.61907,24Z"/></g></g></svg>