<svg xmlns="http://www.w3.org/2000/svg" viewBox="0 0 48.00191 47.99753"><defs><style>.cls-1{fill:#418fde;}</style></defs><title>Asset 805</title><g id="Layer_2" data-name="Layer 2"><g id="Icons"><path class="cls-1" d="M18.00191,21.99753a7.98513,7.98513,0,0,0,8-7.97c0-3.98-6.55-12.38013-7.8-13.93006a.25378.25378,0,0,0-.3999,0c-1.25,1.54993-7.8,9.95008-7.8,13.93006A7.98513,7.98513,0,0,0,18.00191,21.99753Z"/><path class="cls-1" d="M39.00191,28.99753h-13.5a3.51688,3.51688,0,0,0-3.5,3.5,3.50393,3.50393,0,0,0,3.5,3.5h5.5a2.01465,2.01465,0,0,1,2,2,2.00592,2.00592,0,0,1-2,2h-9a2.49213,2.49213,0,0,1-1.6-.6001l-13.59-13.23A4.01592,4.01592,0,0,0,.8719,26.4675a4.11774,4.11774,0,0,0,.39,5.49l15.23,14.87a4.00414,4.00414,0,0,0,2.83008,1.17H39.00191a9,9,0,0,0,9-9v-1A9,9,0,0,0,39.00191,28.99753Z"/></g></g></svg>