<svg xmlns="http://www.w3.org/2000/svg" viewBox="0 0 48.00057 48.03828"><defs><style>.cls-1{fill:#418fde;}</style></defs><title>Asset 911</title><g id="Layer_2" data-name="Layer 2"><g id="Icons"><path class="cls-1" d="M9,39.03828a14.26049,14.26049,0,0,0,19.14708.78474,1.01074,1.01074,0,0,0,.03762-1.5224L8.73383,20.70224a1.013,1.013,0,0,0-1.45178.11158C2.63633,26.24576,3.78714,33.82556,9,39.03828Z"/><path class="cls-1" d="M47.90232,19.42011A30.56949,30.56949,0,0,0,28.61814.09687a2.00026,2.00026,0,0,0-1.23633,3.80469A26.49619,26.49619,0,0,1,44.09763,20.65644a2.00026,2.00026,0,1,0,3.80469-1.23633Z"/><path class="cls-1" d="M25.76755,7.1916A1.99985,1.99985,0,1,0,24.2324,10.885a22.543,22.543,0,0,1,12.91992,12.918,1.99963,1.99963,0,1,0,3.69531-1.52929A26.64282,26.64282,0,0,0,25.76755,7.1916Z"/><path class="cls-1" d="M22.98044,14.29511a2,2,0,0,0-1.96093,3.48633,23.00089,23.00089,0,0,1,9.23828,9.23926,2.00009,2.00009,0,1,0,3.48437-1.96485A27.1445,27.1445,0,0,0,22.98044,14.29511Z"/><path class="cls-1" d="M24.40989,23.62812a1.9737,1.9737,0,0,0-2.81983,0L18.70993,26.508l2.95,2.69043,2.75-2.75A1.97427,1.97427,0,0,0,24.40989,23.62812Z"/><path class="cls-1" d="M6.78708,40.42109a.99978.99978,0,0,0-1.57409.00049L.2125,46.42451a.99988.99988,0,0,0,.7893,1.61377H11a.99985.99985,0,0,0,.78931-1.61377Z"/></g></g></svg>