<svg xmlns="http://www.w3.org/2000/svg" viewBox="0 0 48 48"><defs><style>.cls-1{fill:#418fde;}</style></defs><title>Asset 760</title><g id="Layer_2" data-name="Layer 2"><g id="Icons"><path class="cls-1" d="M44.58594,27.58594,40,32.17188V15a2,2,0,0,0-4,0V32.17188l-4.58594-4.58594a1.99978,1.99978,0,0,0-2.82812,2.82812l8,8a1.99926,1.99926,0,0,0,2.82812,0l8-8a1.99978,1.99978,0,0,0-2.82812-2.82812Z"/><path class="cls-1" d="M10,13a2.0001,2.0001,0,0,0-2,2V32.17188L3.41406,27.58594A1.99978,1.99978,0,0,0,.58594,30.41406l8,8a1.99926,1.99926,0,0,0,2.82812,0l8-8a1.99978,1.99978,0,0,0-2.82812-2.82812L12,32.17188V15A2.0001,2.0001,0,0,0,10,13Z"/><rect class="cls-1" y="44" width="48" height="4" rx="1"/><rect class="cls-1" width="48" height="10" rx="1"/></g></g></svg>