<svg xmlns="http://www.w3.org/2000/svg" viewBox="0 0 48 48"><defs><style>.cls-1{fill:#418fde;}</style></defs><title>Asset 886</title><g id="Layer_2" data-name="Layer 2"><g id="Icons"><path class="cls-1" d="M46.5,45H1.5a1.5,1.5,0,0,0,0,3h45a1.5,1.5,0,0,0,0-3Z"/><path class="cls-1" d="M20,33a2.00583,2.00583,0,0,1,2-2h4a2.00583,2.00583,0,0,1,2,2V43H44V18a1.00288,1.00288,0,0,0-1-1H33l-7-5.25V8h9V2H26a2,2,0,0,0-4,0v9.75L15,17H5a1.00288,1.00288,0,0,0-1,1V43H20ZM35,22a1.00288,1.00288,0,0,1,1-1h2a1.00288,1.00288,0,0,1,1,1v5a1.00288,1.00288,0,0,1-1,1H36a1.00288,1.00288,0,0,1-1-1Zm0,11a1.00288,1.00288,0,0,1,1-1h2a1.00288,1.00288,0,0,1,1,1v5a1.00288,1.00288,0,0,1-1,1H36a1.00288,1.00288,0,0,1-1-1ZM13,38a1.00288,1.00288,0,0,1-1,1H10a1.00288,1.00288,0,0,1-1-1V33a1.00288,1.00288,0,0,1,1-1h2a1.00288,1.00288,0,0,1,1,1Zm0-11a1.00288,1.00288,0,0,1-1,1H10a1.00288,1.00288,0,0,1-1-1V22a1.00288,1.00288,0,0,1,1-1h2a1.00288,1.00288,0,0,1,1,1Zm15-6a4,4,0,1,1-4-4A3.99895,3.99895,0,0,1,28,21Z"/></g></g></svg>