<svg xmlns="http://www.w3.org/2000/svg" viewBox="0 0 32 41.98248"><defs><style>.cls-1{fill:#418fde;}</style></defs><title>USAR_01</title><g id="Layer_2" data-name="Layer 2"><g id="Expanded_Icons" data-name="Expanded Icons"><path class="cls-1" d="M31.18994,2.97247l-15-2.94995a.81218.81218,0,0,0-.37988,0l-15,2.95A.99693.99693,0,0,0,0,3.95245V24.13251c0,9.86,7.30005,17.85,16,17.85s16-7.99,16-17.85V3.95245A.99693.99693,0,0,0,31.18994,2.97247Zm-21.498,9.78711a1.50413,1.50413,0,0,1,1.20069-.975l5.001-.71436-2.331,6.99036L9.707,14.20514a.97134.97134,0,0,0-.45239-.24341ZM26,21.61078a1.50049,1.50049,0,0,1-1.28833,1.48541L19,23.91217l-1,6-8,1-4-8,2.55615-7.02972L13.293,20.6192a1.00125,1.00125,0,0,0,.707.293,1.02166,1.02166,0,0,0,.22949-.02637.99885.99885,0,0,0,.71875-.65722l2.842-8.52613L21,14.91217l3.79468.75891A1.49948,1.49948,0,0,1,26,17.14142Z"/></g></g></svg>