<svg xmlns="http://www.w3.org/2000/svg" viewBox="0 0 48 48"><defs><style>.cls-1{fill:#418fde;}</style></defs><title>Asset 762</title><g id="Layer_2" data-name="Layer 2"><g id="Icons"><path class="cls-1" d="M15.87112,25.39256a1.50452,1.50452,0,0,0-2.12133,0L1.75,37.39232a6.0178,6.0178,0,0,0,0,8.48529l.37231.37231a6.01776,6.01776,0,0,0,8.48536,0L22.60745,34.25023a1.5044,1.5044,0,0,0,0-2.12134Z"/><path class="cls-1" d="M30.46634,21.06822l7.93823-7.93817,5.44971-.75519a1.80537,1.80537,0,0,0,1.361-.96875L47.7764,6.37968a1.80592,1.80592,0,0,0-.332-2.09637L43.71671.55571a1.80545,1.80545,0,0,0-2.09632-.332L36.5939,2.78477a1.80558,1.80558,0,0,0-.96875,1.36091l-.755,5.44842-7.939,7.939Z"/><path class="cls-1" d="M35.90308,30.541,17.44363,12.08284A8.99948,8.99948,0,0,0,7.72229.08733,1.0056,1.0056,0,0,0,7.16137,1.793l3.8621,3.8618a3.65077,3.65077,0,0,1,0,5.15756l-.22031.22036a3.647,3.647,0,0,1-5.15777.00031L1.79245,7.1802a1.00563,1.00563,0,0,0-1.70569.56042A8.99063,8.99063,0,0,0,12.06194,17.443L30.54265,35.92244A9.00157,9.00157,0,0,0,40.271,47.91036a1.00568,1.00568,0,0,0,.55882-1.70541l-3.41576-3.41553a3.52641,3.52641,0,0,1,0-4.98732l.38063-.3806a3.52692,3.52692,0,0,1,4.98762,0l3.41907,3.41893a1.006,1.006,0,0,0,1.70538-.55709A9.00346,9.00346,0,0,0,35.90308,30.541Z"/></g></g></svg>