<svg xmlns="http://www.w3.org/2000/svg" viewBox="0 0 47.99742 42.00244"><defs><style>.cls-1{fill:#418fde;}</style></defs><title>Asset 963</title><g id="Layer_2" data-name="Layer 2"><g id="Text"><path class="cls-1" d="M44.5175,3.94989l-.37-.37988a11.70261,11.70261,0,0,0-16.83,0L23.99748,6.99994,20.68742,3.57a11.7026,11.7026,0,0,0-16.82995,0l-.37.37988a12.39677,12.39677,0,0,0,0,17.24l19.62,20.43a1.21508,1.21508,0,0,0,1.77,0l19.64-20.43A12.41612,12.41612,0,0,0,44.5175,3.94989Zm-13.11011,18.46a1.95436,1.95436,0,0,1-1.40991.59009h-4v4a2,2,0,0,1-4,0v-4h-4a2,2,0,1,1,0-4h4v-4a2.0011,2.0011,0,0,1,3.40991-1.42,1.96094,1.96094,0,0,1,.59009,1.42v4h4a1.99946,1.99946,0,0,1,2,2A1.95436,1.95436,0,0,1,31.40739,22.40985Z"/></g></g></svg>