<svg xmlns="http://www.w3.org/2000/svg" viewBox="0 0 48 48"><defs><style>.cls-1{fill:#418fde;}</style></defs><title>Asset 832</title><g id="Layer_2" data-name="Layer 2"><g id="Icons"><path class="cls-1" d="M35,10c-7.41113,0-13,5.15918-13,12a2,2,0,0,0,4,0,7.70076,7.70076,0,0,1,4.31738-6.89307l-3.30383,18.729A1,1,0,0,0,28,35h2V46a2,2,0,0,0,4,0V35h2V46a2,2,0,0,0,4,0V35h2a1,1,0,0,0,.98645-1.16406L39.77588,15.15625A7.69011,7.69011,0,0,1,44,22a2,2,0,0,0,4,0C48,15.15918,42.41113,10,35,10Z"/><circle class="cls-1" cx="35" cy="4" r="4"/><path class="cls-1" d="M12.49561,40.99878a1.5,1.5,0,0,0-1.5,1.5v3.999a1.5,1.5,0,0,0,3,0v-3.999A1.50008,1.50008,0,0,0,12.49561,40.99878Z"/><path class="cls-1" d="M23.4978,34.0022h-3.999a1.5,1.5,0,1,0,0,3h3.999a1.5,1.5,0,0,0,0-3Z"/><path class="cls-1" d="M12.5022,23a1.50007,1.50007,0,0,0-1.5,1.5v3.99878a1.5,1.5,0,1,0,3,0V24.5A1.50007,1.50007,0,0,0,12.5022,23Z"/><path class="cls-1" d="M6.9989,35.49561a1.5,1.5,0,0,0-1.5-1.5H1.5a1.5,1.5,0,0,0,0,3H5.4989A1.50008,1.50008,0,0,0,6.9989,35.49561Z"/><path class="cls-1" d="M18.55957,39.43506a1.5,1.5,0,1,0-2.12134,2.12134l3.003,3.00317a1.5,1.5,0,1,0,2.12134-2.12134Z"/><path class="cls-1" d="M18.5564,31.5625l3.00317-3.00293a1.5,1.5,0,0,0-2.12134-2.12134l-3.00317,3.00318A1.49993,1.49993,0,0,0,18.5564,31.5625Z"/><path class="cls-1" d="M6.44116,31.5625A1.5,1.5,0,0,0,8.5625,29.44116L5.55957,26.43823a1.5,1.5,0,1,0-2.12134,2.12134Z"/><path class="cls-1" d="M6.44141,39.43506,3.43823,42.43823a1.5,1.5,0,0,0,2.12134,2.12134L8.56262,41.5564a1.5,1.5,0,1,0-2.12121-2.12134Z"/></g></g></svg>