<svg xmlns="http://www.w3.org/2000/svg" viewBox="0 0 42 48"><defs><style>.cls-1{fill:#418fde;}</style></defs><title>Asset 806</title><g id="Layer_2" data-name="Layer 2"><g id="Icons"><path class="cls-1" d="M22,0a7.00848,7.00848,0,0,0-7,7V9.29309C8.15344,10.63232,3,16.32031,3,21H33c0-4.67969-5.15344-10.36768-12-11.70691V7a1.00067,1.00067,0,0,1,1-1H42V0Z"/><path class="cls-1" d="M33.81812,23H2.18188a2.00758,2.00758,0,1,0,0,4H33.81812a2.00758,2.00758,0,1,0,0-4Z"/><path class="cls-1" d="M17.92407,30.03564C17.45776,30.60168,15,33.65308,15,35.10181a3.00179,3.00179,0,0,0,6,0c0-1.44873-2.45776-4.50013-2.92407-5.06617A.0986.0986,0,0,0,17.92407,30.03564Z"/><path class="cls-1" d="M10.92407,40.03564C10.45776,40.60168,8,43.65308,8,45.10181a3.00179,3.00179,0,0,0,6,0c0-1.44873-2.45776-4.50013-2.92407-5.06617A.0986.0986,0,0,0,10.92407,40.03564Z"/><path class="cls-1" d="M24.92407,40.03564C24.45776,40.60168,22,43.65308,22,45.10181a3.00179,3.00179,0,0,0,6,0c0-1.44873-2.45776-4.50013-2.92407-5.06617A.0986.0986,0,0,0,24.92407,40.03564Z"/><path class="cls-1" d="M3.92407,30.03564C3.45776,30.60168,1,33.65308,1,35.10181A2.95044,2.95044,0,0,0,4,38a2.95044,2.95044,0,0,0,3-2.89819c0-1.44873-2.45776-4.50013-2.92407-5.06617A.0986.0986,0,0,0,3.92407,30.03564Z"/><path class="cls-1" d="M31.92407,30.03564C31.45776,30.60168,29,33.65308,29,35.10181a3.00179,3.00179,0,0,0,6,0c0-1.44873-2.45776-4.50013-2.92407-5.06617A.0986.0986,0,0,0,31.92407,30.03564Z"/></g></g></svg>