<svg xmlns="http://www.w3.org/2000/svg" viewBox="0 0 43.64115 48"><defs><style>.cls-1{fill:#418fde;}</style></defs><title>Asset 700</title><g id="Layer_2" data-name="Layer 2"><g id="Icons"><path class="cls-1" d="M41.12062,20.26a1.9111,1.9111,0,0,0,.52.07,1.99953,1.99953,0,0,0,.52-3.93l-2.17016-.58,1.88012-1.09a1.99823,1.99823,0,1,0-2-3.46L37.9905,12.35l.58007-2.16a1.99881,1.99881,0,1,0-3.86-1.04l-1.62,6.03-6.47,3.74a7.03889,7.03889,0,0,0-2.8-1.63V10.83l4.40992-4.42A1.994,1.994,0,0,0,25.41066,3.59L23.82057,5.17V2a2,2,0,0,0-4,0V5.17L18.23049,3.59A1.994,1.994,0,1,0,15.41066,6.41l4.40991,4.42v6.46a7.03889,7.03889,0,0,0-2.8,1.63l-6.47-3.74-1.62-6.03a1.99882,1.99882,0,1,0-3.86,1.04l.58008,2.16L3.77052,11.27a1.99823,1.99823,0,1,0-2,3.46l1.88013,1.09-2.17016.58a1.99953,1.99953,0,0,0,.52,3.93,1.911,1.911,0,0,0,.52-.07l6.03-1.61,6.47,3.73a6.66262,6.66262,0,0,0,0,3.24L9.41066,28.85l-6.03-1.61a1.99754,1.99754,0,1,0-1.03,3.86l2.15991.58-2.74,1.59a1.99775,1.99775,0,0,0-.74,2.73,2.00514,2.00514,0,0,0,2.74.73l2.74-1.58-.58,2.16a2.00223,2.00223,0,0,0,1.42,2.45,1.86094,1.86094,0,0,0,.52.07,2.00488,2.00488,0,0,0,1.92993-1.48l1.61011-6.03,5.60986-3.24a7.03889,7.03889,0,0,0,2.8,1.63v7.46l-4.40991,4.42A1.994,1.994,0,1,0,18.23049,45.41l1.59008-1.58V46a2,2,0,0,0,4,0V43.83l1.59009,1.58A1.994,1.994,0,0,0,28.23049,42.59l-4.40992-4.42V30.71a7.03889,7.03889,0,0,0,2.8-1.63l5.60987,3.24,1.6101,6.03a2.00488,2.00488,0,0,0,1.92993,1.48,1.8609,1.8609,0,0,0,.52-.07,2.00224,2.00224,0,0,0,1.42005-2.45l-.58-2.16,2.74,1.58a2.00514,2.00514,0,0,0,2.74-.73,1.99774,1.99774,0,0,0-.74-2.73l-2.74-1.59,2.15991-.58a1.99754,1.99754,0,1,0-1.03-3.86l-6.03,1.61-5.60987-3.23a6.66262,6.66262,0,0,0,0-3.24l6.47-3.73ZM21.82057,27a3,3,0,1,1,3-3A2.99606,2.99606,0,0,1,21.82057,27Z"/></g></g></svg>