<svg xmlns="http://www.w3.org/2000/svg" viewBox="0 0 34 48"><defs><style>.cls-1{fill:#418fde;}</style></defs><title>Asset 807</title><g id="Layer_2" data-name="Layer 2"><g id="Icons"><path class="cls-1" d="M31,10H3a1.00288,1.00288,0,0,0-1,1V47a1.00288,1.00288,0,0,0,1,1H31a1.00288,1.00288,0,0,0,1-1V11A1.00288,1.00288,0,0,0,31,10ZM10,42a1,1,0,0,1-2,0V16a1,1,0,0,1,2,0Zm8,0a1,1,0,0,1-2,0V16a1,1,0,0,1,2,0Zm8,0a1,1,0,0,1-2,0V16a1,1,0,0,1,2,0Z"/><path class="cls-1" d="M32,4H22V3a3,3,0,0,0-3-3H15a3,3,0,0,0-3,3V4H2A2,2,0,0,0,2,8H32a2,2,0,0,0,0-4Z"/></g></g></svg>