<svg xmlns="http://www.w3.org/2000/svg" viewBox="0 0 48 48"><defs><style>.cls-1{fill:#418fde;}</style></defs><title>Asset 763</title><g id="Layer_2" data-name="Layer 2"><g id="Icons"><path class="cls-1" d="M6,31a2.0001,2.0001,0,0,0,2-2V26H22v3a2,2,0,0,0,4,0V26H40v3a2,2,0,0,0,4,0V24a2.0001,2.0001,0,0,0-2-2H26V19a2,2,0,0,0-4,0v3H6a2.0001,2.0001,0,0,0-2,2v5A2.0001,2.0001,0,0,0,6,31Z"/><circle class="cls-1" cx="6" cy="42" r="6"/><circle class="cls-1" cx="42" cy="42" r="6"/><circle class="cls-1" cx="24" cy="42" r="6"/><circle class="cls-1" cx="24" cy="6" r="6"/></g></g></svg>