<svg xmlns="http://www.w3.org/2000/svg" viewBox="0 0 47.97998 48"><defs><style>.cls-1{fill:#418fde;}</style></defs><title>Asset 701</title><g id="Layer_2" data-name="Layer 2"><g id="Icons"><path class="cls-1" d="M38.98,9.01a8.73173,8.73173,0,0,0-3.16.58008l-.01068.00488a11.49,11.49,0,0,0-22.82184,1.75659,5.97663,5.97663,0,0,0-7.9112,6.68994L5.07,18.04A3.81041,3.81041,0,0,0,4.48,18a4.5,4.5,0,0,0,0,9h34.5a9.00311,9.00311,0,0,0,8.83-7.24A9.29694,9.29694,0,0,0,47.98,18,8.99222,8.99222,0,0,0,38.98,9.01Z"/><path class="cls-1" d="M28.48,37H22.18652L25.752,31.29492A1.49994,1.49994,0,1,0,23.208,29.70508l-5,8A1.49972,1.49972,0,0,0,19.48,40h6.29346L22.208,45.70508A1.49994,1.49994,0,1,0,24.752,47.29492l5-8A1.49972,1.49972,0,0,0,28.48,37Z"/></g></g></svg>