<svg xmlns="http://www.w3.org/2000/svg" viewBox="0 0 48 48"><defs><style>.cls-1{fill:#418fde;}</style></defs><title>Asset 702</title><g id="Layer_2" data-name="Layer 2"><g id="Icons"><path class="cls-1" d="M46,42a8.603,8.603,0,0,0-4.62,1.24,5.22951,5.22951,0,0,1-5.43005,0A8.60316,8.60316,0,0,0,31.33008,42,8.64428,8.64428,0,0,0,26.7,43.24,4.62642,4.62642,0,0,1,24,44a4.63739,4.63739,0,0,1-2.71-.76A8.67344,8.67344,0,0,0,16.65991,42,8.60323,8.60323,0,0,0,12.04,43.24,4.68345,4.68345,0,0,1,9.33,44a4.68375,4.68375,0,0,1-2.71-.76A8.60314,8.60314,0,0,0,2,42a2,2,0,0,0,0,4,4.68375,4.68375,0,0,1,2.71.76A8.603,8.603,0,0,0,9.33,48a8.60331,8.60331,0,0,0,4.62-1.24,4.68352,4.68352,0,0,1,2.7099-.76,4.6607,4.6607,0,0,1,2.71009.76A8.64407,8.64407,0,0,0,24,48a8.632,8.632,0,0,0,4.62-1.24,5.21166,5.21166,0,0,1,5.42,0,9.24531,9.24531,0,0,0,9.25,0A4.66026,4.66026,0,0,1,46,46a2,2,0,0,0,0-4Z"/><path class="cls-1" d="M46,34a8.603,8.603,0,0,0-4.62,1.24,5.22951,5.22951,0,0,1-5.43005,0A8.60316,8.60316,0,0,0,31.33008,34,8.64428,8.64428,0,0,0,26.7,35.24,4.62642,4.62642,0,0,1,24,36a4.63739,4.63739,0,0,1-2.71-.76A8.67344,8.67344,0,0,0,16.65991,34,8.60323,8.60323,0,0,0,12.04,35.24,4.68345,4.68345,0,0,1,9.33,36a4.68375,4.68375,0,0,1-2.71-.76A8.60314,8.60314,0,0,0,2,34a2,2,0,0,0,0,4,4.68375,4.68375,0,0,1,2.71.76A8.603,8.603,0,0,0,9.33,40a8.60331,8.60331,0,0,0,4.62-1.24,4.68352,4.68352,0,0,1,2.7099-.76,4.6607,4.6607,0,0,1,2.71009.76A8.64407,8.64407,0,0,0,24,40a8.632,8.632,0,0,0,4.62-1.24,5.21166,5.21166,0,0,1,5.42,0,9.24531,9.24531,0,0,0,9.25,0A4.66026,4.66026,0,0,1,46,38a2,2,0,0,0,0-4Z"/><path class="cls-1" d="M8,22H36.5a7.51582,7.51582,0,0,0,7.33008-5.9A7.62466,7.62466,0,0,0,44,14.5,7.50272,7.50272,0,0,0,36.5,7a7.37787,7.37787,0,0,0-2.71.51l-.0022.001a9.49713,9.49713,0,0,0-18.784,1.91314A4.99042,4.99042,0,0,0,8,14a4,4,0,0,0,0,8Z"/><path class="cls-1" d="M10.9881,24.51776,7.52362,27.98224a1.76777,1.76777,0,0,0,2.5,2.5l3.46448-3.46448a1.76777,1.76777,0,0,0-2.5-2.5Z"/><path class="cls-1" d="M22.98584,24.51776l-3.4646,3.46448a1.76777,1.76777,0,0,0,2.5,2.5l3.4646-3.46448a1.76777,1.76777,0,0,0-2.5-2.5Z"/><path class="cls-1" d="M34.98218,24.51776l-3.46436,3.46448a1.76777,1.76777,0,0,0,2.5,2.5l3.46436-3.46448a1.76777,1.76777,0,0,0-2.5-2.5Z"/></g></g></svg>