<svg xmlns="http://www.w3.org/2000/svg" viewBox="0 0 48.01001 48"><defs><style>.cls-1{fill:#418fde;}</style></defs><title>Asset 809</title><g id="Layer_2" data-name="Layer 2"><g id="Icons"><path class="cls-1" d="M46.55005,24H39.98914V19a1,1,0,0,0-1-1H38V5.12134L40.44067,7.562A1.5,1.5,0,0,0,42.562,5.44067L37.56445.443,37.562.43933,37.5481.43018a1.50307,1.50307,0,0,0-.47217-.31372c-.01367-.00562-.02747-.00757-.04126-.0127a1.48943,1.48943,0,0,0-.5188-.10107L36.50073,0l-.01367.00244A1.48617,1.48617,0,0,0,35.963.10449c-.01208.00464-.02429.00635-.03637.01123a1.50162,1.50162,0,0,0-.48035.31909l-.00684.00452-.00268.00379L30.43933,5.44067A1.5,1.5,0,1,0,32.56067,7.562L35,5.12256V18H34a1,1,0,0,0-1,1v5H24V4a4.01182,4.01182,0,0,0-4-4H9A4.01182,4.01182,0,0,0,5,4V24H1.47A1.46806,1.46806,0,0,0,.01,25.46V30.2A9.32978,9.32978,0,0,1,2,30a8.60243,8.60243,0,0,1,4.62,1.24A4.68412,4.68412,0,0,0,9.33008,32a4.68431,4.68431,0,0,0,2.71-.76A8.60263,8.60263,0,0,1,16.65991,30,8.67289,8.67289,0,0,1,21.29,31.24,4.63783,4.63783,0,0,0,24,32a4.62686,4.62686,0,0,0,2.7-.76A8.64374,8.64374,0,0,1,31.33008,30,8.60263,8.60263,0,0,1,35.95,31.24a5.22951,5.22951,0,0,0,5.43005,0A8.60243,8.60243,0,0,1,46,30a9.53147,9.53147,0,0,1,2.01.2V25.46A1.46813,1.46813,0,0,0,46.55005,24Z"/><path class="cls-1" d="M46,42a8.585,8.585,0,0,0-4.625,1.24414,5.24115,5.24115,0,0,1-5.42285,0A8.58615,8.58615,0,0,0,31.32617,42a8.57713,8.57713,0,0,0-4.62305,1.24414A4.69232,4.69232,0,0,1,23.99512,44a4.69572,4.69572,0,0,1-2.709-.75586A8.585,8.585,0,0,0,16.66113,42a8.58385,8.58385,0,0,0-4.624,1.24414A4.69237,4.69237,0,0,1,9.3291,44a4.69018,4.69018,0,0,1-2.70605-.75586A8.58586,8.58586,0,0,0,2,42a2,2,0,0,0,0,4,4.69126,4.69126,0,0,1,2.707.75586A8.58468,8.58468,0,0,0,9.3291,48a8.58382,8.58382,0,0,0,4.624-1.24414A4.69237,4.69237,0,0,1,16.66113,46a4.6957,4.6957,0,0,1,2.709.75586A8.585,8.585,0,0,0,23.99512,48a8.59259,8.59259,0,0,0,4.624-1.24414,5.23415,5.23415,0,0,1,5.41895,0,9.22042,9.22042,0,0,0,9.251,0A4.70237,4.70237,0,0,1,46,46a2,2,0,0,0,0-4Z"/><path class="cls-1" d="M46,34a8.585,8.585,0,0,0-4.625,1.24414,5.24115,5.24115,0,0,1-5.42285,0A8.58615,8.58615,0,0,0,31.32617,34a8.57713,8.57713,0,0,0-4.62305,1.24414A4.69232,4.69232,0,0,1,23.99512,36a4.69572,4.69572,0,0,1-2.709-.75586A8.585,8.585,0,0,0,16.66113,34a8.58385,8.58385,0,0,0-4.624,1.24414A4.69237,4.69237,0,0,1,9.3291,36a4.69018,4.69018,0,0,1-2.70605-.75586A8.58586,8.58586,0,0,0,2,34a2,2,0,0,0,0,4,4.69126,4.69126,0,0,1,2.707.75586A8.58468,8.58468,0,0,0,9.3291,40a8.58382,8.58382,0,0,0,4.624-1.24414A4.69237,4.69237,0,0,1,16.66113,38a4.6957,4.6957,0,0,1,2.709.75586A8.585,8.585,0,0,0,23.99512,40a8.59259,8.59259,0,0,0,4.624-1.24414,5.23415,5.23415,0,0,1,5.41895,0,9.22042,9.22042,0,0,0,9.251,0A4.70237,4.70237,0,0,1,46,38a2,2,0,0,0,0-4Z"/></g></g></svg>