<svg xmlns="http://www.w3.org/2000/svg" viewBox="0 0 48 47.99999"><defs><style>.cls-1{fill:#418fde;}</style></defs><title>Asset 796</title><g id="Layer_2" data-name="Layer 2"><g id="Icons"><rect class="cls-1" y="33.99999" width="14" height="14" rx="2"/><path class="cls-1" d="M7.75647,30.53692a2.006,2.006,0,0,0,2.46338,1.39l9.317-2.36761a2.00588,2.00588,0,0,0,1.39-2.46332L18,17.46307a2.00584,2.00584,0,0,0-2.46338-1.39L6.46313,18.75677a2.00587,2.00587,0,0,0-1.39,2.46332Z"/><rect class="cls-1" x="25" y="17.99999" width="14" height="14" rx="2"/><path class="cls-1" d="M21.76892,13.92181l10.01343,1.06476A2.006,2.006,0,0,0,34,13.23144l.98657-10.01337A2.0058,2.0058,0,0,0,33.23108,1L23.38879.01342a2.006,2.006,0,0,0-2.21765,1.75513l-1.15771,9.93518A2.00583,2.00583,0,0,0,21.76892,13.92181Z"/><rect class="cls-1" x="17" y="33.99999" width="14" height="14" rx="2"/><rect class="cls-1" x="34" y="33.99999" width="14" height="14" rx="2"/></g></g></svg>