<svg xmlns="http://www.w3.org/2000/svg" viewBox="0 0 48 48"><defs><style>.cls-1{fill:#418fde;}</style></defs><title>Asset 797</title><g id="Layer_2" data-name="Layer 2"><g id="Icons"><path class="cls-1" d="M46,20H2a1.91485,1.91485,0,0,0-2,1.81006V46.18994A1.91485,1.91485,0,0,0,2,48H36V40a3.999,3.999,0,0,1,4-4h8V21.81006A1.91485,1.91485,0,0,0,46,20ZM5.5,28A2.5,2.5,0,1,1,8,25.5,2.50091,2.50091,0,0,1,5.5,28Z"/><path class="cls-1" d="M34.5,12A4.42552,4.42552,0,0,0,39,7.65283C39,5.47974,35.31335.90247,34.61377.05347a.14778.14778,0,0,0-.22754,0C33.68665.90247,30,5.47974,30,7.65283A4.42552,4.42552,0,0,0,34.5,12Z"/><path class="cls-1" d="M21.5,12A4.42552,4.42552,0,0,0,26,7.65283C26,5.47974,22.31335.90247,21.61377.05347a.14778.14778,0,0,0-.22754,0C20.68665.90247,17,5.47974,17,7.65283A4.42552,4.42552,0,0,0,21.5,12Z"/><path class="cls-1" d="M38,40v8L48,38H40A2.00583,2.00583,0,0,0,38,40Z"/></g></g></svg>