<svg xmlns="http://www.w3.org/2000/svg" viewBox="0 0 48.00126 43.00295"><defs><style>.cls-1{fill:#418fde;}</style></defs><title>Asset 703</title><g id="Layer_2" data-name="Layer 2"><g id="Icons"><path class="cls-1" d="M27.24062,26.31294a7.9518,7.9518,0,0,1-6.48,0l-7.62,12.82a.98608.98608,0,0,0,.4,1.39,23.383,23.383,0,0,0,20.91992.02.986.986,0,0,0,.4-1.39Z"/><path class="cls-1" d="M18.63063,13.083l-7.13-12.56a.98313.98313,0,0,0-1.39-.37,22.47933,22.47933,0,0,0-10.11,17.8,1.01027,1.01027,0,0,0,1.01,1.05h14.99A7.97018,7.97018,0,0,1,18.63063,13.083Z"/><path class="cls-1" d="M37.87062.153a1.0003,1.0003,0,0,0-1.39.36l-7.12,12.56a7.98457,7.98457,0,0,1,2.64,5.93h15a1.00829,1.00829,0,0,0,1-1.05A22.41574,22.41574,0,0,0,37.87062.153Z"/><path class="cls-1" d="M22.52578,23.778a4.8487,4.8487,0,0,0,1.47485.225,5.108,5.108,0,0,0,1.4624-.21247,5.01421,5.01421,0,1,0-2.93725-.01251Z"/></g></g></svg>