<svg xmlns="http://www.w3.org/2000/svg" viewBox="0 0 47.99988 45.00055"><defs><style>.cls-1{fill:#418fde;}</style></defs><title>Asset 817</title><g id="Layer_2" data-name="Layer 2"><g id="Icons"><path class="cls-1" d="M38.49988,5.00153H16.50477L16.5011,5.001H5.12122L7.56189,2.56061A1.5,1.5,0,0,0,5.44056.43927L.443,5.43658l-.00379.00269L.4303,5.4527a1.49859,1.49859,0,0,0-.314.4729c-.0055.01318-.00745.02685-.01245.04028a1.48845,1.48845,0,0,0-.10132.52051c0,.00464-.00269.00928-.00257.01416-.00012.00439.0022.00854.00232.01294a1.49021,1.49021,0,0,0,.10218.52515c.00451.01171.00622.02392.01111.03588a1.503,1.503,0,0,0,.31884.48023l.00476.00708.00367.00244,4.99768,4.99756a1.5,1.5,0,0,0,2.12133-2.12134L5.12244,8.001h7.87378l.00366.00049h25.5a6.50752,6.50752,0,0,1,6.5,6.5v2.999a1.5,1.5,0,0,0,3,0v-2.999A9.5108,9.5108,0,0,0,38.49988,5.00153Z"/><path class="cls-1" d="M39.99988,26.66046l-14.97-11.32007a1.74148,1.74148,0,0,0-2.06006,0l-14.97,11.32007a1.52184,1.52184,0,0,0-.61,1.01l-2.39,17.33008h18v-9.71c0-.3.44995-.3999.62-.14014l5.38,9.8501h14l-2.39-17.33008A1.52189,1.52189,0,0,0,39.99988,26.66046Z"/></g></g></svg>