<svg xmlns="http://www.w3.org/2000/svg" viewBox="0 0 44 44"><defs><style>.cls-1{fill:#418fde;}</style></defs><g id="Layer_2" data-name="Layer 2"><g id="FINAL"><path class="cls-1" d="M22,0A22,22,0,1,0,44,22,22,22,0,0,0,22,0ZM34.72754,13.51465,25,23.24219v8.65722a3,3,0,0,1-6,0V22a3.0103,3.0103,0,0,1,.05927-.58752c.0177-.08924.051-.17176.07641-.25794a1.76562,1.76562,0,0,1,.24811-.59521c.04083-.074.07324-.15125.12079-.22242a3.00346,3.00346,0,0,1,.37726-.46093L30.48535,9.27246a2.99968,2.99968,0,1,1,4.24219,4.24219Z"/></g></g></svg>