<svg xmlns="http://www.w3.org/2000/svg" viewBox="0 0 36 48"><defs><style>.cls-1{fill:#418fde;}</style></defs><title>Asset 903</title><g id="Layer_2" data-name="Layer 2"><g id="Icons"><path class="cls-1" d="M34.5,41a1.5,1.5,0,0,0,0-3H31V36h3.5a1.5,1.5,0,0,0,0-3H31V31h2a2.00583,2.00583,0,0,0,2-2V2a2.00583,2.00583,0,0,0-2-2H3A2.00583,2.00583,0,0,0,1,2V29a2.00583,2.00583,0,0,0,2,2H5v2H1.5a1.5,1.5,0,0,0,0,3H5v2H1.5a1.5,1.5,0,0,0,0,3H5v2H1.5a1.5,1.5,0,0,0,0,3H5v.5a1.5,1.5,0,0,0,3,0V46H28v.5a1.5,1.5,0,0,0,3,0V46h3.5a1.5,1.5,0,0,0,0-3H31V41ZM28,31v2H8V31Zm0,5v2H8V36Zm0,5v2H8V41Zm2-13a2,2,0,1,1,2-2A2.00583,2.00583,0,0,1,30,28ZM4,7A1.00308,1.00308,0,0,1,5,6H31a1.00308,1.00308,0,0,1,1,1V19a1.00308,1.00308,0,0,1-1,1H5a1.00308,1.00308,0,0,1-1-1ZM4,26a2,2,0,1,1,2,2A2.00583,2.00583,0,0,1,4,26Z"/></g></g></svg>