<svg xmlns="http://www.w3.org/2000/svg" viewBox="0 0 47.99977 44.00079"><defs><style>.cls-1{fill:#418fde;}</style></defs><title>Asset 818</title><g id="Layer_2" data-name="Layer 2"><g id="Icons"><path class="cls-1" d="M39.99988,25.66071l-14.97-11.32007a1.74145,1.74145,0,0,0-2.06006,0l-14.97,11.32007a1.52181,1.52181,0,0,0-.61,1.01l-2.39,17.33007h18v-9.71c0-.3.44995-.3999.62-.14013l5.53,9.85009h13.85l-2.39-17.33007A1.52187,1.52187,0,0,0,39.99988,25.66071Z"/><path class="cls-1" d="M47.89527,7.03888a1.48989,1.48989,0,0,0,.10217-.52515c.00012-.00439.00244-.00854.00232-.01294.00012-.00488-.00256-.00952-.00256-.0144a1.48724,1.48724,0,0,0-.10132-.52026c-.005-.01368-.007-.0271-.01245-.04053a1.50066,1.50066,0,0,0-.314-.47266l-.00891-.01343-.00366-.00244L42.55921.43927a1.5001,1.5001,0,1,0-2.12134,2.12158l2.44067,2.44043H5.12122L7.56189,2.56085A1.5001,1.5001,0,0,0,5.44056.43927L.44288,5.43707l-.00367.00244L.4303,5.45294a1.50047,1.50047,0,0,0-.314.47266c-.0055.01343-.00745.02685-.01245.04053a1.487,1.487,0,0,0-.10132.52026c0,.00488-.00269.00952-.00257.0144-.00012.0044.0022.00855.00232.01294a1.49012,1.49012,0,0,0,.10218.52515c.00451.01172.00622.02393.01111.03564a1.50024,1.50024,0,0,0,.31884.48023l.00476.00732L.443,7.56451l4.99756,4.99756a1.5,1.5,0,0,0,2.12133-2.12134L5.12244,8.00128H42.87732l-2.43945,2.43945a1.5,1.5,0,0,0,2.12134,2.12134l4.99756-4.99756.00378-.00244.00476-.00732a1.50027,1.50027,0,0,0,.31885-.48023C47.889,7.06281,47.89075,7.0506,47.89527,7.03888Z"/></g></g></svg>