<svg xmlns="http://www.w3.org/2000/svg" viewBox="0 0 48.0014 48.00084"><defs><style>.cls-1{fill:#418fde;}</style></defs><title>Asset 956</title><g id="Layer_2" data-name="Layer 2"><g id="Icons"><path class="cls-1" d="M47.88523,16.17564l-4-14a3.00268,3.00268,0,0,0-3.709-2.06055l-14,4a3.0002,3.0002,0,1,0,1.64843,5.76953L33.2244,8.3419,23.09226,26.43443l-4.26318-4.2627a3.9992,3.9992,0,0,0-6.21045.69239l-12,19A3.99977,3.99977,0,1,0,7.3823,46.1356l9.32813-14.76855L21.17185,35.828a4.00053,4.00053,0,0,0,6.31885-.874l12.92493-23.0802,1.70007,5.95032a3.0002,3.0002,0,0,0,5.76953-1.64844Z"/></g></g></svg>