<svg xmlns="http://www.w3.org/2000/svg" viewBox="0 0 48 28"><defs><style>.cls-1{fill:#418fde;}</style></defs><title>Asset 897</title><g id="Layer_2" data-name="Layer 2"><g id="Icons"><path class="cls-1" d="M46,20V16.06006A5.0659,5.0659,0,0,0,40.93994,11H38V8.64014A8.655,8.655,0,0,0,29.36,0H9.23A5.2409,5.2409,0,0,0,4,5.23V6H3A2.99594,2.99594,0,0,0,0,9v7a2.00583,2.00583,0,0,0,2,2H4v2H3.99a1.95419,1.95419,0,0,0-1.40991.58984A1.99411,1.99411,0,0,0,3.99,24H8.03a2.7106,2.7106,0,0,1-.01-.29,1.27458,1.27458,0,0,1-.01-.20019,6.495,6.495,0,0,1,12.99,0,1.27458,1.27458,0,0,1-.01.20019,2.7106,2.7106,0,0,1-.01.29h9.05a2.7106,2.7106,0,0,1-.01-.29,1.27458,1.27458,0,0,1-.01-.20019,6.495,6.495,0,0,1,12.99,0,1.27458,1.27458,0,0,1-.01.20019,2.7106,2.7106,0,0,1-.01.29H46a2.01444,2.01444,0,0,0,2-2A2.00583,2.00583,0,0,0,46,20ZM27,9.3501V4h2.28c.15991,0,.31995.00977.48.02a2.63261,2.63261,0,0,1,.40991.06006,4.73839,4.73839,0,0,1,3.75,3.75,2.69336,2.69336,0,0,1,.06006.41015c.01.15967.02.31983.02.4795V11H27ZM11,14a2.96288,2.96288,0,0,1-1.86-.6499,2.8832,2.8832,0,0,1-.26-.23,2.93207,2.93207,0,0,1-.85-1.77A1.97981,1.97981,0,0,1,8,11V5A1.003,1.003,0,0,1,9,4a.34734.34734,0,0,1,.1.00977A.99872.99872,0,0,1,10,5v6a.84134.84134,0,0,0,.07007.3501.99026.99026,0,0,0,1.85986,0A.84134.84134,0,0,0,12,11V5a1,1,0,0,1,2,0v6a1.97981,1.97981,0,0,1-.03.3501A2.99106,2.99106,0,0,1,11,14Zm6,0a.98789.98789,0,0,1-.92993-.6499A.84134.84134,0,0,1,16,13V5a.99891.99891,0,0,1,.72-.96A.89565.89565,0,0,1,17,4a1.00122,1.00122,0,0,1,.85.46973L20.9,9.3501l.1.15967V5a1,1,0,0,1,2,0v8a.98505.98505,0,0,1-.72.96A.93837.93837,0,0,1,22,14a1.00058,1.00058,0,0,1-.85-.47021l-.11-.17969-1.25-2-.22-.3501L18.54,9.3501,18,8.49023V13a.84134.84134,0,0,1-.07007.3501A.98789.98789,0,0,1,17,14Z"/><path class="cls-1" d="M17.31006,20A4.46809,4.46809,0,0,0,11.7,20,4.47783,4.47783,0,0,0,10.01,23.50977a1.33815,1.33815,0,0,0,.01.20019c0,.1001.01.18994.01.29a4.50317,4.50317,0,0,0,8.95,0c0-.1001.01-.18994.01-.29a1.33815,1.33815,0,0,0,.01-.20019A4.47783,4.47783,0,0,0,17.31006,20Z"/><path class="cls-1" d="M39.31006,20A4.46809,4.46809,0,0,0,33.7,20,4.47783,4.47783,0,0,0,32.01,23.50977a1.33815,1.33815,0,0,0,.01.20019c0,.1001.01.18994.01.29a4.50317,4.50317,0,0,0,8.95,0c0-.1001.01-.18994.01-.29a1.33815,1.33815,0,0,0,.01-.20019A4.47783,4.47783,0,0,0,39.31006,20Z"/></g></g></svg>