<svg xmlns="http://www.w3.org/2000/svg" viewBox="0 0 48 48"><defs><style>.cls-1{fill:#418fde;}</style></defs><title>Asset 938</title><g id="Layer_2" data-name="Layer 2"><g id="Icons"><path class="cls-1" d="M40.12109,14.87891l-14-14a2.99889,2.99889,0,0,0-4.24218,0l-14,14a2.99967,2.99967,0,1,0,4.24218,4.24218L21,10.24219V36a3,3,0,0,0,6,0V10.24219l8.87891,8.8789a2.99967,2.99967,0,1,0,4.24218-4.24218Z"/><path class="cls-1" d="M45.79883,34H30v2a6,6,0,0,1-12,0V34H2.20111A2.37333,2.37333,0,0,0,0,36.51428v8.97144A2.37333,2.37333,0,0,0,2.20111,48H45.79883A2.37347,2.37347,0,0,0,48,45.48572V36.51428A2.37347,2.37347,0,0,0,45.79883,34ZM36,43a2,2,0,1,1,2-2A2.00006,2.00006,0,0,1,36,43Zm7,0a2,2,0,1,1,2-2A2.00006,2.00006,0,0,1,43,43Z"/></g></g></svg>