<svg xmlns="http://www.w3.org/2000/svg" viewBox="0 0 48 48"><defs><style>.cls-1{fill:#418fde;}</style></defs><title>Asset 716</title><g id="Layer_2" data-name="Layer 2"><g id="Icons"><path class="cls-1" d="M46.92993,16H45V13.06A1.05417,1.05417,0,0,0,43.93994,12H41.99988V1.5a1.5,1.5,0,0,0-3,0V12H37.06006A1.05417,1.05417,0,0,0,36,13.06V16H34.07007A1.0712,1.0712,0,0,0,33,17.07V45H29V3a1.00291,1.00291,0,0,0-1-1H16a1.00291,1.00291,0,0,0-1,1V45H8V38.7876a5.5,5.5,0,1,0-3,0V45H0v3H48V17.07A1.0712,1.0712,0,0,0,46.92993,16ZM42,31.5a.49511.49511,0,0,1,.5-.5h2a.49511.49511,0,0,1,.5.5v2a.49511.49511,0,0,1-.5.5h-2a.49511.49511,0,0,1-.5-.5ZM44.5,28h-2a.49511.49511,0,0,1-.5-.5v-2a.49511.49511,0,0,1,.5-.5h2a.49511.49511,0,0,1,.5.5v2A.49511.49511,0,0,1,44.5,28Zm0-6h-2a.49511.49511,0,0,1-.5-.5v-2a.49511.49511,0,0,1,.5-.5h2a.49511.49511,0,0,1,.5.5v2A.49511.49511,0,0,1,44.5,22ZM36,19.5a.49511.49511,0,0,1,.5-.5h2a.49511.49511,0,0,1,.5.5v2a.49511.49511,0,0,1-.5.5h-2a.49511.49511,0,0,1-.5-.5Zm0,6a.49511.49511,0,0,1,.5-.5h2a.49511.49511,0,0,1,.5.5v2a.49511.49511,0,0,1-.5.5h-2a.49511.49511,0,0,1-.5-.5Zm0,6a.49511.49511,0,0,1,.5-.5h2a.49511.49511,0,0,1,.5.5v2a.49511.49511,0,0,1-.5.5h-2a.49511.49511,0,0,1-.5-.5ZM19,8a1.00291,1.00291,0,0,1,1-1h4a1.00291,1.00291,0,0,1,1,1V9a1.00291,1.00291,0,0,1-1,1H20a1.00291,1.00291,0,0,1-1-1Zm0,8a1.00291,1.00291,0,0,1,1-1h4a1.00291,1.00291,0,0,1,1,1v1a1.00291,1.00291,0,0,1-1,1H20a1.00291,1.00291,0,0,1-1-1Zm0,8a1.00291,1.00291,0,0,1,1-1h4a1.00291,1.00291,0,0,1,1,1v1a1.00291,1.00291,0,0,1-1,1H20a1.00291,1.00291,0,0,1-1-1Zm0,21V40a1.00291,1.00291,0,0,1,1-1h4a1.00291,1.00291,0,0,1,1,1v5Zm23,0V40a1.00291,1.00291,0,0,1,1-1h1a1.00291,1.00291,0,0,1,1,1v5Z"/></g></g></svg>