<svg xmlns="http://www.w3.org/2000/svg" viewBox="0 0 48 48"><defs><style>.a{fill:#418fde;}</style></defs><path class="a" d="M46,22H41.88a17.87762,17.87762,0,0,0-3.81994-9.23l3.34985-3.36011A1.994,1.994,0,0,0,38.59009,6.59L35.23,9.93994A17.87762,17.87762,0,0,0,26,6.12V2a2,2,0,0,0-4,0V6.12a17.87762,17.87762,0,0,0-9.23,3.81994L9.40991,6.59A1.994,1.994,0,0,0,6.59009,9.40991L9.93994,12.77A17.87762,17.87762,0,0,0,6.12,22H2a2,2,0,0,0,0,4H6.12a17.87762,17.87762,0,0,0,3.81994,9.23L6.59009,38.59a1.994,1.994,0,1,0,2.81982,2.81994L12.77,38.06006A17.87762,17.87762,0,0,0,22,41.88V46a2,2,0,0,0,4,0V41.88a17.87762,17.87762,0,0,0,9.23-3.81994l3.36011,3.34985A1.994,1.994,0,0,0,41.40991,38.59l-3.34985-3.36A17.87762,17.87762,0,0,0,41.88,26H46a2,2,0,0,0,0-4ZM15.5,22A2.5,2.5,0,1,1,18,19.5,2.50091,2.50091,0,0,1,15.5,22ZM28,34a5,5,0,1,1,5-5A5.00181,5.00181,0,0,1,28,34Z"/></svg>