<svg xmlns="http://www.w3.org/2000/svg" viewBox="0 0 48 48"><defs><style>.cls-1{fill:#418fde;}</style></defs><title>Asset 707</title><g id="Layer_2" data-name="Layer 2"><g id="Icons"><path class="cls-1" d="M47.85445,47.15717,29.28573,29.588a1.94066,1.94066,0,0,0-2.47593-.25324,4.87219,4.87219,0,0,1-5.6196,0,1.94066,1.94066,0,0,0-2.47593.25324L.14555,47.15717A.49375.49375,0,0,0,.49461,48H47.50539A.49375.49375,0,0,0,47.85445,47.15717Z"/><path class="cls-1" d="M25,24.5a1.5,1.5,0,0,0,3,0l-.002-8.05a6.1459,6.1459,0,0,1,5.832-6.44531,4.617,4.617,0,0,1,4.84179,4.38037,3.3942,3.3942,0,0,1-3.2207,3.55908,2.39845,2.39845,0,0,1-2.53222-2.2915,1.49994,1.49994,0,0,0-2.9961.15039,5.42365,5.42365,0,0,0,5.67871,5.13721A6.393,6.393,0,0,0,41.668,14.23517a7.615,7.615,0,0,0-7.98828-7.22656A9.14287,9.14287,0,0,0,25,16.52472Z"/><path class="cls-1" d="M14.15916,11.87667a1.49995,1.49995,0,0,0,.14928-2.9961,2.468,2.468,0,0,1-2.3275-2.59131A3.44779,3.44779,0,0,1,15.5861,3.00362a4.71689,4.71689,0,0,1,4.42818,5.00781V24.5a1.489,1.489,0,1,0,2.978,0L22.99031,8.08614A7.69107,7.69107,0,0,0,15.73539.00752,6.43359,6.43359,0,0,0,9.00684,6.13985,5.46206,5.46206,0,0,0,14.15916,11.87667Z"/></g></g></svg>