<svg xmlns="http://www.w3.org/2000/svg" viewBox="0 0 47.99976 48"><defs><style>.cls-1{fill:#418fde;}</style></defs><title>Asset 962</title><g id="Layer_2" data-name="Layer 2"><g id="Icons"><path class="cls-1" d="M42.31958,31.16577c1.24414,1.69458,5.68018,7.9513,5.68018,10.81055a6,6,0,1,1-12,0c0-2.85925,4.436-9.116,5.67993-10.81055A.39172.39172,0,0,1,42.31958,31.16577Z"/><path class="cls-1" d="M2,1H4.99976a2.0001,2.0001,0,0,1,2,2V8H18.99963V3H14.49976a1.5,1.5,0,0,1,0-3h14a1.5,1.5,0,0,1,0,3H23.99988V8H34.14722A11.86611,11.86611,0,0,1,45.99976,19.85254V22h1a1.00005,1.00005,0,0,1,1,1v3a1.00005,1.00005,0,0,1-1,1h-10a1,1,0,0,1-1-1V23a1,1,0,0,1,1-1h1V19.85254A3.857,3.857,0,0,0,34.14722,16H6.99976v5a2.0001,2.0001,0,0,1-2,2H2a2.0001,2.0001,0,0,1-2-2V3A2.0001,2.0001,0,0,1,2,1Z"/></g></g></svg>