<svg xmlns="http://www.w3.org/2000/svg" viewBox="0 0 47.99998 48.0497"><defs><style>.a{fill:#418fde;}</style></defs><path class="a" d="M47.90173,19.42011A30.56947,30.56947,0,0,0,28.61755.09687a2.00026,2.00026,0,0,0-1.23632,3.80469A26.49621,26.49621,0,0,1,44.09705,20.65644a2.00026,2.00026,0,1,0,3.80468-1.23633Z"/><path class="a" d="M25.767,7.1916A1.99985,1.99985,0,0,0,24.23181,10.885a22.543,22.543,0,0,1,12.91992,12.918,1.99963,1.99963,0,0,0,3.69532-1.52929A26.64282,26.64282,0,0,0,25.767,7.1916Z"/><path class="a" d="M22.97986,14.29511a2,2,0,0,0-1.96094,3.48633A23.00077,23.00077,0,0,1,30.2572,27.0207a2.0001,2.0001,0,0,0,3.48438-1.96485A27.14462,27.14462,0,0,0,22.97986,14.29511Z"/><path class="a" d="M21.58765,23.63081l-1.34327,1.392-7.7323-6.79a.80761.80761,0,0,0-1.02416,0L.14392,28.19423A.41482.41482,0,0,0,0,28.49452V48.0497H9V40.6288a1.579,1.579,0,0,1,1.57892-1.5791h2.84216A1.579,1.579,0,0,1,15,40.6288v7.4209h9V28.49452a.41482.41482,0,0,0-.14392-.30029l-.60858-.53418,1.16-1.20893a1.99409,1.99409,0,0,0-2.81982-2.82031Z"/></svg>