<svg xmlns="http://www.w3.org/2000/svg" viewBox="0 0 32 44"><defs><style>.cls-1{fill:#418fde;}</style></defs><title>Asset 959</title><g id="Layer_2" data-name="Layer 2"><g id="Icons"><path class="cls-1" d="M30,0H25V3H22V6h3V9H22v3h3v9a1.00288,1.00288,0,0,1-1,1H19a1.00288,1.00288,0,0,1-1-1V15h3V12H18V9h3V6H18V3h3V0H2A2.00583,2.00583,0,0,0,0,2V42a2.00591,2.00591,0,0,0,2,2H21V37a3.999,3.999,0,0,1,4-4h7V2A2.00583,2.00583,0,0,0,30,0Z"/><path class="cls-1" d="M23,37v7l9-9H25A2.00583,2.00583,0,0,0,23,37Z"/><rect class="cls-1" x="20" y="17" width="3" height="3"/></g></g></svg>