<svg height='100px' width='100px'  fill="#b3b3b3" xmlns="http://www.w3.org/2000/svg" xmlns:xlink="http://www.w3.org/1999/xlink" version="1.1" x="0px" y="0px" viewBox="0 0 64 64" style="enable-background:new 0 0 64 64;" xml:space="preserve"><g><path d="M49,1c-1.433,0-14,0.112-14,4v6h-8V4c0-1.654-1.346-3-3-3H4C2.346,1,1,2.346,1,4v16c0,1.654,1.346,3,3,3h9v4H4   c-1.654,0-3,1.346-3,3v16c0,1.654,1.346,3,3,3h9v2.184c-1.161,0.414-2,1.514-2,2.816c0,1.654,1.346,3,3,3   c1.302,0,2.402-0.839,2.816-2H36v5c0,1.654,1.346,3,3,3h20c1.654,0,3-1.346,3-3V44c0-1.654-1.346-3-3-3h-9v-4.184   c1.161-0.414,2-1.514,2-2.816s-0.839-2.402-2-2.816v-4.196c3.353-0.074,13-0.581,13-3.988V5C63,1.112,50.433,1,49,1z M61,10.923   C60.515,11.681,56.169,13,49,13s-11.515-1.319-12-2.077V7.271C40.607,8.937,47.927,9,49,9s8.393-0.063,12-1.729V10.923z M61,16.923   C60.515,17.681,56.169,19,49,19s-11.515-1.319-12-2.077v-3.652C40.607,14.937,47.927,15,49,15s8.393-0.063,12-1.729V16.923z M49,3   c6.93,0,11.229,1.233,11.945,2C60.229,5.767,55.93,7,49,7S37.771,5.767,37.055,5C37.771,4.233,42.07,3,49,3z M4,3h20   c0.552,0,1,0.448,1,1v5H3V4C3,3.448,3.448,3,4,3z M3,20v-9h22v9c0,0.552-0.448,1-1,1H4C3.448,21,3,20.552,3,20z M15,23h9   c1.654,0,3-1.346,3-3v-7h8v10c0,3.406,9.647,3.914,13,3.988v4.196c-0.847,0.302-1.514,0.969-1.816,1.816H27v-3c0-1.654-1.346-3-3-3   h-9V23z M4,29h20c0.552,0,1,0.448,1,1v5H3v-5C3,29.448,3.448,29,4,29z M3,46v-9h22v9c0,0.552-0.448,1-1,1H4C3.448,47,3,46.552,3,46   z M14,55c-0.552,0-1-0.448-1-1s0.448-1,1-1s1,0.448,1,1S14.552,55,14,55z M59,61H39c-0.552,0-1-0.448-1-1v-9h22v9   C60,60.552,59.552,61,59,61z M60,44v5H38v-5c0-0.552,0.448-1,1-1h20C59.552,43,60,43.448,60,44z M39,41c-1.654,0-3,1.346-3,3v9   H16.816c-0.302-0.847-0.969-1.514-1.816-1.816V49h9c1.654,0,3-1.346,3-3V35h19.184c0.302,0.847,0.969,1.514,1.816,1.816V41H39z    M49,35c-0.552,0-1-0.448-1-1s0.448-1,1-1s1,0.448,1,1S49.552,35,49,35z M49,25c-7.14,0-11.485-1.309-12-2.068v-3.661   C40.607,20.937,47.927,21,49,21s8.393-0.063,12-1.729v3.661C60.485,23.691,56.14,25,49,25z"></path><rect x="13" y="5" width="2" height="2"></rect><rect x="5" y="5" width="2" height="2"></rect><rect x="9" y="5" width="2" height="2"></rect><rect x="13" y="31" width="2" height="2"></rect><rect x="5" y="31" width="2" height="2"></rect><rect x="9" y="31" width="2" height="2"></rect><rect x="40" y="45" width="2" height="2"></rect><rect x="48" y="45" width="2" height="2"></rect><rect x="44" y="45" width="2" height="2"></rect><path d="M43,53c-1.654,0-3,1.346-3,3s1.346,3,3,3s3-1.346,3-3S44.654,53,43,53z M43,57c-0.552,0-1-0.448-1-1s0.448-1,1-1   s1,0.448,1,1S43.552,57,43,57z"></path><rect x="48" y="53" width="10" height="2"></rect><rect x="48" y="57" width="6" height="2"></rect><rect x="56" y="57" width="2" height="2"></rect><rect x="5" y="39" width="2" height="2"></rect><rect x="9" y="39" width="14" height="2"></rect><rect x="5" y="43" width="18" height="2"></rect><path d="M17,19h6v-6h-6V19z M19,15h2v2h-2V15z"></path><rect x="5" y="13" width="10" height="2"></rect><rect x="5" y="17" width="6" height="2"></rect><rect x="13" y="17" width="2" height="2"></rect></g></svg>