<svg height='100px' width='100px'  fill="#000000" xmlns="http://www.w3.org/2000/svg" xmlns:xlink="http://www.w3.org/1999/xlink" version="1.1" x="0px" y="0px" viewBox="0 0 100 100" enable-background="new 0 0 100 100" xml:space="preserve"><path d="M62.33,56.674c-0.778-0.778-1.803-1.168-2.829-1.168c-1.025,0-2.05,0.39-2.828,1.167l-6.364,6.365L36.874,49.603  l6.364-6.364c1.556-1.556,1.556-4.102,0-5.656l-1.415-1.414C41.046,35.39,40.021,35,38.995,35c-1.025,0-2.05,0.39-2.828,1.167  l-6.364,6.364l-6.275-6.275l-4.641,4.641C8.138,51.646,7.794,68.86,17.854,80.024l-6.392,6.392c-0.586,0.585-0.586,1.535,0,2.121  c0.585,0.586,1.536,0.586,2.121,0l6.392-6.392c5.397,4.864,12.208,7.296,19.02,7.296c7.278,0,14.556-2.775,20.108-8.328l4.641-4.641  l-6.364-6.364l6.364-6.364c1.556-1.556,1.556-4.102,0-5.656L62.33,56.674z M38.288,38.288c0.25-0.25,0.551-0.288,0.708-0.288  c0.156,0,0.456,0.038,0.707,0.289l1.415,1.414c0.25,0.25,0.288,0.55,0.288,0.707c0,0.156-0.038,0.456-0.289,0.707l-6.363,6.364  l-2.829-2.828L38.288,38.288z M56.982,78.992c-4.804,4.804-11.192,7.449-17.987,7.449c-6.794,0-13.183-2.646-17.986-7.449  c-9.918-9.918-9.918-26.057-0.001-35.975l2.52-2.52l35.974,35.975L56.982,78.992z M61.623,61.623l-6.364,6.364l-2.828-2.828  l6.364-6.365c0.25-0.25,0.551-0.288,0.708-0.288c0.156,0,0.456,0.038,0.707,0.289l1.415,1.414c0.25,0.25,0.288,0.55,0.288,0.707  C61.911,61.072,61.874,61.372,61.623,61.623z"></path><path d="M81.113,59.104c10.749-10.749,11.092-27.964,1.031-39.127l6.393-6.393c0.586-0.586,0.586-1.536,0-2.121  c-0.585-0.586-1.536-0.586-2.121,0l-6.393,6.393c-5.396-4.863-12.208-7.297-19.019-7.297c-7.279,0-14.555,2.775-20.108,8.328  l-4.641,4.641l40.217,40.217L81.113,59.104z M43.018,21.008c4.805-4.804,11.192-7.449,17.987-7.449  c6.795,0,13.183,2.646,17.987,7.45s7.45,11.192,7.45,17.987s-2.646,13.182-7.449,17.986l-2.52,2.52L40.499,23.527L43.018,21.008z"></path><path d="M24.315,26.619c0.585,0.586,1.536,0.586,2.121,0c0.586-0.586,0.586-1.536,0-2.121l-6-6c-0.585-0.586-1.536-0.586-2.121,0  c-0.586,0.585-0.586,1.535,0,2.121L24.315,26.619z"></path><path d="M30.375,22.543c0.829,0,1.5-0.672,1.5-1.5v-8.484c0-0.829-0.671-1.5-1.5-1.5s-1.5,0.671-1.5,1.5v8.484  C28.875,21.871,29.547,22.543,30.375,22.543z"></path><path d="M12.891,32.059h8.484c0.829,0,1.5-0.672,1.5-1.5c0-0.829-0.671-1.5-1.5-1.5h-8.484c-0.829,0-1.5,0.671-1.5,1.5  C11.391,31.387,12.063,32.059,12.891,32.059z"></path><path d="M75.502,73.498c-0.585-0.586-1.536-0.586-2.121,0c-0.586,0.585-0.586,1.535,0,2.121l6,6c0.585,0.586,1.536,0.586,2.121,0  c0.586-0.586,0.586-1.536,0-2.121L75.502,73.498z"></path><path d="M69.441,77.574c-0.829,0-1.5,0.671-1.5,1.5v8.484c0,0.828,0.671,1.5,1.5,1.5s1.5-0.672,1.5-1.5v-8.484  C70.941,78.245,70.27,77.574,69.441,77.574z"></path><path d="M86.926,68.059h-8.484c-0.829,0-1.5,0.671-1.5,1.5c0,0.828,0.671,1.5,1.5,1.5h8.484c0.829,0,1.5-0.672,1.5-1.5  C88.426,68.729,87.754,68.059,86.926,68.059z"></path></svg>