<svg height='100px' width='100px'  fill="#f3f3f3" xmlns="http://www.w3.org/2000/svg" xmlns:xlink="http://www.w3.org/1999/xlink" version="1.1" x="0px" y="0px" viewBox="0 0 24 24" style="enable-background:new 0 0 24 24;" xml:space="preserve"><g><rect x="10" y="15" width="2" height="1"></rect><path d="M14,16h0.5c0.825,0,1.5-0.675,1.5-1.5V14h-1v0.5c0,0.271-0.229,0.5-0.5,0.5H14V16z"></path><path d="M3.5,15C3.229,15,3,14.771,3,14.5v-11C3,3.229,3.229,3,3.5,3h11C14.771,3,15,3.229,15,3.5V8h1V3.5   C16,2.675,15.325,2,14.5,2h-11C2.675,2,2,2.675,2,3.5v11C2,15.325,2.675,16,3.5,16H8v-1H3.5z"></path><rect x="15" y="10" width="1" height="2"></rect><rect x="8" y="12" width="1" height="2"></rect><path d="M9,9.5C9,9.229,9.229,9,9.5,9H10V8H9.5C8.675,8,8,8.675,8,9.5V10h1V9.5z"></path><path d="M20.5,8H16v1h4.5C20.771,9,21,9.229,21,9.5v11c0,0.271-0.229,0.5-0.5,0.5h-11C9.229,21,9,20.771,9,20.5V16H8v4.5   C8,21.325,8.675,22,9.5,22h11c0.825,0,1.5-0.675,1.5-1.5v-11C22,8.675,21.325,8,20.5,8z"></path><rect x="12" y="8" width="2" height="1"></rect></g></svg>