<svg height='100px' width='100px'  fill="#b3b3b3" xmlns="http://www.w3.org/2000/svg" xmlns:xlink="http://www.w3.org/1999/xlink" version="1.1" x="0px" y="0px" viewBox="0 0 25 25" enable-background="new 0 0 25 25" xml:space="preserve"><g><g><path d="M16,12.5h-5V12c0-0.827,0.673-1.5,1.5-1.5c0.285,0,0.562,0.08,0.801,0.231c0.235,0.146,0.542,0.078,0.69-0.155    c0.147-0.234,0.078-0.543-0.156-0.69C13.436,9.634,12.974,9.5,12.5,9.5c-1.378,0-2.5,1.121-2.5,2.5v0.5H9    c-0.276,0-0.5,0.224-0.5,0.5v3c0,0.276,0.224,0.5,0.5,0.5h7c0.276,0,0.5-0.224,0.5-0.5v-3C16.5,12.724,16.276,12.5,16,12.5z     M15.5,15.5h-6v-2h6V15.5z"></path><path d="M20,2.5H5C3.622,2.5,2.5,3.621,2.5,5v15c0,1.379,1.122,2.5,2.5,2.5h15c1.378,0,2.5-1.121,2.5-2.5V5    C22.5,3.621,21.378,2.5,20,2.5z M21.5,20c0,0.827-0.673,1.5-1.5,1.5H5c-0.827,0-1.5-0.673-1.5-1.5V5c0-0.827,0.673-1.5,1.5-1.5h15    c0.827,0,1.5,0.673,1.5,1.5V20z"></path><path d="M7,4.5H5C4.724,4.5,4.5,4.724,4.5,5S4.724,5.5,5,5.5h2c0.276,0,0.5-0.224,0.5-0.5S7.276,4.5,7,4.5z"></path><path d="M9,5.5h2c0.276,0,0.5-0.224,0.5-0.5S11.276,4.5,11,4.5H9C8.724,4.5,8.5,4.724,8.5,5S8.724,5.5,9,5.5z"></path></g></g></svg>