<svg height='100px' width='100px'  fill="#000000" xmlns="http://www.w3.org/2000/svg" xmlns:xlink="http://www.w3.org/1999/xlink" version="1.1" x="0px" y="0px" viewBox="0 0 66 66" style="enable-background:new 0 0 66 66;" xml:space="preserve"><g><g><path d="M65.5,64.1L61.9,62c-0.8-0.5-1.8-0.5-2.7-0.1l-3.3,1.7c-0.3,0.1-0.6,0.1-0.9-0.1l-1.5-1.2c-0.9-0.7-2.1-0.8-3.1-0.3    l-3,1.6c-0.3,0.1-0.6,0.1-0.8,0l-2.5-1.6c-0.8-0.5-1.9-0.6-2.8-0.1l-3.2,1.7c-0.2,0.1-0.6,0.1-0.8,0L34.6,62    c-0.8-0.5-1.9-0.5-2.7-0.1l-3.2,1.7c-0.2,0.1-0.5,0.1-0.8,0L25.1,62c-0.9-0.5-1.9-0.5-2.8,0l-2.9,1.6c-0.3,0.1-0.6,0.1-0.8,0    l-2.1-1.4c-0.8-0.6-1.9-0.6-2.8-0.2l-3.4,1.7c-0.2,0.1-0.5,0.1-0.8,0l-2.6-1.6c-0.9-0.5-2-0.5-2.9,0l-3.5,2.1    C0,64.4-0.1,65,0.1,65.5C0.4,66,1,66.1,1.5,65.9L5,63.8c0.3-0.2,0.6-0.2,0.8,0l2.6,1.6c0.8,0.5,1.8,0.5,2.7,0.1l3.4-1.7    c0.3-0.1,0.6-0.1,0.8,0.1l2.1,1.4c0.9,0.6,2,0.6,2.9,0.1l2.9-1.6c0.3-0.1,0.6-0.1,0.8,0l2.8,1.6c0.8,0.5,1.9,0.5,2.7,0.1l3.2-1.7    c0.2-0.1,0.6-0.1,0.8,0l2.7,1.6c0.8,0.5,1.9,0.5,2.7,0.1l3.2-1.7c0.3-0.1,0.6-0.1,0.8,0l2.5,1.6c0.8,0.5,1.9,0.5,2.8,0.1l3-1.6    c0.3-0.1,0.6-0.1,0.9,0.1l1.5,1.2c0.9,0.7,2,0.8,3,0.3l3.3-1.7c0.2-0.1,0.5-0.1,0.8,0l3.7,2.1c0.5,0.3,1.1,0.1,1.4-0.4    C66.1,65,66,64.4,65.5,64.1z"></path></g><g><path d="M20.6,35.1c1.7,0,3.1-1.4,3.1-3.1s-1.4-3.1-3.1-3.1c-1.7,0-3.1,1.4-3.1,3.1S18.9,35.1,20.6,35.1z M20.6,30.9    c0.6,0,1.1,0.5,1.1,1.1c0,0.6-0.5,1.1-1.1,1.1c-0.6,0-1.1-0.5-1.1-1.1C19.5,31.4,20,30.9,20.6,30.9z"></path></g><g><path d="M65.1,26.1l-3.4-0.5c-0.3-1.4-0.9-2.8-1.7-4l2.1-2.7c0.3-0.4,0.3-1.1-0.1-1.4l-2.7-2.7c-0.4-0.4-0.9-0.4-1.3-0.1l-2.7,2.1    c-1.3-0.8-2.6-1.3-4-1.7l-0.5-3.4c-0.1-0.5-0.5-0.9-1-0.9h-3.9c-0.5,0-0.9,0.4-1,0.9l-0.5,3.4c-1.4,0.3-2.8,0.9-4,1.7l-2.7-2.1    c-0.4-0.3-1-0.3-1.3,0.1l-1.5,1.5c0-2.5,0-5.4,0-15.3c0-0.6-0.4-1-1-1C22,0,26.5,0,14.7,0c-0.6,0-1,0.4-1,1v15.8H8.8    c-0.6,0-1,0.4-1,1v11.5l-6.7,3.1c-0.2,0.1-0.4,0.3-0.5,0.6c-0.1,0.3-0.1,0.5,0.1,0.8l7.2,13.5v1.7c0,3.1,1.3,6.1,3.6,8.2l-1.2,0.6    c-0.3,0.1-0.6,0.1-0.8,0l-2.7-1.6c-0.9-0.5-2-0.5-2.9,0l-3.5,2.1c-0.5,0.3-0.6,0.9-0.3,1.4C0.4,60.2,1,60.3,1.5,60L5,57.9    c0.3-0.2,0.6-0.2,0.8,0l2.7,1.6c0.8,0.5,1.8,0.5,2.7,0.1l2.6-1.3c0,0,0,0,0,0l0.8-0.4c0.3-0.1,0.6-0.1,0.8,0.1l2.1,1.4    c0.9,0.6,2,0.6,2.9,0.1l2.9-1.6c0.2-0.1,0.6-0.1,0.8,0l2.8,1.6c0.8,0.5,1.9,0.5,2.7,0l3.2-1.7c0.2-0.1,0.5-0.1,0.8,0l2.7,1.6    c0.8,0.5,1.9,0.5,2.8,0.1l3.2-1.7c0.2-0.1,0.6-0.1,0.8,0l2.5,1.5c0.8,0.5,1.9,0.6,2.8,0.1l3-1.6c0.3-0.1,0.6-0.1,0.9,0.1l1.5,1.2    c0.9,0.7,2,0.8,3,0.3l2.6-1.3c0.7-0.4,1.5-0.3,2.2,0.1l2.9,1.8c0.5,0.3,1.1,0.1,1.4-0.3c0.3-0.5,0.1-1.1-0.3-1.4l-2.9-1.8    c-1.3-0.8-2.8-0.8-4.2-0.1l-2.6,1.3c-0.3,0.1-0.6,0.1-0.9-0.1l-1.5-1.2c-0.9-0.7-2.1-0.8-3.1-0.3l-3,1.6c-0.2,0.1-0.5,0.1-0.8,0    L44,56.2c-0.2-0.1-0.4-0.2-0.5-0.2c1.5-2,2.3-4.4,2.3-6.9v-1.4l0.3-0.5h3.7c0.5,0,0.9-0.4,1-0.9l0.5-3.4c1.4-0.3,2.8-0.9,4-1.7    l2.7,2.1c0.2,0.1,0.4,0.2,0.7,0.2c0.3,0,0.6-0.1,0.8-0.3l2.7-2.7c0.4-0.4,0.4-0.9,0.1-1.3L60,36.4c0.8-1.3,1.3-2.6,1.7-4l3.4-0.5    c0.5-0.1,0.9-0.5,0.9-1v-3.9C66,26.6,65.6,26.1,65.1,26.1z M30.5,31.9l3.4,0.5c0.3,1.4,0.9,2.8,1.7,4l-2.1,2.7    c-0.3,0.4-0.3,1,0.1,1.3l2.7,2.7c0.4,0.4,0.9,0.4,1.3,0.1l2.7-2.1c1.3,0.8,2.6,1.3,4,1.7l0.3,2.5l-0.4,0.7H27.9v-23l5.7,2.5    l-3.1,0.4c-0.5,0.1-0.9,0.5-0.9,1v3.9C29.6,31.4,30,31.9,30.5,31.9z M15.7,6.5h5v0.9c0,0.6,0.4,1,1,1h5.3c0.6,0,1-0.4,1-1V6.5h5    v10.3H15.7V6.5z M32.8,4.5h-5V2h5V4.5z M25.9,2v4.5h-3.3V5.5c0,0,0,0,0,0c0,0,0,0,0,0V2H25.9z M20.6,2v2.5h-5V2H20.6z M9.8,18.8    h23.7l2.1,2.7c-0.4,0.7-0.8,1.5-1.1,2.3l-7.1-3.2c0,0-0.1,0-0.1,0c0,0,0,0,0,0c-0.3-0.1-0.5-0.1-0.8,0L9.8,28.4V18.8z M2.9,33.8    c3.9-1.8,3.6-1.6,23-10.7v23H9.5L2.9,33.8z M38.8,57.5c-0.5,0.3-1,0.6-1.5,0.3l-2.7-1.6c-0.8-0.5-1.9-0.5-2.7-0.1l-3.2,1.7    c-0.2,0.1-0.6,0.1-0.8,0l-2.8-1.6c-0.9-0.5-1.9-0.5-2.8,0l-2.9,1.6c-0.3,0.1-0.6,0.1-0.9,0l-2.1-1.4c-0.8-0.6-1.9-0.6-2.8-0.2    l-0.3,0.1c-2.2-1.7-3.6-4.3-3.6-7.2v-1h33.9v1C43.8,52.6,41.8,56,38.8,57.5z M64,30.1l-3.3,0.4c-0.4,0.1-0.8,0.4-0.9,0.8    c-0.3,1.7-1,3.2-1.9,4.6c-0.2,0.4-0.2,0.8,0,1.2l2,2.6l-1.5,1.5l-2.6-2c-0.3-0.3-0.8-0.3-1.2,0c-1.4,0.9-2.9,1.6-4.6,1.9    c-0.4,0.1-0.7,0.4-0.8,0.9l-0.4,3.3h-2.1l-0.4-3.3c-0.1-0.4-0.4-0.8-0.8-0.9c-1.7-0.3-3.2-1-4.6-1.9c-0.4-0.2-0.8-0.2-1.2,0    l-2.6,2l-1.5-1.5l2-2.6c0.3-0.3,0.3-0.9,0-1.3c-0.9-1.4-1.6-2.9-1.9-4.6c-0.1-0.4-0.4-0.7-0.9-0.8l-3.3-0.4v-2.1l3.3-0.4    c0.4-0.1,0.8-0.4,0.9-0.8c0-0.3,0.1-0.5,0.2-0.7c0.2-0.2,0.3-0.5,0.2-0.9c0.4-1.1,0.8-2.1,1.5-3c0.2-0.4,0.2-0.8,0-1.2l-2-2.6    l1.5-1.5l2.6,2c0.3,0.3,0.9,0.3,1.3,0c1.4-0.9,2.9-1.6,4.6-1.9c0.4-0.1,0.7-0.4,0.8-0.9l0.4-3.3h2.1l0.4,3.3    c0.1,0.4,0.4,0.8,0.8,0.9c1.7,0.3,3.2,1,4.6,1.9c0.4,0.2,0.8,0.2,1.2,0l2.6-2l1.5,1.5l-2,2.6c-0.3,0.3-0.3,0.8,0,1.2    c0.9,1.4,1.6,2.9,1.9,4.6c0.1,0.4,0.4,0.7,0.9,0.8l3.3,0.4V30.1z"></path></g><g><path d="M47.8,20.2C43,20.2,39,24.2,39,29s3.9,8.8,8.8,8.8c4.8,0,8.8-3.9,8.8-8.8S52.7,20.2,47.8,20.2z M47.8,35.8    c-3.7,0-6.8-3-6.8-6.8c0-3.7,3-6.8,6.8-6.8c3.7,0,6.8,3,6.8,6.8C54.6,32.7,51.6,35.8,47.8,35.8z"></path></g></g></svg>