<svg height='100px' width='100px'  fill="#b3b3b3" xmlns="http://www.w3.org/2000/svg" xmlns:xlink="http://www.w3.org/1999/xlink" version="1.1" x="0px" y="0px" viewBox="0 0 53 53" style="enable-background:new 0 0 53 53;" xml:space="preserve"><g><path d="M38.7900391,14.260376c-0.0085449-0.0094604-0.0114136-0.0217896-0.0205078-0.0308838   c-0.0100098-0.0100098-0.0234375-0.0131836-0.0338135-0.0224609C35.5949707,11.0825195,31.2698364,9.1474609,26.5,9.1474609   c-4.7685547,0-9.0925903,1.9341431-12.2330933,5.0571899c-0.0115356,0.0101929-0.0263672,0.0137939-0.0374146,0.0248413   c-0.0103149,0.0103149-0.0136108,0.0241699-0.0231934,0.0349121c-3.1282959,3.1412354-5.0656738,7.4692993-5.0656738,12.2424316   c0,4.774353,1.9411621,9.1036987,5.0753784,12.2433472c0.0057373,0.0061646,0.0075073,0.0143433,0.0134888,0.0203247   c0.0063477,0.0063477,0.0149536,0.0082397,0.0214844,0.0142822c3.1417236,3.1295166,7.4727173,5.067749,12.2490234,5.067749   c4.7775879,0,9.1096802-1.939209,12.2516479-5.0701904c0.0053711-0.0050659,0.0126343-0.0065918,0.0178833-0.0118408   c0.0048218-0.0048218,0.0061646-0.0114136,0.0108643-0.0163574c3.1364746-3.1399536,5.0789795-7.4710083,5.0789795-12.2473145   C43.859375,21.7318115,41.9205322,17.4019775,38.7900391,14.260376z M41.2558594,27.25h1.0658569   c-0.1779785,3.8061523-1.6994019,7.2584839-4.1090698,9.90271l-0.7487793-0.7493896   c-0.2919922-0.2919922-0.7666016-0.2939453-1.0605469,0c-0.2929688,0.2929688-0.2929688,0.7675781,0,1.0605469l0.74823,0.7487793   C34.507019,40.6170654,31.0553589,42.135498,27.25,42.3145752v-1.0587158c0-0.4140625-0.3359375-0.75-0.75-0.75   s-0.75,0.3359375-0.75,0.75v1.0587158c-3.805603-0.1790771-7.2574463-1.6976929-9.9020386-4.102417l0.7477417-0.748291   c0.2929688-0.2929688,0.2929688-0.7675781,0-1.0605469c-0.2939453-0.2939453-0.7685547-0.2919922-1.0605469,0l-0.748291,0.7488403   c-2.4094238-2.644165-3.930603-6.0962524-4.1085815-9.9021606h1.0658569c0.4140625,0,0.75-0.3359375,0.75-0.75   s-0.3359375-0.75-0.75-0.75h-1.0651855c0.1809082-3.8052979,1.7022095-7.2566528,4.1101685-9.9003296l0.7460327,0.7460327   c0.1464844,0.1464844,0.3378906,0.2197266,0.5302734,0.2197266s0.3837891-0.0732422,0.5302734-0.2197266   c0.2929688-0.2929688,0.2929688-0.7675781,0-1.0605469l-0.7456665-0.7456665   c2.6443481-2.4056396,6.0953369-3.9247437,9.8999634-4.1040039v1.0586548c0,0.4140625,0.3359375,0.75,0.75,0.75   s0.75-0.3359375,0.75-0.75v-1.0586548c3.8043823,0.1791992,7.255127,1.6981201,9.8994751,4.1035156l-0.7461548,0.7461548   c-0.2929688,0.2929688-0.2929688,0.7675781,0,1.0605469c0.1464844,0.1464844,0.3378906,0.2197266,0.5302734,0.2197266   s0.3837891-0.0732422,0.5302734-0.2197266l0.746521-0.746521C40.6186523,18.492981,42.1401367,21.944397,42.3210449,25.75   h-1.0651855c-0.4140625,0-0.75,0.3359375-0.75,0.75S40.8417969,27.25,41.2558594,27.25z"></path><path d="M26.5,46.9228516c-11.2646484,0-20.4296875-9.1582031-20.4296875-20.4160156c0-0.4140625-0.3359375-0.75-0.75-0.75   s-0.75,0.3359375-0.75,0.75c0,12.0849609,9.8378906,21.9160156,21.9296875,21.9160156c0.4140625,0,0.75-0.3359375,0.75-0.75   S26.9140625,46.9228516,26.5,46.9228516z"></path><path d="M6.6103516,24.3681641c0.1464844,0.1464844,0.3378906,0.2197266,0.5302734,0.2197266   s0.3837891-0.0732422,0.5302734-0.2197266c0.2929688-0.2929688,0.2929688-0.7675781,0-1.0605469l-1.8222656-1.8222656   c-0.2919922-0.2929688-0.7666016-0.2929688-1.0605469,0l-1.8183594,1.8173828   c-0.2929688,0.2929688-0.2929688,0.7675781,0,1.0605469c0.2929688,0.2919922,0.7675781,0.2939453,1.0605469,0l1.2880859-1.2871094   L6.6103516,24.3681641z"></path><path d="M26.5,6.0771484c11.2646484,0,20.4296875,9.1650391,20.4296875,20.4296875c0,0.4140625,0.3359375,0.75,0.75,0.75   s0.75-0.3359375,0.75-0.75c0-12.0917969-9.8378906-21.9296875-21.9296875-21.9296875c-0.4140625,0-0.75,0.3359375-0.75,0.75   S26.0859375,6.0771484,26.5,6.0771484z"></path><path d="M50.0302734,28.5361328c-0.2929688-0.2919922-0.7675781-0.2939453-1.0605469,0l-1.2929688,1.2919922l-1.2871094-1.2871094   c-0.2929688-0.2929688-0.7675781-0.2929688-1.0605469,0s-0.2929688,0.7675781,0,1.0605469l1.8173828,1.8173828   c0.1464844,0.1464844,0.3378906,0.2197266,0.5302734,0.2197266c0.1914063,0,0.3837891-0.0732422,0.5302734-0.2197266   l1.8232422-1.8222656C50.3232422,29.3037109,50.3232422,28.8291016,50.0302734,28.5361328z"></path><path d="M32.0185547,19.2988281l-4.5695801,4.8905029C27.1558838,24.0687256,26.8361206,24,26.5,24   c-1.3808594,0-2.5039063,1.1230469-2.5039063,2.5039063c0,1.1138916,0.7409668,2.0489502,1.7539063,2.3689575v4.8439331   c0,0.4140625,0.3359375,0.75,0.75,0.75s0.75-0.3359375,0.75-0.75v-4.8439331   c1.0130005-0.3200073,1.7539063-1.2550049,1.7539063-2.3689575c0-0.4986572-0.1503906-0.9611816-0.4025269-1.3518677   l4.5128784-4.8297729c0.2832031-0.3027344,0.2666016-0.7773438-0.0361328-1.0595703   C32.7753906,18.9794922,32.3017578,18.9960938,32.0185547,19.2988281z M26.5,27.5   c-0.5537109,0-1.0039063-0.4472656-1.0039063-0.9960938C25.4960938,25.9501953,25.9462891,25.5,26.5,25.5   s1.0039063,0.4501953,1.0039063,1.0039063C27.5039063,27.0527344,27.0537109,27.5,26.5,27.5z"></path></g></svg>